%TF.GenerationSoftware,KiCad,Pcbnew,8.0.6*%
%TF.CreationDate,2024-11-01T16:23:12+09:00*%
%TF.ProjectId,powerups,706f7765-7275-4707-932e-6b696361645f,0.9.2*%
%TF.SameCoordinates,Original*%
%TF.FileFunction,Copper,L1,Top*%
%TF.FilePolarity,Positive*%
%FSLAX46Y46*%
G04 Gerber Fmt 4.6, Leading zero omitted, Abs format (unit mm)*
G04 Created by KiCad (PCBNEW 8.0.6) date 2024-11-01 16:23:12*
%MOMM*%
%LPD*%
G01*
G04 APERTURE LIST*
%TA.AperFunction,ComponentPad*%
%ADD10C,5.000000*%
%TD*%
%TA.AperFunction,ComponentPad*%
%ADD11R,1.700000X1.700000*%
%TD*%
%TA.AperFunction,ComponentPad*%
%ADD12O,1.700000X1.700000*%
%TD*%
%TA.AperFunction,ComponentPad*%
%ADD13R,2.400000X2.400000*%
%TD*%
%TA.AperFunction,ComponentPad*%
%ADD14C,2.400000*%
%TD*%
%TA.AperFunction,ComponentPad*%
%ADD15C,1.700000*%
%TD*%
%TA.AperFunction,ComponentPad*%
%ADD16R,0.850000X0.850000*%
%TD*%
%TA.AperFunction,ComponentPad*%
%ADD17O,0.850000X0.850000*%
%TD*%
%TA.AperFunction,ViaPad*%
%ADD18C,0.604800*%
%TD*%
%TA.AperFunction,Conductor*%
%ADD19C,0.152400*%
%TD*%
%TA.AperFunction,Conductor*%
%ADD20C,0.150000*%
%TD*%
%TA.AperFunction,Conductor*%
%ADD21C,0.304800*%
%TD*%
%TA.AperFunction,Conductor*%
%ADD22C,1.371600*%
%TD*%
%TA.AperFunction,Conductor*%
%ADD23C,0.508000*%
%TD*%
%TA.AperFunction,Conductor*%
%ADD24C,0.203200*%
%TD*%
G04 APERTURE END LIST*
D10*
%TO.P,H1,1,1*%
%TO.N,unconnected-(H1-Pad1)*%
X99690000Y-85280000D03*
%TD*%
%TO.P,H2,1,1*%
%TO.N,unconnected-(H2-Pad1)*%
X157690000Y-85280000D03*
%TD*%
%TO.P,H4,1,1*%
%TO.N,unconnected-(H4-Pad1)*%
X157690000Y-108780000D03*
%TD*%
%TO.P,H3,1,1*%
%TO.N,unconnected-(H3-Pad1)*%
X99690000Y-108780000D03*
%TD*%
D11*
%TO.P,CONN4,1,Pin_1*%
%TO.N,+3.3V*%
X104565000Y-86550000D03*
D12*
%TO.P,CONN4,2,Pin_2*%
%TO.N,+5V*%
X104565000Y-84010000D03*
%TO.P,CONN4,3,Pin_3*%
%TO.N,/SDA*%
X107105000Y-86550000D03*
%TO.P,CONN4,4,Pin_4*%
%TO.N,+5V*%
X107105000Y-84010000D03*
%TO.P,CONN4,5,Pin_5*%
%TO.N,/SCL*%
X109645000Y-86550000D03*
%TO.P,CONN4,6,Pin_6*%
%TO.N,GND*%
X109645000Y-84010000D03*
%TO.P,CONN4,7,Pin_7*%
%TO.N,unconnected-(CONN4-Pin_7-Pad7)*%
X112185000Y-86550000D03*
%TO.P,CONN4,8,Pin_8*%
%TO.N,unconnected-(CONN4-Pin_8-Pad8)*%
X112185000Y-84010000D03*
%TO.P,CONN4,9,Pin_9*%
%TO.N,GND*%
X114725000Y-86550000D03*
%TO.P,CONN4,10,Pin_10*%
%TO.N,unconnected-(CONN4-Pin_10-Pad10)*%
X114725000Y-84010000D03*
%TO.P,CONN4,11,Pin_11*%
%TO.N,/IO1*%
X117265000Y-86550000D03*
%TO.P,CONN4,12,Pin_12*%
%TO.N,unconnected-(CONN4-Pin_12-Pad12)*%
X117265000Y-84010000D03*
%TO.P,CONN4,13,Pin_13*%
%TO.N,unconnected-(CONN4-Pin_13-Pad13)*%
X119805000Y-86550000D03*
%TO.P,CONN4,14,Pin_14*%
%TO.N,GND*%
X119805000Y-84010000D03*
%TO.P,CONN4,15,Pin_15*%
%TO.N,unconnected-(CONN4-Pin_15-Pad15)*%
X122345000Y-86550000D03*
%TO.P,CONN4,16,Pin_16*%
%TO.N,/IO2*%
X122345000Y-84010000D03*
%TD*%
D11*
%TO.P,CONN3,1,Pin_1*%
%TO.N,+5V*%
X119890000Y-110140000D03*
D12*
%TO.P,CONN3,2,Pin_2*%
%TO.N,+3.3V*%
X117350000Y-110140000D03*
%TO.P,CONN3,3,Pin_3*%
%TO.N,/SCL*%
X114810000Y-110140000D03*
%TO.P,CONN3,4,Pin_4*%
%TO.N,/SDA*%
X112270000Y-110140000D03*
%TO.P,CONN3,5,Pin_5*%
%TO.N,/IO1*%
X109730000Y-110140000D03*
%TO.P,CONN3,6,Pin_6*%
%TO.N,/IO2*%
X107190000Y-110140000D03*
%TO.P,CONN3,7,Pin_7*%
%TO.N,GND*%
X104650000Y-110140000D03*
%TD*%
D11*
%TO.P,CONN5,1,Pin_1*%
%TO.N,Net-(CONN5-Pin_1)*%
X116380000Y-92300000D03*
D12*
%TO.P,CONN5,2,Pin_2*%
%TO.N,GND*%
X116380000Y-94840000D03*
%TO.P,CONN5,3,Pin_3*%
%TO.N,VCC*%
X116380000Y-97380000D03*
%TO.P,CONN5,4,Pin_4*%
%TO.N,Net-(CONN5-Pin_4)*%
X116380000Y-99920000D03*
%TD*%
D13*
%TO.P,CONN1,1,Pin_1*%
%TO.N,Net-(CONN1-Pin_1)*%
X126940000Y-96800000D03*
D14*
%TO.P,CONN1,2,Pin_2*%
%TO.N,GND*%
X130440000Y-96800000D03*
%TD*%
D15*
%TO.P,R4,1*%
%TO.N,Net-(R4-Pad1)*%
X140020000Y-106470000D03*
D12*
%TO.P,R4,2*%
%TO.N,+5V*%
X140020000Y-109010000D03*
%TD*%
D13*
%TO.P,CONN7,1,Pin_1*%
%TO.N,Net-(CONN7-Pin_1)*%
X146190000Y-95275000D03*
D14*
%TO.P,CONN7,2,Pin_2*%
%TO.N,GND*%
X146190000Y-98775000D03*
%TD*%
D16*
%TO.P,CONN2,1,Pin_1*%
%TO.N,VCC*%
X101580000Y-90720000D03*
D17*
%TO.P,CONN2,2,Pin_2*%
%TO.N,/BTN*%
X101580000Y-91720000D03*
%TD*%
D15*
%TO.P,R13,1*%
%TO.N,/bq25622e/VSYS*%
X142270000Y-90640000D03*
D12*
%TO.P,R13,2*%
%TO.N,Net-(C6-Pad1)*%
X144810000Y-90640000D03*
%TD*%
D15*
%TO.P,R5,1*%
%TO.N,Net-(CONN7-Pin_1)*%
X138170000Y-94360000D03*
D12*
%TO.P,R5,2*%
%TO.N,Net-(C2-Pad1)*%
X138170000Y-96900000D03*
%TD*%
D15*
%TO.P,R24,1*%
%TO.N,Net-(Q3-D)*%
X145286250Y-104245000D03*
D12*
%TO.P,R24,2*%
%TO.N,+5V*%
X145286250Y-106785000D03*
%TD*%
D11*
%TO.P,TP1,1,1*%
%TO.N,Net-(Q2-G)*%
X158590000Y-103700000D03*
%TD*%
D15*
%TO.P,R18,1*%
%TO.N,Net-(C1-Pad1)*%
X150986250Y-88155000D03*
D12*
%TO.P,R18,2*%
%TO.N,Net-(Q2-D)*%
X150986250Y-90695000D03*
%TD*%
D16*
%TO.P,CONN8,1,Pin_1*%
%TO.N,/bq25622e/TS*%
X134110000Y-94920000D03*
D17*
%TO.P,CONN8,2,Pin_2*%
%TO.N,GND*%
X135110000Y-94920000D03*
%TD*%
D18*
%TO.N,GND*%
X143440000Y-111200000D03*
X141050000Y-83580000D03*
X100460000Y-91870000D03*
X131740000Y-94670000D03*
X154420000Y-110800000D03*
X134960000Y-88310000D03*
X139690000Y-84440000D03*
X108280000Y-96910000D03*
X154620000Y-84000000D03*
X128990000Y-108042000D03*
X145070000Y-101780000D03*
X101190000Y-97260000D03*
X103180000Y-110850000D03*
X145790000Y-110050000D03*
X99500000Y-98010000D03*
X136449000Y-103946583D03*
X129230000Y-106680000D03*
X147290000Y-92880000D03*
X148790000Y-83960000D03*
X116000000Y-103809000D03*
X151930000Y-82680000D03*
X155210000Y-82690000D03*
X133700000Y-90480000D03*
X142640000Y-87070000D03*
X102710000Y-92290000D03*
X137800000Y-99820000D03*
X99610000Y-101570000D03*
X103190000Y-89860000D03*
X137810000Y-106580000D03*
X114640000Y-96840000D03*
X114400000Y-94800000D03*
X155070000Y-91810000D03*
X130090000Y-107820000D03*
X134330000Y-111290000D03*
X121340000Y-106633800D03*
X102720000Y-86920000D03*
X109834000Y-89474000D03*
X138980000Y-99840000D03*
X156190000Y-105710000D03*
X138620000Y-90560000D03*
X138390000Y-104590000D03*
X121130000Y-88040000D03*
X123600000Y-85300000D03*
X137020000Y-92760000D03*
X148270000Y-111230000D03*
X140880000Y-85760000D03*
X120390000Y-102210000D03*
X136190000Y-111280000D03*
X100390000Y-104301200D03*
X97230000Y-106620000D03*
X132930000Y-96760000D03*
X98650000Y-102780000D03*
X118900000Y-88840000D03*
X139690000Y-82960000D03*
X148280000Y-100450000D03*
X108550000Y-101790000D03*
X114060000Y-100930000D03*
X120490000Y-89900000D03*
X99120000Y-96280000D03*
X109910000Y-96730000D03*
X103180000Y-108680000D03*
X147940000Y-91330000D03*
X122690000Y-109300000D03*
X159060000Y-91360000D03*
X101060000Y-103209000D03*
X153521500Y-105476638D03*
X127358685Y-105706156D03*
X102790000Y-96120000D03*
X121840000Y-91730000D03*
X106930000Y-98210000D03*
X160060000Y-87800000D03*
X111260000Y-96620000D03*
X160200000Y-106700000D03*
X101549200Y-102300000D03*
X148300000Y-102820000D03*
X97550000Y-88460000D03*
X151060000Y-83980000D03*
X102340000Y-82980000D03*
X127700000Y-99490000D03*
X123330000Y-88730000D03*
X127619113Y-105178986D03*
X119450000Y-96510000D03*
X112430000Y-102930000D03*
X128626830Y-105564645D03*
X153390000Y-104320000D03*
X136280000Y-86650000D03*
X115510000Y-106800000D03*
X156690000Y-102270000D03*
X119050000Y-95620000D03*
X142630000Y-82910000D03*
%TO.N,VCC*%
X104060000Y-99110000D03*
X138100000Y-89220000D03*
X148740000Y-89670000D03*
X104072800Y-91320000D03*
X116660000Y-103180000D03*
X118910565Y-102741511D03*
X113910000Y-90931000D03*
X109950000Y-97750000D03*
X119410000Y-99910000D03*
X99689426Y-91059426D03*
%TO.N,/QON*%
X98945000Y-99975000D03*
X123030000Y-103449000D03*
%TO.N,/bq25622e/VIN*%
X136170000Y-106990000D03*
X135170000Y-108240000D03*
X135840000Y-107720000D03*
X125920000Y-108640000D03*
X126200000Y-108050000D03*
X125370000Y-108250000D03*
%TO.N,/SDA*%
X106906669Y-96836497D03*
X102104847Y-98069000D03*
%TO.N,/IO2*%
X104670000Y-90700000D03*
X105935714Y-97997832D03*
X101041000Y-99153600D03*
%TO.N,/SCL*%
X102730000Y-97538000D03*
X107407062Y-96268200D03*
%TO.N,+3.3V*%
X107950000Y-95661000D03*
X107670000Y-89627400D03*
X103178754Y-96859000D03*
X104610000Y-89627400D03*
X108930000Y-89627400D03*
%TO.N,/IO1*%
X105887139Y-90300244D03*
X106404170Y-97402934D03*
X101563644Y-98605696D03*
%TO.N,/BTN*%
X99520644Y-94290644D03*
X109300000Y-94570000D03*
X101580000Y-93260000D03*
X101200000Y-94480000D03*
X100109356Y-95419356D03*
%TO.N,/PG*%
X117620383Y-105221000D03*
X117197091Y-98700000D03*
X109364577Y-98492800D03*
X125530000Y-105269400D03*
%TO.N,/INT*%
X130109662Y-104945908D03*
X105009222Y-104271000D03*
%TO.N,Net-(U6-SW)*%
X124150000Y-107790000D03*
X130740000Y-107210000D03*
%TO.N,/bq25622e/TS*%
X134870000Y-93741000D03*
X119783800Y-95010000D03*
%TO.N,/ALARM*%
X118650000Y-92680000D03*
X104700000Y-91960000D03*
%TO.N,/SDA0*%
X120003254Y-105525800D03*
X120632403Y-107693400D03*
X130580765Y-105538713D03*
X107059000Y-104391000D03*
%TO.N,/SCL0*%
X119520000Y-107700000D03*
X106414624Y-103707653D03*
X118880000Y-106209000D03*
X130097449Y-106121604D03*
%TO.N,/5V_PG*%
X141530000Y-87758000D03*
X111360000Y-90969000D03*
%TO.N,/LED*%
X101975201Y-94562331D03*
X108610000Y-95130000D03*
%TO.N,Net-(Q2-G)*%
X150280600Y-107702550D03*
X155160000Y-104930000D03*
X152219000Y-104960000D03*
X154770000Y-107610000D03*
%TO.N,Net-(U6-STAT)*%
X129270000Y-104440000D03*
X99060000Y-103800000D03*
%TO.N,Net-(U3-EN)*%
X142691000Y-86200000D03*
X141629000Y-86194526D03*
%TO.N,/bq25622e/VSYS*%
X131460000Y-100040000D03*
X141890000Y-92100000D03*
X129240000Y-100040000D03*
X130290000Y-99600000D03*
X140290000Y-90840000D03*
X129020000Y-101870000D03*
X130050000Y-101060000D03*
X140370000Y-89690000D03*
X140500000Y-92000000D03*
%TO.N,/5V_OUT*%
X149650000Y-88660000D03*
X110560000Y-91462800D03*
%TO.N,/5V_DIS*%
X138398039Y-99355565D03*
X109910000Y-95790000D03*
%TO.N,Net-(C1-Pad1)*%
X145140000Y-85060000D03*
X144490000Y-85420000D03*
X143810000Y-85080000D03*
%TO.N,/ST*%
X104460000Y-102180000D03*
X102800000Y-95190000D03*
X104690000Y-96140000D03*
X138600000Y-106126200D03*
%TO.N,/5V_BYP*%
X109800000Y-91462800D03*
X138708941Y-87453200D03*
%TO.N,/5V_EN*%
X153521500Y-103324800D03*
X107560000Y-102660000D03*
X155170000Y-103880000D03*
X152750000Y-106010000D03*
%TO.N,Net-(LED1-K)*%
X98680000Y-93570000D03*
X100360000Y-93010000D03*
%TO.N,Net-(CONN5-Pin_4)*%
X111210000Y-99030000D03*
%TO.N,Net-(CONN5-Pin_1)*%
X110550000Y-95030000D03*
X113890000Y-93370000D03*
%TD*%
D19*
%TO.N,GND*%
X102791200Y-92371200D02*
X100961200Y-92371200D01*
X141219974Y-85201026D02*
X140731000Y-85690000D01*
D20*
X128990000Y-108042000D02*
X129868000Y-108042000D01*
X129868000Y-108042000D02*
X130090000Y-107820000D01*
D19*
X99500000Y-98010000D02*
X99500000Y-96660000D01*
X99500000Y-96660000D02*
X99120000Y-96280000D01*
X141219974Y-85100974D02*
X141219974Y-85201026D01*
D20*
X129230000Y-106680000D02*
X129002600Y-106907400D01*
D19*
X104459000Y-94039000D02*
X102791200Y-92371200D01*
X130440000Y-96800000D02*
X132890000Y-96800000D01*
X132890000Y-96800000D02*
X132930000Y-96760000D01*
X102710000Y-92290000D02*
X104459000Y-94039000D01*
X100961200Y-92371200D02*
X100460000Y-91870000D01*
D21*
%TO.N,VCC*%
X116761000Y-97761000D02*
X116649408Y-97649408D01*
X147460000Y-88670000D02*
X138650000Y-88670000D01*
X118021000Y-90931000D02*
X113910000Y-90931000D01*
X103270000Y-90720000D02*
X101580000Y-90720000D01*
X117261000Y-97761000D02*
X116761000Y-97761000D01*
X104070000Y-99100000D02*
X104060000Y-99110000D01*
X115772800Y-97987200D02*
X116110592Y-97649408D01*
X103870000Y-91320000D02*
X103270000Y-90720000D01*
X104072800Y-91320000D02*
X103870000Y-91320000D01*
X120460600Y-93370600D02*
X133949400Y-93370600D01*
X101580000Y-90720000D02*
X100028852Y-90720000D01*
X112307200Y-97987200D02*
X115772800Y-97987200D01*
X138650000Y-88670000D02*
X138100000Y-89220000D01*
X113910000Y-90931000D02*
X112771000Y-92070000D01*
X118472076Y-103180000D02*
X118910565Y-102741511D01*
X116660000Y-103180000D02*
X118472076Y-103180000D01*
X112070000Y-97750000D02*
X112307200Y-97987200D01*
X119410000Y-99910000D02*
X117261000Y-97761000D01*
X147460000Y-88670000D02*
X147740000Y-88670000D01*
X118145000Y-91055000D02*
X118021000Y-90931000D01*
X100028852Y-90720000D02*
X99689426Y-91059426D01*
X119315000Y-92225000D02*
X120460600Y-93370600D01*
X133949400Y-93370600D02*
X138100000Y-89220000D01*
X109950000Y-97750000D02*
X112070000Y-97750000D01*
X109248666Y-97750000D02*
X109950000Y-97750000D01*
X106368816Y-92070000D02*
X105618816Y-91320000D01*
X104060000Y-99110000D02*
X107888666Y-99110000D01*
X147740000Y-88670000D02*
X148740000Y-89670000D01*
X107888666Y-99110000D02*
X109248666Y-97750000D01*
X112771000Y-92070000D02*
X106368816Y-92070000D01*
X105618816Y-91320000D02*
X104072800Y-91320000D01*
X119315000Y-92225000D02*
X118145000Y-91055000D01*
D19*
%TO.N,/QON*%
X114160200Y-100040200D02*
X99010200Y-100040200D01*
X123030000Y-103449000D02*
X120941200Y-101360200D01*
X99010200Y-100040200D02*
X98945000Y-99975000D01*
X115480200Y-101360200D02*
X114160200Y-100040200D01*
X120941200Y-101360200D02*
X115480200Y-101360200D01*
D22*
%TO.N,/bq25622e/VIN*%
X132079078Y-108210000D02*
X130719078Y-109570000D01*
X136170000Y-106990000D02*
X136170000Y-107380000D01*
X127070000Y-109570000D02*
X125780000Y-108280000D01*
X136170000Y-107380000D02*
X135340000Y-108210000D01*
D19*
X125920000Y-108640000D02*
X125920000Y-108330000D01*
D22*
X130719078Y-109570000D02*
X127070000Y-109570000D01*
X135340000Y-108210000D02*
X132079078Y-108210000D01*
D19*
X125920000Y-108330000D02*
X126200000Y-108050000D01*
%TO.N,/SDA*%
X105931546Y-96820000D02*
X106390000Y-96820000D01*
X104180000Y-97845000D02*
X104906546Y-97845000D01*
X104906546Y-97845000D02*
X105931546Y-96820000D01*
X103305000Y-97935000D02*
X103395000Y-97845000D01*
X103395000Y-97845000D02*
X104180000Y-97845000D01*
X106390000Y-96820000D02*
X106890172Y-96820000D01*
X103171000Y-98069000D02*
X102104847Y-98069000D01*
X106890172Y-96820000D02*
X106906669Y-96836497D01*
X103305000Y-97935000D02*
X103171000Y-98069000D01*
D23*
%TO.N,+5V*%
X105267500Y-83307500D02*
X104565000Y-84010000D01*
X107220000Y-82753600D02*
X105821400Y-82753600D01*
D22*
X103321400Y-88486800D02*
X103570000Y-88238200D01*
D23*
X106690000Y-83130000D02*
X106690000Y-83595000D01*
X104020000Y-84730000D02*
X103500000Y-84210000D01*
X107105000Y-82868600D02*
X107220000Y-82753600D01*
D22*
X104920000Y-108280000D02*
X118030000Y-108280000D01*
X131350140Y-111094200D02*
X132697170Y-109747170D01*
D23*
X107786400Y-82753600D02*
X108930000Y-82753600D01*
X105587500Y-82987500D02*
X105267500Y-83307500D01*
X116008600Y-87578600D02*
X116270000Y-87840000D01*
X105445000Y-83130000D02*
X106690000Y-83130000D01*
X105267500Y-83307500D02*
X105445000Y-83130000D01*
D22*
X98831800Y-105441800D02*
X102081800Y-105441800D01*
D23*
X108930000Y-82753600D02*
X107220000Y-82753600D01*
D22*
X119890000Y-110140000D02*
X119890000Y-110290000D01*
D23*
X110832200Y-85266400D02*
X113377800Y-85266400D01*
X103500000Y-83650000D02*
X104162500Y-82987500D01*
X107592500Y-84877500D02*
X107782500Y-84687500D01*
X107105000Y-84010000D02*
X107105000Y-82868600D01*
X103500000Y-84210000D02*
X103500000Y-83650000D01*
D22*
X97375800Y-91760000D02*
X97375800Y-103985800D01*
X116218762Y-87891238D02*
X115871800Y-88238200D01*
X107105000Y-84010000D02*
X104565000Y-84010000D01*
X132704000Y-109754000D02*
X136910948Y-109754000D01*
D23*
X107105000Y-84010000D02*
X107105000Y-83435000D01*
D22*
X102081800Y-105441800D02*
X104920000Y-108280000D01*
D23*
X108361400Y-85266400D02*
X107782500Y-84687500D01*
X113441400Y-87621400D02*
X113660000Y-87840000D01*
X116008600Y-83489582D02*
X116008600Y-85460000D01*
X108361400Y-85266400D02*
X108361400Y-88179600D01*
X107786400Y-82753600D02*
X107782500Y-82757500D01*
X110928600Y-88226800D02*
X110940000Y-88238200D01*
X105821400Y-82753600D02*
X105587500Y-82987500D01*
X110928600Y-83042200D02*
X110640000Y-82753600D01*
D22*
X120694200Y-111094200D02*
X131350140Y-111094200D01*
X132697170Y-109747170D02*
X132704000Y-109754000D01*
X97375800Y-103985800D02*
X98831800Y-105441800D01*
D23*
X112705418Y-82753600D02*
X110640000Y-82753600D01*
X115815000Y-85266400D02*
X116008600Y-85460000D01*
X107782500Y-84687500D02*
X107105000Y-84010000D01*
X107782500Y-82757500D02*
X107782500Y-84687500D01*
X110832200Y-85266400D02*
X108361400Y-85266400D01*
X112705418Y-82753600D02*
X115272618Y-82753600D01*
X110928600Y-85170000D02*
X110928600Y-88226800D01*
X105848600Y-85293600D02*
X105848600Y-87681076D01*
D22*
X119890000Y-110290000D02*
X120694200Y-111094200D01*
D23*
X116008600Y-85460000D02*
X116008600Y-87578600D01*
X113377800Y-85266400D02*
X115815000Y-85266400D01*
X104022500Y-84727500D02*
X104020000Y-84730000D01*
D22*
X115871800Y-88238200D02*
X103570000Y-88238200D01*
D23*
X113441400Y-85330000D02*
X113441400Y-87621400D01*
X105432500Y-84877500D02*
X105848600Y-85293600D01*
X107105000Y-83435000D02*
X107786400Y-82753600D01*
X112705418Y-82753600D02*
X113441400Y-83489582D01*
D22*
X140977050Y-111094200D02*
X145286250Y-106785000D01*
D23*
X105282500Y-84727500D02*
X104022500Y-84727500D01*
X110928600Y-85170000D02*
X110928600Y-83042200D01*
X105432500Y-84877500D02*
X107592500Y-84877500D01*
D22*
X138251148Y-111094200D02*
X140977050Y-111094200D01*
D23*
X113441400Y-83489582D02*
X113441400Y-85330000D01*
D22*
X136910948Y-109754000D02*
X138251148Y-111094200D01*
D23*
X105432500Y-84877500D02*
X105282500Y-84727500D01*
D22*
X100649000Y-88486800D02*
X97375800Y-91760000D01*
D23*
X110640000Y-82753600D02*
X108930000Y-82753600D01*
D22*
X118030000Y-108280000D02*
X119890000Y-110140000D01*
D23*
X104162500Y-82987500D02*
X105587500Y-82987500D01*
X110928600Y-85170000D02*
X110832200Y-85266400D01*
X113377800Y-85266400D02*
X113441400Y-85330000D01*
X106690000Y-83595000D02*
X107105000Y-84010000D01*
X104565000Y-84010000D02*
X105432500Y-84877500D01*
X115272618Y-82753600D02*
X116008600Y-83489582D01*
D22*
X100649000Y-88486800D02*
X103321400Y-88486800D01*
D19*
%TO.N,/IO2*%
X116200000Y-89457400D02*
X114670000Y-89457400D01*
X105881773Y-98051773D02*
X105878227Y-98051773D01*
X118500000Y-87420000D02*
X116462600Y-89457400D01*
X105878227Y-98051773D02*
X105460000Y-98470000D01*
X105973816Y-91136184D02*
X105537632Y-90700000D01*
X103731052Y-98470000D02*
X105460000Y-98470000D01*
X118500000Y-86070000D02*
X118500000Y-87420000D01*
X109140000Y-91350000D02*
X106187632Y-91350000D01*
X112968448Y-89828448D02*
X112696896Y-90100000D01*
X106187632Y-91350000D02*
X105973816Y-91136184D01*
X119330000Y-85240000D02*
X118500000Y-86070000D01*
X110390000Y-90100000D02*
X109140000Y-91350000D01*
X110658948Y-90100000D02*
X110390000Y-90100000D01*
X113339496Y-89457400D02*
X112968448Y-89828448D01*
X116462600Y-89457400D02*
X116200000Y-89457400D01*
X103047452Y-99153600D02*
X103731052Y-98470000D01*
X114670000Y-89457400D02*
X113339496Y-89457400D01*
X122345000Y-84010000D02*
X121115000Y-85240000D01*
X121115000Y-85240000D02*
X119330000Y-85240000D01*
X105935714Y-97997832D02*
X105881773Y-98051773D01*
X101041000Y-99153600D02*
X103047452Y-99153600D01*
X112696896Y-90100000D02*
X112600000Y-90100000D01*
X105537632Y-90700000D02*
X104670000Y-90700000D01*
X112600000Y-90100000D02*
X110658948Y-90100000D01*
%TO.N,/SCL*%
X104780294Y-97540200D02*
X106052294Y-96268200D01*
X102730000Y-97538000D02*
X102732200Y-97540200D01*
X102732200Y-97540200D02*
X104780294Y-97540200D01*
X106052294Y-96268200D02*
X107407062Y-96268200D01*
D21*
%TO.N,+3.3V*%
X105894478Y-95887200D02*
X106620000Y-95887200D01*
X107670000Y-89627400D02*
X104610000Y-89627400D01*
X103178754Y-96859000D02*
X104922678Y-96859000D01*
X108930000Y-89627400D02*
X107670000Y-89627400D01*
X106846200Y-95661000D02*
X107950000Y-95661000D01*
X104922678Y-96859000D02*
X105894478Y-95887200D01*
X106620000Y-95887200D02*
X106846200Y-95661000D01*
D19*
%TO.N,/IO1*%
X101563644Y-98605696D02*
X101569340Y-98600000D01*
X116250557Y-89152600D02*
X115050000Y-89152600D01*
X105779664Y-97402934D02*
X106404170Y-97402934D01*
X109168948Y-90890000D02*
X106476895Y-90890000D01*
X113213244Y-89152600D02*
X113034696Y-89331148D01*
X117265000Y-88138157D02*
X116250557Y-89152600D01*
X110263748Y-89795200D02*
X110085200Y-89973748D01*
X105022598Y-98160000D02*
X105779664Y-97402934D01*
X112717922Y-89647922D02*
X112570644Y-89795200D01*
X112655844Y-89710000D02*
X112650000Y-89710000D01*
X115050000Y-89152600D02*
X113213244Y-89152600D01*
X112570644Y-89795200D02*
X112110000Y-89795200D01*
X117265000Y-86550000D02*
X117265000Y-88138157D01*
X101569340Y-98600000D02*
X103170000Y-98600000D01*
X112110000Y-89795200D02*
X110263748Y-89795200D01*
X113034696Y-89331148D02*
X112717922Y-89647922D01*
X106476895Y-90890000D02*
X105887139Y-90300244D01*
X110085200Y-89973748D02*
X109249474Y-90809474D01*
X109249474Y-90809474D02*
X109168948Y-90890000D01*
X103610000Y-98160000D02*
X105022598Y-98160000D01*
X103170000Y-98600000D02*
X103610000Y-98160000D01*
%TO.N,/BTN*%
X100109356Y-95419356D02*
X100260644Y-95419356D01*
X100549356Y-94290644D02*
X99520644Y-94290644D01*
X100260644Y-95419356D02*
X101200000Y-94480000D01*
X109300000Y-94570000D02*
X103710000Y-94570000D01*
X103710000Y-94570000D02*
X102400000Y-93260000D01*
X101170000Y-93670000D02*
X101580000Y-93260000D01*
X102400000Y-93260000D02*
X101580000Y-93260000D01*
X101170000Y-93670000D02*
X100549356Y-94290644D01*
%TO.N,/PG*%
X117620383Y-105221000D02*
X117846583Y-104994800D01*
X109364577Y-98492800D02*
X116989891Y-98492800D01*
X117846583Y-104994800D02*
X125255400Y-104994800D01*
X116989891Y-98492800D02*
X117197091Y-98700000D01*
X125255400Y-104994800D02*
X125530000Y-105269400D01*
D20*
%TO.N,/INT*%
X105331038Y-104271000D02*
X105009222Y-104271000D01*
X126789118Y-106104000D02*
X127192559Y-106507441D01*
X127285118Y-106600000D02*
X128560749Y-106600000D01*
X127192559Y-106507441D02*
X127285118Y-106600000D01*
X128820374Y-106340374D02*
X129010548Y-106150200D01*
X129984092Y-104945908D02*
X130109662Y-104945908D01*
X120620549Y-106104000D02*
X120217274Y-106507274D01*
X129567649Y-105970000D02*
X129567649Y-105362351D01*
X116814244Y-107043600D02*
X115707844Y-105937200D01*
X126789118Y-106104000D02*
X120620549Y-106104000D01*
X127192559Y-106507441D02*
X126851130Y-106166012D01*
X106819393Y-105759355D02*
X105331038Y-104271000D01*
X115707844Y-105937200D02*
X106997237Y-105937200D01*
X129010548Y-106150200D02*
X129387449Y-106150200D01*
X119680948Y-107043600D02*
X116814244Y-107043600D01*
X128560749Y-106600000D02*
X128820374Y-106340374D01*
X120217274Y-106507274D02*
X119680948Y-107043600D01*
X126851130Y-106166012D02*
X126789118Y-106104000D01*
X129567649Y-105362351D02*
X129984092Y-104945908D01*
X129387449Y-106150200D02*
X129567649Y-105970000D01*
X106997237Y-105937200D02*
X106819393Y-105759355D01*
D24*
%TO.N,Net-(U6-SW)*%
X130329800Y-108630200D02*
X127567069Y-108630200D01*
X130740000Y-107210000D02*
X130740000Y-108220000D01*
X126756400Y-107819531D02*
X126618434Y-107681566D01*
X127567069Y-108630200D02*
X126756400Y-107819531D01*
X125840000Y-107340200D02*
X124599800Y-107340200D01*
X124599800Y-107340200D02*
X124150000Y-107790000D01*
X126778434Y-107841566D02*
X126618434Y-107681566D01*
X130740000Y-108220000D02*
X130329800Y-108630200D01*
X126277068Y-107340200D02*
X125840000Y-107340200D01*
X126618434Y-107681566D02*
X126498434Y-107561566D01*
X126498434Y-107561566D02*
X126277068Y-107340200D01*
D19*
%TO.N,/bq25622e/TS*%
X119856900Y-94936900D02*
X119856900Y-94839500D01*
X119856900Y-94839500D02*
X120640000Y-94056400D01*
X134870000Y-93741000D02*
X134554600Y-94056400D01*
X119783800Y-95010000D02*
X119856900Y-94936900D01*
X134554600Y-94056400D02*
X120640000Y-94056400D01*
%TO.N,/ALARM*%
X117800000Y-93530000D02*
X116340000Y-93530000D01*
X106211000Y-92451000D02*
X106010000Y-92250000D01*
X116340000Y-93530000D02*
X114960000Y-93530000D01*
X105720000Y-91960000D02*
X104700000Y-91960000D01*
X113881000Y-92451000D02*
X110710000Y-92451000D01*
X110710000Y-92451000D02*
X106211000Y-92451000D01*
X114960000Y-93530000D02*
X113881000Y-92451000D01*
X118650000Y-92680000D02*
X117800000Y-93530000D01*
X106010000Y-92250000D02*
X105720000Y-91960000D01*
D20*
%TO.N,/SDA0*%
X130627249Y-105585197D02*
X130627249Y-106459660D01*
X129574709Y-107512200D02*
X126914344Y-107512200D01*
D19*
X116430000Y-105000000D02*
X107668000Y-105000000D01*
D20*
X122978800Y-107011200D02*
X122296600Y-107693400D01*
X130627249Y-106459660D02*
X129574709Y-107512200D01*
X126413344Y-107011200D02*
X122978800Y-107011200D01*
D19*
X118394200Y-105525800D02*
X118168000Y-105752000D01*
X118168000Y-105752000D02*
X117182000Y-105752000D01*
D20*
X130580765Y-105538713D02*
X130627249Y-105585197D01*
D19*
X120003254Y-105525800D02*
X118394200Y-105525800D01*
X107668000Y-105000000D02*
X107059000Y-104391000D01*
X120003254Y-105525800D02*
X119851054Y-105678000D01*
D20*
X126914344Y-107512200D02*
X126413344Y-107011200D01*
D19*
X117182000Y-105752000D02*
X116430000Y-105000000D01*
D20*
X122296600Y-107693400D02*
X120632403Y-107693400D01*
%TO.N,/SCL0*%
X130097449Y-106121604D02*
X130097449Y-106561802D01*
X106414624Y-104495875D02*
X106414624Y-103707653D01*
X118880000Y-106209000D02*
X118350000Y-106209000D01*
X129449451Y-107209800D02*
X128840000Y-107209800D01*
X118350000Y-106209000D02*
X116939000Y-106209000D01*
X126664901Y-106835099D02*
X126538602Y-106708800D01*
X121820000Y-107163600D02*
X120630000Y-107163600D01*
X122574251Y-106708800D02*
X122119451Y-107163600D01*
X123980000Y-106708800D02*
X122574251Y-106708800D01*
X116060000Y-105330000D02*
X107248749Y-105330000D01*
X127039602Y-107209800D02*
X126664901Y-106835099D01*
X128840000Y-107209800D02*
X127039602Y-107209800D01*
X120630000Y-107163600D02*
X120056400Y-107163600D01*
X126538602Y-106708800D02*
X124430000Y-106708800D01*
X122119451Y-107163600D02*
X121820000Y-107163600D01*
X120056400Y-107163600D02*
X119520000Y-107700000D01*
X116939000Y-106209000D02*
X116060000Y-105330000D01*
X107248749Y-105330000D02*
X106414624Y-104495875D01*
X130097449Y-106561802D02*
X129449451Y-107209800D01*
X124430000Y-106708800D02*
X123980000Y-106708800D01*
D19*
%TO.N,/5V_PG*%
X141303800Y-87984200D02*
X138034748Y-87984200D01*
X133334148Y-92684800D02*
X132830000Y-92684800D01*
X113134500Y-90524500D02*
X112690000Y-90969000D01*
X119299934Y-91240066D02*
X120744668Y-92684800D01*
X138034748Y-87984200D02*
X137134474Y-88884474D01*
X113790000Y-90067000D02*
X113592000Y-90067000D01*
X113592000Y-90067000D02*
X113134500Y-90524500D01*
X120744668Y-92684800D02*
X132230000Y-92684800D01*
X132830000Y-92684800D02*
X132230000Y-92684800D01*
X118126868Y-90067000D02*
X119299934Y-91240066D01*
X112690000Y-90969000D02*
X111360000Y-90969000D01*
X113790000Y-90067000D02*
X118126868Y-90067000D01*
X141530000Y-87758000D02*
X141303800Y-87984200D01*
X137134474Y-88884474D02*
X133334148Y-92684800D01*
%TO.N,/LED*%
X106580000Y-95300000D02*
X103660948Y-95300000D01*
X108610000Y-95130000D02*
X106750000Y-95130000D01*
X106750000Y-95130000D02*
X106580000Y-95300000D01*
X102923279Y-94562331D02*
X101975201Y-94562331D01*
X103660948Y-95300000D02*
X102923279Y-94562331D01*
%TO.N,Net-(Q2-G)*%
X154770000Y-107610000D02*
X150373150Y-107610000D01*
X152219000Y-104960000D02*
X152249000Y-104930000D01*
X155144362Y-104945638D02*
X155160000Y-104930000D01*
X156310000Y-103780000D02*
X159250000Y-103780000D01*
X150373150Y-107610000D02*
X150280600Y-107702550D01*
X155160000Y-104930000D02*
X156310000Y-103780000D01*
X152249000Y-104930000D02*
X155160000Y-104930000D01*
%TO.N,Net-(U6-STAT)*%
X105229393Y-103740000D02*
X103100000Y-103740000D01*
X127399165Y-104647986D02*
X126246751Y-105800400D01*
X129270000Y-104440000D02*
X129062014Y-104647986D01*
X124700000Y-105800400D02*
X120640000Y-105800400D01*
X109850000Y-105633600D02*
X107350000Y-105633600D01*
X125800000Y-105800400D02*
X124700000Y-105800400D01*
X127940000Y-104647986D02*
X127399165Y-104647986D01*
X126246751Y-105800400D02*
X125800000Y-105800400D01*
X107122993Y-105633600D02*
X105229393Y-103740000D01*
X107350000Y-105633600D02*
X107122993Y-105633600D01*
X115833600Y-105633600D02*
X109850000Y-105633600D01*
X99120000Y-103740000D02*
X99060000Y-103800000D01*
X115930000Y-105730000D02*
X115833600Y-105633600D01*
X129062014Y-104647986D02*
X127940000Y-104647986D01*
X120150000Y-106130000D02*
X119540000Y-106740000D01*
X103100000Y-103740000D02*
X99680000Y-103740000D01*
X120640000Y-105800400D02*
X120479600Y-105800400D01*
X119540000Y-106740000D02*
X119150000Y-106740000D01*
X107350000Y-105633600D02*
X107220000Y-105633600D01*
X116940000Y-106740000D02*
X115930000Y-105730000D01*
X119150000Y-106740000D02*
X116940000Y-106740000D01*
X120479600Y-105800400D02*
X120150000Y-106130000D01*
X99680000Y-103740000D02*
X99120000Y-103740000D01*
%TO.N,Net-(U3-EN)*%
X142685526Y-86194526D02*
X142691000Y-86200000D01*
X141629000Y-86194526D02*
X142685526Y-86194526D01*
D24*
%TO.N,/bq25622e/VSYS*%
X143450000Y-102910000D02*
X143560000Y-102800000D01*
X143030000Y-103330000D02*
X143450000Y-102910000D01*
X129990000Y-101870000D02*
X131450000Y-103330000D01*
X131450000Y-103330000D02*
X143030000Y-103330000D01*
X129020000Y-101870000D02*
X129990000Y-101870000D01*
X143560000Y-102800000D02*
X143560000Y-101590000D01*
D19*
%TO.N,/5V_OUT*%
X145840000Y-88289000D02*
X139050000Y-88289000D01*
X148209408Y-88600592D02*
X147897816Y-88289000D01*
X112610000Y-91500000D02*
X110597200Y-91500000D01*
X137430000Y-89020000D02*
X133460400Y-92989600D01*
X149650000Y-88660000D02*
X148268816Y-88660000D01*
X120618416Y-92989600D02*
X132990000Y-92989600D01*
X139050000Y-88289000D02*
X138161000Y-88289000D01*
X148268816Y-88660000D02*
X148209408Y-88600592D01*
X133460400Y-92989600D02*
X132990000Y-92989600D01*
X138161000Y-88289000D02*
X137430000Y-89020000D01*
X114530000Y-90400000D02*
X113690052Y-90400000D01*
X110597200Y-91500000D02*
X110560000Y-91462800D01*
X118028816Y-90400000D02*
X120618416Y-92989600D01*
X113690052Y-90400000D02*
X112610000Y-91480052D01*
X112610000Y-91480052D02*
X112610000Y-91500000D01*
X114530000Y-90400000D02*
X118028816Y-90400000D01*
X147897816Y-88289000D02*
X145840000Y-88289000D01*
%TO.N,/5V_DIS*%
X115481052Y-96050000D02*
X117610000Y-96050000D01*
X109910000Y-95790000D02*
X110010000Y-95690000D01*
X115121052Y-95690000D02*
X115481052Y-96050000D01*
X136590000Y-93990000D02*
X136590000Y-95530000D01*
X135810000Y-93210000D02*
X136590000Y-93990000D01*
X137091400Y-98048926D02*
X138398039Y-99355565D01*
X134107216Y-93751600D02*
X134648816Y-93210000D01*
X134648816Y-93210000D02*
X135810000Y-93210000D01*
X136590000Y-95530000D02*
X137091400Y-96031400D01*
X117610000Y-96050000D02*
X119908400Y-93751600D01*
X137091400Y-96031400D02*
X137091400Y-98048926D01*
X119908400Y-93751600D02*
X134107216Y-93751600D01*
X110010000Y-95690000D02*
X115121052Y-95690000D01*
D22*
%TO.N,Net-(C1-Pad1)*%
X147891250Y-85060000D02*
X150986250Y-88155000D01*
X144520000Y-85060000D02*
X143830000Y-85060000D01*
X144490000Y-85420000D02*
X144490000Y-85090000D01*
X144490000Y-85090000D02*
X144520000Y-85060000D01*
X145140000Y-85060000D02*
X144520000Y-85060000D01*
X144520000Y-85060000D02*
X147891250Y-85060000D01*
X143830000Y-85060000D02*
X143810000Y-85080000D01*
D19*
%TO.N,/ST*%
X138443800Y-105970000D02*
X138600000Y-106126200D01*
X105980000Y-102180000D02*
X107100000Y-103300000D01*
X104690000Y-96140000D02*
X103750000Y-96140000D01*
X126615200Y-104644800D02*
X127351000Y-103909000D01*
X107100000Y-103681052D02*
X108063748Y-104644800D01*
X107100000Y-103300000D02*
X107100000Y-103681052D01*
X103750000Y-96140000D02*
X102800000Y-95190000D01*
X108063748Y-104644800D02*
X126615200Y-104644800D01*
X104460000Y-102180000D02*
X105980000Y-102180000D01*
X130209000Y-103909000D02*
X132270000Y-105970000D01*
X127351000Y-103909000D02*
X130209000Y-103909000D01*
X132270000Y-105970000D02*
X138443800Y-105970000D01*
%TO.N,/5V_BYP*%
X110752000Y-90438000D02*
X110130000Y-91060000D01*
X137455000Y-87965000D02*
X137050000Y-88370000D01*
X137966800Y-87453200D02*
X137455000Y-87965000D01*
X113408974Y-89818974D02*
X112893974Y-90333974D01*
X118253120Y-89762200D02*
X118340460Y-89849540D01*
X138708941Y-87453200D02*
X137966800Y-87453200D01*
X112789948Y-90438000D02*
X110752000Y-90438000D01*
X120870920Y-92380000D02*
X131940000Y-92380000D01*
X109800000Y-91390000D02*
X109800000Y-91462800D01*
X118253120Y-89762200D02*
X113465748Y-89762200D01*
X137050000Y-88370000D02*
X133040000Y-92380000D01*
X110130000Y-91060000D02*
X109800000Y-91390000D01*
X113465748Y-89762200D02*
X113408974Y-89818974D01*
X112893974Y-90333974D02*
X112789948Y-90438000D01*
X133040000Y-92380000D02*
X131940000Y-92380000D01*
X118340460Y-89849540D02*
X120870920Y-92380000D01*
%TO.N,/5V_EN*%
X147806400Y-106010000D02*
X152750000Y-106010000D01*
X139238948Y-105030000D02*
X141230000Y-105030000D01*
X154680000Y-103880000D02*
X155170000Y-103880000D01*
X153521500Y-103324800D02*
X154124800Y-103324800D01*
X154124800Y-103324800D02*
X154660000Y-103860000D01*
X154660000Y-103860000D02*
X154680000Y-103880000D01*
X126150000Y-104340000D02*
X126944800Y-103545200D01*
X107560000Y-103710000D02*
X108190000Y-104340000D01*
X126944800Y-103545200D02*
X130405200Y-103545200D01*
X147120000Y-105323600D02*
X147806400Y-106010000D01*
X132455200Y-105595200D02*
X138673748Y-105595200D01*
X141523600Y-105323600D02*
X147120000Y-105323600D01*
X108190000Y-104340000D02*
X126150000Y-104340000D01*
X130405200Y-103545200D02*
X132455200Y-105595200D01*
X138673748Y-105595200D02*
X139238948Y-105030000D01*
X107560000Y-102660000D02*
X107560000Y-103710000D01*
X141230000Y-105030000D02*
X141523600Y-105323600D01*
%TO.N,Net-(LED1-K)*%
X99720000Y-93550000D02*
X98700000Y-93550000D01*
X99820000Y-93550000D02*
X99720000Y-93550000D01*
X98700000Y-93550000D02*
X98680000Y-93570000D01*
X100360000Y-93010000D02*
X99820000Y-93550000D01*
%TO.N,Net-(CONN5-Pin_4)*%
X116380000Y-99920000D02*
X115490000Y-99030000D01*
X115490000Y-99030000D02*
X111210000Y-99030000D01*
%TO.N,Net-(CONN5-Pin_1)*%
X113890000Y-94030000D02*
X113890000Y-93370000D01*
X110550000Y-95030000D02*
X112890000Y-95030000D01*
X113730000Y-94190000D02*
X113890000Y-94030000D01*
X112890000Y-95030000D02*
X113730000Y-94190000D01*
%TD*%
%TA.AperFunction,Conductor*%
%TO.N,/bq25622e/VSYS*%
G36*
X143817931Y-89199522D02*
G01*
X143854845Y-89249552D01*
X143860000Y-89281342D01*
X143860000Y-89862907D01*
X143840787Y-89922038D01*
X143839681Y-89923532D01*
X143780159Y-90002351D01*
X143680528Y-90202436D01*
X143680527Y-90202437D01*
X143619356Y-90417433D01*
X143619356Y-90417434D01*
X143598733Y-90640000D01*
X143619356Y-90862565D01*
X143619356Y-90862566D01*
X143680527Y-91077562D01*
X143680528Y-91077563D01*
X143780159Y-91277648D01*
X143780159Y-91277649D01*
X143780160Y-91277650D01*
X143839681Y-91356468D01*
X143859983Y-91415231D01*
X143860000Y-91417091D01*
X143860000Y-103329400D01*
X143840787Y-103388531D01*
X143790487Y-103425076D01*
X143759400Y-103430000D01*
X136897079Y-103430000D01*
X136837948Y-103410787D01*
X136830370Y-103404701D01*
X136825817Y-103400667D01*
X136684224Y-103326354D01*
X136684226Y-103326354D01*
X136528956Y-103288083D01*
X136369044Y-103288083D01*
X136369043Y-103288083D01*
X136213774Y-103326354D01*
X136072182Y-103400667D01*
X136067630Y-103404701D01*
X136010629Y-103429530D01*
X136000921Y-103430000D01*
X130943035Y-103430000D01*
X130883904Y-103410787D01*
X130871900Y-103400535D01*
X130797718Y-103326353D01*
X130670639Y-103199274D01*
X130670636Y-103199272D01*
X130572065Y-103142362D01*
X130572062Y-103142361D01*
X130542606Y-103134468D01*
X130462116Y-103112900D01*
X130462114Y-103112900D01*
X130462113Y-103112900D01*
X128773550Y-103112900D01*
X128714419Y-103093687D01*
X128677874Y-103043387D01*
X128672953Y-103011590D01*
X128699292Y-99280287D01*
X128718921Y-99221293D01*
X128769478Y-99185104D01*
X128800285Y-99180398D01*
X136149802Y-99209601D01*
X136208854Y-99229048D01*
X136245199Y-99279493D01*
X136250000Y-99310200D01*
X136250000Y-100660000D01*
X139860026Y-100669972D01*
X139869999Y-100670000D01*
X139869999Y-100669999D01*
X139870000Y-100670000D01*
X139780790Y-89310644D01*
X139799538Y-89251366D01*
X139849549Y-89214427D01*
X139880641Y-89209259D01*
X143758660Y-89180745D01*
X143817931Y-89199522D01*
G37*
%TD.AperFunction*%
%TD*%
%TA.AperFunction,Conductor*%
%TO.N,GND*%
G36*
X96803300Y-104603025D02*
G01*
X96818874Y-104614976D01*
X98297154Y-106093256D01*
X98297157Y-106093258D01*
X98297160Y-106093261D01*
X98434527Y-106185046D01*
X98563892Y-106238631D01*
X98601816Y-106273382D01*
X98608530Y-106324382D01*
X98580892Y-106367766D01*
X98565976Y-106376680D01*
X98527401Y-106394042D01*
X98454889Y-106426677D01*
X98454882Y-106426680D01*
X98187369Y-106588397D01*
X98180218Y-106592720D01*
X98180211Y-106592725D01*
X97927590Y-106790641D01*
X97927578Y-106790652D01*
X97700652Y-107017578D01*
X97700641Y-107017590D01*
X97502725Y-107270211D01*
X97502720Y-107270218D01*
X97502715Y-107270225D01*
X97502715Y-107270226D01*
X97338837Y-107541315D01*
X97336679Y-107544884D01*
X97325192Y-107570408D01*
X97207396Y-107832142D01*
X97204960Y-107837554D01*
X97109480Y-108143955D01*
X97109477Y-108143969D01*
X97051628Y-108459642D01*
X97032251Y-108780000D01*
X97051628Y-109100357D01*
X97109477Y-109416030D01*
X97109480Y-109416044D01*
X97204960Y-109722445D01*
X97204962Y-109722451D01*
X97336680Y-110015118D01*
X97502715Y-110289774D01*
X97502718Y-110289778D01*
X97502720Y-110289781D01*
X97502725Y-110289788D01*
X97700641Y-110542409D01*
X97700652Y-110542421D01*
X97927578Y-110769347D01*
X97927590Y-110769358D01*
X98180211Y-110967274D01*
X98180218Y-110967279D01*
X98180226Y-110967285D01*
X98454882Y-111133320D01*
X98747549Y-111265038D01*
X98960092Y-111331269D01*
X99053955Y-111360519D01*
X99053957Y-111360519D01*
X99053959Y-111360520D01*
X99053963Y-111360520D01*
X99053969Y-111360522D01*
X99369644Y-111418371D01*
X99369640Y-111418371D01*
X99432052Y-111422145D01*
X99690000Y-111437749D01*
X99992084Y-111419476D01*
X100010357Y-111418371D01*
X100326030Y-111360522D01*
X100326029Y-111360522D01*
X100326041Y-111360520D01*
X100632451Y-111265038D01*
X100925118Y-111133320D01*
X101199774Y-110967285D01*
X101269743Y-110912467D01*
X101452409Y-110769358D01*
X101452409Y-110769357D01*
X101452414Y-110769354D01*
X101679354Y-110542414D01*
X101877285Y-110289774D01*
X102043320Y-110015118D01*
X102175038Y-109722451D01*
X102270520Y-109416041D01*
X102308901Y-109206601D01*
X102328371Y-109100357D01*
X102333791Y-109010753D01*
X102347749Y-108780000D01*
X102328371Y-108459644D01*
X102326670Y-108450363D01*
X102270522Y-108143969D01*
X102270519Y-108143955D01*
X102234514Y-108028414D01*
X102175038Y-107837549D01*
X102043320Y-107544882D01*
X101877285Y-107270226D01*
X101877279Y-107270218D01*
X101877274Y-107270211D01*
X101679358Y-107017590D01*
X101679347Y-107017578D01*
X101452421Y-106790652D01*
X101452409Y-106790641D01*
X101199788Y-106592725D01*
X101199781Y-106592720D01*
X101199778Y-106592718D01*
X101199774Y-106592715D01*
X100925118Y-106426680D01*
X100919773Y-106424274D01*
X100882915Y-106388394D01*
X100877743Y-106337215D01*
X100906679Y-106294685D01*
X100950636Y-106280500D01*
X101703251Y-106280500D01*
X101751589Y-106298093D01*
X101756425Y-106302526D01*
X104385353Y-108931455D01*
X104385354Y-108931456D01*
X104385357Y-108931458D01*
X104385360Y-108931461D01*
X104522727Y-109023246D01*
X104675360Y-109086469D01*
X104756149Y-109102539D01*
X104837393Y-109118700D01*
X104837395Y-109118700D01*
X105002605Y-109118700D01*
X106672995Y-109118700D01*
X106721333Y-109136293D01*
X106747053Y-109180842D01*
X106738120Y-109231500D01*
X106708445Y-109260219D01*
X106680902Y-109274942D01*
X106630118Y-109302086D01*
X106630114Y-109302089D01*
X106477410Y-109427410D01*
X106352089Y-109580114D01*
X106352086Y-109580118D01*
X106258956Y-109754352D01*
X106258955Y-109754356D01*
X106201610Y-109943398D01*
X106201610Y-109943400D01*
X106182247Y-110140000D01*
X106201610Y-110336599D01*
X106201610Y-110336601D01*
X106258955Y-110525643D01*
X106258956Y-110525647D01*
X106304200Y-110610293D01*
X106350005Y-110695989D01*
X106352086Y-110699881D01*
X106352089Y-110699885D01*
X106477410Y-110852589D01*
X106630114Y-110977910D01*
X106630118Y-110977913D01*
X106630122Y-110977916D01*
X106764343Y-111049658D01*
X106804352Y-111071043D01*
X106804356Y-111071044D01*
X106839771Y-111081787D01*
X106993397Y-111128389D01*
X107190000Y-111147753D01*
X107386603Y-111128389D01*
X107575650Y-111071042D01*
X107749878Y-110977916D01*
X107902589Y-110852589D01*
X108027916Y-110699878D01*
X108121042Y-110525650D01*
X108178389Y-110336603D01*
X108197753Y-110140000D01*
X108178389Y-109943397D01*
X108121042Y-109754350D01*
X108027916Y-109580122D01*
X108027913Y-109580118D01*
X108027910Y-109580114D01*
X107902589Y-109427410D01*
X107749885Y-109302089D01*
X107749881Y-109302086D01*
X107749879Y-109302085D01*
X107749878Y-109302084D01*
X107671554Y-109260219D01*
X107637220Y-109221919D01*
X107635536Y-109170506D01*
X107667294Y-109130040D01*
X107707005Y-109118700D01*
X109212995Y-109118700D01*
X109261333Y-109136293D01*
X109287053Y-109180842D01*
X109278120Y-109231500D01*
X109248445Y-109260219D01*
X109220902Y-109274942D01*
X109170118Y-109302086D01*
X109170114Y-109302089D01*
X109017410Y-109427410D01*
X108892089Y-109580114D01*
X108892086Y-109580118D01*
X108798956Y-109754352D01*
X108798955Y-109754356D01*
X108741610Y-109943398D01*
X108741610Y-109943400D01*
X108722247Y-110140000D01*
X108741610Y-110336599D01*
X108741610Y-110336601D01*
X108798955Y-110525643D01*
X108798956Y-110525647D01*
X108844200Y-110610293D01*
X108890005Y-110695989D01*
X108892086Y-110699881D01*
X108892089Y-110699885D01*
X109017410Y-110852589D01*
X109170114Y-110977910D01*
X109170118Y-110977913D01*
X109170122Y-110977916D01*
X109304343Y-111049658D01*
X109344352Y-111071043D01*
X109344356Y-111071044D01*
X109379771Y-111081787D01*
X109533397Y-111128389D01*
X109730000Y-111147753D01*
X109926603Y-111128389D01*
X110115650Y-111071042D01*
X110289878Y-110977916D01*
X110442589Y-110852589D01*
X110567916Y-110699878D01*
X110661042Y-110525650D01*
X110718389Y-110336603D01*
X110737753Y-110140000D01*
X110718389Y-109943397D01*
X110661042Y-109754350D01*
X110567916Y-109580122D01*
X110567913Y-109580118D01*
X110567910Y-109580114D01*
X110442589Y-109427410D01*
X110289885Y-109302089D01*
X110289881Y-109302086D01*
X110289879Y-109302085D01*
X110289878Y-109302084D01*
X110211554Y-109260219D01*
X110177220Y-109221919D01*
X110175536Y-109170506D01*
X110207294Y-109130040D01*
X110247005Y-109118700D01*
X111752995Y-109118700D01*
X111801333Y-109136293D01*
X111827053Y-109180842D01*
X111818120Y-109231500D01*
X111788445Y-109260219D01*
X111760902Y-109274942D01*
X111710118Y-109302086D01*
X111710114Y-109302089D01*
X111557410Y-109427410D01*
X111432089Y-109580114D01*
X111432086Y-109580118D01*
X111338956Y-109754352D01*
X111338955Y-109754356D01*
X111281610Y-109943398D01*
X111281610Y-109943400D01*
X111262247Y-110140000D01*
X111281610Y-110336599D01*
X111281610Y-110336601D01*
X111338955Y-110525643D01*
X111338956Y-110525647D01*
X111384200Y-110610293D01*
X111430005Y-110695989D01*
X111432086Y-110699881D01*
X111432089Y-110699885D01*
X111557410Y-110852589D01*
X111710114Y-110977910D01*
X111710118Y-110977913D01*
X111710122Y-110977916D01*
X111844343Y-111049658D01*
X111884352Y-111071043D01*
X111884356Y-111071044D01*
X111919771Y-111081787D01*
X112073397Y-111128389D01*
X112270000Y-111147753D01*
X112466603Y-111128389D01*
X112655650Y-111071042D01*
X112829878Y-110977916D01*
X112982589Y-110852589D01*
X113107916Y-110699878D01*
X113201042Y-110525650D01*
X113258389Y-110336603D01*
X113277753Y-110140000D01*
X113258389Y-109943397D01*
X113201042Y-109754350D01*
X113107916Y-109580122D01*
X113107913Y-109580118D01*
X113107910Y-109580114D01*
X112982589Y-109427410D01*
X112829885Y-109302089D01*
X112829881Y-109302086D01*
X112829879Y-109302085D01*
X112829878Y-109302084D01*
X112751554Y-109260219D01*
X112717220Y-109221919D01*
X112715536Y-109170506D01*
X112747294Y-109130040D01*
X112787005Y-109118700D01*
X114292995Y-109118700D01*
X114341333Y-109136293D01*
X114367053Y-109180842D01*
X114358120Y-109231500D01*
X114328445Y-109260219D01*
X114300902Y-109274942D01*
X114250118Y-109302086D01*
X114250114Y-109302089D01*
X114097410Y-109427410D01*
X113972089Y-109580114D01*
X113972086Y-109580118D01*
X113878956Y-109754352D01*
X113878955Y-109754356D01*
X113821610Y-109943398D01*
X113821610Y-109943400D01*
X113802247Y-110140000D01*
X113821610Y-110336599D01*
X113821610Y-110336601D01*
X113878955Y-110525643D01*
X113878956Y-110525647D01*
X113924200Y-110610293D01*
X113970005Y-110695989D01*
X113972086Y-110699881D01*
X113972089Y-110699885D01*
X114097410Y-110852589D01*
X114250114Y-110977910D01*
X114250118Y-110977913D01*
X114250122Y-110977916D01*
X114384343Y-111049658D01*
X114424352Y-111071043D01*
X114424356Y-111071044D01*
X114459771Y-111081787D01*
X114613397Y-111128389D01*
X114810000Y-111147753D01*
X115006603Y-111128389D01*
X115195650Y-111071042D01*
X115369878Y-110977916D01*
X115522589Y-110852589D01*
X115647916Y-110699878D01*
X115741042Y-110525650D01*
X115798389Y-110336603D01*
X115817753Y-110140000D01*
X115798389Y-109943397D01*
X115741042Y-109754350D01*
X115647916Y-109580122D01*
X115647913Y-109580118D01*
X115647910Y-109580114D01*
X115522589Y-109427410D01*
X115369885Y-109302089D01*
X115369881Y-109302086D01*
X115369879Y-109302085D01*
X115369878Y-109302084D01*
X115291554Y-109260219D01*
X115257220Y-109221919D01*
X115255536Y-109170506D01*
X115287294Y-109130040D01*
X115327005Y-109118700D01*
X116832995Y-109118700D01*
X116881333Y-109136293D01*
X116907053Y-109180842D01*
X116898120Y-109231500D01*
X116868445Y-109260219D01*
X116840902Y-109274942D01*
X116790118Y-109302086D01*
X116790114Y-109302089D01*
X116637410Y-109427410D01*
X116512089Y-109580114D01*
X116512086Y-109580118D01*
X116418956Y-109754352D01*
X116418955Y-109754356D01*
X116361610Y-109943398D01*
X116361610Y-109943400D01*
X116342247Y-110140000D01*
X116361610Y-110336599D01*
X116361610Y-110336601D01*
X116418955Y-110525643D01*
X116418956Y-110525647D01*
X116464200Y-110610293D01*
X116510005Y-110695989D01*
X116512086Y-110699881D01*
X116512089Y-110699885D01*
X116637410Y-110852589D01*
X116790114Y-110977910D01*
X116790118Y-110977913D01*
X116790122Y-110977916D01*
X116924343Y-111049658D01*
X116964352Y-111071043D01*
X116964356Y-111071044D01*
X116999771Y-111081787D01*
X117153397Y-111128389D01*
X117350000Y-111147753D01*
X117546603Y-111128389D01*
X117735650Y-111071042D01*
X117909878Y-110977916D01*
X118062589Y-110852589D01*
X118187916Y-110699878D01*
X118281042Y-110525650D01*
X118338389Y-110336603D01*
X118357753Y-110140000D01*
X118340535Y-109965190D01*
X118353306Y-109915364D01*
X118395118Y-109885401D01*
X118446408Y-109889325D01*
X118468547Y-109904648D01*
X118865074Y-110301175D01*
X118886814Y-110347795D01*
X118887100Y-110354349D01*
X118887100Y-111005055D01*
X118887101Y-111005057D01*
X118895972Y-111049659D01*
X118929764Y-111100232D01*
X118929765Y-111100232D01*
X118929766Y-111100234D01*
X118980342Y-111134028D01*
X119024943Y-111142900D01*
X119525650Y-111142899D01*
X119573988Y-111160492D01*
X119578824Y-111164925D01*
X120065024Y-111651126D01*
X120086764Y-111697746D01*
X120073450Y-111747433D01*
X120031313Y-111776938D01*
X120011850Y-111779500D01*
X99192275Y-111779500D01*
X99187736Y-111779363D01*
X99143311Y-111776675D01*
X98893255Y-111761550D01*
X98884241Y-111760455D01*
X98596305Y-111707689D01*
X98587488Y-111705516D01*
X98308009Y-111618426D01*
X98299518Y-111615206D01*
X98032573Y-111495064D01*
X98024532Y-111490844D01*
X97774010Y-111339398D01*
X97766537Y-111334239D01*
X97536103Y-111153706D01*
X97529306Y-111147684D01*
X97322315Y-110940693D01*
X97316293Y-110933896D01*
X97135760Y-110703462D01*
X97130601Y-110695989D01*
X97078796Y-110610293D01*
X96979153Y-110445464D01*
X96974935Y-110437426D01*
X96934595Y-110347795D01*
X96854793Y-110170481D01*
X96851573Y-110161990D01*
X96833702Y-110104640D01*
X96764480Y-109882500D01*
X96762312Y-109873705D01*
X96709543Y-109585750D01*
X96708450Y-109576751D01*
X96690637Y-109282264D01*
X96690500Y-109277724D01*
X96690500Y-104668150D01*
X96708093Y-104619812D01*
X96752642Y-104594092D01*
X96803300Y-104603025D01*
G37*
%TD.AperFunction*%
%TA.AperFunction,Conductor*%
G36*
X136580737Y-110610293D02*
G01*
X136585573Y-110614726D01*
X137621972Y-111651126D01*
X137643712Y-111697746D01*
X137630398Y-111747433D01*
X137588261Y-111776938D01*
X137568798Y-111779500D01*
X132032490Y-111779500D01*
X131984152Y-111761907D01*
X131958432Y-111717358D01*
X131967365Y-111666700D01*
X131979316Y-111651126D01*
X133015715Y-110614726D01*
X133062335Y-110592986D01*
X133068889Y-110592700D01*
X136532399Y-110592700D01*
X136580737Y-110610293D01*
G37*
%TD.AperFunction*%
%TA.AperFunction,Conductor*%
G36*
X158192264Y-82280636D02*
G01*
X158486751Y-82298450D01*
X158495750Y-82299543D01*
X158783705Y-82352312D01*
X158792500Y-82354480D01*
X159071990Y-82441573D01*
X159080481Y-82444793D01*
X159347429Y-82564936D01*
X159355464Y-82569153D01*
X159508881Y-82661897D01*
X159605989Y-82720601D01*
X159613462Y-82725760D01*
X159843896Y-82906293D01*
X159850693Y-82912315D01*
X160057684Y-83119306D01*
X160063706Y-83126103D01*
X160244239Y-83356537D01*
X160249398Y-83364010D01*
X160400844Y-83614532D01*
X160405064Y-83622573D01*
X160525206Y-83889518D01*
X160528426Y-83898009D01*
X160615516Y-84177488D01*
X160617689Y-84186305D01*
X160670455Y-84474241D01*
X160671550Y-84483255D01*
X160689363Y-84777734D01*
X160689500Y-84782275D01*
X160689500Y-92454300D01*
X160671907Y-92502638D01*
X160627358Y-92528358D01*
X160614300Y-92529500D01*
X151255892Y-92529500D01*
X151124108Y-92529500D01*
X151060461Y-92546554D01*
X150996811Y-92563608D01*
X150882685Y-92629499D01*
X150789499Y-92722685D01*
X150723608Y-92836811D01*
X150711928Y-92880404D01*
X150689500Y-92964108D01*
X150689500Y-100954108D01*
X150689500Y-101085892D01*
X150709964Y-101162268D01*
X150723608Y-101213188D01*
X150789499Y-101327314D01*
X150882685Y-101420500D01*
X150996811Y-101486391D01*
X150996813Y-101486391D01*
X150996814Y-101486392D01*
X151124108Y-101520500D01*
X160614300Y-101520500D01*
X160662638Y-101538093D01*
X160688358Y-101582642D01*
X160689500Y-101595700D01*
X160689500Y-109277724D01*
X160689363Y-109282265D01*
X160671550Y-109576744D01*
X160670455Y-109585758D01*
X160617689Y-109873694D01*
X160615516Y-109882511D01*
X160528426Y-110161990D01*
X160525206Y-110170481D01*
X160405064Y-110437426D01*
X160400844Y-110445467D01*
X160249398Y-110695989D01*
X160244239Y-110703462D01*
X160063706Y-110933896D01*
X160057684Y-110940693D01*
X159850693Y-111147684D01*
X159843896Y-111153706D01*
X159613462Y-111334239D01*
X159605989Y-111339398D01*
X159355467Y-111490844D01*
X159347426Y-111495064D01*
X159080481Y-111615206D01*
X159071990Y-111618426D01*
X158792511Y-111705516D01*
X158783694Y-111707689D01*
X158495758Y-111760455D01*
X158486744Y-111761550D01*
X158232355Y-111776938D01*
X158192263Y-111779363D01*
X158187725Y-111779500D01*
X141659400Y-111779500D01*
X141611062Y-111761907D01*
X141585342Y-111717358D01*
X141594275Y-111666700D01*
X141606226Y-111651126D01*
X144823555Y-108433795D01*
X145471125Y-107786224D01*
X145502466Y-107767439D01*
X145671900Y-107716042D01*
X145697142Y-107702550D01*
X149820618Y-107702550D01*
X149839251Y-107832142D01*
X149839251Y-107832143D01*
X149839252Y-107832145D01*
X149839252Y-107832147D01*
X149893637Y-107951232D01*
X149893640Y-107951237D01*
X149918480Y-107979903D01*
X149979376Y-108050181D01*
X149979378Y-108050182D01*
X149979379Y-108050183D01*
X150089516Y-108120964D01*
X150126325Y-108131772D01*
X150215138Y-108157850D01*
X150215141Y-108157850D01*
X150346059Y-108157850D01*
X150346062Y-108157850D01*
X150471683Y-108120964D01*
X150581824Y-108050181D01*
X150667561Y-107951235D01*
X150698695Y-107883061D01*
X150734778Y-107846400D01*
X150767099Y-107839100D01*
X154331725Y-107839100D01*
X154380063Y-107856693D01*
X154388557Y-107865054D01*
X154391521Y-107868474D01*
X154468776Y-107957631D01*
X154468778Y-107957632D01*
X154468779Y-107957633D01*
X154578916Y-108028414D01*
X154644363Y-108047631D01*
X154704538Y-108065300D01*
X154704541Y-108065300D01*
X154835459Y-108065300D01*
X154835462Y-108065300D01*
X154961083Y-108028414D01*
X155017684Y-107992039D01*
X155067859Y-107980706D01*
X155113581Y-108004277D01*
X155133455Y-108051723D01*
X155130135Y-108077673D01*
X155109481Y-108143955D01*
X155109477Y-108143969D01*
X155051628Y-108459642D01*
X155032251Y-108780000D01*
X155051628Y-109100357D01*
X155109477Y-109416030D01*
X155109480Y-109416044D01*
X155204960Y-109722445D01*
X155204962Y-109722451D01*
X155336680Y-110015118D01*
X155502715Y-110289774D01*
X155502718Y-110289778D01*
X155502720Y-110289781D01*
X155502725Y-110289788D01*
X155700641Y-110542409D01*
X155700652Y-110542421D01*
X155927578Y-110769347D01*
X155927590Y-110769358D01*
X156180211Y-110967274D01*
X156180218Y-110967279D01*
X156180226Y-110967285D01*
X156454882Y-111133320D01*
X156747549Y-111265038D01*
X156960092Y-111331269D01*
X157053955Y-111360519D01*
X157053957Y-111360519D01*
X157053959Y-111360520D01*
X157053963Y-111360520D01*
X157053969Y-111360522D01*
X157369644Y-111418371D01*
X157369640Y-111418371D01*
X157432052Y-111422145D01*
X157690000Y-111437749D01*
X157992084Y-111419476D01*
X158010357Y-111418371D01*
X158326030Y-111360522D01*
X158326029Y-111360522D01*
X158326041Y-111360520D01*
X158632451Y-111265038D01*
X158925118Y-111133320D01*
X159199774Y-110967285D01*
X159269743Y-110912467D01*
X159452409Y-110769358D01*
X159452409Y-110769357D01*
X159452414Y-110769354D01*
X159679354Y-110542414D01*
X159877285Y-110289774D01*
X160043320Y-110015118D01*
X160175038Y-109722451D01*
X160270520Y-109416041D01*
X160308901Y-109206601D01*
X160328371Y-109100357D01*
X160333791Y-109010753D01*
X160347749Y-108780000D01*
X160328371Y-108459644D01*
X160326670Y-108450363D01*
X160270522Y-108143969D01*
X160270519Y-108143955D01*
X160234514Y-108028414D01*
X160175038Y-107837549D01*
X160043320Y-107544882D01*
X159877285Y-107270226D01*
X159877279Y-107270218D01*
X159877274Y-107270211D01*
X159679358Y-107017590D01*
X159679347Y-107017578D01*
X159452421Y-106790652D01*
X159452409Y-106790641D01*
X159199788Y-106592725D01*
X159199781Y-106592720D01*
X159199778Y-106592718D01*
X159199774Y-106592715D01*
X158925118Y-106426680D01*
X158632451Y-106294962D01*
X158632445Y-106294960D01*
X158326044Y-106199480D01*
X158326030Y-106199477D01*
X158010355Y-106141628D01*
X158010359Y-106141628D01*
X157690000Y-106122251D01*
X157369642Y-106141628D01*
X157053969Y-106199477D01*
X157053955Y-106199480D01*
X156747554Y-106294960D01*
X156747550Y-106294961D01*
X156747549Y-106294962D01*
X156539950Y-106388394D01*
X156454889Y-106426677D01*
X156454882Y-106426680D01*
X156187369Y-106588397D01*
X156180218Y-106592720D01*
X156180211Y-106592725D01*
X155927590Y-106790641D01*
X155927578Y-106790652D01*
X155700652Y-107017578D01*
X155700641Y-107017590D01*
X155502725Y-107270211D01*
X155502720Y-107270218D01*
X155502715Y-107270225D01*
X155502715Y-107270226D01*
X155479931Y-107307916D01*
X155351765Y-107519928D01*
X155311702Y-107552193D01*
X155260272Y-107551157D01*
X155221541Y-107517305D01*
X155212976Y-107491727D01*
X155211349Y-107480408D01*
X155211348Y-107480405D01*
X155211347Y-107480402D01*
X155156962Y-107361317D01*
X155156959Y-107361312D01*
X155131258Y-107331652D01*
X155071224Y-107262369D01*
X155071220Y-107262366D01*
X154961083Y-107191585D01*
X154835464Y-107154700D01*
X154835462Y-107154700D01*
X154704538Y-107154700D01*
X154704535Y-107154700D01*
X154578916Y-107191585D01*
X154468779Y-107262366D01*
X154468776Y-107262368D01*
X154468776Y-107262369D01*
X154449916Y-107284135D01*
X154388557Y-107354946D01*
X154343606Y-107379955D01*
X154331725Y-107380900D01*
X150638680Y-107380900D01*
X150590342Y-107363307D01*
X150581849Y-107354948D01*
X150581821Y-107354916D01*
X150581822Y-107354916D01*
X150471683Y-107284135D01*
X150346064Y-107247250D01*
X150346062Y-107247250D01*
X150215138Y-107247250D01*
X150215135Y-107247250D01*
X150089516Y-107284135D01*
X149979379Y-107354916D01*
X149979376Y-107354918D01*
X149979376Y-107354919D01*
X149973834Y-107361315D01*
X149893640Y-107453862D01*
X149893637Y-107453867D01*
X149839252Y-107572952D01*
X149839252Y-107572954D01*
X149839251Y-107572956D01*
X149839251Y-107572958D01*
X149820618Y-107702550D01*
X145697142Y-107702550D01*
X145846128Y-107622916D01*
X145998839Y-107497589D01*
X146124166Y-107344878D01*
X146217292Y-107170650D01*
X146274639Y-106981603D01*
X146294003Y-106785000D01*
X146274639Y-106588397D01*
X146226109Y-106428414D01*
X146217294Y-106399356D01*
X146217293Y-106399352D01*
X146211436Y-106388394D01*
X146124166Y-106225122D01*
X146124163Y-106225118D01*
X146124160Y-106225114D01*
X145998839Y-106072410D01*
X145846135Y-105947089D01*
X145846131Y-105947086D01*
X145846129Y-105947085D01*
X145846128Y-105947084D01*
X145736427Y-105888448D01*
X145671897Y-105853956D01*
X145671893Y-105853955D01*
X145482850Y-105796610D01*
X145286250Y-105777247D01*
X145089650Y-105796610D01*
X145089648Y-105796610D01*
X144900606Y-105853955D01*
X144900602Y-105853956D01*
X144726368Y-105947086D01*
X144726364Y-105947089D01*
X144573660Y-106072410D01*
X144448339Y-106225114D01*
X144448336Y-106225118D01*
X144355208Y-106399349D01*
X144303810Y-106568781D01*
X144285022Y-106600125D01*
X140651675Y-110233474D01*
X140605055Y-110255214D01*
X140598501Y-110255500D01*
X138629697Y-110255500D01*
X138581359Y-110237907D01*
X138576523Y-110233474D01*
X137445594Y-109102544D01*
X137445593Y-109102543D01*
X137445589Y-109102540D01*
X137445588Y-109102539D01*
X137308221Y-109010754D01*
X137306401Y-109010000D01*
X139012247Y-109010000D01*
X139031610Y-109206599D01*
X139031610Y-109206601D01*
X139088955Y-109395643D01*
X139088956Y-109395647D01*
X139182086Y-109569881D01*
X139182089Y-109569885D01*
X139307410Y-109722589D01*
X139460114Y-109847910D01*
X139460118Y-109847913D01*
X139460122Y-109847916D01*
X139634350Y-109941042D01*
X139634352Y-109941043D01*
X139634356Y-109941044D01*
X139642123Y-109943400D01*
X139823397Y-109998389D01*
X140020000Y-110017753D01*
X140216603Y-109998389D01*
X140405650Y-109941042D01*
X140579878Y-109847916D01*
X140732589Y-109722589D01*
X140857916Y-109569878D01*
X140951042Y-109395650D01*
X141008389Y-109206603D01*
X141027753Y-109010000D01*
X141008389Y-108813397D01*
X140967096Y-108677273D01*
X140951044Y-108624356D01*
X140951043Y-108624352D01*
X140897746Y-108524640D01*
X140857916Y-108450122D01*
X140857913Y-108450118D01*
X140857910Y-108450114D01*
X140732589Y-108297410D01*
X140579885Y-108172089D01*
X140579881Y-108172086D01*
X140579879Y-108172085D01*
X140579878Y-108172084D01*
X140479468Y-108118414D01*
X140405647Y-108078956D01*
X140405643Y-108078955D01*
X140216600Y-108021610D01*
X140020000Y-108002247D01*
X139823400Y-108021610D01*
X139823398Y-108021610D01*
X139634356Y-108078955D01*
X139634352Y-108078956D01*
X139460118Y-108172086D01*
X139460114Y-108172089D01*
X139307410Y-108297410D01*
X139182089Y-108450114D01*
X139182086Y-108450118D01*
X139088956Y-108624352D01*
X139088955Y-108624356D01*
X139031610Y-108813398D01*
X139031610Y-108813400D01*
X139012247Y-109010000D01*
X137306401Y-109010000D01*
X137155588Y-108947531D01*
X137155585Y-108947530D01*
X137155584Y-108947530D01*
X136993555Y-108915300D01*
X136993553Y-108915300D01*
X136002350Y-108915300D01*
X135954012Y-108897707D01*
X135928292Y-108853158D01*
X135937225Y-108802500D01*
X135949176Y-108786926D01*
X136821455Y-107914646D01*
X136821456Y-107914645D01*
X136821461Y-107914640D01*
X136913246Y-107777273D01*
X136976469Y-107624640D01*
X137008700Y-107462605D01*
X137008700Y-107297395D01*
X137008700Y-106907395D01*
X137001969Y-106873558D01*
X136991893Y-106822900D01*
X136976469Y-106745360D01*
X136913246Y-106592727D01*
X136821461Y-106455360D01*
X136821458Y-106455357D01*
X136821456Y-106455354D01*
X136704646Y-106338544D01*
X136704637Y-106338536D01*
X136702078Y-106336827D01*
X136671660Y-106295345D01*
X136675023Y-106244015D01*
X136710593Y-106206856D01*
X136743855Y-106199100D01*
X138085711Y-106199100D01*
X138134049Y-106216693D01*
X138156415Y-106250900D01*
X138156416Y-106250900D01*
X138156417Y-106250902D01*
X138157867Y-106253120D01*
X138158653Y-106255799D01*
X138213037Y-106374882D01*
X138213040Y-106374887D01*
X138238666Y-106404460D01*
X138298776Y-106473831D01*
X138298778Y-106473832D01*
X138298779Y-106473833D01*
X138408916Y-106544614D01*
X138491221Y-106568781D01*
X138534538Y-106581500D01*
X138534541Y-106581500D01*
X138665459Y-106581500D01*
X138665462Y-106581500D01*
X138791083Y-106544614D01*
X138901224Y-106473831D01*
X138901224Y-106473830D01*
X138902551Y-106472978D01*
X138952727Y-106461645D01*
X138998448Y-106485216D01*
X139018045Y-106528869D01*
X139031610Y-106666599D01*
X139031610Y-106666601D01*
X139088955Y-106855643D01*
X139088956Y-106855647D01*
X139092549Y-106862369D01*
X139156439Y-106981900D01*
X139182086Y-107029881D01*
X139182089Y-107029885D01*
X139307410Y-107182589D01*
X139460114Y-107307910D01*
X139460118Y-107307913D01*
X139460122Y-107307916D01*
X139590422Y-107377562D01*
X139634352Y-107401043D01*
X139634356Y-107401044D01*
X139642555Y-107403531D01*
X139823397Y-107458389D01*
X140020000Y-107477753D01*
X140216603Y-107458389D01*
X140405650Y-107401042D01*
X140579878Y-107307916D01*
X140732589Y-107182589D01*
X140857916Y-107029878D01*
X140951042Y-106855650D01*
X141008389Y-106666603D01*
X141027753Y-106470000D01*
X141008389Y-106273397D01*
X140951042Y-106084350D01*
X140857916Y-105910122D01*
X140857913Y-105910118D01*
X140857910Y-105910114D01*
X140732589Y-105757410D01*
X140579885Y-105632089D01*
X140579881Y-105632086D01*
X140579879Y-105632085D01*
X140579878Y-105632084D01*
X140464274Y-105570293D01*
X140405647Y-105538956D01*
X140405643Y-105538955D01*
X140216600Y-105481610D01*
X140020000Y-105462247D01*
X139823400Y-105481610D01*
X139823398Y-105481610D01*
X139634356Y-105538955D01*
X139634352Y-105538956D01*
X139460118Y-105632086D01*
X139460114Y-105632089D01*
X139307410Y-105757410D01*
X139182089Y-105910114D01*
X139182083Y-105910123D01*
X139156506Y-105957973D01*
X139118203Y-105992309D01*
X139066791Y-105993991D01*
X139026325Y-105962233D01*
X139021782Y-105953762D01*
X138986962Y-105877517D01*
X138986959Y-105877512D01*
X138906754Y-105784951D01*
X138888395Y-105736898D01*
X138905220Y-105688288D01*
X138910402Y-105682541D01*
X139311818Y-105281126D01*
X139358438Y-105259386D01*
X139364992Y-105259100D01*
X141103955Y-105259100D01*
X141152293Y-105276693D01*
X141157118Y-105281115D01*
X141393825Y-105517822D01*
X141437176Y-105535778D01*
X141478029Y-105552700D01*
X141478030Y-105552700D01*
X141569170Y-105552700D01*
X146993955Y-105552700D01*
X147042293Y-105570293D01*
X147047129Y-105574726D01*
X147676623Y-106204221D01*
X147676624Y-106204221D01*
X147676625Y-106204222D01*
X147734592Y-106228232D01*
X147736166Y-106228884D01*
X147760829Y-106239100D01*
X147760830Y-106239100D01*
X147851970Y-106239100D01*
X152311725Y-106239100D01*
X152360063Y-106256693D01*
X152368557Y-106265054D01*
X152387444Y-106286850D01*
X152448776Y-106357631D01*
X152448778Y-106357632D01*
X152448779Y-106357633D01*
X152558916Y-106428414D01*
X152648176Y-106454623D01*
X152684538Y-106465300D01*
X152684541Y-106465300D01*
X152815459Y-106465300D01*
X152815462Y-106465300D01*
X152941083Y-106428414D01*
X153051224Y-106357631D01*
X153136961Y-106258685D01*
X153191349Y-106139592D01*
X153209982Y-106010000D01*
X153191349Y-105880408D01*
X153191347Y-105880403D01*
X153191347Y-105880402D01*
X153136962Y-105761317D01*
X153136959Y-105761312D01*
X153111258Y-105731652D01*
X153051224Y-105662369D01*
X153051220Y-105662366D01*
X152941083Y-105591585D01*
X152815464Y-105554700D01*
X152815462Y-105554700D01*
X152684538Y-105554700D01*
X152684535Y-105554700D01*
X152558916Y-105591585D01*
X152448779Y-105662366D01*
X152448776Y-105662368D01*
X152448776Y-105662369D01*
X152443630Y-105668308D01*
X152368557Y-105754946D01*
X152323606Y-105779955D01*
X152311725Y-105780900D01*
X147932445Y-105780900D01*
X147884107Y-105763307D01*
X147879271Y-105758874D01*
X147249780Y-105129382D01*
X147249777Y-105129380D01*
X147249775Y-105129378D01*
X147190233Y-105104715D01*
X147190232Y-105104714D01*
X147165573Y-105094500D01*
X147165571Y-105094500D01*
X146042183Y-105094500D01*
X145993845Y-105076907D01*
X145968125Y-105032358D01*
X145977058Y-104981700D01*
X145994475Y-104961171D01*
X145995901Y-104960000D01*
X151759018Y-104960000D01*
X151777651Y-105089592D01*
X151777651Y-105089593D01*
X151777652Y-105089595D01*
X151777652Y-105089597D01*
X151832037Y-105208682D01*
X151832040Y-105208687D01*
X151853327Y-105233253D01*
X151917776Y-105307631D01*
X151917778Y-105307632D01*
X151917779Y-105307633D01*
X152027916Y-105378414D01*
X152117282Y-105404654D01*
X152153538Y-105415300D01*
X152153541Y-105415300D01*
X152284459Y-105415300D01*
X152284462Y-105415300D01*
X152410083Y-105378414D01*
X152453375Y-105350592D01*
X152520220Y-105307634D01*
X152520220Y-105307633D01*
X152520224Y-105307631D01*
X152605961Y-105208685D01*
X152606970Y-105206474D01*
X152608530Y-105203061D01*
X152644614Y-105166400D01*
X152676934Y-105159100D01*
X154721725Y-105159100D01*
X154770063Y-105176693D01*
X154778557Y-105185054D01*
X154794161Y-105203061D01*
X154858776Y-105277631D01*
X154858778Y-105277632D01*
X154858779Y-105277633D01*
X154968916Y-105348414D01*
X155042244Y-105369945D01*
X155094538Y-105385300D01*
X155094541Y-105385300D01*
X155225459Y-105385300D01*
X155225462Y-105385300D01*
X155351083Y-105348414D01*
X155461224Y-105277631D01*
X155546961Y-105178685D01*
X155587647Y-105089595D01*
X155601347Y-105059597D01*
X155601347Y-105059596D01*
X155601349Y-105059592D01*
X155619982Y-104930000D01*
X155608244Y-104848366D01*
X155618778Y-104798019D01*
X155629500Y-104784495D01*
X156382870Y-104031126D01*
X156429490Y-104009386D01*
X156436044Y-104009100D01*
X157511901Y-104009100D01*
X157560239Y-104026693D01*
X157585959Y-104071242D01*
X157587101Y-104084300D01*
X157587101Y-104565057D01*
X157595972Y-104609659D01*
X157629764Y-104660232D01*
X157629765Y-104660232D01*
X157629766Y-104660234D01*
X157680342Y-104694028D01*
X157724943Y-104702900D01*
X159455056Y-104702899D01*
X159499658Y-104694028D01*
X159550234Y-104660234D01*
X159584028Y-104609658D01*
X159592900Y-104565057D01*
X159592899Y-102834944D01*
X159584028Y-102790342D01*
X159583530Y-102789597D01*
X159550235Y-102739767D01*
X159527686Y-102724700D01*
X159499658Y-102705972D01*
X159499656Y-102705971D01*
X159455057Y-102697100D01*
X157724944Y-102697100D01*
X157724942Y-102697101D01*
X157680340Y-102705972D01*
X157629767Y-102739764D01*
X157595972Y-102790342D01*
X157595971Y-102790343D01*
X157587100Y-102834942D01*
X157587100Y-103475700D01*
X157569507Y-103524038D01*
X157524958Y-103549758D01*
X157511900Y-103550900D01*
X156264428Y-103550900D01*
X156234877Y-103563141D01*
X156234875Y-103563142D01*
X156180224Y-103585778D01*
X155746753Y-104019249D01*
X155700133Y-104040989D01*
X155650446Y-104027675D01*
X155620941Y-103985538D01*
X155619145Y-103955372D01*
X155629982Y-103880003D01*
X155629982Y-103880002D01*
X155629982Y-103880000D01*
X155611349Y-103750408D01*
X155611347Y-103750403D01*
X155611347Y-103750402D01*
X155556962Y-103631317D01*
X155556959Y-103631312D01*
X155519389Y-103587955D01*
X155471224Y-103532369D01*
X155471220Y-103532366D01*
X155361083Y-103461585D01*
X155235464Y-103424700D01*
X155235462Y-103424700D01*
X155104538Y-103424700D01*
X155104535Y-103424700D01*
X154978916Y-103461585D01*
X154868778Y-103532366D01*
X154823059Y-103585128D01*
X154778108Y-103610138D01*
X154727597Y-103600402D01*
X154713053Y-103589056D01*
X154254576Y-103130578D01*
X154184057Y-103101369D01*
X154184056Y-103101368D01*
X154170372Y-103095700D01*
X154170371Y-103095700D01*
X153959775Y-103095700D01*
X153911437Y-103078107D01*
X153902943Y-103069746D01*
X153850341Y-103009041D01*
X153822724Y-102977169D01*
X153822720Y-102977166D01*
X153712583Y-102906385D01*
X153586964Y-102869500D01*
X153586962Y-102869500D01*
X153456038Y-102869500D01*
X153456035Y-102869500D01*
X153330416Y-102906385D01*
X153220279Y-102977166D01*
X153134540Y-103076112D01*
X153134537Y-103076117D01*
X153080152Y-103195202D01*
X153080152Y-103195204D01*
X153080151Y-103195206D01*
X153080151Y-103195208D01*
X153061518Y-103324800D01*
X153080151Y-103454392D01*
X153080151Y-103454393D01*
X153080152Y-103454395D01*
X153080152Y-103454397D01*
X153134537Y-103573482D01*
X153134540Y-103573487D01*
X153162349Y-103605580D01*
X153220276Y-103672431D01*
X153220278Y-103672432D01*
X153220279Y-103672433D01*
X153330416Y-103743214D01*
X153389580Y-103760586D01*
X153456038Y-103780100D01*
X153456041Y-103780100D01*
X153586959Y-103780100D01*
X153586962Y-103780100D01*
X153712583Y-103743214D01*
X153822724Y-103672431D01*
X153895923Y-103587955D01*
X153902943Y-103579854D01*
X153947894Y-103554845D01*
X153959775Y-103553900D01*
X153998755Y-103553900D01*
X154047093Y-103571493D01*
X154051929Y-103575926D01*
X154465778Y-103989775D01*
X154516992Y-104040989D01*
X154550225Y-104074222D01*
X154609766Y-104098884D01*
X154634429Y-104109100D01*
X154634430Y-104109100D01*
X154725570Y-104109100D01*
X154731725Y-104109100D01*
X154780063Y-104126693D01*
X154788557Y-104135054D01*
X154810283Y-104160126D01*
X154868776Y-104227631D01*
X154868778Y-104227632D01*
X154868779Y-104227633D01*
X154978916Y-104298414D01*
X155005045Y-104306086D01*
X155091181Y-104331378D01*
X155132603Y-104361876D01*
X155144731Y-104411866D01*
X155121888Y-104457955D01*
X155091181Y-104475685D01*
X154968915Y-104511586D01*
X154858779Y-104582366D01*
X154858776Y-104582368D01*
X154858776Y-104582369D01*
X154848675Y-104594026D01*
X154778557Y-104674946D01*
X154733606Y-104699955D01*
X154721725Y-104700900D01*
X152631279Y-104700900D01*
X152582941Y-104683307D01*
X152574447Y-104674946D01*
X152547211Y-104643514D01*
X152520224Y-104612369D01*
X152520222Y-104612368D01*
X152520220Y-104612365D01*
X152410083Y-104541585D01*
X152284464Y-104504700D01*
X152284462Y-104504700D01*
X152153538Y-104504700D01*
X152153535Y-104504700D01*
X152027916Y-104541585D01*
X151917779Y-104612366D01*
X151832040Y-104711312D01*
X151832037Y-104711317D01*
X151777652Y-104830402D01*
X151777652Y-104830404D01*
X151777651Y-104830406D01*
X151777651Y-104830408D01*
X151759018Y-104960000D01*
X145995901Y-104960000D01*
X145998839Y-104957589D01*
X146124166Y-104804878D01*
X146217292Y-104630650D01*
X146274639Y-104441603D01*
X146294003Y-104245000D01*
X146274639Y-104048397D01*
X146235698Y-103920026D01*
X146217294Y-103859356D01*
X146217293Y-103859352D01*
X146217292Y-103859350D01*
X146124166Y-103685122D01*
X146124163Y-103685118D01*
X146124160Y-103685114D01*
X145998839Y-103532410D01*
X145846135Y-103407089D01*
X145846131Y-103407086D01*
X145846129Y-103407085D01*
X145846128Y-103407084D01*
X145700794Y-103329402D01*
X145671897Y-103313956D01*
X145671893Y-103313955D01*
X145482850Y-103256610D01*
X145286250Y-103237247D01*
X145089650Y-103256610D01*
X145089648Y-103256610D01*
X144900606Y-103313955D01*
X144900602Y-103313956D01*
X144726368Y-103407086D01*
X144726364Y-103407089D01*
X144573660Y-103532410D01*
X144448339Y-103685114D01*
X144448336Y-103685118D01*
X144355206Y-103859352D01*
X144355205Y-103859356D01*
X144297860Y-104048398D01*
X144297860Y-104048400D01*
X144278497Y-104245000D01*
X144297860Y-104441599D01*
X144297860Y-104441601D01*
X144355205Y-104630643D01*
X144355206Y-104630647D01*
X144393826Y-104702900D01*
X144442335Y-104793655D01*
X144448336Y-104804881D01*
X144448339Y-104804885D01*
X144573659Y-104957587D01*
X144578025Y-104961171D01*
X144604228Y-105005437D01*
X144595847Y-105056189D01*
X144556804Y-105089681D01*
X144530317Y-105094500D01*
X141649645Y-105094500D01*
X141601307Y-105076907D01*
X141596481Y-105072484D01*
X141359775Y-104835778D01*
X141359774Y-104835777D01*
X141296125Y-104809414D01*
X141296123Y-104809413D01*
X141275572Y-104800900D01*
X141275571Y-104800900D01*
X139193377Y-104800900D01*
X139172823Y-104809414D01*
X139109173Y-104835778D01*
X139109168Y-104835782D01*
X138600877Y-105344074D01*
X138554257Y-105365814D01*
X138547703Y-105366100D01*
X132581244Y-105366100D01*
X132532906Y-105348507D01*
X132528070Y-105344074D01*
X131103471Y-103919474D01*
X131081731Y-103872854D01*
X131095045Y-103823167D01*
X131137182Y-103793662D01*
X131156645Y-103791100D01*
X136000923Y-103791100D01*
X136007905Y-103790931D01*
X136018383Y-103790678D01*
X136028091Y-103790208D01*
X136039526Y-103789472D01*
X136154833Y-103760586D01*
X136211834Y-103735757D01*
X136214219Y-103734234D01*
X136219706Y-103731052D01*
X136239992Y-103720404D01*
X136239993Y-103720405D01*
X136334680Y-103670708D01*
X136351622Y-103664283D01*
X136386096Y-103655786D01*
X136404026Y-103651368D01*
X136422021Y-103649183D01*
X136475978Y-103649183D01*
X136493974Y-103651368D01*
X136546369Y-103664282D01*
X136563320Y-103670711D01*
X136590763Y-103685114D01*
X136655406Y-103719041D01*
X136678633Y-103731231D01*
X136681882Y-103731383D01*
X136687596Y-103734056D01*
X136726352Y-103754209D01*
X136726357Y-103754211D01*
X136726361Y-103754213D01*
X136785492Y-103773426D01*
X136897079Y-103791100D01*
X136897083Y-103791100D01*
X143759399Y-103791100D01*
X143759400Y-103791100D01*
X143815892Y-103786654D01*
X143846979Y-103781730D01*
X143896379Y-103770301D01*
X144002736Y-103717212D01*
X144053036Y-103680667D01*
X144129373Y-103605582D01*
X144167443Y-103532369D01*
X144184209Y-103500126D01*
X144184209Y-103500124D01*
X144184213Y-103500118D01*
X144203426Y-103440987D01*
X144221100Y-103329400D01*
X144221100Y-94059942D01*
X144837100Y-94059942D01*
X144837100Y-96490055D01*
X144837101Y-96490057D01*
X144845972Y-96534659D01*
X144879764Y-96585232D01*
X144879765Y-96585232D01*
X144879766Y-96585234D01*
X144930342Y-96619028D01*
X144974943Y-96627900D01*
X147405056Y-96627899D01*
X147449658Y-96619028D01*
X147500234Y-96585234D01*
X147534028Y-96534658D01*
X147542900Y-96490057D01*
X147542899Y-94059944D01*
X147534028Y-94015342D01*
X147525598Y-94002726D01*
X147500235Y-93964767D01*
X147488804Y-93957129D01*
X147449658Y-93930972D01*
X147449656Y-93930971D01*
X147405057Y-93922100D01*
X144974944Y-93922100D01*
X144974942Y-93922101D01*
X144930340Y-93930972D01*
X144879767Y-93964764D01*
X144845972Y-94015342D01*
X144845971Y-94015343D01*
X144837100Y-94059942D01*
X144221100Y-94059942D01*
X144221100Y-91587866D01*
X144238693Y-91539528D01*
X144283242Y-91513808D01*
X144331748Y-91521545D01*
X144353015Y-91532913D01*
X144411732Y-91564298D01*
X144424350Y-91571042D01*
X144424354Y-91571043D01*
X144424356Y-91571044D01*
X144459359Y-91581662D01*
X144613397Y-91628389D01*
X144810000Y-91647753D01*
X145006603Y-91628389D01*
X145195650Y-91571042D01*
X145369878Y-91477916D01*
X145522589Y-91352589D01*
X145647916Y-91199878D01*
X145741042Y-91025650D01*
X145798389Y-90836603D01*
X145812336Y-90695000D01*
X149978497Y-90695000D01*
X149997860Y-90891599D01*
X149997860Y-90891601D01*
X150055205Y-91080643D01*
X150055206Y-91080647D01*
X150097525Y-91159820D01*
X150132556Y-91225360D01*
X150148336Y-91254881D01*
X150148339Y-91254885D01*
X150273660Y-91407589D01*
X150426364Y-91532910D01*
X150426368Y-91532913D01*
X150426372Y-91532916D01*
X150537645Y-91592392D01*
X150600602Y-91626043D01*
X150600606Y-91626044D01*
X150608337Y-91628389D01*
X150789647Y-91683389D01*
X150986250Y-91702753D01*
X151182853Y-91683389D01*
X151371900Y-91626042D01*
X151546128Y-91532916D01*
X151698839Y-91407589D01*
X151824166Y-91254878D01*
X151917292Y-91080650D01*
X151974639Y-90891603D01*
X151994003Y-90695000D01*
X151974639Y-90498397D01*
X151917292Y-90309350D01*
X151824166Y-90135122D01*
X151824163Y-90135118D01*
X151824160Y-90135114D01*
X151698839Y-89982410D01*
X151546135Y-89857089D01*
X151546131Y-89857086D01*
X151546129Y-89857085D01*
X151546128Y-89857084D01*
X151443229Y-89802084D01*
X151371897Y-89763956D01*
X151371893Y-89763955D01*
X151182850Y-89706610D01*
X150986250Y-89687247D01*
X150789650Y-89706610D01*
X150789648Y-89706610D01*
X150600606Y-89763955D01*
X150600602Y-89763956D01*
X150426368Y-89857086D01*
X150426364Y-89857089D01*
X150273660Y-89982410D01*
X150148339Y-90135114D01*
X150148336Y-90135118D01*
X150055206Y-90309352D01*
X150055205Y-90309356D01*
X149997860Y-90498398D01*
X149997860Y-90498400D01*
X149978497Y-90695000D01*
X145812336Y-90695000D01*
X145817753Y-90640000D01*
X145798389Y-90443397D01*
X145754965Y-90300247D01*
X145741044Y-90254356D01*
X145741043Y-90254352D01*
X145731382Y-90236277D01*
X145647916Y-90080122D01*
X145647913Y-90080118D01*
X145647910Y-90080114D01*
X145522589Y-89927410D01*
X145369885Y-89802089D01*
X145369881Y-89802086D01*
X145369879Y-89802085D01*
X145369878Y-89802084D01*
X145251032Y-89738560D01*
X145195647Y-89708956D01*
X145195643Y-89708955D01*
X145006600Y-89651610D01*
X144810000Y-89632247D01*
X144613400Y-89651610D01*
X144613398Y-89651610D01*
X144424356Y-89708955D01*
X144424352Y-89708956D01*
X144368968Y-89738560D01*
X144334479Y-89756995D01*
X144331749Y-89758454D01*
X144280825Y-89765724D01*
X144237142Y-89738560D01*
X144221100Y-89692133D01*
X144221100Y-89281342D01*
X144221099Y-89281324D01*
X144216444Y-89223546D01*
X144216444Y-89223542D01*
X144211289Y-89191752D01*
X144199603Y-89142476D01*
X144199283Y-89141128D01*
X144199282Y-89141127D01*
X144199282Y-89141124D01*
X144170534Y-89084575D01*
X144164313Y-89033517D01*
X144192368Y-88990401D01*
X144237570Y-88975300D01*
X147419807Y-88975300D01*
X147582393Y-88975300D01*
X147630731Y-88992893D01*
X147635566Y-88997325D01*
X148257992Y-89619752D01*
X148278961Y-89664718D01*
X148279253Y-89664677D01*
X148279391Y-89665641D01*
X148279732Y-89666371D01*
X148279834Y-89668721D01*
X148280018Y-89670000D01*
X148298651Y-89799592D01*
X148298651Y-89799593D01*
X148298652Y-89799595D01*
X148298652Y-89799597D01*
X148353037Y-89918682D01*
X148353040Y-89918687D01*
X148380427Y-89950293D01*
X148438776Y-90017631D01*
X148438778Y-90017632D01*
X148438779Y-90017633D01*
X148548916Y-90088414D01*
X148638282Y-90114654D01*
X148674538Y-90125300D01*
X148674541Y-90125300D01*
X148805459Y-90125300D01*
X148805462Y-90125300D01*
X148931083Y-90088414D01*
X149041224Y-90017631D01*
X149126961Y-89918685D01*
X149181349Y-89799592D01*
X149199982Y-89670000D01*
X149181349Y-89540408D01*
X149181347Y-89540403D01*
X149181347Y-89540402D01*
X149126962Y-89421317D01*
X149126959Y-89421312D01*
X149101258Y-89391652D01*
X149041224Y-89322369D01*
X149041220Y-89322366D01*
X148931083Y-89251585D01*
X148805464Y-89214700D01*
X148805462Y-89214700D01*
X148747609Y-89214700D01*
X148699271Y-89197107D01*
X148694435Y-89192675D01*
X148617059Y-89115299D01*
X148519233Y-89017474D01*
X148497494Y-88970854D01*
X148510808Y-88921167D01*
X148552945Y-88891662D01*
X148572408Y-88889100D01*
X149211725Y-88889100D01*
X149260063Y-88906693D01*
X149268557Y-88915054D01*
X149298566Y-88949686D01*
X149348776Y-89007631D01*
X149348778Y-89007632D01*
X149348779Y-89007633D01*
X149458916Y-89078414D01*
X149528774Y-89098926D01*
X149584538Y-89115300D01*
X149584541Y-89115300D01*
X149715459Y-89115300D01*
X149715462Y-89115300D01*
X149841083Y-89078414D01*
X149951224Y-89007631D01*
X150036961Y-88908685D01*
X150056326Y-88866281D01*
X150083574Y-88806618D01*
X150119657Y-88769957D01*
X150170864Y-88765067D01*
X150210108Y-88790150D01*
X150273663Y-88867591D01*
X150426364Y-88992910D01*
X150426368Y-88992913D01*
X150426372Y-88992916D01*
X150599137Y-89085260D01*
X150600602Y-89086043D01*
X150600606Y-89086044D01*
X150628459Y-89094493D01*
X150789647Y-89143389D01*
X150986250Y-89162753D01*
X151182853Y-89143389D01*
X151371900Y-89086042D01*
X151546128Y-88992916D01*
X151698839Y-88867589D01*
X151824166Y-88714878D01*
X151917292Y-88540650D01*
X151974639Y-88351603D01*
X151994003Y-88155000D01*
X151974639Y-87958397D01*
X151917292Y-87769350D01*
X151824166Y-87595122D01*
X151824163Y-87595118D01*
X151824160Y-87595114D01*
X151698839Y-87442410D01*
X151546135Y-87317089D01*
X151546131Y-87317086D01*
X151546129Y-87317085D01*
X151546128Y-87317084D01*
X151371900Y-87223958D01*
X151286811Y-87198146D01*
X151202467Y-87172560D01*
X151171123Y-87153772D01*
X149297352Y-85280000D01*
X155032251Y-85280000D01*
X155051628Y-85600357D01*
X155109477Y-85916030D01*
X155109480Y-85916044D01*
X155187027Y-86164897D01*
X155204962Y-86222451D01*
X155336680Y-86515118D01*
X155502715Y-86789774D01*
X155502718Y-86789778D01*
X155502720Y-86789781D01*
X155502725Y-86789788D01*
X155700641Y-87042409D01*
X155700652Y-87042421D01*
X155927578Y-87269347D01*
X155927590Y-87269358D01*
X156180211Y-87467274D01*
X156180218Y-87467279D01*
X156180226Y-87467285D01*
X156454882Y-87633320D01*
X156747549Y-87765038D01*
X156960092Y-87831269D01*
X157053955Y-87860519D01*
X157053957Y-87860519D01*
X157053959Y-87860520D01*
X157053963Y-87860520D01*
X157053969Y-87860522D01*
X157369644Y-87918371D01*
X157369640Y-87918371D01*
X157432052Y-87922145D01*
X157690000Y-87937749D01*
X157992084Y-87919476D01*
X158010357Y-87918371D01*
X158326030Y-87860522D01*
X158326029Y-87860522D01*
X158326041Y-87860520D01*
X158632451Y-87765038D01*
X158925118Y-87633320D01*
X159199774Y-87467285D01*
X159452414Y-87269354D01*
X159679354Y-87042414D01*
X159763465Y-86935055D01*
X159877274Y-86789788D01*
X159877273Y-86789788D01*
X159877285Y-86789774D01*
X160043320Y-86515118D01*
X160175038Y-86222451D01*
X160270520Y-85916041D01*
X160311359Y-85693188D01*
X160328371Y-85600357D01*
X160333532Y-85515033D01*
X160347749Y-85280000D01*
X160328371Y-84959644D01*
X160324962Y-84941044D01*
X160270522Y-84643969D01*
X160270519Y-84643955D01*
X160221861Y-84487808D01*
X160175038Y-84337549D01*
X160043320Y-84044882D01*
X159877285Y-83770226D01*
X159877279Y-83770218D01*
X159877274Y-83770211D01*
X159679358Y-83517590D01*
X159679347Y-83517578D01*
X159452421Y-83290652D01*
X159452409Y-83290641D01*
X159199788Y-83092725D01*
X159199781Y-83092720D01*
X159199778Y-83092718D01*
X159199774Y-83092715D01*
X158925118Y-82926680D01*
X158632451Y-82794962D01*
X158632445Y-82794960D01*
X158326044Y-82699480D01*
X158326030Y-82699477D01*
X158010355Y-82641628D01*
X158010359Y-82641628D01*
X157690000Y-82622251D01*
X157369642Y-82641628D01*
X157053969Y-82699477D01*
X157053955Y-82699480D01*
X156747554Y-82794960D01*
X156747550Y-82794961D01*
X156747549Y-82794962D01*
X156454882Y-82926680D01*
X156297847Y-83021611D01*
X156180218Y-83092720D01*
X156180211Y-83092725D01*
X155927590Y-83290641D01*
X155927578Y-83290652D01*
X155700652Y-83517578D01*
X155700641Y-83517590D01*
X155502725Y-83770211D01*
X155502720Y-83770218D01*
X155502715Y-83770225D01*
X155502715Y-83770226D01*
X155336680Y-84044882D01*
X155214322Y-84316753D01*
X155204960Y-84337554D01*
X155109480Y-84643955D01*
X155109477Y-84643969D01*
X155051628Y-84959642D01*
X155032251Y-85280000D01*
X149297352Y-85280000D01*
X148425896Y-84408544D01*
X148425895Y-84408543D01*
X148425891Y-84408540D01*
X148425890Y-84408539D01*
X148288523Y-84316754D01*
X148135890Y-84253531D01*
X148135887Y-84253530D01*
X148135886Y-84253530D01*
X147973857Y-84221300D01*
X147973855Y-84221300D01*
X144602605Y-84221300D01*
X143912605Y-84221300D01*
X143747395Y-84221300D01*
X143747393Y-84221300D01*
X143585363Y-84253530D01*
X143585360Y-84253531D01*
X143432728Y-84316753D01*
X143295354Y-84408543D01*
X143158543Y-84545354D01*
X143066753Y-84682728D01*
X143003531Y-84835360D01*
X143003530Y-84835363D01*
X142971300Y-84997393D01*
X142971300Y-85162606D01*
X143003530Y-85324636D01*
X143003531Y-85324639D01*
X143063368Y-85469100D01*
X143066754Y-85477273D01*
X143158539Y-85614640D01*
X143158540Y-85614641D01*
X143158543Y-85614645D01*
X143275354Y-85731456D01*
X143275357Y-85731458D01*
X143275360Y-85731461D01*
X143412727Y-85823246D01*
X143565360Y-85886469D01*
X143662581Y-85905807D01*
X143727393Y-85918700D01*
X143727395Y-85918700D01*
X143774330Y-85918700D01*
X143822668Y-85936293D01*
X143836857Y-85952122D01*
X143838540Y-85954641D01*
X143838544Y-85954646D01*
X143955354Y-86071456D01*
X143955357Y-86071458D01*
X143955360Y-86071461D01*
X144092727Y-86163246D01*
X144245360Y-86226469D01*
X144342581Y-86245807D01*
X144407393Y-86258700D01*
X144407395Y-86258700D01*
X144572607Y-86258700D01*
X144626616Y-86247956D01*
X144734640Y-86226469D01*
X144887273Y-86163246D01*
X145024640Y-86071461D01*
X145141461Y-85954640D01*
X145156507Y-85932121D01*
X145197990Y-85901704D01*
X145219034Y-85898700D01*
X147512701Y-85898700D01*
X147561039Y-85916293D01*
X147565875Y-85920726D01*
X149721475Y-88076326D01*
X149743215Y-88122946D01*
X149729901Y-88172633D01*
X149687764Y-88202138D01*
X149668301Y-88204700D01*
X149584535Y-88204700D01*
X149458916Y-88241585D01*
X149348779Y-88312366D01*
X149268557Y-88404946D01*
X149223606Y-88429955D01*
X149211725Y-88430900D01*
X148394862Y-88430900D01*
X148346524Y-88413307D01*
X148341688Y-88408874D01*
X148334907Y-88402093D01*
X148334892Y-88402080D01*
X148027590Y-88094777D01*
X147967147Y-88069742D01*
X147967145Y-88069741D01*
X147943388Y-88059900D01*
X147943387Y-88059900D01*
X145885571Y-88059900D01*
X142009672Y-88059900D01*
X141961334Y-88042307D01*
X141935614Y-87997758D01*
X141941268Y-87953460D01*
X141948443Y-87937749D01*
X141971349Y-87887592D01*
X141989982Y-87758000D01*
X141971349Y-87628408D01*
X141971347Y-87628403D01*
X141971347Y-87628402D01*
X141916962Y-87509317D01*
X141916959Y-87509312D01*
X141880542Y-87467285D01*
X141831224Y-87410369D01*
X141831220Y-87410366D01*
X141721083Y-87339585D01*
X141595464Y-87302700D01*
X141595462Y-87302700D01*
X141464538Y-87302700D01*
X141464535Y-87302700D01*
X141338916Y-87339585D01*
X141228779Y-87410366D01*
X141143040Y-87509312D01*
X141143037Y-87509317D01*
X141088652Y-87628402D01*
X141088651Y-87628404D01*
X141085739Y-87648660D01*
X141080903Y-87682300D01*
X141079709Y-87690602D01*
X141055415Y-87735944D01*
X141007660Y-87755062D01*
X141005274Y-87755100D01*
X139188613Y-87755100D01*
X139140275Y-87737507D01*
X139114555Y-87692958D01*
X139120209Y-87648660D01*
X139144663Y-87595114D01*
X139150290Y-87582792D01*
X139168923Y-87453200D01*
X139150290Y-87323608D01*
X139150288Y-87323603D01*
X139150288Y-87323602D01*
X139095903Y-87204517D01*
X139095900Y-87204512D01*
X139051933Y-87153772D01*
X139010165Y-87105569D01*
X139010161Y-87105566D01*
X138900024Y-87034785D01*
X138774405Y-86997900D01*
X138774403Y-86997900D01*
X138643479Y-86997900D01*
X138643476Y-86997900D01*
X138517857Y-87034785D01*
X138407720Y-87105566D01*
X138407717Y-87105568D01*
X138407717Y-87105569D01*
X138379968Y-87137592D01*
X138327498Y-87198146D01*
X138282547Y-87223155D01*
X138270666Y-87224100D01*
X137921227Y-87224100D01*
X137886350Y-87238547D01*
X137837028Y-87258977D01*
X137837020Y-87258982D01*
X136855777Y-88240226D01*
X133338874Y-91757128D01*
X133292254Y-91778868D01*
X133242567Y-91765554D01*
X133213062Y-91723417D01*
X133210500Y-91703954D01*
X133210500Y-86194526D01*
X141169018Y-86194526D01*
X141187651Y-86324118D01*
X141187651Y-86324119D01*
X141187652Y-86324121D01*
X141187652Y-86324123D01*
X141242037Y-86443208D01*
X141242040Y-86443213D01*
X141273463Y-86479477D01*
X141327776Y-86542157D01*
X141327778Y-86542158D01*
X141327779Y-86542159D01*
X141437916Y-86612940D01*
X141527282Y-86639180D01*
X141563538Y-86649826D01*
X141563541Y-86649826D01*
X141694459Y-86649826D01*
X141694462Y-86649826D01*
X141820083Y-86612940D01*
X141930224Y-86542157D01*
X141990356Y-86472760D01*
X142010443Y-86449580D01*
X142055394Y-86424571D01*
X142067275Y-86423626D01*
X142247982Y-86423626D01*
X142296320Y-86441219D01*
X142304814Y-86449580D01*
X142329542Y-86478117D01*
X142389776Y-86547631D01*
X142389778Y-86547632D01*
X142389779Y-86547633D01*
X142499916Y-86618414D01*
X142589282Y-86644654D01*
X142625538Y-86655300D01*
X142625541Y-86655300D01*
X142756459Y-86655300D01*
X142756462Y-86655300D01*
X142882083Y-86618414D01*
X142992224Y-86547631D01*
X143077961Y-86448685D01*
X143132349Y-86329592D01*
X143150982Y-86200000D01*
X143132349Y-86070408D01*
X143132347Y-86070403D01*
X143132347Y-86070402D01*
X143077962Y-85951317D01*
X143077959Y-85951312D01*
X143047614Y-85916293D01*
X142992224Y-85852369D01*
X142992220Y-85852366D01*
X142882083Y-85781585D01*
X142756464Y-85744700D01*
X142756462Y-85744700D01*
X142625538Y-85744700D01*
X142625535Y-85744700D01*
X142499916Y-85781585D01*
X142389779Y-85852365D01*
X142314301Y-85939472D01*
X142269351Y-85964481D01*
X142257469Y-85965426D01*
X142067275Y-85965426D01*
X142018937Y-85947833D01*
X142010443Y-85939472D01*
X141964514Y-85886468D01*
X141930224Y-85846895D01*
X141930220Y-85846892D01*
X141820083Y-85776111D01*
X141694464Y-85739226D01*
X141694462Y-85739226D01*
X141563538Y-85739226D01*
X141563535Y-85739226D01*
X141437916Y-85776111D01*
X141327779Y-85846892D01*
X141327776Y-85846894D01*
X141327776Y-85846895D01*
X141323033Y-85852369D01*
X141242040Y-85945838D01*
X141242037Y-85945843D01*
X141187652Y-86064928D01*
X141187652Y-86064930D01*
X141187651Y-86064932D01*
X141187651Y-86064934D01*
X141169018Y-86194526D01*
X133210500Y-86194526D01*
X133210500Y-86075700D01*
X133228093Y-86027362D01*
X133272642Y-86001642D01*
X133285700Y-86000500D01*
X138575889Y-86000500D01*
X138575892Y-86000500D01*
X138703186Y-85966392D01*
X138723533Y-85954645D01*
X138817314Y-85900500D01*
X138910500Y-85807314D01*
X138976391Y-85693188D01*
X138977006Y-85690893D01*
X139010500Y-85565892D01*
X139010500Y-82355700D01*
X139028093Y-82307362D01*
X139072642Y-82281642D01*
X139085700Y-82280500D01*
X158124108Y-82280500D01*
X158187725Y-82280500D01*
X158192264Y-82280636D01*
G37*
%TD.AperFunction*%
%TA.AperFunction,Conductor*%
G36*
X104577888Y-103986693D02*
G01*
X104603608Y-104031242D01*
X104597954Y-104075540D01*
X104567873Y-104141405D01*
X104551497Y-104255300D01*
X104549240Y-104271000D01*
X104567873Y-104400592D01*
X104567873Y-104400593D01*
X104567874Y-104400595D01*
X104567874Y-104400597D01*
X104622259Y-104519682D01*
X104622262Y-104519687D01*
X104641237Y-104541585D01*
X104707998Y-104618631D01*
X104708000Y-104618632D01*
X104708001Y-104618633D01*
X104818138Y-104689414D01*
X104892716Y-104711312D01*
X104943760Y-104726300D01*
X104943763Y-104726300D01*
X105074681Y-104726300D01*
X105074684Y-104726300D01*
X105200305Y-104689414D01*
X105287425Y-104633425D01*
X105337598Y-104622093D01*
X105381253Y-104643514D01*
X106621895Y-105884156D01*
X106621902Y-105884164D01*
X106626188Y-105888450D01*
X106868141Y-106130404D01*
X106951904Y-106165100D01*
X106951905Y-106165100D01*
X115582297Y-106165100D01*
X115630635Y-106182693D01*
X115635471Y-106187126D01*
X116621040Y-107172695D01*
X116685149Y-107236804D01*
X116768912Y-107271500D01*
X119124184Y-107271500D01*
X119172522Y-107289093D01*
X119198242Y-107333642D01*
X119189309Y-107384300D01*
X119181016Y-107395946D01*
X119133040Y-107451312D01*
X119133037Y-107451317D01*
X119078652Y-107570402D01*
X119078652Y-107570404D01*
X119078651Y-107570406D01*
X119078651Y-107570408D01*
X119060018Y-107700000D01*
X119078651Y-107829592D01*
X119078651Y-107829593D01*
X119078652Y-107829595D01*
X119078652Y-107829597D01*
X119133037Y-107948682D01*
X119133040Y-107948687D01*
X119140792Y-107957633D01*
X119218776Y-108047631D01*
X119218778Y-108047632D01*
X119218779Y-108047633D01*
X119328916Y-108118414D01*
X119418282Y-108144654D01*
X119454538Y-108155300D01*
X119454541Y-108155300D01*
X119585459Y-108155300D01*
X119585462Y-108155300D01*
X119711083Y-108118414D01*
X119821224Y-108047631D01*
X119906961Y-107948685D01*
X119948063Y-107858685D01*
X119961347Y-107829597D01*
X119961347Y-107829596D01*
X119961349Y-107829592D01*
X119979982Y-107700000D01*
X119968031Y-107616882D01*
X119978567Y-107566534D01*
X119989292Y-107553007D01*
X120074998Y-107467301D01*
X120121618Y-107445561D01*
X120171305Y-107458875D01*
X120200810Y-107501012D01*
X120196577Y-107551713D01*
X120191054Y-107563805D01*
X120177165Y-107660404D01*
X120172421Y-107693400D01*
X120191054Y-107822992D01*
X120191054Y-107822993D01*
X120191055Y-107822995D01*
X120191055Y-107822997D01*
X120245440Y-107942082D01*
X120245443Y-107942087D01*
X120258914Y-107957633D01*
X120331179Y-108041031D01*
X120331181Y-108041032D01*
X120331182Y-108041033D01*
X120441319Y-108111814D01*
X120509290Y-108131772D01*
X120566941Y-108148700D01*
X120566944Y-108148700D01*
X120697862Y-108148700D01*
X120697865Y-108148700D01*
X120823486Y-108111814D01*
X120933627Y-108041031D01*
X121005892Y-107957633D01*
X121014886Y-107947254D01*
X121059837Y-107922245D01*
X121071718Y-107921300D01*
X122341930Y-107921300D01*
X122341932Y-107921300D01*
X122425695Y-107886604D01*
X123051173Y-107261126D01*
X123097793Y-107239386D01*
X123104347Y-107239100D01*
X123908961Y-107239100D01*
X123957299Y-107256693D01*
X123983019Y-107301242D01*
X123974086Y-107351900D01*
X123949617Y-107377562D01*
X123848779Y-107442366D01*
X123848776Y-107442368D01*
X123848776Y-107442369D01*
X123834895Y-107458389D01*
X123763040Y-107541312D01*
X123763037Y-107541317D01*
X123708652Y-107660402D01*
X123708652Y-107660404D01*
X123708651Y-107660406D01*
X123708651Y-107660408D01*
X123690018Y-107790000D01*
X123708651Y-107919592D01*
X123708651Y-107919593D01*
X123708652Y-107919595D01*
X123708652Y-107919597D01*
X123763037Y-108038682D01*
X123763040Y-108038687D01*
X123770792Y-108047633D01*
X123848776Y-108137631D01*
X123848778Y-108137632D01*
X123848779Y-108137633D01*
X123958916Y-108208414D01*
X124048282Y-108234654D01*
X124084538Y-108245300D01*
X124084541Y-108245300D01*
X124215459Y-108245300D01*
X124215462Y-108245300D01*
X124341083Y-108208414D01*
X124451224Y-108137631D01*
X124536961Y-108038685D01*
X124576898Y-107951235D01*
X124591347Y-107919597D01*
X124591347Y-107919596D01*
X124591349Y-107919592D01*
X124609982Y-107790000D01*
X124609439Y-107786226D01*
X124605132Y-107756270D01*
X124602760Y-107739772D01*
X124613294Y-107689424D01*
X124624012Y-107675904D01*
X124683192Y-107616724D01*
X124729812Y-107594986D01*
X124736365Y-107594700D01*
X125097650Y-107594700D01*
X125145988Y-107612293D01*
X125171708Y-107656842D01*
X125162775Y-107707500D01*
X125150824Y-107723074D01*
X125128544Y-107745353D01*
X125128543Y-107745354D01*
X125036751Y-107882730D01*
X124996500Y-107979903D01*
X124983867Y-108000358D01*
X124983042Y-108001309D01*
X124983039Y-108001314D01*
X124928651Y-108120405D01*
X124910018Y-108250000D01*
X124928651Y-108379594D01*
X124953405Y-108433795D01*
X124958756Y-108450363D01*
X124973531Y-108524640D01*
X125036754Y-108677273D01*
X125128539Y-108814640D01*
X125128540Y-108814641D01*
X125128543Y-108814645D01*
X125128544Y-108814646D01*
X126418539Y-110104640D01*
X126441025Y-110127126D01*
X126462765Y-110173746D01*
X126449451Y-110223433D01*
X126407314Y-110252938D01*
X126387851Y-110255500D01*
X121072749Y-110255500D01*
X121024411Y-110237907D01*
X121019575Y-110233474D01*
X120914925Y-110128824D01*
X120893185Y-110082204D01*
X120892899Y-110075650D01*
X120892899Y-109274944D01*
X120884028Y-109230342D01*
X120868163Y-109206599D01*
X120850235Y-109179767D01*
X120850234Y-109179766D01*
X120799658Y-109145972D01*
X120799656Y-109145971D01*
X120755057Y-109137100D01*
X120104349Y-109137100D01*
X120056011Y-109119507D01*
X120051175Y-109115074D01*
X118564646Y-107628544D01*
X118564645Y-107628543D01*
X118564641Y-107628540D01*
X118564640Y-107628539D01*
X118427273Y-107536754D01*
X118274640Y-107473531D01*
X118274637Y-107473530D01*
X118274636Y-107473530D01*
X118112607Y-107441300D01*
X118112605Y-107441300D01*
X105298549Y-107441300D01*
X105250211Y-107423707D01*
X105245375Y-107419274D01*
X102616446Y-104790344D01*
X102616445Y-104790343D01*
X102616441Y-104790340D01*
X102616440Y-104790339D01*
X102479073Y-104698554D01*
X102468146Y-104694028D01*
X102434367Y-104680036D01*
X102326440Y-104635331D01*
X102326437Y-104635330D01*
X102326436Y-104635330D01*
X102164407Y-104603100D01*
X102164405Y-104603100D01*
X99210349Y-104603100D01*
X99162011Y-104585507D01*
X99157175Y-104581074D01*
X98959775Y-104383674D01*
X98938035Y-104337054D01*
X98951349Y-104287367D01*
X98993486Y-104257862D01*
X99012949Y-104255300D01*
X99125459Y-104255300D01*
X99125462Y-104255300D01*
X99251083Y-104218414D01*
X99361224Y-104147631D01*
X99446961Y-104048685D01*
X99463230Y-104013061D01*
X99499313Y-103976400D01*
X99531634Y-103969100D01*
X99634429Y-103969100D01*
X103054429Y-103969100D01*
X104529550Y-103969100D01*
X104577888Y-103986693D01*
G37*
%TD.AperFunction*%
%TA.AperFunction,Conductor*%
G36*
X130259938Y-107237150D02*
G01*
X130289443Y-107279287D01*
X130291239Y-107288047D01*
X130298650Y-107339589D01*
X130298652Y-107339597D01*
X130353037Y-107458682D01*
X130353040Y-107458687D01*
X130386749Y-107497589D01*
X130438776Y-107557631D01*
X130450953Y-107565456D01*
X130482108Y-107606389D01*
X130485500Y-107628720D01*
X130485500Y-108083434D01*
X130467907Y-108131772D01*
X130463474Y-108136608D01*
X130246408Y-108353674D01*
X130199788Y-108375414D01*
X130193234Y-108375700D01*
X127703634Y-108375700D01*
X127655296Y-108358107D01*
X127650460Y-108353674D01*
X127165261Y-107868474D01*
X127143521Y-107821854D01*
X127156835Y-107772167D01*
X127198972Y-107742662D01*
X127218435Y-107740100D01*
X129620039Y-107740100D01*
X129620041Y-107740100D01*
X129703804Y-107705404D01*
X130163632Y-107245574D01*
X130210251Y-107223836D01*
X130259938Y-107237150D01*
G37*
%TD.AperFunction*%
%TA.AperFunction,Conductor*%
G36*
X129660976Y-106286850D02*
G01*
X129686248Y-106317212D01*
X129710486Y-106370286D01*
X129710489Y-106370291D01*
X129736341Y-106400125D01*
X129774965Y-106444700D01*
X129783564Y-106454623D01*
X129801923Y-106502675D01*
X129785098Y-106551286D01*
X129779907Y-106557043D01*
X129377078Y-106959874D01*
X129330457Y-106981614D01*
X129323903Y-106981900D01*
X127165149Y-106981900D01*
X127116811Y-106964307D01*
X127111975Y-106959874D01*
X127060875Y-106908774D01*
X127039135Y-106862154D01*
X127052449Y-106812467D01*
X127094586Y-106782962D01*
X127145830Y-106787446D01*
X127155828Y-106793074D01*
X127156019Y-106793202D01*
X127156022Y-106793203D01*
X127156023Y-106793204D01*
X127239786Y-106827900D01*
X127239787Y-106827900D01*
X128606079Y-106827900D01*
X128606081Y-106827900D01*
X128689844Y-106793204D01*
X129013579Y-106469469D01*
X129013579Y-106469467D01*
X129082922Y-106400125D01*
X129129543Y-106378386D01*
X129136096Y-106378100D01*
X129432779Y-106378100D01*
X129432781Y-106378100D01*
X129516544Y-106343404D01*
X129564672Y-106295275D01*
X129611289Y-106273537D01*
X129660976Y-106286850D01*
G37*
%TD.AperFunction*%
%TA.AperFunction,Conductor*%
G36*
X122562812Y-106349493D02*
G01*
X122588532Y-106394042D01*
X122579599Y-106444700D01*
X122540194Y-106477765D01*
X122529146Y-106480855D01*
X122528920Y-106480899D01*
X122445153Y-106515597D01*
X122047078Y-106913674D01*
X122000458Y-106935414D01*
X121993904Y-106935700D01*
X120292696Y-106935700D01*
X120244358Y-106918107D01*
X120218638Y-106873558D01*
X120227571Y-106822900D01*
X120239522Y-106807326D01*
X120321203Y-106725645D01*
X120410479Y-106636369D01*
X120410479Y-106636368D01*
X120421023Y-106625824D01*
X120421038Y-106625807D01*
X120692923Y-106353925D01*
X120739543Y-106332186D01*
X120746097Y-106331900D01*
X122514474Y-106331900D01*
X122562812Y-106349493D01*
G37*
%TD.AperFunction*%
%TA.AperFunction,Conductor*%
G36*
X129640113Y-104817226D02*
G01*
X129659987Y-104864672D01*
X129659306Y-104878953D01*
X129651207Y-104935280D01*
X129629948Y-104977751D01*
X129438554Y-105169147D01*
X129438553Y-105169147D01*
X129374446Y-105233253D01*
X129361628Y-105264196D01*
X129343637Y-105307634D01*
X129339749Y-105317020D01*
X129339749Y-105844453D01*
X129322156Y-105892791D01*
X129317723Y-105897627D01*
X129315076Y-105900274D01*
X129268456Y-105922014D01*
X129261902Y-105922300D01*
X129055880Y-105922300D01*
X128965216Y-105922300D01*
X128923334Y-105939648D01*
X128881452Y-105956996D01*
X128828449Y-106010000D01*
X128691279Y-106147170D01*
X128488375Y-106350074D01*
X128441755Y-106371814D01*
X128435201Y-106372100D01*
X127410666Y-106372100D01*
X127362328Y-106354507D01*
X127357503Y-106350085D01*
X126980225Y-105972808D01*
X126918213Y-105910796D01*
X126834450Y-105876100D01*
X126834449Y-105876100D01*
X126676596Y-105876100D01*
X126628258Y-105858507D01*
X126602538Y-105813958D01*
X126611471Y-105763300D01*
X126623422Y-105747726D01*
X127472035Y-104899112D01*
X127518655Y-104877372D01*
X127525209Y-104877086D01*
X129107579Y-104877086D01*
X129107584Y-104877086D01*
X129107585Y-104877086D01*
X129107590Y-104877083D01*
X129110266Y-104876551D01*
X129146131Y-104878149D01*
X129204538Y-104895300D01*
X129204540Y-104895300D01*
X129335459Y-104895300D01*
X129335462Y-104895300D01*
X129461083Y-104858414D01*
X129496299Y-104835782D01*
X129544216Y-104804988D01*
X129594392Y-104793655D01*
X129640113Y-104817226D01*
G37*
%TD.AperFunction*%
%TA.AperFunction,Conductor*%
G36*
X139466081Y-88992893D02*
G01*
X139491801Y-89037442D01*
X139484732Y-89084668D01*
X139455249Y-89142471D01*
X139455245Y-89142479D01*
X139436498Y-89201757D01*
X139436496Y-89201766D01*
X139419701Y-89313475D01*
X139419701Y-89313484D01*
X139505447Y-100231891D01*
X139488233Y-100280366D01*
X139443889Y-100306435D01*
X139430041Y-100307682D01*
X136686092Y-100300102D01*
X136637803Y-100282375D01*
X136612207Y-100237756D01*
X136611100Y-100224902D01*
X136611100Y-99310211D01*
X136611099Y-99310187D01*
X136609002Y-99283195D01*
X136606766Y-99254420D01*
X136604448Y-99239597D01*
X136601966Y-99223720D01*
X136601965Y-99223713D01*
X136590842Y-99174973D01*
X136538176Y-99068406D01*
X136523209Y-99047633D01*
X136501834Y-99017965D01*
X136501833Y-99017964D01*
X136501831Y-99017961D01*
X136427050Y-98941326D01*
X136427047Y-98941324D01*
X136321806Y-98886068D01*
X136321799Y-98886065D01*
X136262758Y-98866622D01*
X136262759Y-98866622D01*
X136151232Y-98848503D01*
X136151235Y-98848503D01*
X128801722Y-98819300D01*
X128801719Y-98819300D01*
X128745762Y-98823438D01*
X128745727Y-98823442D01*
X128714961Y-98828143D01*
X128714945Y-98828146D01*
X128666028Y-98839138D01*
X128559299Y-98891474D01*
X128559293Y-98891477D01*
X128508742Y-98927663D01*
X128431868Y-99002217D01*
X128376289Y-99107289D01*
X128376288Y-99107291D01*
X128356658Y-99166288D01*
X128338202Y-99277730D01*
X128338201Y-99277740D01*
X128311861Y-103009030D01*
X128311862Y-103009055D01*
X128316099Y-103066804D01*
X128316101Y-103066820D01*
X128321020Y-103098605D01*
X128321021Y-103098611D01*
X128332649Y-103149279D01*
X128332652Y-103149286D01*
X128361618Y-103207315D01*
X128367465Y-103258421D01*
X128339094Y-103301329D01*
X128294335Y-103316100D01*
X126899227Y-103316100D01*
X126880890Y-103323696D01*
X126815023Y-103350978D01*
X126077129Y-104088874D01*
X126030509Y-104110614D01*
X126023955Y-104110900D01*
X108316044Y-104110900D01*
X108267706Y-104093307D01*
X108262870Y-104088874D01*
X107811126Y-103637129D01*
X107789386Y-103590509D01*
X107789100Y-103583955D01*
X107789100Y-103180000D01*
X116200018Y-103180000D01*
X116218651Y-103309592D01*
X116218651Y-103309593D01*
X116218652Y-103309595D01*
X116218652Y-103309597D01*
X116273037Y-103428682D01*
X116273040Y-103428687D01*
X116299277Y-103458965D01*
X116358776Y-103527631D01*
X116358778Y-103527632D01*
X116358779Y-103527633D01*
X116468916Y-103598414D01*
X116521333Y-103613805D01*
X116594538Y-103635300D01*
X116594541Y-103635300D01*
X116725459Y-103635300D01*
X116725462Y-103635300D01*
X116851083Y-103598414D01*
X116961220Y-103527634D01*
X116961220Y-103527633D01*
X116961224Y-103527631D01*
X116975414Y-103511254D01*
X117020364Y-103486245D01*
X117032246Y-103485300D01*
X118512266Y-103485300D01*
X118512269Y-103485300D01*
X118589917Y-103464494D01*
X118637342Y-103437113D01*
X118659535Y-103424300D01*
X118864998Y-103218836D01*
X118911618Y-103197097D01*
X118918172Y-103196811D01*
X118976024Y-103196811D01*
X118976027Y-103196811D01*
X119101648Y-103159925D01*
X119211789Y-103089142D01*
X119297526Y-102990196D01*
X119341468Y-102893976D01*
X119351912Y-102871108D01*
X119351912Y-102871107D01*
X119351914Y-102871103D01*
X119370547Y-102741511D01*
X119351914Y-102611919D01*
X119351912Y-102611914D01*
X119351912Y-102611913D01*
X119297527Y-102492828D01*
X119297524Y-102492823D01*
X119247466Y-102435054D01*
X119211789Y-102393880D01*
X119211785Y-102393877D01*
X119101648Y-102323096D01*
X118976029Y-102286211D01*
X118976027Y-102286211D01*
X118845103Y-102286211D01*
X118845100Y-102286211D01*
X118719481Y-102323096D01*
X118609344Y-102393877D01*
X118523605Y-102492823D01*
X118523602Y-102492828D01*
X118469217Y-102611913D01*
X118469217Y-102611915D01*
X118469216Y-102611917D01*
X118469216Y-102611919D01*
X118450834Y-102739766D01*
X118449818Y-102746834D01*
X118447691Y-102746528D01*
X118432990Y-102786922D01*
X118428558Y-102791758D01*
X118367643Y-102852674D01*
X118321023Y-102874414D01*
X118314468Y-102874700D01*
X117032246Y-102874700D01*
X116983908Y-102857107D01*
X116975418Y-102848750D01*
X116961224Y-102832369D01*
X116961222Y-102832368D01*
X116961220Y-102832365D01*
X116851083Y-102761585D01*
X116725464Y-102724700D01*
X116725462Y-102724700D01*
X116594538Y-102724700D01*
X116594535Y-102724700D01*
X116468916Y-102761585D01*
X116358779Y-102832366D01*
X116358776Y-102832368D01*
X116358776Y-102832369D01*
X116356546Y-102834943D01*
X116273040Y-102931312D01*
X116273037Y-102931317D01*
X116218652Y-103050402D01*
X116218652Y-103050404D01*
X116218651Y-103050406D01*
X116218651Y-103050408D01*
X116200018Y-103180000D01*
X107789100Y-103180000D01*
X107789100Y-103095044D01*
X107806693Y-103046706D01*
X107823643Y-103031782D01*
X107861224Y-103007631D01*
X107946961Y-102908685D01*
X107981815Y-102832365D01*
X108001347Y-102789597D01*
X108001347Y-102789596D01*
X108001349Y-102789592D01*
X108019982Y-102660000D01*
X108001349Y-102530408D01*
X108001347Y-102530403D01*
X108001347Y-102530402D01*
X107946962Y-102411317D01*
X107946959Y-102411312D01*
X107921258Y-102381652D01*
X107861224Y-102312369D01*
X107861220Y-102312366D01*
X107751083Y-102241585D01*
X107625464Y-102204700D01*
X107625462Y-102204700D01*
X107494538Y-102204700D01*
X107494535Y-102204700D01*
X107368916Y-102241585D01*
X107258779Y-102312366D01*
X107173040Y-102411312D01*
X107173037Y-102411317D01*
X107118652Y-102530402D01*
X107118652Y-102530404D01*
X107118651Y-102530406D01*
X107118651Y-102530408D01*
X107100018Y-102660000D01*
X107118651Y-102789592D01*
X107118651Y-102789593D01*
X107118652Y-102789595D01*
X107120167Y-102794756D01*
X107118455Y-102795258D01*
X107121942Y-102839162D01*
X107092100Y-102881061D01*
X107042308Y-102893976D01*
X106996289Y-102872291D01*
X106109780Y-101985782D01*
X106109777Y-101985780D01*
X106109775Y-101985778D01*
X106050233Y-101961115D01*
X106050232Y-101961114D01*
X106025573Y-101950900D01*
X106025571Y-101950900D01*
X104898275Y-101950900D01*
X104849937Y-101933307D01*
X104841443Y-101924946D01*
X104813289Y-101892455D01*
X104761224Y-101832369D01*
X104761220Y-101832366D01*
X104651083Y-101761585D01*
X104525464Y-101724700D01*
X104525462Y-101724700D01*
X104394538Y-101724700D01*
X104394535Y-101724700D01*
X104268916Y-101761585D01*
X104158779Y-101832366D01*
X104073040Y-101931312D01*
X104073037Y-101931317D01*
X104018652Y-102050402D01*
X104018652Y-102050404D01*
X104018651Y-102050406D01*
X104018651Y-102050408D01*
X104000018Y-102180000D01*
X104018651Y-102309592D01*
X104018651Y-102309593D01*
X104018652Y-102309595D01*
X104018652Y-102309597D01*
X104073037Y-102428682D01*
X104073040Y-102428687D01*
X104104463Y-102464951D01*
X104158776Y-102527631D01*
X104158778Y-102527632D01*
X104158779Y-102527633D01*
X104268916Y-102598414D01*
X104314910Y-102611919D01*
X104394538Y-102635300D01*
X104394541Y-102635300D01*
X104525459Y-102635300D01*
X104525462Y-102635300D01*
X104651083Y-102598414D01*
X104761224Y-102527631D01*
X104821356Y-102458234D01*
X104841443Y-102435054D01*
X104886394Y-102410045D01*
X104898275Y-102409100D01*
X105853955Y-102409100D01*
X105902293Y-102426693D01*
X105907129Y-102431126D01*
X106623222Y-103147219D01*
X106644962Y-103193839D01*
X106631648Y-103243526D01*
X106589511Y-103273031D01*
X106548862Y-103272547D01*
X106480088Y-103252353D01*
X106480086Y-103252353D01*
X106349162Y-103252353D01*
X106349159Y-103252353D01*
X106223540Y-103289238D01*
X106113403Y-103360019D01*
X106027664Y-103458965D01*
X106027661Y-103458970D01*
X105973276Y-103578055D01*
X105973276Y-103578057D01*
X105973275Y-103578059D01*
X105973275Y-103578061D01*
X105954642Y-103707653D01*
X105973275Y-103837245D01*
X105973275Y-103837246D01*
X105973276Y-103837248D01*
X105973276Y-103837250D01*
X106027661Y-103956335D01*
X106027664Y-103956340D01*
X106052965Y-103985538D01*
X106113400Y-104055284D01*
X106152179Y-104080205D01*
X106183332Y-104121138D01*
X106186724Y-104143468D01*
X106186724Y-104191785D01*
X106169131Y-104240123D01*
X106124582Y-104265843D01*
X106073924Y-104256910D01*
X106058350Y-104244959D01*
X105359173Y-103545782D01*
X105359170Y-103545780D01*
X105359168Y-103545778D01*
X105299626Y-103521115D01*
X105299625Y-103521114D01*
X105274966Y-103510900D01*
X105274964Y-103510900D01*
X103145571Y-103510900D01*
X99725571Y-103510900D01*
X99446284Y-103510900D01*
X99397946Y-103493307D01*
X99389452Y-103484946D01*
X99381440Y-103475700D01*
X99361224Y-103452369D01*
X99361220Y-103452366D01*
X99251083Y-103381585D01*
X99125464Y-103344700D01*
X99125462Y-103344700D01*
X98994538Y-103344700D01*
X98994535Y-103344700D01*
X98868916Y-103381585D01*
X98758779Y-103452366D01*
X98758776Y-103452368D01*
X98758776Y-103452369D01*
X98748271Y-103464493D01*
X98673040Y-103551312D01*
X98673037Y-103551317D01*
X98618652Y-103670402D01*
X98618652Y-103670404D01*
X98618651Y-103670406D01*
X98618651Y-103670408D01*
X98602645Y-103781729D01*
X98600018Y-103800000D01*
X98605464Y-103837879D01*
X98594928Y-103888228D01*
X98554493Y-103920026D01*
X98503079Y-103918393D01*
X98477855Y-103901754D01*
X98236526Y-103660425D01*
X98214786Y-103613805D01*
X98214500Y-103607251D01*
X98214500Y-99975000D01*
X98485018Y-99975000D01*
X98503651Y-100104592D01*
X98503651Y-100104593D01*
X98503652Y-100104595D01*
X98503652Y-100104597D01*
X98558037Y-100223682D01*
X98558040Y-100223687D01*
X98587453Y-100257631D01*
X98643776Y-100322631D01*
X98643778Y-100322632D01*
X98643779Y-100322633D01*
X98753916Y-100393414D01*
X98843282Y-100419654D01*
X98879538Y-100430300D01*
X98879541Y-100430300D01*
X99010459Y-100430300D01*
X99010462Y-100430300D01*
X99136083Y-100393414D01*
X99246224Y-100322631D01*
X99269946Y-100295253D01*
X99314897Y-100270245D01*
X99326778Y-100269300D01*
X114034155Y-100269300D01*
X114082493Y-100286893D01*
X114087329Y-100291326D01*
X115350423Y-101554421D01*
X115409966Y-101579084D01*
X115434629Y-101589300D01*
X115434630Y-101589300D01*
X115525770Y-101589300D01*
X120815155Y-101589300D01*
X120863493Y-101606893D01*
X120868329Y-101611326D01*
X122560494Y-103303491D01*
X122582234Y-103350111D01*
X122581754Y-103367367D01*
X122570018Y-103449000D01*
X122588651Y-103578592D01*
X122588651Y-103578593D01*
X122588652Y-103578595D01*
X122588652Y-103578597D01*
X122643037Y-103697682D01*
X122643040Y-103697687D01*
X122661544Y-103719041D01*
X122728776Y-103796631D01*
X122728778Y-103796632D01*
X122728779Y-103796633D01*
X122838916Y-103867414D01*
X122909802Y-103888228D01*
X122964538Y-103904300D01*
X122964541Y-103904300D01*
X123095459Y-103904300D01*
X123095462Y-103904300D01*
X123221083Y-103867414D01*
X123331224Y-103796631D01*
X123416961Y-103697685D01*
X123455268Y-103613805D01*
X123471347Y-103578597D01*
X123471347Y-103578596D01*
X123471349Y-103578592D01*
X123489982Y-103449000D01*
X123471349Y-103319408D01*
X123471347Y-103319403D01*
X123471347Y-103319402D01*
X123416962Y-103200317D01*
X123416959Y-103200312D01*
X123370953Y-103147219D01*
X123331224Y-103101369D01*
X123331220Y-103101366D01*
X123221083Y-103030585D01*
X123095464Y-102993700D01*
X123095462Y-102993700D01*
X122964538Y-102993700D01*
X122964537Y-102993700D01*
X122956446Y-102996075D01*
X122905110Y-102992809D01*
X122882091Y-102977094D01*
X121070980Y-101165982D01*
X121070977Y-101165980D01*
X121070975Y-101165978D01*
X121011433Y-101141315D01*
X121011432Y-101141314D01*
X120986773Y-101131100D01*
X120986771Y-101131100D01*
X115606245Y-101131100D01*
X115557907Y-101113507D01*
X115553071Y-101109074D01*
X114289980Y-99845982D01*
X114289977Y-99845980D01*
X114289975Y-99845978D01*
X114230433Y-99821315D01*
X114230432Y-99821314D01*
X114205773Y-99811100D01*
X114205771Y-99811100D01*
X99419009Y-99811100D01*
X99370671Y-99793507D01*
X99350605Y-99767139D01*
X99331962Y-99726317D01*
X99331959Y-99726312D01*
X99306258Y-99696652D01*
X99246224Y-99627369D01*
X99246220Y-99627366D01*
X99136083Y-99556585D01*
X99010464Y-99519700D01*
X99010462Y-99519700D01*
X98879538Y-99519700D01*
X98879535Y-99519700D01*
X98753916Y-99556585D01*
X98643779Y-99627366D01*
X98558040Y-99726312D01*
X98558037Y-99726317D01*
X98503652Y-99845402D01*
X98503652Y-99845404D01*
X98503651Y-99845406D01*
X98503651Y-99845408D01*
X98485018Y-99975000D01*
X98214500Y-99975000D01*
X98214500Y-93929665D01*
X98232093Y-93881327D01*
X98276642Y-93855607D01*
X98327300Y-93864540D01*
X98346530Y-93880418D01*
X98378716Y-93917562D01*
X98378779Y-93917634D01*
X98488916Y-93988414D01*
X98578282Y-94014654D01*
X98614538Y-94025300D01*
X98614541Y-94025300D01*
X98745459Y-94025300D01*
X98745462Y-94025300D01*
X98871083Y-93988414D01*
X98907880Y-93964766D01*
X98981220Y-93917634D01*
X98981220Y-93917633D01*
X98981224Y-93917631D01*
X99066961Y-93818685D01*
X99066963Y-93818681D01*
X99069871Y-93814158D01*
X99072233Y-93815676D01*
X99101035Y-93786405D01*
X99133367Y-93779100D01*
X99218365Y-93779100D01*
X99266703Y-93796693D01*
X99292423Y-93841242D01*
X99283490Y-93891900D01*
X99259021Y-93917562D01*
X99219423Y-93943009D01*
X99133684Y-94041956D01*
X99133681Y-94041961D01*
X99079296Y-94161046D01*
X99079296Y-94161048D01*
X99079295Y-94161050D01*
X99079295Y-94161052D01*
X99060662Y-94290644D01*
X99079295Y-94420236D01*
X99079295Y-94420237D01*
X99079296Y-94420239D01*
X99079296Y-94420241D01*
X99133681Y-94539326D01*
X99133684Y-94539331D01*
X99164332Y-94574700D01*
X99219420Y-94638275D01*
X99219422Y-94638276D01*
X99219423Y-94638277D01*
X99329560Y-94709058D01*
X99390897Y-94727068D01*
X99455182Y-94745944D01*
X99455185Y-94745944D01*
X99586103Y-94745944D01*
X99586106Y-94745944D01*
X99711727Y-94709058D01*
X99821868Y-94638275D01*
X99895689Y-94553081D01*
X99902087Y-94545698D01*
X99947038Y-94520689D01*
X99958919Y-94519744D01*
X100594926Y-94519744D01*
X100594927Y-94519744D01*
X100619587Y-94509529D01*
X100625218Y-94507196D01*
X100647819Y-94497834D01*
X100699209Y-94495590D01*
X100740020Y-94526904D01*
X100751030Y-94556596D01*
X100751753Y-94561619D01*
X100741226Y-94611970D01*
X100730494Y-94625507D01*
X100374212Y-94981789D01*
X100327592Y-95003529D01*
X100299852Y-95000769D01*
X100174820Y-94964056D01*
X100174818Y-94964056D01*
X100043894Y-94964056D01*
X100043891Y-94964056D01*
X99918272Y-95000941D01*
X99808135Y-95071722D01*
X99808132Y-95071724D01*
X99808132Y-95071725D01*
X99795711Y-95086060D01*
X99722396Y-95170668D01*
X99722393Y-95170673D01*
X99668008Y-95289758D01*
X99668008Y-95289760D01*
X99668007Y-95289762D01*
X99668007Y-95289764D01*
X99649374Y-95419356D01*
X99668007Y-95548948D01*
X99668007Y-95548949D01*
X99668008Y-95548951D01*
X99668008Y-95548953D01*
X99722393Y-95668038D01*
X99722396Y-95668043D01*
X99736830Y-95684700D01*
X99808132Y-95766987D01*
X99808134Y-95766988D01*
X99808135Y-95766989D01*
X99918272Y-95837770D01*
X100007638Y-95864010D01*
X100043894Y-95874656D01*
X100043897Y-95874656D01*
X100174815Y-95874656D01*
X100174818Y-95874656D01*
X100300439Y-95837770D01*
X100410580Y-95766987D01*
X100496317Y-95668041D01*
X100550705Y-95548948D01*
X100563206Y-95461999D01*
X100584465Y-95419530D01*
X101052091Y-94951904D01*
X101098710Y-94930165D01*
X101126449Y-94932924D01*
X101134538Y-94935300D01*
X101265459Y-94935300D01*
X101265462Y-94935300D01*
X101391083Y-94898414D01*
X101501224Y-94827631D01*
X101501228Y-94827626D01*
X101502307Y-94826692D01*
X101503243Y-94826333D01*
X101505749Y-94824724D01*
X101506085Y-94825247D01*
X101550357Y-94808328D01*
X101598970Y-94825146D01*
X101608392Y-94834273D01*
X101673977Y-94909963D01*
X101673978Y-94909964D01*
X101784117Y-94980745D01*
X101873483Y-95006985D01*
X101909739Y-95017631D01*
X101909742Y-95017631D01*
X102040660Y-95017631D01*
X102040663Y-95017631D01*
X102166284Y-94980745D01*
X102274604Y-94911131D01*
X102324779Y-94899799D01*
X102370501Y-94923370D01*
X102390375Y-94970816D01*
X102383665Y-95005632D01*
X102358651Y-95060405D01*
X102348645Y-95129997D01*
X102340018Y-95190000D01*
X102358651Y-95319592D01*
X102358651Y-95319593D01*
X102358652Y-95319595D01*
X102358652Y-95319597D01*
X102413037Y-95438682D01*
X102413040Y-95438687D01*
X102436100Y-95465299D01*
X102498776Y-95537631D01*
X102498778Y-95537632D01*
X102498779Y-95537633D01*
X102608916Y-95608414D01*
X102683640Y-95630355D01*
X102734538Y-95645300D01*
X102734541Y-95645300D01*
X102865461Y-95645300D01*
X102865462Y-95645300D01*
X102873546Y-95642926D01*
X102924881Y-95646186D01*
X102947908Y-95661905D01*
X103620223Y-96334221D01*
X103620224Y-96334221D01*
X103620225Y-96334222D01*
X103646968Y-96345299D01*
X103679766Y-96358884D01*
X103704429Y-96369100D01*
X103704430Y-96369100D01*
X103795570Y-96369100D01*
X104251725Y-96369100D01*
X104300063Y-96386693D01*
X104308557Y-96395054D01*
X104338192Y-96429254D01*
X104356551Y-96477306D01*
X104339727Y-96525917D01*
X104295592Y-96552341D01*
X104281360Y-96553700D01*
X103551000Y-96553700D01*
X103502662Y-96536107D01*
X103494172Y-96527750D01*
X103479978Y-96511369D01*
X103479976Y-96511368D01*
X103479974Y-96511365D01*
X103369837Y-96440585D01*
X103244218Y-96403700D01*
X103244216Y-96403700D01*
X103113292Y-96403700D01*
X103113289Y-96403700D01*
X102987670Y-96440585D01*
X102877533Y-96511366D01*
X102877530Y-96511368D01*
X102877530Y-96511369D01*
X102872749Y-96516887D01*
X102791794Y-96610312D01*
X102791791Y-96610317D01*
X102737406Y-96729402D01*
X102737406Y-96729404D01*
X102737405Y-96729406D01*
X102737405Y-96729408D01*
X102718772Y-96859000D01*
X102734170Y-96966094D01*
X102738171Y-96993916D01*
X102736235Y-96994194D01*
X102733471Y-97037655D01*
X102697971Y-97074881D01*
X102669796Y-97081478D01*
X102669862Y-97081935D01*
X102664646Y-97082684D01*
X102664582Y-97082700D01*
X102664535Y-97082700D01*
X102538916Y-97119585D01*
X102428779Y-97190366D01*
X102343040Y-97289312D01*
X102343037Y-97289317D01*
X102288652Y-97408402D01*
X102288652Y-97408404D01*
X102288651Y-97408406D01*
X102288651Y-97408408D01*
X102270018Y-97538000D01*
X102270018Y-97538002D01*
X102270018Y-97542521D01*
X102252425Y-97590859D01*
X102207876Y-97616579D01*
X102173638Y-97614677D01*
X102170313Y-97613701D01*
X102170311Y-97613700D01*
X102170309Y-97613700D01*
X102039385Y-97613700D01*
X102039382Y-97613700D01*
X101913763Y-97650585D01*
X101803626Y-97721366D01*
X101717887Y-97820312D01*
X101717884Y-97820317D01*
X101663499Y-97939402D01*
X101663499Y-97939404D01*
X101663498Y-97939406D01*
X101663498Y-97939408D01*
X101644865Y-98069000D01*
X101644865Y-98069002D01*
X101644865Y-98074378D01*
X101642142Y-98074378D01*
X101633701Y-98114814D01*
X101593281Y-98146630D01*
X101569783Y-98150396D01*
X101498179Y-98150396D01*
X101372560Y-98187281D01*
X101262423Y-98258062D01*
X101262420Y-98258064D01*
X101262420Y-98258065D01*
X101255852Y-98265645D01*
X101176684Y-98357008D01*
X101176681Y-98357013D01*
X101122296Y-98476098D01*
X101122296Y-98476100D01*
X101122295Y-98476102D01*
X101122295Y-98476104D01*
X101103662Y-98605696D01*
X101104492Y-98611471D01*
X101104626Y-98612398D01*
X101094090Y-98662748D01*
X101053655Y-98694545D01*
X101030191Y-98698300D01*
X100975535Y-98698300D01*
X100849916Y-98735185D01*
X100739779Y-98805966D01*
X100654040Y-98904912D01*
X100654037Y-98904917D01*
X100599652Y-99024002D01*
X100599652Y-99024004D01*
X100599651Y-99024006D01*
X100599651Y-99024008D01*
X100581018Y-99153600D01*
X100599651Y-99283192D01*
X100599651Y-99283193D01*
X100599652Y-99283195D01*
X100599652Y-99283197D01*
X100654037Y-99402282D01*
X100654040Y-99402287D01*
X100666135Y-99416245D01*
X100739776Y-99501231D01*
X100739778Y-99501232D01*
X100739779Y-99501233D01*
X100849916Y-99572014D01*
X100939282Y-99598254D01*
X100975538Y-99608900D01*
X100975541Y-99608900D01*
X101106459Y-99608900D01*
X101106462Y-99608900D01*
X101232083Y-99572014D01*
X101342224Y-99501231D01*
X101415865Y-99416245D01*
X101422443Y-99408654D01*
X101467394Y-99383645D01*
X101479275Y-99382700D01*
X103093022Y-99382700D01*
X103093023Y-99382700D01*
X103117683Y-99372484D01*
X103117686Y-99372484D01*
X103177225Y-99347823D01*
X103177225Y-99347822D01*
X103177227Y-99347822D01*
X103471643Y-99053405D01*
X103518264Y-99031665D01*
X103567951Y-99044979D01*
X103597456Y-99087116D01*
X103600018Y-99106579D01*
X103600018Y-99109997D01*
X103600018Y-99110000D01*
X103618651Y-99239592D01*
X103618651Y-99239593D01*
X103618652Y-99239595D01*
X103618652Y-99239597D01*
X103673037Y-99358682D01*
X103673040Y-99358687D01*
X103689457Y-99377633D01*
X103758776Y-99457631D01*
X103758778Y-99457632D01*
X103758779Y-99457633D01*
X103868916Y-99528414D01*
X103889153Y-99534356D01*
X103994538Y-99565300D01*
X103994541Y-99565300D01*
X104125459Y-99565300D01*
X104125462Y-99565300D01*
X104251083Y-99528414D01*
X104308389Y-99491586D01*
X104361220Y-99457634D01*
X104361220Y-99457633D01*
X104361224Y-99457631D01*
X104375414Y-99441254D01*
X104420364Y-99416245D01*
X104432246Y-99415300D01*
X107928856Y-99415300D01*
X107928859Y-99415300D01*
X108006507Y-99394494D01*
X108010918Y-99391947D01*
X108010928Y-99391945D01*
X108010927Y-99391942D01*
X108014166Y-99390072D01*
X108076125Y-99354300D01*
X108810528Y-98619896D01*
X108857147Y-98598157D01*
X108906834Y-98611471D01*
X108932105Y-98641832D01*
X108977614Y-98741482D01*
X108977617Y-98741487D01*
X108989629Y-98755349D01*
X109063353Y-98840431D01*
X109063355Y-98840432D01*
X109063356Y-98840433D01*
X109173493Y-98911214D01*
X109229520Y-98927665D01*
X109299115Y-98948100D01*
X109299118Y-98948100D01*
X109430036Y-98948100D01*
X109430039Y-98948100D01*
X109555660Y-98911214D01*
X109665801Y-98840431D01*
X109739525Y-98755349D01*
X109746020Y-98747854D01*
X109790971Y-98722845D01*
X109802852Y-98721900D01*
X110733159Y-98721900D01*
X110781497Y-98739493D01*
X110807217Y-98784042D01*
X110801563Y-98828339D01*
X110768652Y-98900402D01*
X110768652Y-98900404D01*
X110768651Y-98900406D01*
X110768651Y-98900408D01*
X110750018Y-99030000D01*
X110768651Y-99159592D01*
X110768651Y-99159593D01*
X110768652Y-99159595D01*
X110768652Y-99159597D01*
X110823037Y-99278682D01*
X110823040Y-99278687D01*
X110850347Y-99310200D01*
X110908776Y-99377631D01*
X110908778Y-99377632D01*
X110908779Y-99377633D01*
X111018916Y-99448414D01*
X111108282Y-99474654D01*
X111144538Y-99485300D01*
X111144541Y-99485300D01*
X111275459Y-99485300D01*
X111275462Y-99485300D01*
X111401083Y-99448414D01*
X111511224Y-99377631D01*
X111571356Y-99308234D01*
X111591443Y-99285054D01*
X111636394Y-99260045D01*
X111648275Y-99259100D01*
X115363955Y-99259100D01*
X115412293Y-99276693D01*
X115417129Y-99281126D01*
X115486638Y-99350635D01*
X115508378Y-99397255D01*
X115499785Y-99439257D01*
X115448958Y-99534348D01*
X115448955Y-99534356D01*
X115391610Y-99723398D01*
X115391610Y-99723400D01*
X115372247Y-99920000D01*
X115391610Y-100116599D01*
X115391610Y-100116601D01*
X115448955Y-100305643D01*
X115448956Y-100305647D01*
X115542086Y-100479881D01*
X115542089Y-100479885D01*
X115667410Y-100632589D01*
X115820114Y-100757910D01*
X115820118Y-100757913D01*
X115820122Y-100757916D01*
X115994350Y-100851042D01*
X115994352Y-100851043D01*
X115994356Y-100851044D01*
X116037593Y-100864159D01*
X116183397Y-100908389D01*
X116380000Y-100927753D01*
X116576603Y-100908389D01*
X116765650Y-100851042D01*
X116939878Y-100757916D01*
X117092589Y-100632589D01*
X117217916Y-100479878D01*
X117311042Y-100305650D01*
X117368389Y-100116603D01*
X117387753Y-99920000D01*
X117368389Y-99723397D01*
X117311042Y-99534350D01*
X117217916Y-99360122D01*
X117217913Y-99360118D01*
X117217910Y-99360114D01*
X117150690Y-99278206D01*
X117133624Y-99229680D01*
X117151744Y-99181537D01*
X117196570Y-99156304D01*
X117208820Y-99155300D01*
X117262550Y-99155300D01*
X117262553Y-99155300D01*
X117388174Y-99118414D01*
X117498315Y-99047631D01*
X117584052Y-98948685D01*
X117634080Y-98839140D01*
X117638438Y-98829597D01*
X117638438Y-98829596D01*
X117638440Y-98829592D01*
X117649667Y-98751502D01*
X117673960Y-98706164D01*
X117721715Y-98687046D01*
X117770586Y-98703097D01*
X117777275Y-98709034D01*
X118927992Y-99859751D01*
X118948961Y-99904718D01*
X118949253Y-99904677D01*
X118949391Y-99905641D01*
X118949732Y-99906371D01*
X118949834Y-99908721D01*
X118950018Y-99910000D01*
X118968651Y-100039592D01*
X118968651Y-100039593D01*
X118968652Y-100039595D01*
X118968652Y-100039597D01*
X119023037Y-100158682D01*
X119023040Y-100158687D01*
X119054463Y-100194951D01*
X119108776Y-100257631D01*
X119108778Y-100257632D01*
X119108779Y-100257633D01*
X119218916Y-100328414D01*
X119308282Y-100354654D01*
X119344538Y-100365300D01*
X119344541Y-100365300D01*
X119475459Y-100365300D01*
X119475462Y-100365300D01*
X119601083Y-100328414D01*
X119711224Y-100257631D01*
X119796961Y-100158685D01*
X119851349Y-100039592D01*
X119869982Y-99910000D01*
X119851349Y-99780408D01*
X119851347Y-99780403D01*
X119851347Y-99780402D01*
X119796962Y-99661317D01*
X119796959Y-99661312D01*
X119751542Y-99608899D01*
X119711224Y-99562369D01*
X119711220Y-99562366D01*
X119601083Y-99491585D01*
X119475464Y-99454700D01*
X119475462Y-99454700D01*
X119417607Y-99454700D01*
X119369269Y-99437107D01*
X119364433Y-99432674D01*
X117448460Y-97516700D01*
X117420269Y-97500424D01*
X117387205Y-97461018D01*
X117383032Y-97427928D01*
X117383113Y-97427107D01*
X117387753Y-97380000D01*
X117368389Y-97183397D01*
X117327650Y-97049100D01*
X117311044Y-96994356D01*
X117311043Y-96994352D01*
X117260611Y-96900000D01*
X117217916Y-96820122D01*
X117217913Y-96820118D01*
X117217910Y-96820114D01*
X117092589Y-96667410D01*
X116939885Y-96542089D01*
X116939881Y-96542086D01*
X116939879Y-96542085D01*
X116939878Y-96542084D01*
X116852764Y-96495521D01*
X116765647Y-96448956D01*
X116765643Y-96448955D01*
X116690832Y-96426262D01*
X116649683Y-96395395D01*
X116638002Y-96345299D01*
X116661255Y-96299414D01*
X116708561Y-96279212D01*
X116712661Y-96279100D01*
X117655570Y-96279100D01*
X117655571Y-96279100D01*
X117700475Y-96260500D01*
X117739775Y-96244222D01*
X118399054Y-95584942D01*
X125587100Y-95584942D01*
X125587100Y-98015055D01*
X125587101Y-98015057D01*
X125595972Y-98059659D01*
X125629764Y-98110232D01*
X125629765Y-98110232D01*
X125629766Y-98110234D01*
X125680342Y-98144028D01*
X125724943Y-98152900D01*
X128155056Y-98152899D01*
X128199658Y-98144028D01*
X128250234Y-98110234D01*
X128284028Y-98059658D01*
X128292900Y-98015057D01*
X128292899Y-95584944D01*
X128284028Y-95540342D01*
X128278228Y-95531662D01*
X128250235Y-95489767D01*
X128250231Y-95489764D01*
X128199658Y-95455972D01*
X128199656Y-95455971D01*
X128155057Y-95447100D01*
X125724944Y-95447100D01*
X125724942Y-95447101D01*
X125680340Y-95455972D01*
X125629767Y-95489764D01*
X125595972Y-95540342D01*
X125595971Y-95540343D01*
X125587100Y-95584942D01*
X118399054Y-95584942D01*
X119248503Y-94735492D01*
X119295121Y-94713754D01*
X119344808Y-94727068D01*
X119374313Y-94769205D01*
X119370080Y-94819906D01*
X119342451Y-94880405D01*
X119325120Y-95000942D01*
X119323818Y-95010000D01*
X119342451Y-95139592D01*
X119342451Y-95139593D01*
X119342452Y-95139595D01*
X119342452Y-95139597D01*
X119396837Y-95258682D01*
X119396840Y-95258687D01*
X119423769Y-95289764D01*
X119482576Y-95357631D01*
X119482578Y-95357632D01*
X119482579Y-95357633D01*
X119592716Y-95428414D01*
X119643437Y-95443307D01*
X119718338Y-95465300D01*
X119718341Y-95465300D01*
X119849259Y-95465300D01*
X119849262Y-95465300D01*
X119974883Y-95428414D01*
X120085024Y-95357631D01*
X120170761Y-95258685D01*
X120210957Y-95170668D01*
X120225147Y-95139597D01*
X120225147Y-95139596D01*
X120225149Y-95139592D01*
X120243782Y-95010000D01*
X120225149Y-94880408D01*
X120220139Y-94869439D01*
X120216062Y-94818163D01*
X120235367Y-94785028D01*
X120712870Y-94307526D01*
X120759490Y-94285786D01*
X120766044Y-94285500D01*
X133503290Y-94285500D01*
X133551628Y-94303093D01*
X133577348Y-94347642D01*
X133568415Y-94398300D01*
X133565817Y-94402478D01*
X133543233Y-94436277D01*
X133543232Y-94436279D01*
X133534500Y-94480179D01*
X133534500Y-95359820D01*
X133543232Y-95403720D01*
X133543233Y-95403722D01*
X133576495Y-95453504D01*
X133594150Y-95465300D01*
X133626278Y-95486767D01*
X133670180Y-95495500D01*
X134549820Y-95495500D01*
X134593722Y-95486767D01*
X134643504Y-95453504D01*
X134676767Y-95403722D01*
X134685500Y-95359820D01*
X134685500Y-94480180D01*
X134676767Y-94436278D01*
X134643504Y-94386496D01*
X134643502Y-94386493D01*
X134638978Y-94381969D01*
X134617238Y-94335349D01*
X134630552Y-94285662D01*
X134663375Y-94259319D01*
X134684375Y-94250622D01*
X134722091Y-94212904D01*
X134768709Y-94191165D01*
X134796453Y-94193926D01*
X134804537Y-94196300D01*
X134804538Y-94196300D01*
X134935459Y-94196300D01*
X134935462Y-94196300D01*
X135061083Y-94159414D01*
X135171224Y-94088631D01*
X135256961Y-93989685D01*
X135301618Y-93891900D01*
X135311347Y-93870597D01*
X135311347Y-93870596D01*
X135311349Y-93870592D01*
X135329982Y-93741000D01*
X135311349Y-93611408D01*
X135281267Y-93545539D01*
X135277191Y-93494262D01*
X135307029Y-93452360D01*
X135349672Y-93439100D01*
X135683955Y-93439100D01*
X135732293Y-93456693D01*
X135737129Y-93461126D01*
X136338874Y-94062870D01*
X136360614Y-94109490D01*
X136360900Y-94116044D01*
X136360900Y-95575572D01*
X136364928Y-95585295D01*
X136364929Y-95585300D01*
X136364930Y-95585300D01*
X136395777Y-95659774D01*
X136395778Y-95659775D01*
X136840274Y-96104270D01*
X136862014Y-96150890D01*
X136862300Y-96157444D01*
X136862300Y-98094497D01*
X136866668Y-98105043D01*
X136866669Y-98105044D01*
X136897178Y-98178702D01*
X137928533Y-99210055D01*
X137950273Y-99256675D01*
X137949794Y-99273931D01*
X137948462Y-99283195D01*
X137938057Y-99355565D01*
X137956690Y-99485157D01*
X137956690Y-99485158D01*
X137956691Y-99485160D01*
X137956691Y-99485162D01*
X138011076Y-99604247D01*
X138011079Y-99604252D01*
X138042502Y-99640516D01*
X138096815Y-99703196D01*
X138096817Y-99703197D01*
X138096818Y-99703198D01*
X138206955Y-99773979D01*
X138296321Y-99800219D01*
X138332577Y-99810865D01*
X138332580Y-99810865D01*
X138463498Y-99810865D01*
X138463501Y-99810865D01*
X138589122Y-99773979D01*
X138699263Y-99703196D01*
X138785000Y-99604250D01*
X138823613Y-99519700D01*
X138839386Y-99485162D01*
X138839386Y-99485161D01*
X138839388Y-99485157D01*
X138858021Y-99355565D01*
X138839388Y-99225973D01*
X138839386Y-99225968D01*
X138839386Y-99225967D01*
X138785001Y-99106882D01*
X138784998Y-99106877D01*
X138749642Y-99066075D01*
X138699263Y-99007934D01*
X138699259Y-99007931D01*
X138589122Y-98937150D01*
X138463503Y-98900265D01*
X138463501Y-98900265D01*
X138332577Y-98900265D01*
X138332576Y-98900265D01*
X138324485Y-98902640D01*
X138273149Y-98899374D01*
X138250130Y-98883659D01*
X137342526Y-97976055D01*
X137320786Y-97929435D01*
X137320500Y-97922881D01*
X137320500Y-97655932D01*
X137338093Y-97607594D01*
X137382642Y-97581874D01*
X137433300Y-97590807D01*
X137453832Y-97608228D01*
X137457412Y-97612590D01*
X137610114Y-97737910D01*
X137610118Y-97737913D01*
X137610122Y-97737916D01*
X137764281Y-97820315D01*
X137784352Y-97831043D01*
X137784356Y-97831044D01*
X137813551Y-97839900D01*
X137973397Y-97888389D01*
X138170000Y-97907753D01*
X138366603Y-97888389D01*
X138555650Y-97831042D01*
X138729878Y-97737916D01*
X138882589Y-97612589D01*
X139007916Y-97459878D01*
X139101042Y-97285650D01*
X139158389Y-97096603D01*
X139177753Y-96900000D01*
X139158389Y-96703397D01*
X139112979Y-96553700D01*
X139101044Y-96514356D01*
X139101043Y-96514352D01*
X139088056Y-96490055D01*
X139007916Y-96340122D01*
X139007913Y-96340118D01*
X139007910Y-96340114D01*
X138882589Y-96187410D01*
X138729885Y-96062089D01*
X138729881Y-96062086D01*
X138729879Y-96062085D01*
X138729878Y-96062084D01*
X138587210Y-95985827D01*
X138555647Y-95968956D01*
X138555643Y-95968955D01*
X138366600Y-95911610D01*
X138170000Y-95892247D01*
X137973400Y-95911610D01*
X137973398Y-95911610D01*
X137784356Y-95968955D01*
X137784352Y-95968956D01*
X137610118Y-96062086D01*
X137610114Y-96062089D01*
X137457412Y-96187409D01*
X137453829Y-96191775D01*
X137409563Y-96217978D01*
X137358811Y-96209597D01*
X137325319Y-96170554D01*
X137320500Y-96144067D01*
X137320500Y-95985830D01*
X137320499Y-95985827D01*
X137305452Y-95949499D01*
X137305452Y-95949498D01*
X137292860Y-95919100D01*
X137285622Y-95901626D01*
X137285618Y-95901622D01*
X137285617Y-95901620D01*
X136841126Y-95457129D01*
X136819386Y-95410509D01*
X136819100Y-95403955D01*
X136819100Y-94360000D01*
X137162247Y-94360000D01*
X137181610Y-94556596D01*
X137181610Y-94556601D01*
X137238955Y-94745643D01*
X137238956Y-94745647D01*
X137284667Y-94831167D01*
X137327409Y-94911132D01*
X137332086Y-94919881D01*
X137332089Y-94919885D01*
X137457410Y-95072589D01*
X137610114Y-95197910D01*
X137610118Y-95197913D01*
X137610122Y-95197916D01*
X137773147Y-95285054D01*
X137784352Y-95291043D01*
X137784356Y-95291044D01*
X137827593Y-95304159D01*
X137973397Y-95348389D01*
X138170000Y-95367753D01*
X138366603Y-95348389D01*
X138555650Y-95291042D01*
X138729878Y-95197916D01*
X138882589Y-95072589D01*
X139007916Y-94919878D01*
X139101042Y-94745650D01*
X139158389Y-94556603D01*
X139158577Y-94554700D01*
X139164398Y-94495590D01*
X139177753Y-94360000D01*
X139158389Y-94163397D01*
X139109650Y-94002726D01*
X139101044Y-93974356D01*
X139101043Y-93974352D01*
X139088711Y-93951281D01*
X139007916Y-93800122D01*
X139007913Y-93800118D01*
X139007910Y-93800114D01*
X138882589Y-93647410D01*
X138729885Y-93522089D01*
X138729881Y-93522086D01*
X138729879Y-93522085D01*
X138729878Y-93522084D01*
X138607539Y-93456693D01*
X138555647Y-93428956D01*
X138555643Y-93428955D01*
X138366600Y-93371610D01*
X138170000Y-93352247D01*
X137973400Y-93371610D01*
X137973398Y-93371610D01*
X137784356Y-93428955D01*
X137784352Y-93428956D01*
X137610118Y-93522086D01*
X137610114Y-93522089D01*
X137457410Y-93647410D01*
X137332089Y-93800114D01*
X137332086Y-93800118D01*
X137238956Y-93974352D01*
X137238955Y-93974356D01*
X137181610Y-94163398D01*
X137181610Y-94163400D01*
X137162247Y-94360000D01*
X136819100Y-94360000D01*
X136819100Y-93944430D01*
X136819100Y-93944429D01*
X136799889Y-93898050D01*
X136792963Y-93881327D01*
X136784222Y-93860225D01*
X136784221Y-93860224D01*
X135939780Y-93015782D01*
X135939777Y-93015780D01*
X135939775Y-93015778D01*
X135880233Y-92991115D01*
X135880232Y-92991114D01*
X135855573Y-92980900D01*
X135855571Y-92980900D01*
X134952407Y-92980900D01*
X134904069Y-92963307D01*
X134878349Y-92918758D01*
X134887282Y-92868100D01*
X134899233Y-92852526D01*
X136428032Y-91323728D01*
X138054434Y-89697326D01*
X138101054Y-89675586D01*
X138107608Y-89675300D01*
X138165459Y-89675300D01*
X138165462Y-89675300D01*
X138291083Y-89638414D01*
X138401224Y-89567631D01*
X138486961Y-89468685D01*
X138541349Y-89349592D01*
X138559982Y-89220000D01*
X138559981Y-89219998D01*
X138560747Y-89214677D01*
X138562872Y-89214982D01*
X138577575Y-89174587D01*
X138582008Y-89169750D01*
X138666499Y-89085260D01*
X138754434Y-88997325D01*
X138801054Y-88975586D01*
X138807608Y-88975300D01*
X139417743Y-88975300D01*
X139466081Y-88992893D01*
G37*
%TD.AperFunction*%
%TA.AperFunction,Conductor*%
G36*
X100977638Y-91042893D02*
G01*
X101003358Y-91087442D01*
X101004500Y-91100500D01*
X101004500Y-91159820D01*
X101013232Y-91203720D01*
X101013233Y-91203722D01*
X101046495Y-91253504D01*
X101071709Y-91270351D01*
X101089511Y-91282245D01*
X101119928Y-91323728D01*
X101116565Y-91375058D01*
X101107393Y-91390551D01*
X101077304Y-91429763D01*
X101077302Y-91429766D01*
X101077302Y-91429767D01*
X101075158Y-91434943D01*
X101019313Y-91569762D01*
X100999534Y-91720000D01*
X101014069Y-91830408D01*
X101019313Y-91870236D01*
X101077302Y-92010233D01*
X101077303Y-92010235D01*
X101077304Y-92010236D01*
X101169548Y-92130451D01*
X101274686Y-92211126D01*
X101289767Y-92222698D01*
X101429764Y-92280687D01*
X101580000Y-92300466D01*
X101730236Y-92280687D01*
X101870233Y-92222698D01*
X101990451Y-92130451D01*
X102082698Y-92010233D01*
X102140687Y-91870236D01*
X102160466Y-91720000D01*
X102140687Y-91569764D01*
X102082698Y-91429767D01*
X102082695Y-91429763D01*
X102082695Y-91429762D01*
X102052607Y-91390552D01*
X102037138Y-91341493D01*
X102056822Y-91293969D01*
X102070481Y-91282250D01*
X102113504Y-91253504D01*
X102146767Y-91203722D01*
X102155500Y-91159820D01*
X102155500Y-91100500D01*
X102173093Y-91052162D01*
X102217642Y-91026442D01*
X102230700Y-91025300D01*
X103112393Y-91025300D01*
X103160731Y-91042893D01*
X103165567Y-91047326D01*
X103678165Y-91559925D01*
X103682099Y-91564807D01*
X103682316Y-91564620D01*
X103702141Y-91587499D01*
X103771576Y-91667631D01*
X103771578Y-91667632D01*
X103771579Y-91667633D01*
X103881716Y-91738414D01*
X103911322Y-91747107D01*
X104007338Y-91775300D01*
X104007341Y-91775300D01*
X104138259Y-91775300D01*
X104138262Y-91775300D01*
X104159955Y-91768930D01*
X104211290Y-91772191D01*
X104248520Y-91807687D01*
X104255577Y-91851785D01*
X104240018Y-91960000D01*
X104258651Y-92089592D01*
X104258651Y-92089593D01*
X104258652Y-92089595D01*
X104258652Y-92089597D01*
X104313037Y-92208682D01*
X104313040Y-92208687D01*
X104325181Y-92222698D01*
X104398776Y-92307631D01*
X104398778Y-92307632D01*
X104398779Y-92307633D01*
X104508916Y-92378414D01*
X104598282Y-92404654D01*
X104634538Y-92415300D01*
X104634541Y-92415300D01*
X104765459Y-92415300D01*
X104765462Y-92415300D01*
X104891083Y-92378414D01*
X105001224Y-92307631D01*
X105074819Y-92222698D01*
X105081443Y-92215054D01*
X105126394Y-92190045D01*
X105138275Y-92189100D01*
X105593955Y-92189100D01*
X105642293Y-92206693D01*
X105647129Y-92211126D01*
X105815778Y-92379775D01*
X106081225Y-92645222D01*
X106122623Y-92662369D01*
X106165429Y-92680100D01*
X106165430Y-92680100D01*
X106256570Y-92680100D01*
X110664429Y-92680100D01*
X113754954Y-92680100D01*
X113803292Y-92697693D01*
X113808128Y-92702126D01*
X113892328Y-92786326D01*
X113914068Y-92832946D01*
X113900754Y-92882633D01*
X113858617Y-92912138D01*
X113839154Y-92914700D01*
X113824535Y-92914700D01*
X113698916Y-92951585D01*
X113588779Y-93022366D01*
X113588776Y-93022368D01*
X113588776Y-93022369D01*
X113584215Y-93027633D01*
X113503040Y-93121312D01*
X113503037Y-93121317D01*
X113448652Y-93240402D01*
X113448652Y-93240404D01*
X113448651Y-93240406D01*
X113448651Y-93240408D01*
X113430018Y-93370000D01*
X113448651Y-93499592D01*
X113448651Y-93499593D01*
X113448652Y-93499595D01*
X113448652Y-93499597D01*
X113503037Y-93618682D01*
X113503040Y-93618687D01*
X113527929Y-93647410D01*
X113588776Y-93717631D01*
X113626355Y-93741781D01*
X113657508Y-93782714D01*
X113660900Y-93805044D01*
X113660900Y-93903955D01*
X113643307Y-93952293D01*
X113638874Y-93957129D01*
X112817129Y-94778874D01*
X112770509Y-94800614D01*
X112763955Y-94800900D01*
X110988275Y-94800900D01*
X110939937Y-94783307D01*
X110931443Y-94774946D01*
X110897257Y-94735494D01*
X110851224Y-94682369D01*
X110851220Y-94682366D01*
X110741083Y-94611585D01*
X110615464Y-94574700D01*
X110615462Y-94574700D01*
X110484538Y-94574700D01*
X110484535Y-94574700D01*
X110358916Y-94611585D01*
X110248779Y-94682366D01*
X110163040Y-94781312D01*
X110163037Y-94781317D01*
X110108652Y-94900402D01*
X110108652Y-94900404D01*
X110108651Y-94900406D01*
X110108651Y-94900408D01*
X110101247Y-94951905D01*
X110090018Y-95030000D01*
X110108651Y-95159594D01*
X110153225Y-95257195D01*
X110157302Y-95308473D01*
X110127464Y-95350375D01*
X110077673Y-95363295D01*
X110063635Y-95360589D01*
X109975464Y-95334700D01*
X109975462Y-95334700D01*
X109844538Y-95334700D01*
X109844535Y-95334700D01*
X109718916Y-95371585D01*
X109608779Y-95442366D01*
X109608776Y-95442368D01*
X109608776Y-95442369D01*
X109592719Y-95460900D01*
X109523040Y-95541312D01*
X109523037Y-95541317D01*
X109468652Y-95660402D01*
X109468652Y-95660404D01*
X109468651Y-95660406D01*
X109468651Y-95660408D01*
X109450018Y-95790000D01*
X109468651Y-95919592D01*
X109468651Y-95919593D01*
X109468652Y-95919595D01*
X109468652Y-95919597D01*
X109523037Y-96038682D01*
X109523040Y-96038687D01*
X109554463Y-96074951D01*
X109608776Y-96137631D01*
X109608778Y-96137632D01*
X109608779Y-96137633D01*
X109718916Y-96208414D01*
X109808282Y-96234654D01*
X109844538Y-96245300D01*
X109844541Y-96245300D01*
X109975459Y-96245300D01*
X109975462Y-96245300D01*
X110101083Y-96208414D01*
X110211224Y-96137631D01*
X110296961Y-96038685D01*
X110321100Y-95985829D01*
X110331498Y-95963061D01*
X110367582Y-95926400D01*
X110399902Y-95919100D01*
X114995007Y-95919100D01*
X115043345Y-95936693D01*
X115048170Y-95941115D01*
X115351277Y-96244222D01*
X115390577Y-96260500D01*
X115435481Y-96279100D01*
X115435482Y-96279100D01*
X116047339Y-96279100D01*
X116095677Y-96296693D01*
X116121397Y-96341242D01*
X116112464Y-96391900D01*
X116073059Y-96424965D01*
X116069168Y-96426262D01*
X115994356Y-96448955D01*
X115994352Y-96448956D01*
X115820118Y-96542086D01*
X115820114Y-96542089D01*
X115667410Y-96667410D01*
X115542089Y-96820114D01*
X115542086Y-96820118D01*
X115448956Y-96994352D01*
X115448955Y-96994356D01*
X115391610Y-97183398D01*
X115391610Y-97183400D01*
X115372247Y-97380000D01*
X115391610Y-97576599D01*
X115394120Y-97584873D01*
X115391314Y-97636236D01*
X115356149Y-97673779D01*
X115322157Y-97681900D01*
X112464807Y-97681900D01*
X112416469Y-97664307D01*
X112411643Y-97659884D01*
X112257459Y-97505700D01*
X112257458Y-97505699D01*
X112257457Y-97505698D01*
X112187840Y-97465505D01*
X112174567Y-97461948D01*
X112174567Y-97461949D01*
X112153108Y-97456199D01*
X112110193Y-97444700D01*
X112110191Y-97444700D01*
X110322246Y-97444700D01*
X110273908Y-97427107D01*
X110265418Y-97418750D01*
X110251224Y-97402369D01*
X110251222Y-97402368D01*
X110251220Y-97402365D01*
X110141083Y-97331585D01*
X110015464Y-97294700D01*
X110015462Y-97294700D01*
X109884538Y-97294700D01*
X109884535Y-97294700D01*
X109758916Y-97331585D01*
X109648779Y-97402365D01*
X109648286Y-97402934D01*
X109634585Y-97418745D01*
X109589636Y-97443755D01*
X109577754Y-97444700D01*
X109208473Y-97444700D01*
X109159247Y-97457889D01*
X109130827Y-97465505D01*
X109130825Y-97465506D01*
X109111771Y-97476507D01*
X109111770Y-97476506D01*
X109061208Y-97505699D01*
X109061202Y-97505703D01*
X107784233Y-98782674D01*
X107737613Y-98804414D01*
X107731059Y-98804700D01*
X105627436Y-98804700D01*
X105579098Y-98787107D01*
X105553378Y-98742558D01*
X105562311Y-98691900D01*
X105585658Y-98666973D01*
X105589772Y-98664223D01*
X105589775Y-98664222D01*
X105785065Y-98468931D01*
X105831684Y-98447192D01*
X105859425Y-98449952D01*
X105870252Y-98453132D01*
X106001173Y-98453132D01*
X106001176Y-98453132D01*
X106126797Y-98416246D01*
X106236938Y-98345463D01*
X106322675Y-98246517D01*
X106353646Y-98178701D01*
X106377061Y-98127429D01*
X106377061Y-98127428D01*
X106377063Y-98127424D01*
X106395696Y-97997832D01*
X106387975Y-97944135D01*
X106398510Y-97893787D01*
X106438945Y-97861989D01*
X106462410Y-97858234D01*
X106469629Y-97858234D01*
X106469632Y-97858234D01*
X106595253Y-97821348D01*
X106705394Y-97750565D01*
X106791131Y-97651619D01*
X106825392Y-97576599D01*
X106845517Y-97532531D01*
X106845517Y-97532530D01*
X106845519Y-97532526D01*
X106864152Y-97402934D01*
X106864151Y-97402931D01*
X106864152Y-97402930D01*
X106860524Y-97377700D01*
X106871058Y-97327351D01*
X106911492Y-97295552D01*
X106934958Y-97291797D01*
X106972128Y-97291797D01*
X106972131Y-97291797D01*
X107097752Y-97254911D01*
X107207893Y-97184128D01*
X107293630Y-97085182D01*
X107348018Y-96966089D01*
X107366651Y-96836497D01*
X107362755Y-96809401D01*
X107373291Y-96759053D01*
X107413725Y-96727255D01*
X107437190Y-96723500D01*
X107472521Y-96723500D01*
X107472524Y-96723500D01*
X107598145Y-96686614D01*
X107708286Y-96615831D01*
X107794023Y-96516885D01*
X107835409Y-96426262D01*
X107848409Y-96397797D01*
X107848409Y-96397796D01*
X107848411Y-96397792D01*
X107867044Y-96268200D01*
X107867044Y-96268197D01*
X107867044Y-96268196D01*
X107857555Y-96202203D01*
X107868089Y-96151853D01*
X107908524Y-96120055D01*
X107931989Y-96116300D01*
X108015459Y-96116300D01*
X108015462Y-96116300D01*
X108141083Y-96079414D01*
X108251224Y-96008631D01*
X108336961Y-95909685D01*
X108377508Y-95820900D01*
X108391347Y-95790597D01*
X108391347Y-95790596D01*
X108391349Y-95790592D01*
X108409982Y-95661000D01*
X108409340Y-95656536D01*
X108419872Y-95606188D01*
X108460305Y-95574388D01*
X108504957Y-95573678D01*
X108544538Y-95585300D01*
X108544541Y-95585300D01*
X108675459Y-95585300D01*
X108675462Y-95585300D01*
X108801083Y-95548414D01*
X108911224Y-95477631D01*
X108996961Y-95378685D01*
X109051349Y-95259592D01*
X109069982Y-95130000D01*
X109063664Y-95086059D01*
X109074198Y-95035711D01*
X109114632Y-95003912D01*
X109159283Y-95003203D01*
X109234538Y-95025300D01*
X109234541Y-95025300D01*
X109365459Y-95025300D01*
X109365462Y-95025300D01*
X109491083Y-94988414D01*
X109601224Y-94917631D01*
X109686961Y-94818685D01*
X109728801Y-94727068D01*
X109741347Y-94699597D01*
X109741347Y-94699596D01*
X109741349Y-94699592D01*
X109759982Y-94570000D01*
X109741349Y-94440408D01*
X109741347Y-94440403D01*
X109741347Y-94440402D01*
X109686962Y-94321317D01*
X109686959Y-94321312D01*
X109656175Y-94285786D01*
X109601224Y-94222369D01*
X109601220Y-94222366D01*
X109491083Y-94151585D01*
X109365464Y-94114700D01*
X109365462Y-94114700D01*
X109234538Y-94114700D01*
X109234535Y-94114700D01*
X109108916Y-94151585D01*
X108998779Y-94222366D01*
X108998776Y-94222368D01*
X108998776Y-94222369D01*
X108988696Y-94234002D01*
X108918557Y-94314946D01*
X108873606Y-94339955D01*
X108861725Y-94340900D01*
X103836044Y-94340900D01*
X103787706Y-94323307D01*
X103782870Y-94318874D01*
X102529780Y-93065782D01*
X102529777Y-93065780D01*
X102529775Y-93065778D01*
X102470233Y-93041115D01*
X102470232Y-93041114D01*
X102445573Y-93030900D01*
X102445571Y-93030900D01*
X102018275Y-93030900D01*
X101969937Y-93013307D01*
X101961443Y-93004946D01*
X101925362Y-92963307D01*
X101881224Y-92912369D01*
X101881220Y-92912366D01*
X101771083Y-92841585D01*
X101645464Y-92804700D01*
X101645462Y-92804700D01*
X101514538Y-92804700D01*
X101514535Y-92804700D01*
X101388916Y-92841585D01*
X101278779Y-92912366D01*
X101278776Y-92912368D01*
X101278776Y-92912369D01*
X101273240Y-92918758D01*
X101193040Y-93011312D01*
X101193037Y-93011317D01*
X101138652Y-93130402D01*
X101138652Y-93130404D01*
X101138651Y-93130406D01*
X101138651Y-93130408D01*
X101133669Y-93165057D01*
X101120208Y-93258682D01*
X101120018Y-93260000D01*
X101125899Y-93300900D01*
X101131755Y-93341631D01*
X101121219Y-93391981D01*
X101110495Y-93405507D01*
X101040225Y-93475777D01*
X101029649Y-93486354D01*
X101029648Y-93486354D01*
X101029647Y-93486355D01*
X100476485Y-94039518D01*
X100429865Y-94061258D01*
X100423311Y-94061544D01*
X99958919Y-94061544D01*
X99910581Y-94043951D01*
X99902087Y-94035590D01*
X99840715Y-93964764D01*
X99821868Y-93943013D01*
X99821866Y-93943012D01*
X99821864Y-93943009D01*
X99782267Y-93917562D01*
X99751114Y-93876628D01*
X99753562Y-93825247D01*
X99788464Y-93787460D01*
X99822923Y-93779100D01*
X99865570Y-93779100D01*
X99865571Y-93779100D01*
X99890231Y-93768884D01*
X99890234Y-93768884D01*
X99949773Y-93744223D01*
X99949773Y-93744222D01*
X99949775Y-93744222D01*
X100212092Y-93481904D01*
X100258711Y-93460165D01*
X100286453Y-93462926D01*
X100294537Y-93465300D01*
X100294538Y-93465300D01*
X100425459Y-93465300D01*
X100425462Y-93465300D01*
X100551083Y-93428414D01*
X100661224Y-93357631D01*
X100746961Y-93258685D01*
X100789720Y-93165056D01*
X100801347Y-93139597D01*
X100801347Y-93139596D01*
X100801349Y-93139592D01*
X100819982Y-93010000D01*
X100801349Y-92880408D01*
X100801347Y-92880403D01*
X100801347Y-92880402D01*
X100746962Y-92761317D01*
X100746959Y-92761312D01*
X100713488Y-92722685D01*
X100661224Y-92662369D01*
X100661220Y-92662366D01*
X100551083Y-92591585D01*
X100425464Y-92554700D01*
X100425462Y-92554700D01*
X100294538Y-92554700D01*
X100294535Y-92554700D01*
X100168916Y-92591585D01*
X100058779Y-92662366D01*
X99973040Y-92761312D01*
X99973037Y-92761317D01*
X99918652Y-92880402D01*
X99918652Y-92880404D01*
X99918651Y-92880406D01*
X99918651Y-92880408D01*
X99900018Y-93010000D01*
X99902553Y-93027631D01*
X99911755Y-93091632D01*
X99901219Y-93141982D01*
X99890495Y-93155508D01*
X99747128Y-93298874D01*
X99700509Y-93320614D01*
X99693955Y-93320900D01*
X99100944Y-93320900D01*
X99052606Y-93303307D01*
X99044112Y-93294946D01*
X99033238Y-93282396D01*
X98981224Y-93222369D01*
X98981222Y-93222368D01*
X98981220Y-93222365D01*
X98871083Y-93151585D01*
X98745464Y-93114700D01*
X98745462Y-93114700D01*
X98614538Y-93114700D01*
X98614535Y-93114700D01*
X98488916Y-93151585D01*
X98378778Y-93222366D01*
X98346532Y-93259580D01*
X98301581Y-93284590D01*
X98251071Y-93274854D01*
X98218636Y-93234929D01*
X98214500Y-93210334D01*
X98214500Y-92138548D01*
X98232093Y-92090210D01*
X98236515Y-92085385D01*
X99135378Y-91186522D01*
X99181996Y-91164783D01*
X99231683Y-91178097D01*
X99256954Y-91208458D01*
X99302463Y-91308108D01*
X99302466Y-91308113D01*
X99315997Y-91323728D01*
X99388202Y-91407057D01*
X99388204Y-91407058D01*
X99388205Y-91407059D01*
X99498342Y-91477840D01*
X99587708Y-91504080D01*
X99623964Y-91514726D01*
X99623967Y-91514726D01*
X99754885Y-91514726D01*
X99754888Y-91514726D01*
X99880509Y-91477840D01*
X99990650Y-91407057D01*
X100076387Y-91308111D01*
X100108750Y-91237245D01*
X100130773Y-91189023D01*
X100130773Y-91189021D01*
X100130775Y-91189018D01*
X100139142Y-91130826D01*
X100145042Y-91089797D01*
X100169335Y-91044456D01*
X100217091Y-91025338D01*
X100219476Y-91025300D01*
X100929300Y-91025300D01*
X100977638Y-91042893D01*
G37*
%TD.AperFunction*%
%TA.AperFunction,Conductor*%
G36*
X119206189Y-92556535D02*
G01*
X119231415Y-92573174D01*
X120052367Y-93394126D01*
X120074107Y-93440746D01*
X120060793Y-93490433D01*
X120018656Y-93519938D01*
X119999193Y-93522500D01*
X119862829Y-93522500D01*
X119804218Y-93546778D01*
X119804217Y-93546777D01*
X119778625Y-93557378D01*
X119778622Y-93557380D01*
X117537129Y-95798874D01*
X117490509Y-95820614D01*
X117483955Y-95820900D01*
X115607097Y-95820900D01*
X115558759Y-95803307D01*
X115553933Y-95798884D01*
X115250827Y-95495778D01*
X115250826Y-95495777D01*
X115177245Y-95465300D01*
X115166623Y-95460900D01*
X110943736Y-95460900D01*
X110895398Y-95443307D01*
X110869678Y-95398758D01*
X110878611Y-95348100D01*
X110886904Y-95336454D01*
X110931443Y-95285054D01*
X110976394Y-95260045D01*
X110988275Y-95259100D01*
X112935570Y-95259100D01*
X112935571Y-95259100D01*
X112975439Y-95242586D01*
X113019775Y-95224222D01*
X113859773Y-94384222D01*
X113859775Y-94384222D01*
X114084222Y-94159775D01*
X114119100Y-94075570D01*
X114119100Y-93984430D01*
X114119100Y-93805044D01*
X114136693Y-93756706D01*
X114153643Y-93741782D01*
X114191224Y-93717631D01*
X114276961Y-93618685D01*
X114326082Y-93511126D01*
X114331347Y-93499597D01*
X114331347Y-93499596D01*
X114331349Y-93499592D01*
X114344443Y-93408518D01*
X114368737Y-93363178D01*
X114416492Y-93344060D01*
X114465364Y-93360111D01*
X114472052Y-93366048D01*
X114765779Y-93659775D01*
X114830225Y-93724221D01*
X114914429Y-93759100D01*
X114914430Y-93759100D01*
X117845570Y-93759100D01*
X117845571Y-93759100D01*
X117870231Y-93748884D01*
X117870234Y-93748884D01*
X117929773Y-93724223D01*
X117929773Y-93724222D01*
X117929775Y-93724222D01*
X118502092Y-93151903D01*
X118548710Y-93130165D01*
X118576449Y-93132924D01*
X118584538Y-93135300D01*
X118715459Y-93135300D01*
X118715462Y-93135300D01*
X118841083Y-93098414D01*
X118951224Y-93027631D01*
X119036961Y-92928685D01*
X119078917Y-92836814D01*
X119091347Y-92809597D01*
X119091347Y-92809596D01*
X119091349Y-92809592D01*
X119109982Y-92680000D01*
X119109982Y-92679997D01*
X119109982Y-92679996D01*
X119103807Y-92637051D01*
X119114341Y-92586701D01*
X119154776Y-92554903D01*
X119206189Y-92556535D01*
G37*
%TD.AperFunction*%
%TA.AperFunction,Conductor*%
G36*
X124182638Y-82298093D02*
G01*
X124208358Y-82342642D01*
X124209500Y-82355700D01*
X124209500Y-91845892D01*
X124235081Y-91941362D01*
X124243608Y-91973187D01*
X124281086Y-92038100D01*
X124290019Y-92088758D01*
X124264299Y-92133306D01*
X124215961Y-92150900D01*
X120996964Y-92150900D01*
X120948626Y-92133307D01*
X120943790Y-92128874D01*
X119716132Y-90901216D01*
X118470235Y-89655318D01*
X118470234Y-89655317D01*
X118382895Y-89567978D01*
X118382894Y-89567977D01*
X118316334Y-89540408D01*
X118316333Y-89540407D01*
X118298692Y-89533100D01*
X118298691Y-89533100D01*
X116892445Y-89533100D01*
X116844107Y-89515507D01*
X116818387Y-89470958D01*
X116827320Y-89420300D01*
X116839271Y-89404726D01*
X118694220Y-87549776D01*
X118694219Y-87549776D01*
X118694222Y-87549774D01*
X118719016Y-87489916D01*
X118729100Y-87465571D01*
X118729100Y-86963988D01*
X118746693Y-86915650D01*
X118791242Y-86889930D01*
X118841900Y-86898863D01*
X118871595Y-86932724D01*
X118872217Y-86932392D01*
X118873640Y-86935055D01*
X118873776Y-86935210D01*
X118873957Y-86935647D01*
X118873958Y-86935650D01*
X118967083Y-87109877D01*
X118967086Y-87109881D01*
X118967089Y-87109885D01*
X119092410Y-87262589D01*
X119245114Y-87387910D01*
X119245118Y-87387913D01*
X119245122Y-87387916D01*
X119419350Y-87481042D01*
X119419352Y-87481043D01*
X119419356Y-87481044D01*
X119462593Y-87494159D01*
X119608397Y-87538389D01*
X119805000Y-87557753D01*
X120001603Y-87538389D01*
X120190650Y-87481042D01*
X120364878Y-87387916D01*
X120517589Y-87262589D01*
X120642916Y-87109878D01*
X120736042Y-86935650D01*
X120793389Y-86746603D01*
X120812753Y-86550000D01*
X121337247Y-86550000D01*
X121356610Y-86746599D01*
X121356610Y-86746601D01*
X121413955Y-86935643D01*
X121413956Y-86935647D01*
X121413957Y-86935648D01*
X121413958Y-86935650D01*
X121507083Y-87109877D01*
X121507086Y-87109881D01*
X121507089Y-87109885D01*
X121632410Y-87262589D01*
X121785114Y-87387910D01*
X121785118Y-87387913D01*
X121785122Y-87387916D01*
X121959350Y-87481042D01*
X121959352Y-87481043D01*
X121959356Y-87481044D01*
X122002593Y-87494159D01*
X122148397Y-87538389D01*
X122345000Y-87557753D01*
X122541603Y-87538389D01*
X122730650Y-87481042D01*
X122904878Y-87387916D01*
X123057589Y-87262589D01*
X123182916Y-87109878D01*
X123276042Y-86935650D01*
X123333389Y-86746603D01*
X123352753Y-86550000D01*
X123333389Y-86353397D01*
X123276042Y-86164350D01*
X123182916Y-85990122D01*
X123182913Y-85990118D01*
X123182910Y-85990114D01*
X123057589Y-85837410D01*
X122904885Y-85712089D01*
X122904881Y-85712086D01*
X122904879Y-85712085D01*
X122904878Y-85712084D01*
X122770657Y-85640342D01*
X122730647Y-85618956D01*
X122730643Y-85618955D01*
X122541600Y-85561610D01*
X122345000Y-85542247D01*
X122148400Y-85561610D01*
X122148398Y-85561610D01*
X121959356Y-85618955D01*
X121959352Y-85618956D01*
X121785118Y-85712086D01*
X121785114Y-85712089D01*
X121632410Y-85837410D01*
X121507089Y-85990114D01*
X121507086Y-85990118D01*
X121413956Y-86164352D01*
X121413955Y-86164356D01*
X121356610Y-86353398D01*
X121356610Y-86353400D01*
X121337247Y-86550000D01*
X120812753Y-86550000D01*
X120793389Y-86353397D01*
X120736042Y-86164350D01*
X120642916Y-85990122D01*
X120642913Y-85990118D01*
X120642910Y-85990114D01*
X120517589Y-85837410D01*
X120364885Y-85712089D01*
X120364881Y-85712086D01*
X120364879Y-85712085D01*
X120364878Y-85712084D01*
X120230657Y-85640342D01*
X120190647Y-85618956D01*
X120190641Y-85618954D01*
X120181765Y-85616262D01*
X120140615Y-85585395D01*
X120128934Y-85535299D01*
X120152186Y-85489415D01*
X120199493Y-85469212D01*
X120203593Y-85469100D01*
X121160570Y-85469100D01*
X121160571Y-85469100D01*
X121185231Y-85458884D01*
X121185234Y-85458884D01*
X121244773Y-85434223D01*
X121244773Y-85434222D01*
X121244775Y-85434222D01*
X121775636Y-84903359D01*
X121822254Y-84881621D01*
X121864257Y-84890214D01*
X121959350Y-84941042D01*
X122148397Y-84998389D01*
X122345000Y-85017753D01*
X122541603Y-84998389D01*
X122730650Y-84941042D01*
X122904878Y-84847916D01*
X123057589Y-84722589D01*
X123182916Y-84569878D01*
X123276042Y-84395650D01*
X123333389Y-84206603D01*
X123352753Y-84010000D01*
X123333389Y-83813397D01*
X123276042Y-83624350D01*
X123182916Y-83450122D01*
X123182913Y-83450118D01*
X123182910Y-83450114D01*
X123057589Y-83297410D01*
X122904885Y-83172089D01*
X122904881Y-83172086D01*
X122904879Y-83172085D01*
X122904878Y-83172084D01*
X122812159Y-83122525D01*
X122730647Y-83078956D01*
X122730643Y-83078955D01*
X122541600Y-83021610D01*
X122345000Y-83002247D01*
X122148400Y-83021610D01*
X122148398Y-83021610D01*
X121959356Y-83078955D01*
X121959352Y-83078956D01*
X121785118Y-83172086D01*
X121785114Y-83172089D01*
X121632410Y-83297410D01*
X121507089Y-83450114D01*
X121507086Y-83450118D01*
X121413956Y-83624352D01*
X121413955Y-83624356D01*
X121356610Y-83813398D01*
X121356610Y-83813400D01*
X121337247Y-84010000D01*
X121356610Y-84206599D01*
X121356610Y-84206601D01*
X121413955Y-84395643D01*
X121413958Y-84395651D01*
X121464784Y-84490742D01*
X121472053Y-84541665D01*
X121451637Y-84579364D01*
X121042128Y-84988874D01*
X120995509Y-85010614D01*
X120988955Y-85010900D01*
X119284429Y-85010900D01*
X119275719Y-85014508D01*
X119200223Y-85045778D01*
X118305779Y-85940222D01*
X118281115Y-85999764D01*
X118281115Y-85999766D01*
X118270900Y-86024429D01*
X118270900Y-86024430D01*
X118268067Y-86031271D01*
X118266331Y-86030552D01*
X118244624Y-86066318D01*
X118195912Y-86082847D01*
X118147972Y-86064198D01*
X118131241Y-86043116D01*
X118102916Y-85990122D01*
X118102913Y-85990118D01*
X118102910Y-85990114D01*
X117977589Y-85837410D01*
X117824885Y-85712089D01*
X117824881Y-85712086D01*
X117824879Y-85712085D01*
X117824878Y-85712084D01*
X117690657Y-85640342D01*
X117650647Y-85618956D01*
X117650643Y-85618955D01*
X117461600Y-85561610D01*
X117265000Y-85542247D01*
X117068400Y-85561610D01*
X117068398Y-85561610D01*
X116879356Y-85618955D01*
X116879352Y-85618956D01*
X116705118Y-85712086D01*
X116705114Y-85712089D01*
X116552412Y-85837409D01*
X116548829Y-85841775D01*
X116504563Y-85867978D01*
X116453811Y-85859597D01*
X116420319Y-85820554D01*
X116415500Y-85794067D01*
X116415500Y-84765932D01*
X116433093Y-84717594D01*
X116477642Y-84691874D01*
X116528300Y-84700807D01*
X116548832Y-84718228D01*
X116552412Y-84722590D01*
X116705114Y-84847910D01*
X116705118Y-84847913D01*
X116705122Y-84847916D01*
X116879348Y-84941041D01*
X116879352Y-84941043D01*
X116879356Y-84941044D01*
X116922593Y-84954159D01*
X117068397Y-84998389D01*
X117265000Y-85017753D01*
X117461603Y-84998389D01*
X117650650Y-84941042D01*
X117824878Y-84847916D01*
X117977589Y-84722589D01*
X118102916Y-84569878D01*
X118196042Y-84395650D01*
X118253389Y-84206603D01*
X118272753Y-84010000D01*
X118253389Y-83813397D01*
X118196042Y-83624350D01*
X118102916Y-83450122D01*
X118102913Y-83450118D01*
X118102910Y-83450114D01*
X117977589Y-83297410D01*
X117824885Y-83172089D01*
X117824881Y-83172086D01*
X117824879Y-83172085D01*
X117824878Y-83172084D01*
X117732159Y-83122525D01*
X117650647Y-83078956D01*
X117650643Y-83078955D01*
X117461600Y-83021610D01*
X117265000Y-83002247D01*
X117068400Y-83021610D01*
X117068398Y-83021610D01*
X116879356Y-83078955D01*
X116879352Y-83078956D01*
X116705118Y-83172086D01*
X116705114Y-83172089D01*
X116552412Y-83297408D01*
X116512790Y-83345688D01*
X116468524Y-83371892D01*
X116417772Y-83363512D01*
X116389535Y-83335581D01*
X116358333Y-83281538D01*
X116334201Y-83239739D01*
X116334199Y-83239737D01*
X116334197Y-83239734D01*
X115522465Y-82428002D01*
X115522462Y-82428000D01*
X115522461Y-82427999D01*
X115510035Y-82420824D01*
X115476970Y-82381421D01*
X115476970Y-82329981D01*
X115510034Y-82290575D01*
X115547635Y-82280500D01*
X124134300Y-82280500D01*
X124182638Y-82298093D01*
G37*
%TD.AperFunction*%
%TA.AperFunction,Conductor*%
G36*
X105594722Y-82298093D02*
G01*
X105620442Y-82342642D01*
X105611509Y-82393300D01*
X105583984Y-82420824D01*
X105578109Y-82424216D01*
X105571557Y-82427999D01*
X105506270Y-82493286D01*
X105440982Y-82558574D01*
X105394363Y-82580314D01*
X105387809Y-82580600D01*
X104108931Y-82580600D01*
X104057187Y-82594465D01*
X104005441Y-82608330D01*
X103912660Y-82661897D01*
X103912658Y-82661898D01*
X103912658Y-82661899D01*
X103912657Y-82661900D01*
X103779597Y-82794960D01*
X103174399Y-83400156D01*
X103174398Y-83400158D01*
X103120830Y-83492940D01*
X103094273Y-83592054D01*
X103094272Y-83592056D01*
X103093100Y-83596425D01*
X103093100Y-83596431D01*
X103093100Y-84156430D01*
X103093100Y-84263570D01*
X103107351Y-84316753D01*
X103120830Y-84367059D01*
X103174398Y-84459841D01*
X103174402Y-84459847D01*
X103694399Y-84979843D01*
X103770157Y-85055601D01*
X103862942Y-85109170D01*
X103966430Y-85136900D01*
X103966432Y-85136900D01*
X104073571Y-85136900D01*
X104078454Y-85136257D01*
X104078458Y-85136287D01*
X104092800Y-85134400D01*
X105082808Y-85134400D01*
X105131146Y-85151993D01*
X105135982Y-85156426D01*
X105398282Y-85418726D01*
X105420022Y-85465346D01*
X105406708Y-85515033D01*
X105364571Y-85544538D01*
X105345108Y-85547100D01*
X103699944Y-85547100D01*
X103699942Y-85547101D01*
X103655340Y-85555972D01*
X103604767Y-85589764D01*
X103570972Y-85640342D01*
X103570971Y-85640343D01*
X103564416Y-85673300D01*
X103562100Y-85684943D01*
X103562100Y-86542159D01*
X103562101Y-87324300D01*
X103544508Y-87372638D01*
X103499959Y-87398358D01*
X103491068Y-87399135D01*
X103491069Y-87399138D01*
X103487394Y-87399499D01*
X103325363Y-87431730D01*
X103325360Y-87431731D01*
X103184890Y-87489916D01*
X103184889Y-87489915D01*
X103172730Y-87494952D01*
X103035357Y-87586741D01*
X103015691Y-87606407D01*
X102996024Y-87626074D01*
X102949406Y-87647814D01*
X102942851Y-87648100D01*
X101170424Y-87648100D01*
X101122086Y-87630507D01*
X101096366Y-87585958D01*
X101105299Y-87535300D01*
X101131517Y-87508547D01*
X101199774Y-87467285D01*
X101452414Y-87269354D01*
X101679354Y-87042414D01*
X101763465Y-86935055D01*
X101877274Y-86789788D01*
X101877273Y-86789788D01*
X101877285Y-86789774D01*
X102043320Y-86515118D01*
X102175038Y-86222451D01*
X102270520Y-85916041D01*
X102311359Y-85693188D01*
X102328371Y-85600357D01*
X102333532Y-85515033D01*
X102347749Y-85280000D01*
X102328371Y-84959644D01*
X102324962Y-84941044D01*
X102270522Y-84643969D01*
X102270519Y-84643955D01*
X102221861Y-84487808D01*
X102175038Y-84337549D01*
X102043320Y-84044882D01*
X101877285Y-83770226D01*
X101877279Y-83770218D01*
X101877274Y-83770211D01*
X101679358Y-83517590D01*
X101679347Y-83517578D01*
X101452421Y-83290652D01*
X101452409Y-83290641D01*
X101199788Y-83092725D01*
X101199781Y-83092720D01*
X101199778Y-83092718D01*
X101199774Y-83092715D01*
X100925118Y-82926680D01*
X100632451Y-82794962D01*
X100632445Y-82794960D01*
X100326044Y-82699480D01*
X100326030Y-82699477D01*
X100010355Y-82641628D01*
X100010359Y-82641628D01*
X99690000Y-82622251D01*
X99369642Y-82641628D01*
X99053969Y-82699477D01*
X99053955Y-82699480D01*
X98747554Y-82794960D01*
X98747550Y-82794961D01*
X98747549Y-82794962D01*
X98454882Y-82926680D01*
X98297847Y-83021611D01*
X98180218Y-83092720D01*
X98180211Y-83092725D01*
X97927590Y-83290641D01*
X97927578Y-83290652D01*
X97700652Y-83517578D01*
X97700641Y-83517590D01*
X97502725Y-83770211D01*
X97502720Y-83770218D01*
X97502715Y-83770225D01*
X97502715Y-83770226D01*
X97336680Y-84044882D01*
X97214322Y-84316753D01*
X97204960Y-84337554D01*
X97109480Y-84643955D01*
X97109477Y-84643969D01*
X97051628Y-84959642D01*
X97032251Y-85280000D01*
X97051628Y-85600357D01*
X97109477Y-85916030D01*
X97109480Y-85916044D01*
X97187027Y-86164897D01*
X97204962Y-86222451D01*
X97336680Y-86515118D01*
X97502715Y-86789774D01*
X97502718Y-86789778D01*
X97502720Y-86789781D01*
X97502725Y-86789788D01*
X97700641Y-87042409D01*
X97700652Y-87042421D01*
X97927578Y-87269347D01*
X97927590Y-87269358D01*
X98180211Y-87467274D01*
X98180218Y-87467279D01*
X98180226Y-87467285D01*
X98454882Y-87633320D01*
X98747549Y-87765038D01*
X98960092Y-87831269D01*
X99053955Y-87860519D01*
X99053957Y-87860519D01*
X99053959Y-87860520D01*
X99053963Y-87860520D01*
X99053969Y-87860522D01*
X99369644Y-87918371D01*
X99369640Y-87918371D01*
X99435247Y-87922339D01*
X99690000Y-87937749D01*
X99834755Y-87928992D01*
X99884065Y-87943635D01*
X99912428Y-87986549D01*
X99906571Y-88037654D01*
X99892468Y-88057229D01*
X97597333Y-90352366D01*
X96841160Y-91108539D01*
X96828799Y-91120900D01*
X96818873Y-91130826D01*
X96772252Y-91152564D01*
X96722566Y-91139249D01*
X96693062Y-91097112D01*
X96690500Y-91077650D01*
X96690500Y-84782275D01*
X96690637Y-84777735D01*
X96695290Y-84700807D01*
X96708450Y-84483246D01*
X96709542Y-84474251D01*
X96762313Y-84186290D01*
X96764479Y-84177503D01*
X96851574Y-83898003D01*
X96854793Y-83889518D01*
X96889052Y-83813398D01*
X96974939Y-83622563D01*
X96979149Y-83614541D01*
X97130606Y-83364002D01*
X97135755Y-83356544D01*
X97316300Y-83126094D01*
X97322307Y-83119314D01*
X97529314Y-82912307D01*
X97536094Y-82906300D01*
X97766544Y-82725755D01*
X97774002Y-82720606D01*
X98024541Y-82569149D01*
X98032563Y-82564939D01*
X98299523Y-82444790D01*
X98308003Y-82441574D01*
X98587503Y-82354479D01*
X98596290Y-82352313D01*
X98884251Y-82299542D01*
X98893246Y-82298450D01*
X99187735Y-82280636D01*
X99192275Y-82280500D01*
X99255892Y-82280500D01*
X105546384Y-82280500D01*
X105594722Y-82298093D01*
G37*
%TD.AperFunction*%
%TA.AperFunction,Conductor*%
G36*
X104416677Y-89094493D02*
G01*
X104442397Y-89139042D01*
X104433464Y-89189700D01*
X104408996Y-89215361D01*
X104386147Y-89230046D01*
X104308777Y-89279768D01*
X104223040Y-89378712D01*
X104223037Y-89378717D01*
X104168652Y-89497802D01*
X104168652Y-89497804D01*
X104168651Y-89497806D01*
X104168651Y-89497808D01*
X104150018Y-89627400D01*
X104168651Y-89756992D01*
X104168651Y-89756993D01*
X104168652Y-89756995D01*
X104168652Y-89756997D01*
X104223037Y-89876082D01*
X104223040Y-89876087D01*
X104254463Y-89912351D01*
X104308776Y-89975031D01*
X104308778Y-89975032D01*
X104308779Y-89975033D01*
X104418916Y-90045814D01*
X104438482Y-90051559D01*
X104544538Y-90082700D01*
X104544541Y-90082700D01*
X104675459Y-90082700D01*
X104675462Y-90082700D01*
X104801083Y-90045814D01*
X104844937Y-90017631D01*
X104911220Y-89975034D01*
X104911220Y-89975033D01*
X104911224Y-89975031D01*
X104925414Y-89958654D01*
X104970364Y-89933645D01*
X104982246Y-89932700D01*
X105438845Y-89932700D01*
X105487183Y-89950293D01*
X105512903Y-89994842D01*
X105503970Y-90045500D01*
X105502108Y-90048554D01*
X105500178Y-90051556D01*
X105445791Y-90170646D01*
X105445791Y-90170648D01*
X105445790Y-90170650D01*
X105445790Y-90170652D01*
X105433755Y-90254356D01*
X105427157Y-90300246D01*
X105427157Y-90300247D01*
X105439343Y-90384997D01*
X105428809Y-90435347D01*
X105388375Y-90467145D01*
X105364909Y-90470900D01*
X105108275Y-90470900D01*
X105059937Y-90453307D01*
X105051443Y-90444946D01*
X105011743Y-90399131D01*
X104971224Y-90352369D01*
X104971220Y-90352366D01*
X104861083Y-90281585D01*
X104735464Y-90244700D01*
X104735462Y-90244700D01*
X104604538Y-90244700D01*
X104604535Y-90244700D01*
X104478916Y-90281585D01*
X104368779Y-90352366D01*
X104368776Y-90352368D01*
X104368776Y-90352369D01*
X104351610Y-90372179D01*
X104283040Y-90451312D01*
X104283037Y-90451317D01*
X104228652Y-90570402D01*
X104228652Y-90570404D01*
X104228651Y-90570406D01*
X104228651Y-90570408D01*
X104210018Y-90700000D01*
X104215855Y-90740599D01*
X104221417Y-90779278D01*
X104210881Y-90829627D01*
X104170447Y-90861425D01*
X104143640Y-90863772D01*
X104143640Y-90864700D01*
X104138262Y-90864700D01*
X104007338Y-90864700D01*
X104007336Y-90864700D01*
X104007332Y-90864701D01*
X103925784Y-90888645D01*
X103874448Y-90885382D01*
X103851425Y-90869665D01*
X103457459Y-90475699D01*
X103387847Y-90435509D01*
X103387843Y-90435507D01*
X103387841Y-90435506D01*
X103387839Y-90435505D01*
X103387838Y-90435505D01*
X103384112Y-90434507D01*
X103384111Y-90434506D01*
X103343309Y-90423573D01*
X103310193Y-90414700D01*
X103310191Y-90414700D01*
X102230700Y-90414700D01*
X102182362Y-90397107D01*
X102156642Y-90352558D01*
X102155500Y-90339500D01*
X102155500Y-90280179D01*
X102146767Y-90236279D01*
X102146766Y-90236277D01*
X102113504Y-90186495D01*
X102063722Y-90153233D01*
X102063720Y-90153232D01*
X102019820Y-90144500D01*
X101140180Y-90144500D01*
X101096279Y-90153232D01*
X101096277Y-90153233D01*
X101046495Y-90186495D01*
X101013233Y-90236277D01*
X101013232Y-90236279D01*
X101004500Y-90280179D01*
X101004500Y-90339500D01*
X100986907Y-90387838D01*
X100942358Y-90413558D01*
X100929300Y-90414700D01*
X100088748Y-90414700D01*
X100040410Y-90397107D01*
X100014690Y-90352558D01*
X100023623Y-90301900D01*
X100035574Y-90286326D01*
X100445814Y-89876087D01*
X100974375Y-89347526D01*
X101020995Y-89325786D01*
X101027549Y-89325500D01*
X103404007Y-89325500D01*
X103464458Y-89313475D01*
X103566040Y-89293269D01*
X103718673Y-89230046D01*
X103856040Y-89138261D01*
X103895375Y-89098925D01*
X103941994Y-89077186D01*
X103948549Y-89076900D01*
X104368339Y-89076900D01*
X104416677Y-89094493D01*
G37*
%TD.AperFunction*%
%TA.AperFunction,Conductor*%
G36*
X112831736Y-89094493D02*
G01*
X112857456Y-89139042D01*
X112848523Y-89189700D01*
X112836572Y-89205275D01*
X112540774Y-89501071D01*
X112525931Y-89510991D01*
X112526382Y-89511665D01*
X112520224Y-89515779D01*
X112506077Y-89529926D01*
X112491929Y-89544074D01*
X112445311Y-89565814D01*
X112438756Y-89566100D01*
X112155571Y-89566100D01*
X110218177Y-89566100D01*
X110193514Y-89576315D01*
X110158635Y-89590762D01*
X110133972Y-89600978D01*
X110083341Y-89651610D01*
X109955425Y-89779526D01*
X109096077Y-90638874D01*
X109049457Y-90660614D01*
X109042903Y-90660900D01*
X106602940Y-90660900D01*
X106554602Y-90643307D01*
X106549766Y-90638874D01*
X106356643Y-90445751D01*
X106334903Y-90399131D01*
X106335382Y-90381879D01*
X106347121Y-90300244D01*
X106328488Y-90170652D01*
X106328486Y-90170647D01*
X106328486Y-90170646D01*
X106274099Y-90051556D01*
X106272170Y-90048554D01*
X106260838Y-89998378D01*
X106284411Y-89952657D01*
X106331857Y-89932785D01*
X106335433Y-89932700D01*
X107297754Y-89932700D01*
X107346092Y-89950293D01*
X107354581Y-89958649D01*
X107368776Y-89975031D01*
X107368779Y-89975034D01*
X107478916Y-90045814D01*
X107498482Y-90051559D01*
X107604538Y-90082700D01*
X107604541Y-90082700D01*
X107735459Y-90082700D01*
X107735462Y-90082700D01*
X107861083Y-90045814D01*
X107904937Y-90017631D01*
X107971220Y-89975034D01*
X107971220Y-89975033D01*
X107971224Y-89975031D01*
X107985414Y-89958654D01*
X108030364Y-89933645D01*
X108042246Y-89932700D01*
X108557754Y-89932700D01*
X108606092Y-89950293D01*
X108614581Y-89958649D01*
X108628776Y-89975031D01*
X108628779Y-89975034D01*
X108738916Y-90045814D01*
X108758482Y-90051559D01*
X108864538Y-90082700D01*
X108864541Y-90082700D01*
X108995459Y-90082700D01*
X108995462Y-90082700D01*
X109121083Y-90045814D01*
X109231224Y-89975031D01*
X109316961Y-89876085D01*
X109368169Y-89763955D01*
X109371347Y-89756997D01*
X109371347Y-89756996D01*
X109371349Y-89756992D01*
X109389982Y-89627400D01*
X109371349Y-89497808D01*
X109371347Y-89497803D01*
X109371347Y-89497802D01*
X109316962Y-89378717D01*
X109316959Y-89378712D01*
X109260438Y-89313484D01*
X109231224Y-89279769D01*
X109131004Y-89215361D01*
X109099852Y-89174429D01*
X109102300Y-89123047D01*
X109137202Y-89085260D01*
X109171661Y-89076900D01*
X112783398Y-89076900D01*
X112831736Y-89094493D01*
G37*
%TD.AperFunction*%
%TA.AperFunction,Conductor*%
G36*
X115574838Y-85690893D02*
G01*
X115600558Y-85735442D01*
X115601700Y-85748500D01*
X115601700Y-87291051D01*
X115584107Y-87339389D01*
X115579674Y-87344225D01*
X115546425Y-87377474D01*
X115499805Y-87399214D01*
X115493251Y-87399500D01*
X113923500Y-87399500D01*
X113875162Y-87381907D01*
X113849442Y-87337358D01*
X113848300Y-87324300D01*
X113848300Y-85748500D01*
X113865893Y-85700162D01*
X113910442Y-85674442D01*
X113923500Y-85673300D01*
X115526500Y-85673300D01*
X115574838Y-85690893D01*
G37*
%TD.AperFunction*%
%TA.AperFunction,Conductor*%
G36*
X110488646Y-83178093D02*
G01*
X110493482Y-83182526D01*
X110499674Y-83188718D01*
X110521414Y-83235338D01*
X110521700Y-83241892D01*
X110521700Y-84784300D01*
X110504107Y-84832638D01*
X110459558Y-84858358D01*
X110446500Y-84859500D01*
X108561092Y-84859500D01*
X108512754Y-84841907D01*
X108507918Y-84837474D01*
X108211426Y-84540982D01*
X108189686Y-84494362D01*
X108189400Y-84487808D01*
X108189400Y-83235700D01*
X108206993Y-83187362D01*
X108251542Y-83161642D01*
X108264600Y-83160500D01*
X108876431Y-83160500D01*
X110440308Y-83160500D01*
X110488646Y-83178093D01*
G37*
%TD.AperFunction*%
%TD*%
M02*
