%TF.GenerationSoftware,KiCad,Pcbnew,8.0.5-dirty*%
%TF.CreationDate,2024-10-26T15:13:39+09:00*%
%TF.ProjectId,powerups,706f7765-7275-4707-932e-6b696361645f,rev?*%
%TF.SameCoordinates,Original*%
%TF.FileFunction,Paste,Bot*%
%TF.FilePolarity,Positive*%
%FSLAX46Y46*%
G04 Gerber Fmt 4.6, Leading zero omitted, Abs format (unit mm)*
G04 Created by KiCad (PCBNEW 8.0.5-dirty) date 2024-10-26 15:13:39*
%MOMM*%
%LPD*%
G01*
G04 APERTURE LIST*
G04 Aperture macros list*
%AMRoundRect*
0 Rectangle with rounded corners*
0 $1 Rounding radius*
0 $2 $3 $4 $5 $6 $7 $8 $9 X,Y pos of 4 corners*
0 Add a 4 corners polygon primitive as box body*
4,1,4,$2,$3,$4,$5,$6,$7,$8,$9,$2,$3,0*
0 Add four circle primitives for the rounded corners*
1,1,$1+$1,$2,$3*
1,1,$1+$1,$4,$5*
1,1,$1+$1,$6,$7*
1,1,$1+$1,$8,$9*
0 Add four rect primitives between the rounded corners*
20,1,$1+$1,$2,$3,$4,$5,0*
20,1,$1+$1,$4,$5,$6,$7,0*
20,1,$1+$1,$6,$7,$8,$9,0*
20,1,$1+$1,$8,$9,$2,$3,0*%
%AMFreePoly0*
4,1,33,2.048839,0.848839,2.052500,0.840000,2.052500,0.460000,2.048839,0.451161,2.040000,0.447500,1.692500,0.447500,1.692500,0.202500,2.040000,0.202500,2.048839,0.198839,2.052500,0.190000,2.052500,-0.190000,2.048839,-0.198839,2.040000,-0.202500,-0.240000,-0.202500,-0.246036,-0.200000,-0.250000,-0.200000,-0.250000,-0.196035,-0.252500,-0.190000,-0.252500,0.190000,-0.250000,0.196035,
-0.250000,0.200000,-0.246036,0.200000,-0.240000,0.202500,0.107500,0.202500,0.107500,0.447500,-0.240000,0.447500,-0.248839,0.451161,-0.252500,0.460000,-0.252500,0.840000,-0.248839,0.848839,-0.240000,0.852500,2.040000,0.852500,2.048839,0.848839,2.048839,0.848839,$1*%
G04 Aperture macros list end*
%ADD10C,0.010000*%
%ADD11R,0.350000X0.650000*%
%ADD12RoundRect,0.135000X-0.135000X-0.185000X0.135000X-0.185000X0.135000X0.185000X-0.135000X0.185000X0*%
%ADD13RoundRect,0.250000X0.250000X0.475000X-0.250000X0.475000X-0.250000X-0.475000X0.250000X-0.475000X0*%
%ADD14RoundRect,0.135000X0.135000X0.185000X-0.135000X0.185000X-0.135000X-0.185000X0.135000X-0.185000X0*%
%ADD15RoundRect,0.250000X0.275000X-0.450000X0.275000X0.450000X-0.275000X0.450000X-0.275000X-0.450000X0*%
%ADD16C,0.250000*%
%ADD17RoundRect,0.250000X0.475000X-0.250000X0.475000X0.250000X-0.475000X0.250000X-0.475000X-0.250000X0*%
%ADD18RoundRect,0.180000X0.180000X0.295000X-0.180000X0.295000X-0.180000X-0.295000X0.180000X-0.295000X0*%
%ADD19RoundRect,0.050000X0.337500X0.050000X-0.337500X0.050000X-0.337500X-0.050000X0.337500X-0.050000X0*%
%ADD20RoundRect,0.140000X-0.170000X0.140000X-0.170000X-0.140000X0.170000X-0.140000X0.170000X0.140000X0*%
%ADD21R,0.400000X0.500000*%
%ADD22FreePoly0,270.000000*%
%ADD23R,0.285000X0.920000*%
%ADD24RoundRect,0.200000X-0.275000X0.200000X-0.275000X-0.200000X0.275000X-0.200000X0.275000X0.200000X0*%
%ADD25RoundRect,0.135000X0.185000X-0.135000X0.185000X0.135000X-0.185000X0.135000X-0.185000X-0.135000X0*%
%ADD26RoundRect,0.225000X0.250000X-0.225000X0.250000X0.225000X-0.250000X0.225000X-0.250000X-0.225000X0*%
%ADD27RoundRect,0.225000X-0.225000X-0.250000X0.225000X-0.250000X0.225000X0.250000X-0.225000X0.250000X0*%
%ADD28RoundRect,0.140000X0.140000X0.170000X-0.140000X0.170000X-0.140000X-0.170000X0.140000X-0.170000X0*%
%ADD29RoundRect,0.100000X-0.100000X0.225000X-0.100000X-0.225000X0.100000X-0.225000X0.100000X0.225000X0*%
%ADD30RoundRect,0.218750X0.256250X-0.218750X0.256250X0.218750X-0.256250X0.218750X-0.256250X-0.218750X0*%
%ADD31R,0.450000X1.750000*%
%ADD32RoundRect,0.200000X-0.200000X-0.275000X0.200000X-0.275000X0.200000X0.275000X-0.200000X0.275000X0*%
%ADD33RoundRect,0.200000X0.275000X-0.200000X0.275000X0.200000X-0.275000X0.200000X-0.275000X-0.200000X0*%
%ADD34RoundRect,0.140000X-0.140000X-0.170000X0.140000X-0.170000X0.140000X0.170000X-0.140000X0.170000X0*%
%ADD35R,1.000000X1.800000*%
%ADD36RoundRect,0.225000X-0.250000X0.225000X-0.250000X-0.225000X0.250000X-0.225000X0.250000X0.225000X0*%
%ADD37C,0.200000*%
%ADD38RoundRect,0.225000X0.225000X0.250000X-0.225000X0.250000X-0.225000X-0.250000X0.225000X-0.250000X0*%
%ADD39RoundRect,0.250000X-0.250000X-0.475000X0.250000X-0.475000X0.250000X0.475000X-0.250000X0.475000X0*%
%ADD40RoundRect,0.140000X0.170000X-0.140000X0.170000X0.140000X-0.170000X0.140000X-0.170000X-0.140000X0*%
%ADD41RoundRect,0.250000X-0.350000X-0.650000X0.350000X-0.650000X0.350000X0.650000X-0.350000X0.650000X0*%
%ADD42RoundRect,0.150000X-0.150000X-0.625000X0.150000X-0.625000X0.150000X0.625000X-0.150000X0.625000X0*%
%ADD43RoundRect,0.250000X-0.475000X0.250000X-0.475000X-0.250000X0.475000X-0.250000X0.475000X0.250000X0*%
%ADD44R,0.500000X0.400000*%
%ADD45FreePoly0,180.000000*%
%ADD46R,0.920000X0.285000*%
%ADD47RoundRect,0.135000X-0.185000X0.135000X-0.185000X-0.135000X0.185000X-0.135000X0.185000X0.135000X0*%
%ADD48RoundRect,0.250000X0.850000X-0.375000X0.850000X0.375000X-0.850000X0.375000X-0.850000X-0.375000X0*%
%ADD49RoundRect,0.050000X-0.337500X-0.050000X0.337500X-0.050000X0.337500X0.050000X-0.337500X0.050000X0*%
%ADD50RoundRect,0.050000X-0.050000X-0.300000X0.050000X-0.300000X0.050000X0.300000X-0.050000X0.300000X0*%
%ADD51RoundRect,0.050000X-0.262500X-0.050000X0.262500X-0.050000X0.262500X0.050000X-0.262500X0.050000X0*%
%ADD52RoundRect,0.050000X-0.050000X-0.259500X0.050000X-0.259500X0.050000X0.259500X-0.050000X0.259500X0*%
%ADD53RoundRect,0.050000X-0.050000X-0.450000X0.050000X-0.450000X0.050000X0.450000X-0.050000X0.450000X0*%
%ADD54RoundRect,0.050000X-0.362500X-0.050000X0.362500X-0.050000X0.362500X0.050000X-0.362500X0.050000X0*%
%ADD55RoundRect,0.050000X-0.250000X-0.050000X0.250000X-0.050000X0.250000X0.050000X-0.250000X0.050000X0*%
G04 APERTURE END LIST*
D10*
%TO.C,Q3*%
X149835027Y-109730000D02*
X149095000Y-109730000D01*
X149095000Y-108809721D01*
X149835027Y-108809721D01*
X149835027Y-109730000D01*
G36*
X149835027Y-109730000D02*
G01*
X149095000Y-109730000D01*
X149095000Y-108809721D01*
X149835027Y-108809721D01*
X149835027Y-109730000D01*
G37*
%TO.C,Q2*%
X151750279Y-103835027D02*
X150830000Y-103835027D01*
X150830000Y-103095000D01*
X151750279Y-103095000D01*
X151750279Y-103835027D01*
G36*
X151750279Y-103835027D02*
G01*
X150830000Y-103835027D01*
X150830000Y-103095000D01*
X151750279Y-103095000D01*
X151750279Y-103835027D01*
G37*
%TD*%
D11*
%TO.C,U5*%
X154052500Y-108757500D03*
X153402500Y-108757500D03*
X152752500Y-108757500D03*
X152752500Y-106657500D03*
X153402500Y-106657500D03*
X154052500Y-106657500D03*
%TD*%
D12*
%TO.C,R27*%
X97140000Y-105300000D03*
X98160000Y-105300000D03*
%TD*%
D13*
%TO.C,C13*%
X125820000Y-110730000D03*
X123920000Y-110730000D03*
%TD*%
D14*
%TO.C,R19*%
X107660000Y-90270000D03*
X106640000Y-90270000D03*
%TD*%
D15*
%TO.C,QON1*%
X98375000Y-98830000D03*
X98375000Y-95230000D03*
X96935000Y-98830000D03*
X96935000Y-95230000D03*
%TD*%
D16*
%TO.C,U1*%
X138800000Y-100220000D03*
X138400000Y-100220000D03*
X138000000Y-100220000D03*
X137600000Y-100220000D03*
X138800000Y-100620000D03*
X138400000Y-100620000D03*
X138000000Y-100620000D03*
X137600000Y-100620000D03*
X138800000Y-101020000D03*
X138400000Y-101020000D03*
X138000000Y-101020000D03*
X137600000Y-101020000D03*
X138800000Y-101420000D03*
X138400000Y-101420000D03*
X138000000Y-101420000D03*
X137600000Y-101420000D03*
X138800000Y-101820000D03*
X138400000Y-101820000D03*
X138000000Y-101820000D03*
X137600000Y-101820000D03*
%TD*%
D17*
%TO.C,C2*%
X135030000Y-98850000D03*
X135030000Y-96950000D03*
%TD*%
D18*
%TO.C,U7*%
X122270000Y-92820000D03*
X122270000Y-91640000D03*
X121380000Y-92820000D03*
X121380000Y-91640000D03*
D19*
X123312500Y-91030000D03*
X123312500Y-91430000D03*
X123312500Y-91830000D03*
X123312500Y-92230000D03*
X123312500Y-92630000D03*
X123312500Y-93030000D03*
X123312500Y-93430000D03*
X120337500Y-93430000D03*
X120337500Y-93030000D03*
X120337500Y-92630000D03*
X120337500Y-92230000D03*
X120337500Y-91830000D03*
X120337500Y-91430000D03*
X120337500Y-91030000D03*
%TD*%
D20*
%TO.C,C5*%
X109850000Y-102700000D03*
X109850000Y-103660000D03*
%TD*%
D21*
%TO.C,Q3*%
X150440000Y-108370000D03*
X149790000Y-108370000D03*
D22*
X149140000Y-108370000D03*
D21*
X149790000Y-110170000D03*
X149140000Y-110170000D03*
D23*
X150440000Y-109270000D03*
D21*
X150440000Y-110170000D03*
%TD*%
D24*
%TO.C,R4*%
X142550000Y-106895000D03*
X142550000Y-108545000D03*
%TD*%
D25*
%TO.C,R30*%
X119410000Y-98700000D03*
X119410000Y-97680000D03*
%TD*%
D26*
%TO.C,C17*%
X123070000Y-107860000D03*
X123070000Y-106310000D03*
%TD*%
D14*
%TO.C,R6*%
X138580000Y-103760000D03*
X137560000Y-103760000D03*
%TD*%
D26*
%TO.C,C11*%
X142660000Y-103620000D03*
X142660000Y-102070000D03*
%TD*%
D27*
%TO.C,C21*%
X111630000Y-89680000D03*
X113180000Y-89680000D03*
%TD*%
D28*
%TO.C,C24*%
X109870000Y-90290000D03*
X108910000Y-90290000D03*
%TD*%
D25*
%TO.C,R15*%
X139550000Y-86260000D03*
X139550000Y-85240000D03*
%TD*%
D28*
%TO.C,C14*%
X124910000Y-109130000D03*
X123950000Y-109130000D03*
%TD*%
D29*
%TO.C,Q1*%
X99460000Y-100670000D03*
X100110000Y-100670000D03*
X100760000Y-100670000D03*
X100760000Y-102570000D03*
X100110000Y-102570000D03*
X99460000Y-102570000D03*
%TD*%
D12*
%TO.C,R26*%
X104290000Y-103060000D03*
X105310000Y-103060000D03*
%TD*%
D30*
%TO.C,LED2*%
X97050000Y-103850000D03*
X97050000Y-102275000D03*
%TD*%
%TO.C,LED1*%
X97020000Y-91777500D03*
X97020000Y-90202500D03*
%TD*%
D12*
%TO.C,R14*%
X140500000Y-87140000D03*
X141520000Y-87140000D03*
%TD*%
%TO.C,R11*%
X122950000Y-105020000D03*
X123970000Y-105020000D03*
%TD*%
D28*
%TO.C,C19*%
X123270000Y-89930000D03*
X122310000Y-89930000D03*
%TD*%
D31*
%TO.C,U4*%
X104700000Y-93100000D03*
X105350000Y-93100000D03*
X106000000Y-93100000D03*
X106650000Y-93100000D03*
X107300000Y-93100000D03*
X107950000Y-93100000D03*
X108600000Y-93100000D03*
X109250000Y-93100000D03*
X109900000Y-93100000D03*
X110550000Y-93100000D03*
X111200000Y-93100000D03*
X111850000Y-93100000D03*
X112500000Y-93100000D03*
X113150000Y-93100000D03*
X113150000Y-100300000D03*
X112500000Y-100300000D03*
X111850000Y-100300000D03*
X111200000Y-100300000D03*
X110550000Y-100300000D03*
X109900000Y-100300000D03*
X109250000Y-100300000D03*
X108600000Y-100300000D03*
X107950000Y-100300000D03*
X107300000Y-100300000D03*
X106650000Y-100300000D03*
X106000000Y-100300000D03*
X105350000Y-100300000D03*
X104700000Y-100300000D03*
%TD*%
D12*
%TO.C,R28*%
X123970000Y-103980000D03*
X124990000Y-103980000D03*
%TD*%
D32*
%TO.C,R13*%
X142695000Y-88110000D03*
X144345000Y-88110000D03*
%TD*%
D24*
%TO.C,R5*%
X140700000Y-94785000D03*
X140700000Y-96435000D03*
%TD*%
D33*
%TO.C,R12*%
X123620000Y-99750000D03*
X123620000Y-98100000D03*
%TD*%
D24*
%TO.C,R24*%
X147816250Y-104670000D03*
X147816250Y-106320000D03*
%TD*%
D14*
%TO.C,R7*%
X99290000Y-90660000D03*
X98270000Y-90660000D03*
%TD*%
D34*
%TO.C,C9*%
X136640000Y-104840000D03*
X137600000Y-104840000D03*
%TD*%
D12*
%TO.C,R25*%
X116650000Y-102370000D03*
X117670000Y-102370000D03*
%TD*%
D35*
%TO.C,Y1*%
X111180000Y-102920000D03*
X113680000Y-102920000D03*
%TD*%
D36*
%TO.C,C6*%
X147540000Y-88040000D03*
X147540000Y-89590000D03*
%TD*%
D37*
%TO.C,U3*%
X141810000Y-85260000D03*
X142160000Y-85260000D03*
X142510000Y-85260000D03*
X142860000Y-85260000D03*
X141810000Y-84910000D03*
X142160000Y-84910000D03*
X142510000Y-84910000D03*
X142860000Y-84910000D03*
X141810000Y-84560000D03*
X142160000Y-84560000D03*
X142510000Y-84560000D03*
X142860000Y-84560000D03*
X141810000Y-84210000D03*
X142160000Y-84210000D03*
X142510000Y-84210000D03*
X142860000Y-84210000D03*
%TD*%
D17*
%TO.C,C7*%
X149950000Y-85260000D03*
X149950000Y-83360000D03*
%TD*%
D38*
%TO.C,C15*%
X127725000Y-101310000D03*
X126175000Y-101310000D03*
%TD*%
D34*
%TO.C,C22*%
X112220000Y-91230000D03*
X113180000Y-91230000D03*
%TD*%
D39*
%TO.C,C1*%
X155980000Y-89500000D03*
X157880000Y-89500000D03*
%TD*%
D40*
%TO.C,C23*%
X108780000Y-103650000D03*
X108780000Y-102690000D03*
%TD*%
D24*
%TO.C,R18*%
X153516250Y-88580000D03*
X153516250Y-90230000D03*
%TD*%
D41*
%TO.C,CONN6*%
X133810000Y-86940000D03*
X137410000Y-86940000D03*
D42*
X135110000Y-90815000D03*
X136110000Y-90815000D03*
%TD*%
D43*
%TO.C,C3*%
X137100000Y-107920000D03*
X137100000Y-109820000D03*
%TD*%
D44*
%TO.C,Q2*%
X152190000Y-104440000D03*
X152190000Y-103790000D03*
D45*
X152190000Y-103140000D03*
D44*
X150390000Y-103790000D03*
X150390000Y-103140000D03*
D46*
X151290000Y-104440000D03*
D44*
X150390000Y-104440000D03*
%TD*%
D34*
%TO.C,C16*%
X124410000Y-107240000D03*
X125370000Y-107240000D03*
%TD*%
D20*
%TO.C,C20*%
X119000000Y-93790000D03*
X119000000Y-94750000D03*
%TD*%
D47*
%TO.C,R23*%
X155210000Y-102210000D03*
X155210000Y-103230000D03*
%TD*%
D14*
%TO.C,R21*%
X108630000Y-91360000D03*
X107610000Y-91360000D03*
%TD*%
D25*
%TO.C,R29*%
X121990000Y-105080000D03*
X121990000Y-104060000D03*
%TD*%
D20*
%TO.C,C12*%
X127210000Y-110510000D03*
X127210000Y-111470000D03*
%TD*%
D48*
%TO.C,L2*%
X132600000Y-105970000D03*
X132600000Y-103820000D03*
%TD*%
D14*
%TO.C,R10*%
X99290000Y-92660000D03*
X98270000Y-92660000D03*
%TD*%
%TO.C,R22*%
X119150000Y-103430000D03*
X118130000Y-103430000D03*
%TD*%
D39*
%TO.C,C18*%
X131310000Y-101460000D03*
X133210000Y-101460000D03*
%TD*%
D17*
%TO.C,C8*%
X153010000Y-85260000D03*
X153010000Y-83360000D03*
%TD*%
D33*
%TO.C,R17*%
X122020000Y-99745000D03*
X122020000Y-98095000D03*
%TD*%
D12*
%TO.C,R1*%
X140620000Y-98280000D03*
X141640000Y-98280000D03*
%TD*%
D40*
%TO.C,C4*%
X115000000Y-103690000D03*
X115000000Y-102730000D03*
%TD*%
D12*
%TO.C,R20*%
X119130000Y-104640000D03*
X120150000Y-104640000D03*
%TD*%
D14*
%TO.C,R8*%
X99290000Y-91680000D03*
X98270000Y-91680000D03*
%TD*%
D47*
%TO.C,R2*%
X102750000Y-93500000D03*
X102750000Y-94520000D03*
%TD*%
D49*
%TO.C,U6*%
X126672000Y-106420000D03*
D50*
X126960000Y-106670000D03*
D51*
X126597000Y-105963000D03*
X126597000Y-105563000D03*
X126597000Y-105163000D03*
D49*
X126672000Y-104720000D03*
D50*
X126960000Y-104470000D03*
D52*
X127360000Y-104420000D03*
X127760000Y-104420000D03*
D53*
X128160000Y-104610000D03*
X128560000Y-104610000D03*
D50*
X128960000Y-104470000D03*
D54*
X129273000Y-104720000D03*
D55*
X129385000Y-105163000D03*
X129385000Y-105563000D03*
X129385000Y-105963000D03*
D50*
X128960000Y-106670000D03*
D54*
X129273000Y-106420000D03*
D53*
X128560000Y-106520000D03*
X128160000Y-106520000D03*
X127760000Y-106520000D03*
D52*
X127360000Y-106700000D03*
%TD*%
D48*
%TO.C,L1*%
X146900000Y-86050000D03*
X146900000Y-83900000D03*
%TD*%
D14*
%TO.C,R9*%
X99290000Y-89650000D03*
X98270000Y-89650000D03*
%TD*%
D25*
%TO.C,R3*%
X101200000Y-96400000D03*
X101200000Y-95380000D03*
%TD*%
M02*
