%TF.GenerationSoftware,KiCad,Pcbnew,8.0.6*%
%TF.CreationDate,2024-11-01T16:23:12+09:00*%
%TF.ProjectId,powerups,706f7765-7275-4707-932e-6b696361645f,0.9.2*%
%TF.SameCoordinates,Original*%
%TF.FileFunction,Legend,Top*%
%TF.FilePolarity,Positive*%
%FSLAX46Y46*%
G04 Gerber Fmt 4.6, Leading zero omitted, Abs format (unit mm)*
G04 Created by KiCad (PCBNEW 8.0.6) date 2024-11-01 16:23:12*
%MOMM*%
%LPD*%
G01*
G04 APERTURE LIST*
%ADD10C,0.300000*%
%ADD11C,0.120000*%
G04 APERTURE END LIST*
D10*
X146051653Y-85440828D02*
X146408796Y-86440828D01*
X146408796Y-86440828D02*
X146765939Y-85440828D01*
X147623082Y-84940828D02*
X147765939Y-84940828D01*
X147765939Y-84940828D02*
X147908796Y-85012257D01*
X147908796Y-85012257D02*
X147980225Y-85083685D01*
X147980225Y-85083685D02*
X148051653Y-85226542D01*
X148051653Y-85226542D02*
X148123082Y-85512257D01*
X148123082Y-85512257D02*
X148123082Y-85869400D01*
X148123082Y-85869400D02*
X148051653Y-86155114D01*
X148051653Y-86155114D02*
X147980225Y-86297971D01*
X147980225Y-86297971D02*
X147908796Y-86369400D01*
X147908796Y-86369400D02*
X147765939Y-86440828D01*
X147765939Y-86440828D02*
X147623082Y-86440828D01*
X147623082Y-86440828D02*
X147480225Y-86369400D01*
X147480225Y-86369400D02*
X147408796Y-86297971D01*
X147408796Y-86297971D02*
X147337367Y-86155114D01*
X147337367Y-86155114D02*
X147265939Y-85869400D01*
X147265939Y-85869400D02*
X147265939Y-85512257D01*
X147265939Y-85512257D02*
X147337367Y-85226542D01*
X147337367Y-85226542D02*
X147408796Y-85083685D01*
X147408796Y-85083685D02*
X147480225Y-85012257D01*
X147480225Y-85012257D02*
X147623082Y-84940828D01*
X148765938Y-86297971D02*
X148837367Y-86369400D01*
X148837367Y-86369400D02*
X148765938Y-86440828D01*
X148765938Y-86440828D02*
X148694510Y-86369400D01*
X148694510Y-86369400D02*
X148765938Y-86297971D01*
X148765938Y-86297971D02*
X148765938Y-86440828D01*
X149551653Y-86440828D02*
X149837367Y-86440828D01*
X149837367Y-86440828D02*
X149980224Y-86369400D01*
X149980224Y-86369400D02*
X150051653Y-86297971D01*
X150051653Y-86297971D02*
X150194510Y-86083685D01*
X150194510Y-86083685D02*
X150265939Y-85797971D01*
X150265939Y-85797971D02*
X150265939Y-85226542D01*
X150265939Y-85226542D02*
X150194510Y-85083685D01*
X150194510Y-85083685D02*
X150123082Y-85012257D01*
X150123082Y-85012257D02*
X149980224Y-84940828D01*
X149980224Y-84940828D02*
X149694510Y-84940828D01*
X149694510Y-84940828D02*
X149551653Y-85012257D01*
X149551653Y-85012257D02*
X149480224Y-85083685D01*
X149480224Y-85083685D02*
X149408796Y-85226542D01*
X149408796Y-85226542D02*
X149408796Y-85583685D01*
X149408796Y-85583685D02*
X149480224Y-85726542D01*
X149480224Y-85726542D02*
X149551653Y-85797971D01*
X149551653Y-85797971D02*
X149694510Y-85869400D01*
X149694510Y-85869400D02*
X149980224Y-85869400D01*
X149980224Y-85869400D02*
X150123082Y-85797971D01*
X150123082Y-85797971D02*
X150194510Y-85726542D01*
X150194510Y-85726542D02*
X150265939Y-85583685D01*
X150908795Y-86297971D02*
X150980224Y-86369400D01*
X150980224Y-86369400D02*
X150908795Y-86440828D01*
X150908795Y-86440828D02*
X150837367Y-86369400D01*
X150837367Y-86369400D02*
X150908795Y-86297971D01*
X150908795Y-86297971D02*
X150908795Y-86440828D01*
X151551653Y-85083685D02*
X151623081Y-85012257D01*
X151623081Y-85012257D02*
X151765939Y-84940828D01*
X151765939Y-84940828D02*
X152123081Y-84940828D01*
X152123081Y-84940828D02*
X152265939Y-85012257D01*
X152265939Y-85012257D02*
X152337367Y-85083685D01*
X152337367Y-85083685D02*
X152408796Y-85226542D01*
X152408796Y-85226542D02*
X152408796Y-85369400D01*
X152408796Y-85369400D02*
X152337367Y-85583685D01*
X152337367Y-85583685D02*
X151480224Y-86440828D01*
X151480224Y-86440828D02*
X152408796Y-86440828D01*
D11*
%TO.C,CONN4*%
X103235000Y-82680000D02*
X123675000Y-82680000D01*
X103235000Y-85280000D02*
X103235000Y-82680000D01*
X103235000Y-87880000D02*
X103235000Y-86550000D01*
X104565000Y-87880000D02*
X103235000Y-87880000D01*
X105835000Y-85280000D02*
X103235000Y-85280000D01*
X105835000Y-87880000D02*
X105835000Y-85280000D01*
X105835000Y-87880000D02*
X123675000Y-87880000D01*
X123675000Y-87880000D02*
X123675000Y-82680000D01*
%TO.C,CONN3*%
X103320000Y-108810000D02*
X103320000Y-111470000D01*
X118620000Y-108810000D02*
X103320000Y-108810000D01*
X118620000Y-108810000D02*
X118620000Y-111470000D01*
X118620000Y-111470000D02*
X103320000Y-111470000D01*
X119890000Y-108810000D02*
X121220000Y-108810000D01*
X121220000Y-108810000D02*
X121220000Y-110140000D01*
%TD*%
M02*
