%TF.GenerationSoftware,KiCad,Pcbnew,8.0.6*%
%TF.CreationDate,2024-11-10T15:23:16+09:00*%
%TF.ProjectId,powerups,706f7765-7275-4707-932e-6b696361645f,0.9.3*%
%TF.SameCoordinates,Original*%
%TF.FileFunction,Copper,L3,Inr*%
%TF.FilePolarity,Positive*%
%FSLAX46Y46*%
G04 Gerber Fmt 4.6, Leading zero omitted, Abs format (unit mm)*
G04 Created by KiCad (PCBNEW 8.0.6) date 2024-11-10 15:23:16*
%MOMM*%
%LPD*%
G01*
G04 APERTURE LIST*
%TA.AperFunction,ComponentPad*%
%ADD10C,5.000000*%
%TD*%
%TA.AperFunction,ComponentPad*%
%ADD11R,1.700000X1.700000*%
%TD*%
%TA.AperFunction,ComponentPad*%
%ADD12O,1.700000X1.700000*%
%TD*%
%TA.AperFunction,ComponentPad*%
%ADD13R,2.400000X2.400000*%
%TD*%
%TA.AperFunction,ComponentPad*%
%ADD14C,2.400000*%
%TD*%
%TA.AperFunction,ComponentPad*%
%ADD15C,1.700000*%
%TD*%
%TA.AperFunction,ComponentPad*%
%ADD16R,0.850000X0.850000*%
%TD*%
%TA.AperFunction,ComponentPad*%
%ADD17O,0.850000X0.850000*%
%TD*%
%TA.AperFunction,ViaPad*%
%ADD18C,0.604800*%
%TD*%
G04 APERTURE END LIST*
D10*
%TO.N,unconnected-(H1-Pad1)*%
%TO.C,H1*%
X99690000Y-85280000D03*
%TD*%
%TO.N,unconnected-(H2-Pad1)*%
%TO.C,H2*%
X157690000Y-85280000D03*
%TD*%
%TO.N,unconnected-(H4-Pad1)*%
%TO.C,H4*%
X157690000Y-108780000D03*
%TD*%
%TO.N,unconnected-(H3-Pad1)*%
%TO.C,H3*%
X99690000Y-108780000D03*
%TD*%
D11*
%TO.N,+3.3V*%
%TO.C,CONN4*%
X104565000Y-86550000D03*
D12*
%TO.N,+5V*%
X104565000Y-84010000D03*
%TO.N,/SDA*%
X107105000Y-86550000D03*
%TO.N,+5V*%
X107105000Y-84010000D03*
%TO.N,/SCL*%
X109645000Y-86550000D03*
%TO.N,GND*%
X109645000Y-84010000D03*
%TO.N,unconnected-(CONN4-Pin_7-Pad7)*%
X112185000Y-86550000D03*
%TO.N,unconnected-(CONN4-Pin_8-Pad8)*%
X112185000Y-84010000D03*
%TO.N,GND*%
X114725000Y-86550000D03*
%TO.N,unconnected-(CONN4-Pin_10-Pad10)*%
X114725000Y-84010000D03*
%TO.N,/IO1*%
X117265000Y-86550000D03*
%TO.N,unconnected-(CONN4-Pin_12-Pad12)*%
X117265000Y-84010000D03*
%TO.N,unconnected-(CONN4-Pin_13-Pad13)*%
X119805000Y-86550000D03*
%TO.N,GND*%
X119805000Y-84010000D03*
%TO.N,unconnected-(CONN4-Pin_15-Pad15)*%
X122345000Y-86550000D03*
%TO.N,/IO2*%
X122345000Y-84010000D03*
%TD*%
D11*
%TO.N,+5V*%
%TO.C,CONN3*%
X119890000Y-110140000D03*
D12*
%TO.N,+3.3V*%
X117350000Y-110140000D03*
%TO.N,/SCL*%
X114810000Y-110140000D03*
%TO.N,/SDA*%
X112270000Y-110140000D03*
%TO.N,/IO1*%
X109730000Y-110140000D03*
%TO.N,/IO2*%
X107190000Y-110140000D03*
%TO.N,GND*%
X104650000Y-110140000D03*
%TD*%
D11*
%TO.N,Net-(CONN5-Pin_1)*%
%TO.C,CONN5*%
X116380000Y-92300000D03*
D12*
%TO.N,GND*%
X116380000Y-94840000D03*
%TO.N,VCC*%
X116380000Y-97380000D03*
%TO.N,Net-(CONN5-Pin_4)*%
X116380000Y-99920000D03*
%TD*%
D13*
%TO.N,Net-(CONN1-Pin_1)*%
%TO.C,CONN1*%
X126940000Y-96800000D03*
D14*
%TO.N,GND*%
X130440000Y-96800000D03*
%TD*%
D15*
%TO.N,Net-(R4-Pad1)*%
%TO.C,R4*%
X140020000Y-106470000D03*
D12*
%TO.N,+5V*%
X140020000Y-109010000D03*
%TD*%
D13*
%TO.N,Net-(CONN7-Pin_1)*%
%TO.C,CONN7*%
X146190000Y-95275000D03*
D14*
%TO.N,GND*%
X146190000Y-98775000D03*
%TD*%
D16*
%TO.N,VCC*%
%TO.C,CONN2*%
X101580000Y-90720000D03*
D17*
%TO.N,/BTN*%
X101580000Y-91720000D03*
%TD*%
D15*
%TO.N,/bq25622e/VSYS*%
%TO.C,R13*%
X142270000Y-90640000D03*
D12*
%TO.N,Net-(C6-Pad1)*%
X144810000Y-90640000D03*
%TD*%
D15*
%TO.N,Net-(CONN7-Pin_1)*%
%TO.C,R5*%
X138170000Y-94360000D03*
D12*
%TO.N,Net-(C2-Pad1)*%
X138170000Y-96900000D03*
%TD*%
D15*
%TO.N,Net-(Q3-D)*%
%TO.C,R24*%
X145286250Y-104245000D03*
D12*
%TO.N,+5V*%
X145286250Y-106785000D03*
%TD*%
D11*
%TO.N,Net-(Q2-G)*%
%TO.C,TP1*%
X158590000Y-103700000D03*
%TD*%
D15*
%TO.N,Net-(C1-Pad1)*%
%TO.C,R18*%
X150986250Y-88155000D03*
D12*
%TO.N,Net-(Q2-D)*%
X150986250Y-90695000D03*
%TD*%
D16*
%TO.N,/bq25622e/TS*%
%TO.C,CONN8*%
X134110000Y-94920000D03*
D17*
%TO.N,GND*%
X135110000Y-94920000D03*
%TD*%
D18*
%TO.N,GND*%
X143440000Y-111200000D03*
X141050000Y-83580000D03*
X100460000Y-91870000D03*
X131740000Y-94670000D03*
X153990000Y-110940000D03*
X134960000Y-88310000D03*
X139690000Y-84440000D03*
X108280000Y-96910000D03*
X154620000Y-84000000D03*
X128990000Y-108042000D03*
X145070000Y-101780000D03*
X101190000Y-97260000D03*
X103180000Y-110850000D03*
X145790000Y-110050000D03*
X99500000Y-98010000D03*
X136449000Y-103946583D03*
X129230000Y-106680000D03*
X147290000Y-92880000D03*
X148790000Y-83960000D03*
X116000000Y-103809000D03*
X151930000Y-82680000D03*
X155210000Y-82690000D03*
X133700000Y-90480000D03*
X142640000Y-87070000D03*
X102710000Y-92290000D03*
X137800000Y-99820000D03*
X99610000Y-101570000D03*
X103190000Y-89860000D03*
X137810000Y-106580000D03*
X114640000Y-96840000D03*
X114400000Y-94800000D03*
X155070000Y-91810000D03*
X130090000Y-107820000D03*
X134330000Y-111290000D03*
X121340000Y-106633800D03*
X102720000Y-86920000D03*
X109834000Y-89474000D03*
X138980000Y-99840000D03*
X156190000Y-105710000D03*
X138620000Y-90560000D03*
X138390000Y-104590000D03*
X121130000Y-88040000D03*
X123600000Y-85300000D03*
X137020000Y-92760000D03*
X148270000Y-111230000D03*
X140880000Y-85760000D03*
X120390000Y-102210000D03*
X136190000Y-111280000D03*
X100390000Y-104301200D03*
X97230000Y-106620000D03*
X132930000Y-96760000D03*
X98650000Y-102780000D03*
X118900000Y-88840000D03*
X139690000Y-82960000D03*
X148280000Y-100450000D03*
X108550000Y-101790000D03*
X114060000Y-100930000D03*
X120490000Y-89900000D03*
X99120000Y-96280000D03*
X109910000Y-96730000D03*
X103180000Y-108680000D03*
X147940000Y-91330000D03*
X122690000Y-109300000D03*
X159060000Y-91360000D03*
X101060000Y-103209000D03*
X153521500Y-105476638D03*
X127358685Y-105706156D03*
X102790000Y-96120000D03*
X121840000Y-91730000D03*
X106930000Y-98210000D03*
X160060000Y-87800000D03*
X111260000Y-96620000D03*
X160200000Y-106700000D03*
X101549200Y-102300000D03*
X148300000Y-102820000D03*
X97550000Y-88460000D03*
X151060000Y-83980000D03*
X102340000Y-82980000D03*
X127700000Y-99490000D03*
X123330000Y-88730000D03*
X127619113Y-105178986D03*
X119450000Y-96510000D03*
X112430000Y-102930000D03*
X128626830Y-105564645D03*
X153390000Y-104320000D03*
X136280000Y-86650000D03*
X115510000Y-106800000D03*
X156690000Y-102270000D03*
X119050000Y-95620000D03*
X142630000Y-82910000D03*
%TO.N,VCC*%
X104060000Y-99110000D03*
X138100000Y-89220000D03*
X148740000Y-89670000D03*
X104072800Y-91320000D03*
X116660000Y-103180000D03*
X118910565Y-102741511D03*
X113910000Y-90931000D03*
X109950000Y-97750000D03*
X119410000Y-99910000D03*
X99689426Y-91059426D03*
%TO.N,/QON*%
X98945000Y-99975000D03*
X123030000Y-103449000D03*
%TO.N,/bq25622e/VIN*%
X136170000Y-106990000D03*
X135170000Y-108240000D03*
X135840000Y-107720000D03*
X125920000Y-108640000D03*
X126200000Y-108050000D03*
X125370000Y-108250000D03*
%TO.N,Net-(Q2-S)*%
X151980000Y-109900000D03*
X154100000Y-109450000D03*
%TO.N,/SDA*%
X106906669Y-96836497D03*
X102104847Y-98069000D03*
%TO.N,/IO2*%
X104670000Y-90700000D03*
X105935714Y-97997832D03*
X101041000Y-99153600D03*
%TO.N,/SCL*%
X102730000Y-97538000D03*
X107407062Y-96268200D03*
%TO.N,+3.3V*%
X107950000Y-95661000D03*
X107670000Y-89627400D03*
X103178754Y-96859000D03*
X104610000Y-89627400D03*
X108930000Y-89627400D03*
%TO.N,/IO1*%
X105887139Y-90300244D03*
X106404170Y-97402934D03*
X101563644Y-98605696D03*
%TO.N,/BTN*%
X99520644Y-94290644D03*
X109300000Y-94570000D03*
X101580000Y-93260000D03*
X101200000Y-94480000D03*
X100109356Y-95419356D03*
%TO.N,/PG*%
X117620383Y-105221000D03*
X117197091Y-98700000D03*
X109364577Y-98492800D03*
X125530000Y-105269400D03*
%TO.N,/INT*%
X130109662Y-104945908D03*
X105009222Y-104271000D03*
%TO.N,Net-(U6-SW)*%
X124150000Y-107790000D03*
X130740000Y-107210000D03*
%TO.N,/bq25622e/TS*%
X134870000Y-93741000D03*
X119783800Y-95010000D03*
%TO.N,/ALARM*%
X118650000Y-92680000D03*
X104700000Y-91960000D03*
%TO.N,/SDA0*%
X120003254Y-105525800D03*
X120632403Y-107693400D03*
X130580765Y-105538713D03*
X107059000Y-104391000D03*
%TO.N,/SCL0*%
X119520000Y-107700000D03*
X106414624Y-103707653D03*
X118880000Y-106209000D03*
X130097449Y-106121604D03*
%TO.N,/5V_PG*%
X141530000Y-87758000D03*
X111360000Y-90969000D03*
%TO.N,/LED*%
X101975201Y-94562331D03*
X108610000Y-95130000D03*
%TO.N,Net-(Q2-G)*%
X150280600Y-107702550D03*
X155160000Y-104930000D03*
X152219000Y-104960000D03*
X154770000Y-107610000D03*
%TO.N,Net-(U6-STAT)*%
X129270000Y-104440000D03*
X99060000Y-103800000D03*
%TO.N,Net-(U3-EN)*%
X142691000Y-86200000D03*
X141629000Y-86194526D03*
%TO.N,/bq25622e/VSYS*%
X131460000Y-100040000D03*
X141890000Y-92100000D03*
X129240000Y-100040000D03*
X130290000Y-99600000D03*
X140290000Y-90840000D03*
X129020000Y-101870000D03*
X130050000Y-101060000D03*
X140370000Y-89690000D03*
X140500000Y-92000000D03*
%TO.N,/5V_OUT*%
X149650000Y-88660000D03*
X110560000Y-91462800D03*
%TO.N,/5V_DIS*%
X138398039Y-99355565D03*
X109910000Y-95790000D03*
%TO.N,Net-(C1-Pad1)*%
X145140000Y-85060000D03*
X144490000Y-85420000D03*
X143810000Y-85080000D03*
%TO.N,/ST*%
X104460000Y-102180000D03*
X102800000Y-95190000D03*
X104690000Y-96140000D03*
X138600000Y-106126200D03*
%TO.N,/5V_BYP*%
X109800000Y-91462800D03*
X138708941Y-87453200D03*
%TO.N,/5V_EN*%
X153521500Y-103324800D03*
X107560000Y-102660000D03*
X155170000Y-103880000D03*
X152750000Y-106010000D03*
%TO.N,Net-(LED1-K)*%
X98680000Y-93570000D03*
X100360000Y-93010000D03*
%TO.N,Net-(CONN5-Pin_4)*%
X111210000Y-99030000D03*
%TO.N,Net-(CONN5-Pin_1)*%
X110550000Y-95030000D03*
X113890000Y-93370000D03*
%TD*%
%TA.AperFunction,Conductor*%
%TO.N,GND*%
G36*
X124182638Y-82298093D02*
G01*
X124208358Y-82342642D01*
X124209500Y-82355700D01*
X124209500Y-91845892D01*
X124228848Y-91918099D01*
X124243608Y-91973188D01*
X124309499Y-92087314D01*
X124402685Y-92180500D01*
X124516811Y-92246391D01*
X124516813Y-92246391D01*
X124516814Y-92246392D01*
X124644108Y-92280500D01*
X124644111Y-92280500D01*
X132775889Y-92280500D01*
X132775892Y-92280500D01*
X132903186Y-92246392D01*
X132932285Y-92229592D01*
X133017314Y-92180500D01*
X133110500Y-92087314D01*
X133160911Y-92000000D01*
X140040018Y-92000000D01*
X140058651Y-92129592D01*
X140058651Y-92129593D01*
X140058652Y-92129595D01*
X140058652Y-92129597D01*
X140113037Y-92248682D01*
X140113040Y-92248687D01*
X140140607Y-92280500D01*
X140198776Y-92347631D01*
X140198778Y-92347632D01*
X140198779Y-92347633D01*
X140308916Y-92418414D01*
X140352843Y-92431312D01*
X140434538Y-92455300D01*
X140434541Y-92455300D01*
X140565459Y-92455300D01*
X140565462Y-92455300D01*
X140691083Y-92418414D01*
X140801224Y-92347631D01*
X140886961Y-92248685D01*
X140941349Y-92129592D01*
X140959982Y-92000000D01*
X140941349Y-91870408D01*
X140941347Y-91870403D01*
X140941347Y-91870402D01*
X140886962Y-91751317D01*
X140886959Y-91751312D01*
X140852448Y-91711485D01*
X140801224Y-91652369D01*
X140801220Y-91652366D01*
X140691083Y-91581585D01*
X140565464Y-91544700D01*
X140565462Y-91544700D01*
X140434538Y-91544700D01*
X140434535Y-91544700D01*
X140308916Y-91581585D01*
X140198779Y-91652366D01*
X140198776Y-91652368D01*
X140198776Y-91652369D01*
X140185550Y-91667633D01*
X140113040Y-91751312D01*
X140113037Y-91751317D01*
X140058652Y-91870402D01*
X140058652Y-91870404D01*
X140058651Y-91870406D01*
X140058651Y-91870408D01*
X140040018Y-92000000D01*
X133160911Y-92000000D01*
X133176391Y-91973188D01*
X133177137Y-91970404D01*
X133210500Y-91845892D01*
X133210500Y-90840000D01*
X139830018Y-90840000D01*
X139848651Y-90969592D01*
X139848651Y-90969593D01*
X139848652Y-90969595D01*
X139848652Y-90969597D01*
X139903037Y-91088682D01*
X139903040Y-91088687D01*
X139925985Y-91115166D01*
X139988776Y-91187631D01*
X139988778Y-91187632D01*
X139988779Y-91187633D01*
X140098916Y-91258414D01*
X140180074Y-91282244D01*
X140224538Y-91295300D01*
X140224541Y-91295300D01*
X140355459Y-91295300D01*
X140355462Y-91295300D01*
X140481083Y-91258414D01*
X140591224Y-91187631D01*
X140676961Y-91088685D01*
X140731349Y-90969592D01*
X140749982Y-90840000D01*
X140731349Y-90710408D01*
X140731347Y-90710403D01*
X140731347Y-90710402D01*
X140699195Y-90640000D01*
X141262247Y-90640000D01*
X141281610Y-90836599D01*
X141281610Y-90836601D01*
X141338955Y-91025643D01*
X141338956Y-91025647D01*
X141363366Y-91071315D01*
X141427022Y-91190408D01*
X141432086Y-91199881D01*
X141432089Y-91199885D01*
X141557410Y-91352589D01*
X141710114Y-91477910D01*
X141710118Y-91477913D01*
X141710122Y-91477916D01*
X141789931Y-91520574D01*
X141824267Y-91558877D01*
X141825951Y-91610289D01*
X141794193Y-91650755D01*
X141775669Y-91659049D01*
X141698915Y-91681586D01*
X141588779Y-91752366D01*
X141503040Y-91851312D01*
X141503037Y-91851317D01*
X141448652Y-91970402D01*
X141448652Y-91970404D01*
X141448651Y-91970406D01*
X141448651Y-91970408D01*
X141430018Y-92100000D01*
X141448651Y-92229592D01*
X141448651Y-92229593D01*
X141448652Y-92229595D01*
X141448652Y-92229597D01*
X141503037Y-92348682D01*
X141503040Y-92348687D01*
X141528799Y-92378414D01*
X141588776Y-92447631D01*
X141588778Y-92447632D01*
X141588779Y-92447633D01*
X141698916Y-92518414D01*
X141736672Y-92529500D01*
X141824538Y-92555300D01*
X141824541Y-92555300D01*
X141955459Y-92555300D01*
X141955462Y-92555300D01*
X142081083Y-92518414D01*
X142191224Y-92447631D01*
X142276961Y-92348685D01*
X142331349Y-92229592D01*
X142349982Y-92100000D01*
X142331349Y-91970408D01*
X142331347Y-91970403D01*
X142331347Y-91970402D01*
X142276962Y-91851317D01*
X142276959Y-91851312D01*
X142241537Y-91810434D01*
X142208305Y-91772081D01*
X142189947Y-91724032D01*
X142206771Y-91675421D01*
X142250905Y-91648997D01*
X142266306Y-91648286D01*
X142266306Y-91647753D01*
X142269998Y-91647753D01*
X142269998Y-91647752D01*
X142270000Y-91647753D01*
X142466603Y-91628389D01*
X142655650Y-91571042D01*
X142829878Y-91477916D01*
X142982589Y-91352589D01*
X143107916Y-91199878D01*
X143201042Y-91025650D01*
X143258389Y-90836603D01*
X143277753Y-90640000D01*
X143802247Y-90640000D01*
X143821610Y-90836599D01*
X143821610Y-90836601D01*
X143878955Y-91025643D01*
X143878956Y-91025647D01*
X143903366Y-91071315D01*
X143967022Y-91190408D01*
X143972086Y-91199881D01*
X143972089Y-91199885D01*
X144097410Y-91352589D01*
X144250114Y-91477910D01*
X144250118Y-91477913D01*
X144250122Y-91477916D01*
X144401591Y-91558877D01*
X144424352Y-91571043D01*
X144424356Y-91571044D01*
X144459105Y-91581585D01*
X144613397Y-91628389D01*
X144810000Y-91647753D01*
X145006603Y-91628389D01*
X145195650Y-91571042D01*
X145369878Y-91477916D01*
X145522589Y-91352589D01*
X145647916Y-91199878D01*
X145741042Y-91025650D01*
X145798389Y-90836603D01*
X145812336Y-90695000D01*
X149978497Y-90695000D01*
X149997860Y-90891599D01*
X149997860Y-90891601D01*
X150055205Y-91080643D01*
X150055206Y-91080647D01*
X150087195Y-91140494D01*
X150128452Y-91217682D01*
X150148336Y-91254881D01*
X150148339Y-91254885D01*
X150273660Y-91407589D01*
X150426364Y-91532910D01*
X150426368Y-91532913D01*
X150426372Y-91532916D01*
X150600600Y-91626042D01*
X150600602Y-91626043D01*
X150600606Y-91626044D01*
X150608337Y-91628389D01*
X150789647Y-91683389D01*
X150986250Y-91702753D01*
X151182853Y-91683389D01*
X151371900Y-91626042D01*
X151546128Y-91532916D01*
X151698839Y-91407589D01*
X151824166Y-91254878D01*
X151917292Y-91080650D01*
X151974639Y-90891603D01*
X151994003Y-90695000D01*
X151974639Y-90498397D01*
X151917292Y-90309350D01*
X151824166Y-90135122D01*
X151824163Y-90135118D01*
X151824160Y-90135114D01*
X151698839Y-89982410D01*
X151546135Y-89857089D01*
X151546131Y-89857086D01*
X151546129Y-89857085D01*
X151546128Y-89857084D01*
X151443229Y-89802084D01*
X151371897Y-89763956D01*
X151371893Y-89763955D01*
X151182850Y-89706610D01*
X150986250Y-89687247D01*
X150789650Y-89706610D01*
X150789648Y-89706610D01*
X150600606Y-89763955D01*
X150600602Y-89763956D01*
X150426368Y-89857086D01*
X150426364Y-89857089D01*
X150273660Y-89982410D01*
X150148339Y-90135114D01*
X150148336Y-90135118D01*
X150055206Y-90309352D01*
X150055205Y-90309356D01*
X149997860Y-90498398D01*
X149997860Y-90498400D01*
X149978497Y-90695000D01*
X145812336Y-90695000D01*
X145817753Y-90640000D01*
X145798389Y-90443397D01*
X145749304Y-90281585D01*
X145741044Y-90254356D01*
X145741043Y-90254352D01*
X145731382Y-90236277D01*
X145647916Y-90080122D01*
X145647913Y-90080118D01*
X145647910Y-90080114D01*
X145522589Y-89927410D01*
X145369885Y-89802089D01*
X145369881Y-89802086D01*
X145369879Y-89802085D01*
X145369878Y-89802084D01*
X145282764Y-89755521D01*
X145195647Y-89708956D01*
X145195643Y-89708955D01*
X145067224Y-89670000D01*
X148280018Y-89670000D01*
X148298651Y-89799592D01*
X148298651Y-89799593D01*
X148298652Y-89799595D01*
X148298652Y-89799597D01*
X148353037Y-89918682D01*
X148353040Y-89918687D01*
X148382435Y-89952610D01*
X148438776Y-90017631D01*
X148438778Y-90017632D01*
X148438779Y-90017633D01*
X148548916Y-90088414D01*
X148617030Y-90108414D01*
X148674538Y-90125300D01*
X148674541Y-90125300D01*
X148805459Y-90125300D01*
X148805462Y-90125300D01*
X148931083Y-90088414D01*
X149041224Y-90017631D01*
X149126961Y-89918685D01*
X149181349Y-89799592D01*
X149199982Y-89670000D01*
X149181349Y-89540408D01*
X149181347Y-89540403D01*
X149181347Y-89540402D01*
X149126962Y-89421317D01*
X149126959Y-89421312D01*
X149101258Y-89391652D01*
X149041224Y-89322369D01*
X149041220Y-89322366D01*
X148931083Y-89251585D01*
X148805464Y-89214700D01*
X148805462Y-89214700D01*
X148674538Y-89214700D01*
X148674535Y-89214700D01*
X148548916Y-89251585D01*
X148438779Y-89322366D01*
X148353040Y-89421312D01*
X148353037Y-89421317D01*
X148298652Y-89540402D01*
X148298652Y-89540404D01*
X148298651Y-89540406D01*
X148298651Y-89540408D01*
X148280018Y-89670000D01*
X145067224Y-89670000D01*
X145006600Y-89651610D01*
X144810000Y-89632247D01*
X144613400Y-89651610D01*
X144613398Y-89651610D01*
X144424356Y-89708955D01*
X144424352Y-89708956D01*
X144250118Y-89802086D01*
X144250114Y-89802089D01*
X144097410Y-89927410D01*
X143972089Y-90080114D01*
X143972086Y-90080118D01*
X143878956Y-90254352D01*
X143878955Y-90254356D01*
X143821610Y-90443398D01*
X143821610Y-90443400D01*
X143802247Y-90640000D01*
X143277753Y-90640000D01*
X143258389Y-90443397D01*
X143209304Y-90281585D01*
X143201044Y-90254356D01*
X143201043Y-90254352D01*
X143191382Y-90236277D01*
X143107916Y-90080122D01*
X143107913Y-90080118D01*
X143107910Y-90080114D01*
X142982589Y-89927410D01*
X142829885Y-89802089D01*
X142829881Y-89802086D01*
X142829879Y-89802085D01*
X142829878Y-89802084D01*
X142742764Y-89755521D01*
X142655647Y-89708956D01*
X142655643Y-89708955D01*
X142466600Y-89651610D01*
X142270000Y-89632247D01*
X142073400Y-89651610D01*
X142073398Y-89651610D01*
X141884356Y-89708955D01*
X141884352Y-89708956D01*
X141710118Y-89802086D01*
X141710114Y-89802089D01*
X141557410Y-89927410D01*
X141432089Y-90080114D01*
X141432086Y-90080118D01*
X141338956Y-90254352D01*
X141338955Y-90254356D01*
X141281610Y-90443398D01*
X141281610Y-90443400D01*
X141262247Y-90640000D01*
X140699195Y-90640000D01*
X140676962Y-90591317D01*
X140676959Y-90591312D01*
X140640231Y-90548926D01*
X140591224Y-90492369D01*
X140591220Y-90492366D01*
X140481083Y-90421585D01*
X140355464Y-90384700D01*
X140355462Y-90384700D01*
X140224538Y-90384700D01*
X140224535Y-90384700D01*
X140098916Y-90421585D01*
X139988779Y-90492366D01*
X139903040Y-90591312D01*
X139903037Y-90591317D01*
X139848652Y-90710402D01*
X139848652Y-90710404D01*
X139848651Y-90710406D01*
X139848651Y-90710408D01*
X139830018Y-90840000D01*
X133210500Y-90840000D01*
X133210500Y-89690000D01*
X139910018Y-89690000D01*
X139928651Y-89819592D01*
X139928651Y-89819593D01*
X139928652Y-89819595D01*
X139928652Y-89819597D01*
X139983037Y-89938682D01*
X139983040Y-89938687D01*
X140014463Y-89974951D01*
X140068776Y-90037631D01*
X140068778Y-90037632D01*
X140068779Y-90037633D01*
X140178916Y-90108414D01*
X140236421Y-90125299D01*
X140304538Y-90145300D01*
X140304541Y-90145300D01*
X140435459Y-90145300D01*
X140435462Y-90145300D01*
X140561083Y-90108414D01*
X140671224Y-90037631D01*
X140756961Y-89938685D01*
X140811349Y-89819592D01*
X140829982Y-89690000D01*
X140811349Y-89560408D01*
X140811347Y-89560403D01*
X140811347Y-89560402D01*
X140756962Y-89441317D01*
X140756959Y-89441312D01*
X140731258Y-89411652D01*
X140671224Y-89342369D01*
X140671220Y-89342366D01*
X140561083Y-89271585D01*
X140435464Y-89234700D01*
X140435462Y-89234700D01*
X140304538Y-89234700D01*
X140304535Y-89234700D01*
X140178916Y-89271585D01*
X140068779Y-89342366D01*
X140068776Y-89342368D01*
X140068776Y-89342369D01*
X140062515Y-89349595D01*
X139983040Y-89441312D01*
X139983037Y-89441317D01*
X139928652Y-89560402D01*
X139928652Y-89560404D01*
X139928651Y-89560406D01*
X139928651Y-89560408D01*
X139910018Y-89690000D01*
X133210500Y-89690000D01*
X133210500Y-89220000D01*
X137640018Y-89220000D01*
X137658651Y-89349592D01*
X137658651Y-89349593D01*
X137658652Y-89349595D01*
X137658652Y-89349597D01*
X137713037Y-89468682D01*
X137713040Y-89468687D01*
X137738269Y-89497802D01*
X137798776Y-89567631D01*
X137798778Y-89567632D01*
X137798779Y-89567633D01*
X137908916Y-89638414D01*
X137953858Y-89651610D01*
X138034538Y-89675300D01*
X138034541Y-89675300D01*
X138165459Y-89675300D01*
X138165462Y-89675300D01*
X138291083Y-89638414D01*
X138401224Y-89567631D01*
X138486961Y-89468685D01*
X138541349Y-89349592D01*
X138559982Y-89220000D01*
X138541349Y-89090408D01*
X138541347Y-89090403D01*
X138541347Y-89090402D01*
X138486962Y-88971317D01*
X138486959Y-88971312D01*
X138461258Y-88941652D01*
X138401224Y-88872369D01*
X138401220Y-88872366D01*
X138291083Y-88801585D01*
X138165464Y-88764700D01*
X138165462Y-88764700D01*
X138034538Y-88764700D01*
X138034535Y-88764700D01*
X137908916Y-88801585D01*
X137798779Y-88872366D01*
X137713040Y-88971312D01*
X137713037Y-88971317D01*
X137658652Y-89090402D01*
X137658652Y-89090404D01*
X137658651Y-89090406D01*
X137658651Y-89090408D01*
X137640018Y-89220000D01*
X133210500Y-89220000D01*
X133210500Y-88660000D01*
X149190018Y-88660000D01*
X149208651Y-88789592D01*
X149208651Y-88789593D01*
X149208652Y-88789595D01*
X149208652Y-88789597D01*
X149263037Y-88908682D01*
X149263040Y-88908687D01*
X149294463Y-88944951D01*
X149348776Y-89007631D01*
X149348778Y-89007632D01*
X149348779Y-89007633D01*
X149458916Y-89078414D01*
X149499764Y-89090408D01*
X149584538Y-89115300D01*
X149584541Y-89115300D01*
X149715459Y-89115300D01*
X149715462Y-89115300D01*
X149841083Y-89078414D01*
X149951224Y-89007631D01*
X150036961Y-88908685D01*
X150056326Y-88866281D01*
X150083574Y-88806618D01*
X150119657Y-88769957D01*
X150170864Y-88765067D01*
X150210108Y-88790150D01*
X150273663Y-88867591D01*
X150426364Y-88992910D01*
X150426368Y-88992913D01*
X150426372Y-88992916D01*
X150586329Y-89078414D01*
X150600602Y-89086043D01*
X150600606Y-89086044D01*
X150643843Y-89099159D01*
X150789647Y-89143389D01*
X150986250Y-89162753D01*
X151182853Y-89143389D01*
X151371900Y-89086042D01*
X151546128Y-88992916D01*
X151698839Y-88867589D01*
X151824166Y-88714878D01*
X151917292Y-88540650D01*
X151974639Y-88351603D01*
X151994003Y-88155000D01*
X151974639Y-87958397D01*
X151917292Y-87769350D01*
X151824166Y-87595122D01*
X151824163Y-87595118D01*
X151824160Y-87595114D01*
X151698839Y-87442410D01*
X151546135Y-87317089D01*
X151546131Y-87317086D01*
X151546129Y-87317085D01*
X151546128Y-87317084D01*
X151444174Y-87262589D01*
X151371897Y-87223956D01*
X151371893Y-87223955D01*
X151182850Y-87166610D01*
X150986250Y-87147247D01*
X150789650Y-87166610D01*
X150789648Y-87166610D01*
X150600606Y-87223955D01*
X150600602Y-87223956D01*
X150426368Y-87317086D01*
X150426364Y-87317089D01*
X150273660Y-87442410D01*
X150148339Y-87595114D01*
X150148336Y-87595118D01*
X150055206Y-87769352D01*
X150055205Y-87769356D01*
X149997860Y-87958398D01*
X149997860Y-87958400D01*
X149978497Y-88155001D01*
X149981655Y-88187071D01*
X149968883Y-88236900D01*
X149927070Y-88266861D01*
X149875780Y-88262936D01*
X149866161Y-88257702D01*
X149841083Y-88241585D01*
X149715464Y-88204700D01*
X149715462Y-88204700D01*
X149584538Y-88204700D01*
X149584535Y-88204700D01*
X149458916Y-88241585D01*
X149348779Y-88312366D01*
X149263040Y-88411312D01*
X149263037Y-88411317D01*
X149208652Y-88530402D01*
X149208652Y-88530404D01*
X149208651Y-88530406D01*
X149208651Y-88530408D01*
X149190018Y-88660000D01*
X133210500Y-88660000D01*
X133210500Y-87453200D01*
X138248959Y-87453200D01*
X138267592Y-87582792D01*
X138267592Y-87582793D01*
X138267593Y-87582795D01*
X138267593Y-87582797D01*
X138321978Y-87701882D01*
X138321981Y-87701887D01*
X138353404Y-87738151D01*
X138407717Y-87800831D01*
X138407719Y-87800832D01*
X138407720Y-87800833D01*
X138517857Y-87871614D01*
X138607223Y-87897854D01*
X138643479Y-87908500D01*
X138643482Y-87908500D01*
X138774400Y-87908500D01*
X138774403Y-87908500D01*
X138900024Y-87871614D01*
X139010165Y-87800831D01*
X139047278Y-87758000D01*
X141070018Y-87758000D01*
X141088651Y-87887592D01*
X141088651Y-87887593D01*
X141088652Y-87887595D01*
X141088652Y-87887597D01*
X141143037Y-88006682D01*
X141143040Y-88006687D01*
X141174463Y-88042951D01*
X141228776Y-88105631D01*
X141228778Y-88105632D01*
X141228779Y-88105633D01*
X141338916Y-88176414D01*
X141428282Y-88202654D01*
X141464538Y-88213300D01*
X141464541Y-88213300D01*
X141595459Y-88213300D01*
X141595462Y-88213300D01*
X141721083Y-88176414D01*
X141831224Y-88105631D01*
X141916961Y-88006685D01*
X141971349Y-87887592D01*
X141989982Y-87758000D01*
X141971349Y-87628408D01*
X141971347Y-87628403D01*
X141971347Y-87628402D01*
X141916962Y-87509317D01*
X141916959Y-87509312D01*
X141880542Y-87467285D01*
X141831224Y-87410369D01*
X141831220Y-87410366D01*
X141721083Y-87339585D01*
X141595464Y-87302700D01*
X141595462Y-87302700D01*
X141464538Y-87302700D01*
X141464535Y-87302700D01*
X141338916Y-87339585D01*
X141228779Y-87410366D01*
X141143040Y-87509312D01*
X141143037Y-87509317D01*
X141088652Y-87628402D01*
X141088652Y-87628404D01*
X141088651Y-87628406D01*
X141088651Y-87628408D01*
X141070018Y-87758000D01*
X139047278Y-87758000D01*
X139095902Y-87701885D01*
X139150290Y-87582792D01*
X139168923Y-87453200D01*
X139150290Y-87323608D01*
X139150288Y-87323603D01*
X139150288Y-87323602D01*
X139095903Y-87204517D01*
X139095900Y-87204512D01*
X139046279Y-87147247D01*
X139010165Y-87105569D01*
X139010161Y-87105566D01*
X138900024Y-87034785D01*
X138774405Y-86997900D01*
X138774403Y-86997900D01*
X138643479Y-86997900D01*
X138643476Y-86997900D01*
X138517857Y-87034785D01*
X138407720Y-87105566D01*
X138407717Y-87105568D01*
X138407717Y-87105569D01*
X138403981Y-87109881D01*
X138321981Y-87204512D01*
X138321978Y-87204517D01*
X138267593Y-87323602D01*
X138267593Y-87323604D01*
X138267592Y-87323606D01*
X138267592Y-87323608D01*
X138248959Y-87453200D01*
X133210500Y-87453200D01*
X133210500Y-86194526D01*
X141169018Y-86194526D01*
X141187651Y-86324118D01*
X141187651Y-86324119D01*
X141187652Y-86324121D01*
X141187652Y-86324123D01*
X141242037Y-86443208D01*
X141242040Y-86443213D01*
X141273463Y-86479477D01*
X141327776Y-86542157D01*
X141327778Y-86542158D01*
X141327779Y-86542159D01*
X141437916Y-86612940D01*
X141527282Y-86639180D01*
X141563538Y-86649826D01*
X141563541Y-86649826D01*
X141694459Y-86649826D01*
X141694462Y-86649826D01*
X141820083Y-86612940D01*
X141930224Y-86542157D01*
X142015961Y-86443211D01*
X142067849Y-86329592D01*
X142070347Y-86324123D01*
X142070347Y-86324122D01*
X142070349Y-86324118D01*
X142085172Y-86221022D01*
X142097572Y-86197877D01*
X142221765Y-86197877D01*
X142233212Y-86216326D01*
X142234040Y-86221024D01*
X142249650Y-86329589D01*
X142249652Y-86329597D01*
X142304037Y-86448682D01*
X142304040Y-86448687D01*
X142335463Y-86484951D01*
X142389776Y-86547631D01*
X142389778Y-86547632D01*
X142389779Y-86547633D01*
X142499916Y-86618414D01*
X142589282Y-86644654D01*
X142625538Y-86655300D01*
X142625541Y-86655300D01*
X142756459Y-86655300D01*
X142756462Y-86655300D01*
X142882083Y-86618414D01*
X142992224Y-86547631D01*
X143077961Y-86448685D01*
X143132349Y-86329592D01*
X143150982Y-86200000D01*
X143132349Y-86070408D01*
X143132347Y-86070403D01*
X143132347Y-86070402D01*
X143077962Y-85951317D01*
X143077959Y-85951312D01*
X143052258Y-85921652D01*
X142992224Y-85852369D01*
X142992220Y-85852366D01*
X142882083Y-85781585D01*
X142756464Y-85744700D01*
X142756462Y-85744700D01*
X142625538Y-85744700D01*
X142625535Y-85744700D01*
X142499916Y-85781585D01*
X142389779Y-85852366D01*
X142304040Y-85951312D01*
X142304037Y-85951317D01*
X142249652Y-86070402D01*
X142249650Y-86070410D01*
X142234827Y-86173501D01*
X142221765Y-86197877D01*
X142097572Y-86197877D01*
X142098232Y-86196646D01*
X142086787Y-86178199D01*
X142085962Y-86173525D01*
X142070349Y-86064934D01*
X142070347Y-86064929D01*
X142070347Y-86064928D01*
X142015962Y-85945843D01*
X142015959Y-85945838D01*
X141976673Y-85900500D01*
X141930224Y-85846895D01*
X141930220Y-85846892D01*
X141820083Y-85776111D01*
X141694464Y-85739226D01*
X141694462Y-85739226D01*
X141563538Y-85739226D01*
X141563535Y-85739226D01*
X141437916Y-85776111D01*
X141327779Y-85846892D01*
X141327776Y-85846894D01*
X141327776Y-85846895D01*
X141323033Y-85852369D01*
X141242040Y-85945838D01*
X141242037Y-85945843D01*
X141187652Y-86064928D01*
X141187652Y-86064930D01*
X141187651Y-86064932D01*
X141187651Y-86064934D01*
X141169018Y-86194526D01*
X133210500Y-86194526D01*
X133210500Y-86075700D01*
X133228093Y-86027362D01*
X133272642Y-86001642D01*
X133285700Y-86000500D01*
X138575889Y-86000500D01*
X138575892Y-86000500D01*
X138703186Y-85966392D01*
X138738787Y-85945838D01*
X138817314Y-85900500D01*
X138910500Y-85807314D01*
X138976391Y-85693188D01*
X138978600Y-85684944D01*
X139010500Y-85565892D01*
X139010500Y-85080000D01*
X143350018Y-85080000D01*
X143368651Y-85209592D01*
X143368651Y-85209593D01*
X143368652Y-85209595D01*
X143368652Y-85209597D01*
X143423037Y-85328682D01*
X143423040Y-85328687D01*
X143454463Y-85364951D01*
X143508776Y-85427631D01*
X143508778Y-85427632D01*
X143508779Y-85427633D01*
X143618916Y-85498414D01*
X143676418Y-85515298D01*
X143744538Y-85535300D01*
X143744541Y-85535300D01*
X143875459Y-85535300D01*
X143875462Y-85535300D01*
X143959897Y-85510507D01*
X144011230Y-85513769D01*
X144048459Y-85549266D01*
X144049485Y-85551421D01*
X144103038Y-85668684D01*
X144103040Y-85668687D01*
X144117127Y-85684944D01*
X144188776Y-85767631D01*
X144188778Y-85767632D01*
X144188779Y-85767633D01*
X144298916Y-85838414D01*
X144388282Y-85864654D01*
X144424538Y-85875300D01*
X144424541Y-85875300D01*
X144555459Y-85875300D01*
X144555462Y-85875300D01*
X144681083Y-85838414D01*
X144791224Y-85767631D01*
X144876961Y-85668685D01*
X144899671Y-85618958D01*
X144933584Y-85544700D01*
X144935230Y-85545452D01*
X144961287Y-85510051D01*
X145011275Y-85497916D01*
X145024132Y-85500499D01*
X145074538Y-85515300D01*
X145074541Y-85515300D01*
X145205459Y-85515300D01*
X145205462Y-85515300D01*
X145331083Y-85478414D01*
X145441224Y-85407631D01*
X145526961Y-85308685D01*
X145540061Y-85280000D01*
X155032251Y-85280000D01*
X155051628Y-85600357D01*
X155109477Y-85916030D01*
X155109480Y-85916044D01*
X155189708Y-86173500D01*
X155204962Y-86222451D01*
X155336680Y-86515118D01*
X155502715Y-86789774D01*
X155502718Y-86789778D01*
X155502720Y-86789781D01*
X155502725Y-86789788D01*
X155700641Y-87042409D01*
X155700652Y-87042421D01*
X155927578Y-87269347D01*
X155927590Y-87269358D01*
X156180211Y-87467274D01*
X156180218Y-87467279D01*
X156180226Y-87467285D01*
X156454882Y-87633320D01*
X156747549Y-87765038D01*
X156960092Y-87831269D01*
X157053955Y-87860519D01*
X157053957Y-87860519D01*
X157053959Y-87860520D01*
X157053963Y-87860520D01*
X157053969Y-87860522D01*
X157369644Y-87918371D01*
X157369640Y-87918371D01*
X157432052Y-87922145D01*
X157690000Y-87937749D01*
X157992084Y-87919476D01*
X158010357Y-87918371D01*
X158326030Y-87860522D01*
X158326029Y-87860522D01*
X158326041Y-87860520D01*
X158632451Y-87765038D01*
X158925118Y-87633320D01*
X159199774Y-87467285D01*
X159452414Y-87269354D01*
X159679354Y-87042414D01*
X159877285Y-86789774D01*
X160043320Y-86515118D01*
X160175038Y-86222451D01*
X160270520Y-85916041D01*
X160311359Y-85693188D01*
X160328371Y-85600357D01*
X160331692Y-85545452D01*
X160347749Y-85280000D01*
X160328371Y-84959644D01*
X160326678Y-84950408D01*
X160270522Y-84643969D01*
X160270519Y-84643955D01*
X160241269Y-84550092D01*
X160175038Y-84337549D01*
X160043320Y-84044882D01*
X159877285Y-83770226D01*
X159877279Y-83770218D01*
X159877274Y-83770211D01*
X159679358Y-83517590D01*
X159679347Y-83517578D01*
X159452421Y-83290652D01*
X159452409Y-83290641D01*
X159199788Y-83092725D01*
X159199781Y-83092720D01*
X159199778Y-83092718D01*
X159199774Y-83092715D01*
X158925118Y-82926680D01*
X158632451Y-82794962D01*
X158632445Y-82794960D01*
X158326044Y-82699480D01*
X158326030Y-82699477D01*
X158010355Y-82641628D01*
X158010359Y-82641628D01*
X157690000Y-82622251D01*
X157369642Y-82641628D01*
X157053969Y-82699477D01*
X157053955Y-82699480D01*
X156747554Y-82794960D01*
X156747550Y-82794961D01*
X156747549Y-82794962D01*
X156454882Y-82926680D01*
X156297847Y-83021611D01*
X156180218Y-83092720D01*
X156180211Y-83092725D01*
X155927590Y-83290641D01*
X155927578Y-83290652D01*
X155700652Y-83517578D01*
X155700641Y-83517590D01*
X155502725Y-83770211D01*
X155502720Y-83770218D01*
X155502715Y-83770225D01*
X155502715Y-83770226D01*
X155336680Y-84044882D01*
X155263898Y-84206599D01*
X155204960Y-84337554D01*
X155109480Y-84643955D01*
X155109477Y-84643969D01*
X155051628Y-84959642D01*
X155032251Y-85280000D01*
X145540061Y-85280000D01*
X145581349Y-85189592D01*
X145599982Y-85060000D01*
X145581349Y-84930408D01*
X145581347Y-84930403D01*
X145581347Y-84930402D01*
X145526962Y-84811317D01*
X145526959Y-84811312D01*
X145497863Y-84777734D01*
X145441224Y-84712369D01*
X145441220Y-84712366D01*
X145331083Y-84641585D01*
X145205464Y-84604700D01*
X145205462Y-84604700D01*
X145074538Y-84604700D01*
X145074535Y-84604700D01*
X144948916Y-84641585D01*
X144838779Y-84712366D01*
X144838776Y-84712368D01*
X144838776Y-84712369D01*
X144821610Y-84732179D01*
X144753040Y-84811312D01*
X144753037Y-84811317D01*
X144696416Y-84935300D01*
X144694774Y-84934550D01*
X144668684Y-84969965D01*
X144618691Y-84982078D01*
X144605861Y-84979498D01*
X144555464Y-84964700D01*
X144555462Y-84964700D01*
X144424538Y-84964700D01*
X144424535Y-84964700D01*
X144340103Y-84989492D01*
X144288767Y-84986229D01*
X144251538Y-84950731D01*
X144250513Y-84948577D01*
X144196962Y-84831317D01*
X144196959Y-84831312D01*
X144171258Y-84801652D01*
X144111224Y-84732369D01*
X144111220Y-84732366D01*
X144001083Y-84661585D01*
X143875464Y-84624700D01*
X143875462Y-84624700D01*
X143744538Y-84624700D01*
X143744535Y-84624700D01*
X143618916Y-84661585D01*
X143508779Y-84732366D01*
X143423040Y-84831312D01*
X143423037Y-84831317D01*
X143368652Y-84950402D01*
X143368652Y-84950404D01*
X143368651Y-84950406D01*
X143368651Y-84950408D01*
X143350018Y-85080000D01*
X139010500Y-85080000D01*
X139010500Y-82355700D01*
X139028093Y-82307362D01*
X139072642Y-82281642D01*
X139085700Y-82280500D01*
X158124108Y-82280500D01*
X158187725Y-82280500D01*
X158192264Y-82280636D01*
X158486751Y-82298450D01*
X158495750Y-82299543D01*
X158783705Y-82352312D01*
X158792500Y-82354480D01*
X159071990Y-82441573D01*
X159080481Y-82444793D01*
X159347429Y-82564936D01*
X159355464Y-82569153D01*
X159559074Y-82692240D01*
X159605989Y-82720601D01*
X159613462Y-82725760D01*
X159843896Y-82906293D01*
X159850693Y-82912315D01*
X160057684Y-83119306D01*
X160063706Y-83126103D01*
X160244239Y-83356537D01*
X160249398Y-83364010D01*
X160400844Y-83614532D01*
X160405064Y-83622573D01*
X160525206Y-83889518D01*
X160528426Y-83898009D01*
X160615516Y-84177488D01*
X160617689Y-84186305D01*
X160670455Y-84474241D01*
X160671550Y-84483255D01*
X160689363Y-84777734D01*
X160689500Y-84782275D01*
X160689500Y-92454300D01*
X160671907Y-92502638D01*
X160627358Y-92528358D01*
X160614300Y-92529500D01*
X151255892Y-92529500D01*
X151124108Y-92529500D01*
X151060461Y-92546554D01*
X150996811Y-92563608D01*
X150882685Y-92629499D01*
X150789499Y-92722685D01*
X150723608Y-92836811D01*
X150711928Y-92880404D01*
X150689500Y-92964108D01*
X150689500Y-100954108D01*
X150689500Y-101085892D01*
X150709964Y-101162268D01*
X150723608Y-101213188D01*
X150789499Y-101327314D01*
X150882685Y-101420500D01*
X150996811Y-101486391D01*
X150996813Y-101486391D01*
X150996814Y-101486392D01*
X151124108Y-101520500D01*
X160614300Y-101520500D01*
X160662638Y-101538093D01*
X160688358Y-101582642D01*
X160689500Y-101595700D01*
X160689500Y-109277724D01*
X160689363Y-109282265D01*
X160671550Y-109576744D01*
X160670455Y-109585758D01*
X160617689Y-109873694D01*
X160615516Y-109882511D01*
X160528426Y-110161990D01*
X160525206Y-110170481D01*
X160405064Y-110437426D01*
X160400844Y-110445467D01*
X160249398Y-110695989D01*
X160244239Y-110703462D01*
X160063706Y-110933896D01*
X160057684Y-110940693D01*
X159850693Y-111147684D01*
X159843896Y-111153706D01*
X159613462Y-111334239D01*
X159605989Y-111339398D01*
X159355467Y-111490844D01*
X159347426Y-111495064D01*
X159080481Y-111615206D01*
X159071990Y-111618426D01*
X158792511Y-111705516D01*
X158783694Y-111707689D01*
X158495758Y-111760455D01*
X158486744Y-111761550D01*
X158231340Y-111776999D01*
X158192263Y-111779363D01*
X158187725Y-111779500D01*
X99192275Y-111779500D01*
X99187736Y-111779363D01*
X99143311Y-111776675D01*
X98893255Y-111761550D01*
X98884241Y-111760455D01*
X98596305Y-111707689D01*
X98587488Y-111705516D01*
X98308009Y-111618426D01*
X98299518Y-111615206D01*
X98032573Y-111495064D01*
X98024532Y-111490844D01*
X97774010Y-111339398D01*
X97766537Y-111334239D01*
X97536103Y-111153706D01*
X97529306Y-111147684D01*
X97322315Y-110940693D01*
X97316293Y-110933896D01*
X97135760Y-110703462D01*
X97130601Y-110695989D01*
X97037759Y-110542409D01*
X96979153Y-110445464D01*
X96974935Y-110437426D01*
X96929557Y-110336601D01*
X96854793Y-110170481D01*
X96851573Y-110161990D01*
X96842096Y-110131578D01*
X96764480Y-109882500D01*
X96762312Y-109873705D01*
X96709543Y-109585750D01*
X96708450Y-109576751D01*
X96690637Y-109282264D01*
X96690500Y-109277724D01*
X96690500Y-108780000D01*
X97032251Y-108780000D01*
X97051628Y-109100357D01*
X97109477Y-109416030D01*
X97109480Y-109416044D01*
X97197555Y-109698682D01*
X97204962Y-109722451D01*
X97336680Y-110015118D01*
X97502715Y-110289774D01*
X97502718Y-110289778D01*
X97502720Y-110289781D01*
X97502725Y-110289788D01*
X97700641Y-110542409D01*
X97700652Y-110542421D01*
X97927578Y-110769347D01*
X97927590Y-110769358D01*
X98180211Y-110967274D01*
X98180218Y-110967279D01*
X98180226Y-110967285D01*
X98454882Y-111133320D01*
X98747549Y-111265038D01*
X98960092Y-111331269D01*
X99053955Y-111360519D01*
X99053957Y-111360519D01*
X99053959Y-111360520D01*
X99053963Y-111360520D01*
X99053969Y-111360522D01*
X99369644Y-111418371D01*
X99369640Y-111418371D01*
X99432052Y-111422145D01*
X99690000Y-111437749D01*
X99992084Y-111419476D01*
X100010357Y-111418371D01*
X100326030Y-111360522D01*
X100326029Y-111360522D01*
X100326041Y-111360520D01*
X100632451Y-111265038D01*
X100925118Y-111133320D01*
X101199774Y-110967285D01*
X101269743Y-110912467D01*
X101452409Y-110769358D01*
X101452409Y-110769357D01*
X101452414Y-110769354D01*
X101679354Y-110542414D01*
X101877285Y-110289774D01*
X101967826Y-110140000D01*
X106182247Y-110140000D01*
X106201610Y-110336599D01*
X106201610Y-110336601D01*
X106258955Y-110525643D01*
X106258956Y-110525647D01*
X106267918Y-110542414D01*
X106350005Y-110695989D01*
X106352086Y-110699881D01*
X106352089Y-110699885D01*
X106477410Y-110852589D01*
X106630114Y-110977910D01*
X106630118Y-110977913D01*
X106630122Y-110977916D01*
X106764343Y-111049658D01*
X106804352Y-111071043D01*
X106804356Y-111071044D01*
X106839771Y-111081787D01*
X106993397Y-111128389D01*
X107190000Y-111147753D01*
X107386603Y-111128389D01*
X107575650Y-111071042D01*
X107749878Y-110977916D01*
X107902589Y-110852589D01*
X108027916Y-110699878D01*
X108121042Y-110525650D01*
X108178389Y-110336603D01*
X108197753Y-110140000D01*
X108722247Y-110140000D01*
X108741610Y-110336599D01*
X108741610Y-110336601D01*
X108798955Y-110525643D01*
X108798956Y-110525647D01*
X108807918Y-110542414D01*
X108890005Y-110695989D01*
X108892086Y-110699881D01*
X108892089Y-110699885D01*
X109017410Y-110852589D01*
X109170114Y-110977910D01*
X109170118Y-110977913D01*
X109170122Y-110977916D01*
X109304343Y-111049658D01*
X109344352Y-111071043D01*
X109344356Y-111071044D01*
X109379771Y-111081787D01*
X109533397Y-111128389D01*
X109730000Y-111147753D01*
X109926603Y-111128389D01*
X110115650Y-111071042D01*
X110289878Y-110977916D01*
X110442589Y-110852589D01*
X110567916Y-110699878D01*
X110661042Y-110525650D01*
X110718389Y-110336603D01*
X110737753Y-110140000D01*
X111262247Y-110140000D01*
X111281610Y-110336599D01*
X111281610Y-110336601D01*
X111338955Y-110525643D01*
X111338956Y-110525647D01*
X111347918Y-110542414D01*
X111430005Y-110695989D01*
X111432086Y-110699881D01*
X111432089Y-110699885D01*
X111557410Y-110852589D01*
X111710114Y-110977910D01*
X111710118Y-110977913D01*
X111710122Y-110977916D01*
X111844343Y-111049658D01*
X111884352Y-111071043D01*
X111884356Y-111071044D01*
X111919771Y-111081787D01*
X112073397Y-111128389D01*
X112270000Y-111147753D01*
X112466603Y-111128389D01*
X112655650Y-111071042D01*
X112829878Y-110977916D01*
X112982589Y-110852589D01*
X113107916Y-110699878D01*
X113201042Y-110525650D01*
X113258389Y-110336603D01*
X113277753Y-110140000D01*
X113802247Y-110140000D01*
X113821610Y-110336599D01*
X113821610Y-110336601D01*
X113878955Y-110525643D01*
X113878956Y-110525647D01*
X113887918Y-110542414D01*
X113970005Y-110695989D01*
X113972086Y-110699881D01*
X113972089Y-110699885D01*
X114097410Y-110852589D01*
X114250114Y-110977910D01*
X114250118Y-110977913D01*
X114250122Y-110977916D01*
X114384343Y-111049658D01*
X114424352Y-111071043D01*
X114424356Y-111071044D01*
X114459771Y-111081787D01*
X114613397Y-111128389D01*
X114810000Y-111147753D01*
X115006603Y-111128389D01*
X115195650Y-111071042D01*
X115369878Y-110977916D01*
X115522589Y-110852589D01*
X115647916Y-110699878D01*
X115741042Y-110525650D01*
X115798389Y-110336603D01*
X115817753Y-110140000D01*
X116342247Y-110140000D01*
X116361610Y-110336599D01*
X116361610Y-110336601D01*
X116418955Y-110525643D01*
X116418956Y-110525647D01*
X116427918Y-110542414D01*
X116510005Y-110695989D01*
X116512086Y-110699881D01*
X116512089Y-110699885D01*
X116637410Y-110852589D01*
X116790114Y-110977910D01*
X116790118Y-110977913D01*
X116790122Y-110977916D01*
X116924343Y-111049658D01*
X116964352Y-111071043D01*
X116964356Y-111071044D01*
X116999771Y-111081787D01*
X117153397Y-111128389D01*
X117350000Y-111147753D01*
X117546603Y-111128389D01*
X117735650Y-111071042D01*
X117909878Y-110977916D01*
X118062589Y-110852589D01*
X118187916Y-110699878D01*
X118281042Y-110525650D01*
X118338389Y-110336603D01*
X118357753Y-110140000D01*
X118338389Y-109943397D01*
X118281042Y-109754350D01*
X118187916Y-109580122D01*
X118187913Y-109580118D01*
X118187910Y-109580114D01*
X118062589Y-109427410D01*
X117909885Y-109302089D01*
X117909881Y-109302086D01*
X117909879Y-109302085D01*
X117909878Y-109302084D01*
X117859098Y-109274942D01*
X118887100Y-109274942D01*
X118887100Y-111005055D01*
X118887101Y-111005057D01*
X118895972Y-111049659D01*
X118929764Y-111100232D01*
X118929765Y-111100232D01*
X118929766Y-111100234D01*
X118980342Y-111134028D01*
X119024943Y-111142900D01*
X120755056Y-111142899D01*
X120799658Y-111134028D01*
X120850234Y-111100234D01*
X120884028Y-111049658D01*
X120892900Y-111005057D01*
X120892899Y-109274944D01*
X120884028Y-109230342D01*
X120869738Y-109208956D01*
X120850235Y-109179767D01*
X120850231Y-109179764D01*
X120799658Y-109145972D01*
X120799656Y-109145971D01*
X120755057Y-109137100D01*
X119024944Y-109137100D01*
X119024942Y-109137101D01*
X118980340Y-109145972D01*
X118929767Y-109179764D01*
X118895972Y-109230342D01*
X118895971Y-109230343D01*
X118887100Y-109274942D01*
X117859098Y-109274942D01*
X117775657Y-109230342D01*
X117735647Y-109208956D01*
X117735643Y-109208955D01*
X117546600Y-109151610D01*
X117350000Y-109132247D01*
X117153400Y-109151610D01*
X117153398Y-109151610D01*
X116964356Y-109208955D01*
X116964352Y-109208956D01*
X116790118Y-109302086D01*
X116790114Y-109302089D01*
X116637410Y-109427410D01*
X116512089Y-109580114D01*
X116512086Y-109580118D01*
X116418956Y-109754352D01*
X116418955Y-109754356D01*
X116361610Y-109943398D01*
X116361610Y-109943400D01*
X116342247Y-110140000D01*
X115817753Y-110140000D01*
X115798389Y-109943397D01*
X115741042Y-109754350D01*
X115647916Y-109580122D01*
X115647913Y-109580118D01*
X115647910Y-109580114D01*
X115522589Y-109427410D01*
X115369885Y-109302089D01*
X115369881Y-109302086D01*
X115369879Y-109302085D01*
X115369878Y-109302084D01*
X115235657Y-109230342D01*
X115195647Y-109208956D01*
X115195643Y-109208955D01*
X115006600Y-109151610D01*
X114810000Y-109132247D01*
X114613400Y-109151610D01*
X114613398Y-109151610D01*
X114424356Y-109208955D01*
X114424352Y-109208956D01*
X114250118Y-109302086D01*
X114250114Y-109302089D01*
X114097410Y-109427410D01*
X113972089Y-109580114D01*
X113972086Y-109580118D01*
X113878956Y-109754352D01*
X113878955Y-109754356D01*
X113821610Y-109943398D01*
X113821610Y-109943400D01*
X113802247Y-110140000D01*
X113277753Y-110140000D01*
X113258389Y-109943397D01*
X113201042Y-109754350D01*
X113107916Y-109580122D01*
X113107913Y-109580118D01*
X113107910Y-109580114D01*
X112982589Y-109427410D01*
X112829885Y-109302089D01*
X112829881Y-109302086D01*
X112829879Y-109302085D01*
X112829878Y-109302084D01*
X112695657Y-109230342D01*
X112655647Y-109208956D01*
X112655643Y-109208955D01*
X112466600Y-109151610D01*
X112270000Y-109132247D01*
X112073400Y-109151610D01*
X112073398Y-109151610D01*
X111884356Y-109208955D01*
X111884352Y-109208956D01*
X111710118Y-109302086D01*
X111710114Y-109302089D01*
X111557410Y-109427410D01*
X111432089Y-109580114D01*
X111432086Y-109580118D01*
X111338956Y-109754352D01*
X111338955Y-109754356D01*
X111281610Y-109943398D01*
X111281610Y-109943400D01*
X111262247Y-110140000D01*
X110737753Y-110140000D01*
X110718389Y-109943397D01*
X110661042Y-109754350D01*
X110567916Y-109580122D01*
X110567913Y-109580118D01*
X110567910Y-109580114D01*
X110442589Y-109427410D01*
X110289885Y-109302089D01*
X110289881Y-109302086D01*
X110289879Y-109302085D01*
X110289878Y-109302084D01*
X110155657Y-109230342D01*
X110115647Y-109208956D01*
X110115643Y-109208955D01*
X109926600Y-109151610D01*
X109730000Y-109132247D01*
X109533400Y-109151610D01*
X109533398Y-109151610D01*
X109344356Y-109208955D01*
X109344352Y-109208956D01*
X109170118Y-109302086D01*
X109170114Y-109302089D01*
X109017410Y-109427410D01*
X108892089Y-109580114D01*
X108892086Y-109580118D01*
X108798956Y-109754352D01*
X108798955Y-109754356D01*
X108741610Y-109943398D01*
X108741610Y-109943400D01*
X108722247Y-110140000D01*
X108197753Y-110140000D01*
X108178389Y-109943397D01*
X108121042Y-109754350D01*
X108027916Y-109580122D01*
X108027913Y-109580118D01*
X108027910Y-109580114D01*
X107902589Y-109427410D01*
X107749885Y-109302089D01*
X107749881Y-109302086D01*
X107749879Y-109302085D01*
X107749878Y-109302084D01*
X107615657Y-109230342D01*
X107575647Y-109208956D01*
X107575643Y-109208955D01*
X107386600Y-109151610D01*
X107190000Y-109132247D01*
X106993400Y-109151610D01*
X106993398Y-109151610D01*
X106804356Y-109208955D01*
X106804352Y-109208956D01*
X106630118Y-109302086D01*
X106630114Y-109302089D01*
X106477410Y-109427410D01*
X106352089Y-109580114D01*
X106352086Y-109580118D01*
X106258956Y-109754352D01*
X106258955Y-109754356D01*
X106201610Y-109943398D01*
X106201610Y-109943400D01*
X106182247Y-110140000D01*
X101967826Y-110140000D01*
X102043320Y-110015118D01*
X102175038Y-109722451D01*
X102270520Y-109416041D01*
X102308469Y-109208958D01*
X102328371Y-109100357D01*
X102332531Y-109031585D01*
X102347749Y-108780000D01*
X102330022Y-108486945D01*
X102328371Y-108459642D01*
X102289953Y-108250000D01*
X124910018Y-108250000D01*
X124928651Y-108379592D01*
X124928651Y-108379593D01*
X124928652Y-108379595D01*
X124928652Y-108379597D01*
X124983037Y-108498682D01*
X124983040Y-108498687D01*
X124993197Y-108510408D01*
X125068776Y-108597631D01*
X125068778Y-108597632D01*
X125068779Y-108597633D01*
X125178916Y-108668414D01*
X125268282Y-108694654D01*
X125304538Y-108705300D01*
X125304541Y-108705300D01*
X125404246Y-108705300D01*
X125452584Y-108722893D01*
X125476646Y-108764571D01*
X125477134Y-108764428D01*
X125477724Y-108766437D01*
X125478304Y-108767442D01*
X125478644Y-108769572D01*
X125478649Y-108769589D01*
X125533037Y-108888682D01*
X125533040Y-108888687D01*
X125564463Y-108924951D01*
X125618776Y-108987631D01*
X125618778Y-108987632D01*
X125618779Y-108987633D01*
X125728916Y-109058414D01*
X125818282Y-109084654D01*
X125854538Y-109095300D01*
X125854541Y-109095300D01*
X125985459Y-109095300D01*
X125985462Y-109095300D01*
X126111083Y-109058414D01*
X126186417Y-109010000D01*
X139012247Y-109010000D01*
X139031610Y-109206599D01*
X139031610Y-109206601D01*
X139088955Y-109395643D01*
X139088956Y-109395647D01*
X139118008Y-109450000D01*
X139172725Y-109552369D01*
X139182086Y-109569881D01*
X139182089Y-109569885D01*
X139307410Y-109722589D01*
X139460114Y-109847910D01*
X139460118Y-109847913D01*
X139460122Y-109847916D01*
X139634350Y-109941042D01*
X139634352Y-109941043D01*
X139634356Y-109941044D01*
X139642123Y-109943400D01*
X139823397Y-109998389D01*
X140020000Y-110017753D01*
X140216603Y-109998389D01*
X140405650Y-109941042D01*
X140482435Y-109900000D01*
X151520018Y-109900000D01*
X151538651Y-110029592D01*
X151538651Y-110029593D01*
X151538652Y-110029595D01*
X151538652Y-110029597D01*
X151593037Y-110148682D01*
X151593040Y-110148687D01*
X151611925Y-110170481D01*
X151678776Y-110247631D01*
X151678778Y-110247632D01*
X151678779Y-110247633D01*
X151788916Y-110318414D01*
X151850862Y-110336603D01*
X151914538Y-110355300D01*
X151914541Y-110355300D01*
X152045459Y-110355300D01*
X152045462Y-110355300D01*
X152171083Y-110318414D01*
X152281224Y-110247631D01*
X152366961Y-110148685D01*
X152421349Y-110029592D01*
X152439982Y-109900000D01*
X152421349Y-109770408D01*
X152421347Y-109770403D01*
X152421347Y-109770402D01*
X152366962Y-109651317D01*
X152366959Y-109651312D01*
X152341258Y-109621652D01*
X152281224Y-109552369D01*
X152281220Y-109552366D01*
X152171083Y-109481585D01*
X152063514Y-109450000D01*
X153640018Y-109450000D01*
X153658651Y-109579592D01*
X153658651Y-109579593D01*
X153658652Y-109579595D01*
X153658652Y-109579597D01*
X153713037Y-109698682D01*
X153713040Y-109698687D01*
X153733627Y-109722445D01*
X153798776Y-109797631D01*
X153798778Y-109797632D01*
X153798779Y-109797633D01*
X153908916Y-109868414D01*
X153998282Y-109894654D01*
X154034538Y-109905300D01*
X154034541Y-109905300D01*
X154165459Y-109905300D01*
X154165462Y-109905300D01*
X154291083Y-109868414D01*
X154401224Y-109797631D01*
X154486961Y-109698685D01*
X154541349Y-109579592D01*
X154559982Y-109450000D01*
X154541349Y-109320408D01*
X154541347Y-109320403D01*
X154541347Y-109320402D01*
X154486962Y-109201317D01*
X154486959Y-109201312D01*
X154431319Y-109137101D01*
X154401224Y-109102369D01*
X154401220Y-109102366D01*
X154291083Y-109031585D01*
X154165464Y-108994700D01*
X154165462Y-108994700D01*
X154034538Y-108994700D01*
X154034535Y-108994700D01*
X153908916Y-109031585D01*
X153798779Y-109102366D01*
X153713040Y-109201312D01*
X153713037Y-109201317D01*
X153658652Y-109320402D01*
X153658652Y-109320404D01*
X153658651Y-109320406D01*
X153658651Y-109320408D01*
X153640018Y-109450000D01*
X152063514Y-109450000D01*
X152045464Y-109444700D01*
X152045462Y-109444700D01*
X151914538Y-109444700D01*
X151914535Y-109444700D01*
X151788916Y-109481585D01*
X151678779Y-109552366D01*
X151593040Y-109651312D01*
X151593037Y-109651317D01*
X151538652Y-109770402D01*
X151538652Y-109770404D01*
X151538651Y-109770406D01*
X151538651Y-109770408D01*
X151520018Y-109900000D01*
X140482435Y-109900000D01*
X140579878Y-109847916D01*
X140732589Y-109722589D01*
X140857916Y-109569878D01*
X140951042Y-109395650D01*
X141008389Y-109206603D01*
X141027753Y-109010000D01*
X141008389Y-108813397D01*
X140961375Y-108658414D01*
X140951044Y-108624356D01*
X140951043Y-108624352D01*
X140951042Y-108624350D01*
X140857916Y-108450122D01*
X140857913Y-108450118D01*
X140857910Y-108450114D01*
X140732589Y-108297410D01*
X140579885Y-108172089D01*
X140579881Y-108172086D01*
X140579879Y-108172085D01*
X140579878Y-108172084D01*
X140467120Y-108111814D01*
X140405647Y-108078956D01*
X140405643Y-108078955D01*
X140216600Y-108021610D01*
X140020000Y-108002247D01*
X139823400Y-108021610D01*
X139823398Y-108021610D01*
X139634356Y-108078955D01*
X139634352Y-108078956D01*
X139460118Y-108172086D01*
X139460114Y-108172089D01*
X139307410Y-108297410D01*
X139182089Y-108450114D01*
X139182086Y-108450118D01*
X139088956Y-108624352D01*
X139088955Y-108624356D01*
X139031610Y-108813398D01*
X139031610Y-108813400D01*
X139012247Y-109010000D01*
X126186417Y-109010000D01*
X126221224Y-108987631D01*
X126306961Y-108888685D01*
X126361349Y-108769592D01*
X126379982Y-108640000D01*
X126379982Y-108639997D01*
X126379982Y-108639996D01*
X126365215Y-108537295D01*
X126375749Y-108486945D01*
X126398991Y-108463331D01*
X126501224Y-108397631D01*
X126586961Y-108298685D01*
X126613761Y-108240000D01*
X134710018Y-108240000D01*
X134728651Y-108369592D01*
X134728651Y-108369593D01*
X134728652Y-108369595D01*
X134728652Y-108369597D01*
X134783037Y-108488682D01*
X134783040Y-108488687D01*
X134801862Y-108510408D01*
X134868776Y-108587631D01*
X134868778Y-108587632D01*
X134868779Y-108587633D01*
X134978916Y-108658414D01*
X135068282Y-108684654D01*
X135104538Y-108695300D01*
X135104541Y-108695300D01*
X135235459Y-108695300D01*
X135235462Y-108695300D01*
X135361083Y-108658414D01*
X135471224Y-108587631D01*
X135556961Y-108488685D01*
X135611349Y-108369592D01*
X135629982Y-108240000D01*
X135629981Y-108239997D01*
X135629982Y-108239996D01*
X135629982Y-108234621D01*
X135632506Y-108234621D01*
X135641081Y-108193612D01*
X135681512Y-108161809D01*
X135726171Y-108161098D01*
X135774538Y-108175300D01*
X135774541Y-108175300D01*
X135905459Y-108175300D01*
X135905462Y-108175300D01*
X136031083Y-108138414D01*
X136141224Y-108067631D01*
X136226961Y-107968685D01*
X136261815Y-107892366D01*
X136281347Y-107849597D01*
X136281347Y-107849596D01*
X136281349Y-107849592D01*
X136299982Y-107720000D01*
X136281349Y-107590408D01*
X136281347Y-107590404D01*
X136258929Y-107541315D01*
X136253541Y-107529519D01*
X136249465Y-107478242D01*
X136279302Y-107436340D01*
X136300759Y-107426126D01*
X136361083Y-107408414D01*
X136471224Y-107337631D01*
X136556961Y-107238685D01*
X136611349Y-107119592D01*
X136629982Y-106990000D01*
X136611349Y-106860408D01*
X136611347Y-106860403D01*
X136611347Y-106860402D01*
X136556962Y-106741317D01*
X136556959Y-106741312D01*
X136531258Y-106711652D01*
X136471224Y-106642369D01*
X136471220Y-106642366D01*
X136361083Y-106571585D01*
X136235464Y-106534700D01*
X136235462Y-106534700D01*
X136104538Y-106534700D01*
X136104535Y-106534700D01*
X135978916Y-106571585D01*
X135868779Y-106642366D01*
X135783040Y-106741312D01*
X135783037Y-106741317D01*
X135728652Y-106860402D01*
X135728652Y-106860404D01*
X135728651Y-106860406D01*
X135728651Y-106860408D01*
X135710018Y-106990000D01*
X135728651Y-107119592D01*
X135728651Y-107119593D01*
X135728652Y-107119595D01*
X135728652Y-107119597D01*
X135756457Y-107180480D01*
X135760534Y-107231758D01*
X135730696Y-107273659D01*
X135709240Y-107283873D01*
X135648915Y-107301586D01*
X135538779Y-107372366D01*
X135453040Y-107471312D01*
X135453037Y-107471317D01*
X135398652Y-107590402D01*
X135398652Y-107590404D01*
X135398652Y-107590405D01*
X135398651Y-107590408D01*
X135382553Y-107702369D01*
X135380018Y-107720002D01*
X135380018Y-107725379D01*
X135377504Y-107725379D01*
X135368894Y-107766426D01*
X135328444Y-107798204D01*
X135283829Y-107798901D01*
X135235466Y-107784701D01*
X135235464Y-107784700D01*
X135235462Y-107784700D01*
X135104538Y-107784700D01*
X135104535Y-107784700D01*
X134978916Y-107821585D01*
X134868779Y-107892366D01*
X134868776Y-107892368D01*
X134868776Y-107892369D01*
X134851610Y-107912179D01*
X134783040Y-107991312D01*
X134783037Y-107991317D01*
X134728652Y-108110402D01*
X134728652Y-108110404D01*
X134728651Y-108110406D01*
X134728651Y-108110408D01*
X134710018Y-108240000D01*
X126613761Y-108240000D01*
X126617759Y-108231246D01*
X126641347Y-108179597D01*
X126641347Y-108179596D01*
X126641349Y-108179592D01*
X126659982Y-108050000D01*
X126641349Y-107920408D01*
X126641347Y-107920403D01*
X126641347Y-107920402D01*
X126586962Y-107801317D01*
X126586959Y-107801312D01*
X126561258Y-107771652D01*
X126501224Y-107702369D01*
X126501220Y-107702366D01*
X126391083Y-107631585D01*
X126265464Y-107594700D01*
X126265462Y-107594700D01*
X126134538Y-107594700D01*
X126134535Y-107594700D01*
X126008916Y-107631585D01*
X125898779Y-107702366D01*
X125898776Y-107702368D01*
X125898776Y-107702369D01*
X125886927Y-107716044D01*
X125813040Y-107801312D01*
X125813038Y-107801315D01*
X125781234Y-107870956D01*
X125745150Y-107907616D01*
X125693943Y-107912506D01*
X125672174Y-107902979D01*
X125561080Y-107831584D01*
X125435464Y-107794700D01*
X125435462Y-107794700D01*
X125304538Y-107794700D01*
X125304535Y-107794700D01*
X125178916Y-107831585D01*
X125068779Y-107902366D01*
X125068776Y-107902368D01*
X125068776Y-107902369D01*
X125059992Y-107912506D01*
X124983040Y-108001312D01*
X124983037Y-108001317D01*
X124928652Y-108120402D01*
X124928652Y-108120404D01*
X124928651Y-108120406D01*
X124928651Y-108120408D01*
X124910018Y-108250000D01*
X102289953Y-108250000D01*
X102270522Y-108143969D01*
X102270519Y-108143955D01*
X102234514Y-108028414D01*
X102175038Y-107837549D01*
X102113133Y-107700000D01*
X119060018Y-107700000D01*
X119078651Y-107829592D01*
X119078651Y-107829593D01*
X119078652Y-107829595D01*
X119078652Y-107829597D01*
X119133037Y-107948682D01*
X119133040Y-107948687D01*
X119160785Y-107980706D01*
X119218776Y-108047631D01*
X119218778Y-108047632D01*
X119218779Y-108047633D01*
X119328916Y-108118414D01*
X119418282Y-108144654D01*
X119454538Y-108155300D01*
X119454541Y-108155300D01*
X119585459Y-108155300D01*
X119585462Y-108155300D01*
X119711083Y-108118414D01*
X119821224Y-108047631D01*
X119906961Y-107948685D01*
X119960183Y-107832145D01*
X119961347Y-107829597D01*
X119961347Y-107829596D01*
X119961349Y-107829592D01*
X119979982Y-107700000D01*
X119979033Y-107693400D01*
X120172421Y-107693400D01*
X120191054Y-107822992D01*
X120191054Y-107822993D01*
X120191055Y-107822995D01*
X120191055Y-107822997D01*
X120245440Y-107942082D01*
X120245443Y-107942087D01*
X120258914Y-107957633D01*
X120331179Y-108041031D01*
X120331181Y-108041032D01*
X120331182Y-108041033D01*
X120441319Y-108111814D01*
X120529244Y-108137631D01*
X120566941Y-108148700D01*
X120566944Y-108148700D01*
X120697862Y-108148700D01*
X120697865Y-108148700D01*
X120823486Y-108111814D01*
X120933627Y-108041031D01*
X121019364Y-107942085D01*
X121069572Y-107832145D01*
X121073750Y-107822997D01*
X121073750Y-107822996D01*
X121073752Y-107822992D01*
X121078496Y-107790000D01*
X123690018Y-107790000D01*
X123708651Y-107919592D01*
X123708651Y-107919593D01*
X123708652Y-107919595D01*
X123708652Y-107919597D01*
X123763037Y-108038682D01*
X123763040Y-108038687D01*
X123794463Y-108074951D01*
X123848776Y-108137631D01*
X123848778Y-108137632D01*
X123848779Y-108137633D01*
X123958916Y-108208414D01*
X124048169Y-108234621D01*
X124084538Y-108245300D01*
X124084541Y-108245300D01*
X124215459Y-108245300D01*
X124215462Y-108245300D01*
X124341083Y-108208414D01*
X124451224Y-108137631D01*
X124536961Y-108038685D01*
X124576898Y-107951235D01*
X124591347Y-107919597D01*
X124591347Y-107919596D01*
X124591349Y-107919592D01*
X124609982Y-107790000D01*
X124591349Y-107660408D01*
X124591347Y-107660403D01*
X124591347Y-107660402D01*
X124536962Y-107541317D01*
X124536959Y-107541312D01*
X124493989Y-107491723D01*
X124451224Y-107442369D01*
X124451220Y-107442366D01*
X124341083Y-107371585D01*
X124215464Y-107334700D01*
X124215462Y-107334700D01*
X124084538Y-107334700D01*
X124084535Y-107334700D01*
X123958916Y-107371585D01*
X123848779Y-107442366D01*
X123848776Y-107442368D01*
X123848776Y-107442369D01*
X123841027Y-107451312D01*
X123763040Y-107541312D01*
X123763037Y-107541317D01*
X123708652Y-107660402D01*
X123708652Y-107660404D01*
X123708651Y-107660406D01*
X123708651Y-107660408D01*
X123690018Y-107790000D01*
X121078496Y-107790000D01*
X121092385Y-107693400D01*
X121073752Y-107563808D01*
X121073750Y-107563803D01*
X121073750Y-107563802D01*
X121019365Y-107444717D01*
X121019362Y-107444712D01*
X120981521Y-107401042D01*
X120933627Y-107345769D01*
X120933623Y-107345766D01*
X120823486Y-107274985D01*
X120697867Y-107238100D01*
X120697865Y-107238100D01*
X120566941Y-107238100D01*
X120566938Y-107238100D01*
X120441319Y-107274985D01*
X120331182Y-107345766D01*
X120331179Y-107345768D01*
X120331179Y-107345769D01*
X120317711Y-107361312D01*
X120245443Y-107444712D01*
X120245440Y-107444717D01*
X120191055Y-107563802D01*
X120191055Y-107563804D01*
X120191054Y-107563806D01*
X120191054Y-107563808D01*
X120172421Y-107693400D01*
X119979033Y-107693400D01*
X119961349Y-107570408D01*
X119961347Y-107570403D01*
X119961347Y-107570402D01*
X119906962Y-107451317D01*
X119906959Y-107451312D01*
X119863399Y-107401042D01*
X119821224Y-107352369D01*
X119821220Y-107352366D01*
X119711083Y-107281585D01*
X119585464Y-107244700D01*
X119585462Y-107244700D01*
X119454538Y-107244700D01*
X119454535Y-107244700D01*
X119328916Y-107281585D01*
X119218779Y-107352366D01*
X119218776Y-107352368D01*
X119218776Y-107352369D01*
X119211027Y-107361312D01*
X119133040Y-107451312D01*
X119133037Y-107451317D01*
X119078652Y-107570402D01*
X119078652Y-107570404D01*
X119078651Y-107570406D01*
X119078651Y-107570408D01*
X119060018Y-107700000D01*
X102113133Y-107700000D01*
X102043320Y-107544882D01*
X101877285Y-107270226D01*
X101877279Y-107270218D01*
X101877274Y-107270211D01*
X101830102Y-107210000D01*
X130280018Y-107210000D01*
X130298651Y-107339592D01*
X130298651Y-107339593D01*
X130298652Y-107339595D01*
X130298652Y-107339597D01*
X130353037Y-107458682D01*
X130353040Y-107458687D01*
X130384463Y-107494951D01*
X130438776Y-107557631D01*
X130438778Y-107557632D01*
X130438779Y-107557633D01*
X130548916Y-107628414D01*
X130638282Y-107654654D01*
X130674538Y-107665300D01*
X130674541Y-107665300D01*
X130805459Y-107665300D01*
X130805462Y-107665300D01*
X130931083Y-107628414D01*
X131041224Y-107557631D01*
X131126961Y-107458685D01*
X131171428Y-107361317D01*
X131181347Y-107339597D01*
X131181347Y-107339596D01*
X131181349Y-107339592D01*
X131199982Y-107210000D01*
X131181349Y-107080408D01*
X131181347Y-107080403D01*
X131181347Y-107080402D01*
X131126962Y-106961317D01*
X131126959Y-106961312D01*
X131101258Y-106931652D01*
X131041224Y-106862369D01*
X131041220Y-106862366D01*
X130931083Y-106791585D01*
X130805464Y-106754700D01*
X130805462Y-106754700D01*
X130674538Y-106754700D01*
X130674535Y-106754700D01*
X130548916Y-106791585D01*
X130438779Y-106862366D01*
X130353040Y-106961312D01*
X130353037Y-106961317D01*
X130298652Y-107080402D01*
X130298652Y-107080404D01*
X130298651Y-107080406D01*
X130298651Y-107080408D01*
X130280018Y-107210000D01*
X101830102Y-107210000D01*
X101679358Y-107017590D01*
X101679347Y-107017578D01*
X101452421Y-106790652D01*
X101452409Y-106790641D01*
X101199788Y-106592725D01*
X101199781Y-106592720D01*
X101199778Y-106592718D01*
X101199774Y-106592715D01*
X100925118Y-106426680D01*
X100632451Y-106294962D01*
X100632445Y-106294960D01*
X100356594Y-106209000D01*
X118420018Y-106209000D01*
X118438651Y-106338592D01*
X118438651Y-106338593D01*
X118438652Y-106338595D01*
X118438652Y-106338597D01*
X118493037Y-106457682D01*
X118493040Y-106457687D01*
X118507031Y-106473833D01*
X118578776Y-106556631D01*
X118578778Y-106556632D01*
X118578779Y-106556633D01*
X118688916Y-106627414D01*
X118778282Y-106653654D01*
X118814538Y-106664300D01*
X118814541Y-106664300D01*
X118945459Y-106664300D01*
X118945462Y-106664300D01*
X119071083Y-106627414D01*
X119181224Y-106556631D01*
X119266961Y-106457685D01*
X119306873Y-106370291D01*
X119321347Y-106338597D01*
X119321347Y-106338596D01*
X119321349Y-106338592D01*
X119339982Y-106209000D01*
X119321349Y-106079408D01*
X119321347Y-106079403D01*
X119321347Y-106079402D01*
X119266962Y-105960317D01*
X119266959Y-105960312D01*
X119223469Y-105910123D01*
X119181224Y-105861369D01*
X119181220Y-105861366D01*
X119071083Y-105790585D01*
X118945464Y-105753700D01*
X118945462Y-105753700D01*
X118814538Y-105753700D01*
X118814535Y-105753700D01*
X118688916Y-105790585D01*
X118578779Y-105861366D01*
X118578776Y-105861368D01*
X118578776Y-105861369D01*
X118564784Y-105877517D01*
X118493040Y-105960312D01*
X118493037Y-105960317D01*
X118438652Y-106079402D01*
X118438652Y-106079404D01*
X118438651Y-106079406D01*
X118438651Y-106079408D01*
X118420018Y-106209000D01*
X100356594Y-106209000D01*
X100326044Y-106199480D01*
X100326030Y-106199477D01*
X100010355Y-106141628D01*
X100010359Y-106141628D01*
X99690000Y-106122251D01*
X99369642Y-106141628D01*
X99053969Y-106199477D01*
X99053955Y-106199480D01*
X98747554Y-106294960D01*
X98747550Y-106294961D01*
X98747549Y-106294962D01*
X98454882Y-106426680D01*
X98206381Y-106576904D01*
X98180218Y-106592720D01*
X98180211Y-106592725D01*
X97927590Y-106790641D01*
X97927578Y-106790652D01*
X97700652Y-107017578D01*
X97700641Y-107017590D01*
X97502725Y-107270211D01*
X97502720Y-107270218D01*
X97502715Y-107270225D01*
X97502715Y-107270226D01*
X97338837Y-107541315D01*
X97336679Y-107544884D01*
X97314259Y-107594700D01*
X97207396Y-107832142D01*
X97204960Y-107837554D01*
X97109480Y-108143955D01*
X97109477Y-108143969D01*
X97051628Y-108459642D01*
X97032251Y-108780000D01*
X96690500Y-108780000D01*
X96690500Y-105221000D01*
X117160401Y-105221000D01*
X117179034Y-105350592D01*
X117179034Y-105350593D01*
X117179035Y-105350595D01*
X117179035Y-105350597D01*
X117233420Y-105469682D01*
X117233423Y-105469687D01*
X117264846Y-105505951D01*
X117319159Y-105568631D01*
X117319161Y-105568632D01*
X117319162Y-105568633D01*
X117429299Y-105639414D01*
X117507477Y-105662369D01*
X117554921Y-105676300D01*
X117554924Y-105676300D01*
X117685842Y-105676300D01*
X117685845Y-105676300D01*
X117811466Y-105639414D01*
X117921607Y-105568631D01*
X117958720Y-105525800D01*
X119543272Y-105525800D01*
X119561905Y-105655392D01*
X119561905Y-105655393D01*
X119561906Y-105655395D01*
X119561906Y-105655397D01*
X119616291Y-105774482D01*
X119616294Y-105774487D01*
X119635464Y-105796610D01*
X119702030Y-105873431D01*
X119702032Y-105873432D01*
X119702033Y-105873433D01*
X119812170Y-105944214D01*
X119901536Y-105970454D01*
X119937792Y-105981100D01*
X119937795Y-105981100D01*
X120068713Y-105981100D01*
X120068716Y-105981100D01*
X120194337Y-105944214D01*
X120304478Y-105873431D01*
X120390215Y-105774485D01*
X120438704Y-105668310D01*
X120444601Y-105655397D01*
X120444601Y-105655396D01*
X120444603Y-105655392D01*
X120463236Y-105525800D01*
X120444603Y-105396208D01*
X120444601Y-105396203D01*
X120444601Y-105396202D01*
X120390216Y-105277117D01*
X120390213Y-105277112D01*
X120383530Y-105269400D01*
X125070018Y-105269400D01*
X125088651Y-105398992D01*
X125088651Y-105398993D01*
X125088652Y-105398995D01*
X125088652Y-105398997D01*
X125143037Y-105518082D01*
X125143040Y-105518087D01*
X125174463Y-105554351D01*
X125228776Y-105617031D01*
X125228778Y-105617032D01*
X125228779Y-105617033D01*
X125338916Y-105687814D01*
X125391279Y-105703189D01*
X125464538Y-105724700D01*
X125464541Y-105724700D01*
X125595459Y-105724700D01*
X125595462Y-105724700D01*
X125721083Y-105687814D01*
X125831224Y-105617031D01*
X125916961Y-105518085D01*
X125962303Y-105418801D01*
X125971347Y-105398997D01*
X125971347Y-105398996D01*
X125971349Y-105398992D01*
X125989982Y-105269400D01*
X125971349Y-105139808D01*
X125971347Y-105139803D01*
X125971347Y-105139802D01*
X125916962Y-105020717D01*
X125916959Y-105020712D01*
X125875022Y-104972315D01*
X125831224Y-104921769D01*
X125831220Y-104921766D01*
X125721083Y-104850985D01*
X125595464Y-104814100D01*
X125595462Y-104814100D01*
X125464538Y-104814100D01*
X125464535Y-104814100D01*
X125338916Y-104850985D01*
X125228779Y-104921766D01*
X125143040Y-105020712D01*
X125143037Y-105020717D01*
X125088652Y-105139802D01*
X125088652Y-105139804D01*
X125088651Y-105139806D01*
X125088651Y-105139808D01*
X125070018Y-105269400D01*
X120383530Y-105269400D01*
X120341591Y-105221000D01*
X120304478Y-105178169D01*
X120304474Y-105178166D01*
X120194337Y-105107385D01*
X120068718Y-105070500D01*
X120068716Y-105070500D01*
X119937792Y-105070500D01*
X119937789Y-105070500D01*
X119812170Y-105107385D01*
X119702033Y-105178166D01*
X119702030Y-105178168D01*
X119702030Y-105178169D01*
X119690841Y-105191082D01*
X119616294Y-105277112D01*
X119616291Y-105277117D01*
X119561906Y-105396202D01*
X119561906Y-105396204D01*
X119561905Y-105396206D01*
X119561905Y-105396208D01*
X119543272Y-105525800D01*
X117958720Y-105525800D01*
X118007344Y-105469685D01*
X118061732Y-105350592D01*
X118080365Y-105221000D01*
X118061732Y-105091408D01*
X118061730Y-105091403D01*
X118061730Y-105091402D01*
X118007345Y-104972317D01*
X118007342Y-104972312D01*
X117970678Y-104930000D01*
X117921607Y-104873369D01*
X117921603Y-104873366D01*
X117811466Y-104802585D01*
X117685847Y-104765700D01*
X117685845Y-104765700D01*
X117554921Y-104765700D01*
X117554918Y-104765700D01*
X117429299Y-104802585D01*
X117319162Y-104873366D01*
X117319159Y-104873368D01*
X117319159Y-104873369D01*
X117301993Y-104893179D01*
X117233423Y-104972312D01*
X117233420Y-104972317D01*
X117179035Y-105091402D01*
X117179035Y-105091404D01*
X117179034Y-105091406D01*
X117179034Y-105091408D01*
X117160401Y-105221000D01*
X96690500Y-105221000D01*
X96690500Y-104271000D01*
X104549240Y-104271000D01*
X104567873Y-104400592D01*
X104567873Y-104400593D01*
X104567874Y-104400595D01*
X104567874Y-104400597D01*
X104622259Y-104519682D01*
X104622262Y-104519687D01*
X104641237Y-104541585D01*
X104707998Y-104618631D01*
X104708000Y-104618632D01*
X104708001Y-104618633D01*
X104818138Y-104689414D01*
X104892716Y-104711312D01*
X104943760Y-104726300D01*
X104943763Y-104726300D01*
X105074681Y-104726300D01*
X105074684Y-104726300D01*
X105200305Y-104689414D01*
X105310446Y-104618631D01*
X105396183Y-104519685D01*
X105432574Y-104440000D01*
X105450569Y-104400597D01*
X105450569Y-104400596D01*
X105450571Y-104400592D01*
X105469204Y-104271000D01*
X105450571Y-104141408D01*
X105450569Y-104141403D01*
X105450569Y-104141402D01*
X105396184Y-104022317D01*
X105396181Y-104022312D01*
X105363589Y-103984700D01*
X105310446Y-103923369D01*
X105310442Y-103923366D01*
X105200305Y-103852585D01*
X105074686Y-103815700D01*
X105074684Y-103815700D01*
X104943760Y-103815700D01*
X104943757Y-103815700D01*
X104818138Y-103852585D01*
X104708001Y-103923366D01*
X104707998Y-103923368D01*
X104707998Y-103923369D01*
X104697313Y-103935700D01*
X104622262Y-104022312D01*
X104622259Y-104022317D01*
X104567874Y-104141402D01*
X104567874Y-104141404D01*
X104567873Y-104141406D01*
X104567873Y-104141408D01*
X104549240Y-104271000D01*
X96690500Y-104271000D01*
X96690500Y-103800000D01*
X98600018Y-103800000D01*
X98618651Y-103929592D01*
X98618651Y-103929593D01*
X98618652Y-103929595D01*
X98618652Y-103929597D01*
X98673037Y-104048682D01*
X98673040Y-104048687D01*
X98704463Y-104084951D01*
X98758776Y-104147631D01*
X98758778Y-104147632D01*
X98758779Y-104147633D01*
X98868916Y-104218414D01*
X98933342Y-104237331D01*
X98994538Y-104255300D01*
X98994541Y-104255300D01*
X99125459Y-104255300D01*
X99125462Y-104255300D01*
X99251083Y-104218414D01*
X99361224Y-104147631D01*
X99446961Y-104048685D01*
X99501349Y-103929592D01*
X99519982Y-103800000D01*
X99506704Y-103707653D01*
X105954642Y-103707653D01*
X105973275Y-103837245D01*
X105973275Y-103837246D01*
X105973276Y-103837248D01*
X105973276Y-103837250D01*
X106027661Y-103956335D01*
X106027664Y-103956340D01*
X106041741Y-103972585D01*
X106113400Y-104055284D01*
X106113402Y-104055285D01*
X106113403Y-104055286D01*
X106223540Y-104126067D01*
X106296987Y-104147633D01*
X106349162Y-104162953D01*
X106349165Y-104162953D01*
X106480083Y-104162953D01*
X106480086Y-104162953D01*
X106532886Y-104147449D01*
X106584220Y-104150711D01*
X106621449Y-104186208D01*
X106627151Y-104237331D01*
X106622476Y-104250841D01*
X106617651Y-104261404D01*
X106599018Y-104391000D01*
X106617651Y-104520592D01*
X106617651Y-104520593D01*
X106617652Y-104520595D01*
X106617652Y-104520597D01*
X106672037Y-104639682D01*
X106672040Y-104639687D01*
X106703463Y-104675951D01*
X106757776Y-104738631D01*
X106757778Y-104738632D01*
X106757779Y-104738633D01*
X106867916Y-104809414D01*
X106939395Y-104830402D01*
X106993538Y-104846300D01*
X106993541Y-104846300D01*
X107124459Y-104846300D01*
X107124462Y-104846300D01*
X107250083Y-104809414D01*
X107360224Y-104738631D01*
X107445961Y-104639685D01*
X107478388Y-104568680D01*
X107500347Y-104520597D01*
X107500347Y-104520596D01*
X107500349Y-104520592D01*
X107511937Y-104440000D01*
X128810018Y-104440000D01*
X128828651Y-104569592D01*
X128828651Y-104569593D01*
X128828652Y-104569595D01*
X128828652Y-104569597D01*
X128883037Y-104688682D01*
X128883040Y-104688687D01*
X128914463Y-104724951D01*
X128968776Y-104787631D01*
X128968778Y-104787632D01*
X128968779Y-104787633D01*
X129078916Y-104858414D01*
X129148862Y-104878952D01*
X129204538Y-104895300D01*
X129204541Y-104895300D01*
X129335459Y-104895300D01*
X129335462Y-104895300D01*
X129461083Y-104858414D01*
X129526595Y-104816312D01*
X129544216Y-104804988D01*
X129594392Y-104793655D01*
X129640113Y-104817226D01*
X129659987Y-104864672D01*
X129659307Y-104878952D01*
X129656957Y-104895300D01*
X129649680Y-104945908D01*
X129668313Y-105075500D01*
X129668313Y-105075501D01*
X129668314Y-105075503D01*
X129668314Y-105075505D01*
X129722699Y-105194590D01*
X129722702Y-105194595D01*
X129734913Y-105208687D01*
X129808438Y-105293539D01*
X129808440Y-105293540D01*
X129808441Y-105293541D01*
X129918578Y-105364322D01*
X129966571Y-105378414D01*
X130044200Y-105401208D01*
X130053768Y-105401208D01*
X130102106Y-105418801D01*
X130127826Y-105463350D01*
X130128202Y-105487107D01*
X130123749Y-105518085D01*
X130120783Y-105538713D01*
X130126777Y-105580403D01*
X130116241Y-105630752D01*
X130075806Y-105662550D01*
X130052342Y-105666304D01*
X130031984Y-105666304D01*
X129906365Y-105703189D01*
X129796228Y-105773970D01*
X129796225Y-105773972D01*
X129796225Y-105773973D01*
X129781831Y-105790585D01*
X129710489Y-105872916D01*
X129710486Y-105872921D01*
X129656101Y-105992006D01*
X129656101Y-105992008D01*
X129656100Y-105992010D01*
X129656100Y-105992012D01*
X129637467Y-106121604D01*
X129656100Y-106251196D01*
X129656100Y-106251197D01*
X129656101Y-106251199D01*
X129656101Y-106251201D01*
X129710486Y-106370286D01*
X129710489Y-106370291D01*
X129741912Y-106406555D01*
X129796225Y-106469235D01*
X129796227Y-106469236D01*
X129796228Y-106469237D01*
X129906365Y-106540018D01*
X129922018Y-106544614D01*
X130031987Y-106576904D01*
X130031990Y-106576904D01*
X130162908Y-106576904D01*
X130162911Y-106576904D01*
X130288532Y-106540018D01*
X130398673Y-106469235D01*
X130484410Y-106370289D01*
X130518812Y-106294960D01*
X130538796Y-106251201D01*
X130538796Y-106251200D01*
X130538798Y-106251196D01*
X130556770Y-106126200D01*
X138140018Y-106126200D01*
X138158651Y-106255792D01*
X138158651Y-106255793D01*
X138158652Y-106255795D01*
X138158652Y-106255797D01*
X138213037Y-106374882D01*
X138213040Y-106374887D01*
X138234243Y-106399356D01*
X138298776Y-106473831D01*
X138298778Y-106473832D01*
X138298779Y-106473833D01*
X138408916Y-106544614D01*
X138498282Y-106570854D01*
X138534538Y-106581500D01*
X138534541Y-106581500D01*
X138665459Y-106581500D01*
X138665462Y-106581500D01*
X138791083Y-106544614D01*
X138901224Y-106473831D01*
X138901224Y-106473830D01*
X138902551Y-106472978D01*
X138952727Y-106461645D01*
X138998448Y-106485216D01*
X139018045Y-106528869D01*
X139031610Y-106666599D01*
X139031610Y-106666601D01*
X139088955Y-106855643D01*
X139088956Y-106855647D01*
X139182086Y-107029881D01*
X139182089Y-107029885D01*
X139307410Y-107182589D01*
X139460114Y-107307910D01*
X139460118Y-107307913D01*
X139460122Y-107307916D01*
X139634350Y-107401042D01*
X139634352Y-107401043D01*
X139634356Y-107401044D01*
X139658652Y-107408414D01*
X139823397Y-107458389D01*
X140020000Y-107477753D01*
X140216603Y-107458389D01*
X140405650Y-107401042D01*
X140579878Y-107307916D01*
X140732589Y-107182589D01*
X140857916Y-107029878D01*
X140951042Y-106855650D01*
X140972474Y-106785000D01*
X144278497Y-106785000D01*
X144297860Y-106981599D01*
X144297860Y-106981601D01*
X144355205Y-107170643D01*
X144355206Y-107170647D01*
X144391573Y-107238685D01*
X144445511Y-107339597D01*
X144448336Y-107344881D01*
X144448339Y-107344885D01*
X144573660Y-107497589D01*
X144726364Y-107622910D01*
X144726368Y-107622913D01*
X144726372Y-107622916D01*
X144875358Y-107702550D01*
X144900602Y-107716043D01*
X144900606Y-107716044D01*
X144913654Y-107720002D01*
X145089647Y-107773389D01*
X145286250Y-107792753D01*
X145482853Y-107773389D01*
X145671900Y-107716042D01*
X145697142Y-107702550D01*
X149820618Y-107702550D01*
X149839251Y-107832142D01*
X149839251Y-107832143D01*
X149839252Y-107832145D01*
X149839252Y-107832147D01*
X149893637Y-107951232D01*
X149893640Y-107951237D01*
X149908759Y-107968685D01*
X149979376Y-108050181D01*
X149979378Y-108050182D01*
X149979379Y-108050183D01*
X150089516Y-108120964D01*
X150167816Y-108143955D01*
X150215138Y-108157850D01*
X150215141Y-108157850D01*
X150346059Y-108157850D01*
X150346062Y-108157850D01*
X150471683Y-108120964D01*
X150581824Y-108050181D01*
X150667561Y-107951235D01*
X150713978Y-107849597D01*
X150721947Y-107832147D01*
X150721947Y-107832146D01*
X150721949Y-107832142D01*
X150740582Y-107702550D01*
X150727275Y-107610000D01*
X154310018Y-107610000D01*
X154328651Y-107739592D01*
X154328651Y-107739593D01*
X154328652Y-107739595D01*
X154328652Y-107739597D01*
X154383037Y-107858682D01*
X154383040Y-107858687D01*
X154412224Y-107892366D01*
X154468776Y-107957631D01*
X154468778Y-107957632D01*
X154468779Y-107957633D01*
X154578916Y-108028414D01*
X154644363Y-108047631D01*
X154704538Y-108065300D01*
X154704541Y-108065300D01*
X154835459Y-108065300D01*
X154835462Y-108065300D01*
X154961083Y-108028414D01*
X155017684Y-107992039D01*
X155067859Y-107980706D01*
X155113581Y-108004277D01*
X155133455Y-108051723D01*
X155130135Y-108077673D01*
X155109481Y-108143955D01*
X155109477Y-108143969D01*
X155051628Y-108459642D01*
X155032251Y-108780000D01*
X155051628Y-109100357D01*
X155109477Y-109416030D01*
X155109480Y-109416044D01*
X155197555Y-109698682D01*
X155204962Y-109722451D01*
X155336680Y-110015118D01*
X155502715Y-110289774D01*
X155502718Y-110289778D01*
X155502720Y-110289781D01*
X155502725Y-110289788D01*
X155700641Y-110542409D01*
X155700652Y-110542421D01*
X155927578Y-110769347D01*
X155927590Y-110769358D01*
X156180211Y-110967274D01*
X156180218Y-110967279D01*
X156180226Y-110967285D01*
X156454882Y-111133320D01*
X156747549Y-111265038D01*
X156960092Y-111331269D01*
X157053955Y-111360519D01*
X157053957Y-111360519D01*
X157053959Y-111360520D01*
X157053963Y-111360520D01*
X157053969Y-111360522D01*
X157369644Y-111418371D01*
X157369640Y-111418371D01*
X157432052Y-111422145D01*
X157690000Y-111437749D01*
X157992084Y-111419476D01*
X158010357Y-111418371D01*
X158326030Y-111360522D01*
X158326029Y-111360522D01*
X158326041Y-111360520D01*
X158632451Y-111265038D01*
X158925118Y-111133320D01*
X159199774Y-110967285D01*
X159269743Y-110912467D01*
X159452409Y-110769358D01*
X159452409Y-110769357D01*
X159452414Y-110769354D01*
X159679354Y-110542414D01*
X159877285Y-110289774D01*
X160043320Y-110015118D01*
X160175038Y-109722451D01*
X160270520Y-109416041D01*
X160308469Y-109208958D01*
X160328371Y-109100357D01*
X160332531Y-109031585D01*
X160347749Y-108780000D01*
X160330022Y-108486945D01*
X160328371Y-108459642D01*
X160270522Y-108143969D01*
X160270519Y-108143955D01*
X160234514Y-108028414D01*
X160175038Y-107837549D01*
X160043320Y-107544882D01*
X159877285Y-107270226D01*
X159877279Y-107270218D01*
X159877274Y-107270211D01*
X159679358Y-107017590D01*
X159679347Y-107017578D01*
X159452421Y-106790652D01*
X159452409Y-106790641D01*
X159199788Y-106592725D01*
X159199781Y-106592720D01*
X159199778Y-106592718D01*
X159199774Y-106592715D01*
X158925118Y-106426680D01*
X158632451Y-106294962D01*
X158632445Y-106294960D01*
X158326044Y-106199480D01*
X158326030Y-106199477D01*
X158010355Y-106141628D01*
X158010359Y-106141628D01*
X157690000Y-106122251D01*
X157369642Y-106141628D01*
X157053969Y-106199477D01*
X157053955Y-106199480D01*
X156747554Y-106294960D01*
X156747550Y-106294961D01*
X156747549Y-106294962D01*
X156454882Y-106426680D01*
X156206381Y-106576904D01*
X156180218Y-106592720D01*
X156180211Y-106592725D01*
X155927590Y-106790641D01*
X155927578Y-106790652D01*
X155700652Y-107017578D01*
X155700641Y-107017590D01*
X155502725Y-107270211D01*
X155502720Y-107270218D01*
X155502715Y-107270225D01*
X155502715Y-107270226D01*
X155479931Y-107307916D01*
X155351765Y-107519928D01*
X155311702Y-107552193D01*
X155260272Y-107551157D01*
X155221541Y-107517305D01*
X155212976Y-107491727D01*
X155211349Y-107480408D01*
X155211348Y-107480405D01*
X155211347Y-107480402D01*
X155156962Y-107361317D01*
X155156959Y-107361312D01*
X155131258Y-107331652D01*
X155071224Y-107262369D01*
X155071220Y-107262366D01*
X154961083Y-107191585D01*
X154835464Y-107154700D01*
X154835462Y-107154700D01*
X154704538Y-107154700D01*
X154704535Y-107154700D01*
X154578916Y-107191585D01*
X154468779Y-107262366D01*
X154468776Y-107262368D01*
X154468776Y-107262369D01*
X154461981Y-107270211D01*
X154383040Y-107361312D01*
X154383037Y-107361317D01*
X154328652Y-107480402D01*
X154328652Y-107480404D01*
X154328652Y-107480405D01*
X154328651Y-107480408D01*
X154310018Y-107610000D01*
X150727275Y-107610000D01*
X150721949Y-107572958D01*
X150721947Y-107572953D01*
X150721947Y-107572952D01*
X150667562Y-107453867D01*
X150667559Y-107453862D01*
X150641858Y-107424202D01*
X150581824Y-107354919D01*
X150581820Y-107354916D01*
X150471683Y-107284135D01*
X150346064Y-107247250D01*
X150346062Y-107247250D01*
X150215138Y-107247250D01*
X150215135Y-107247250D01*
X150089516Y-107284135D01*
X149979379Y-107354916D01*
X149979376Y-107354918D01*
X149979376Y-107354919D01*
X149973834Y-107361315D01*
X149893640Y-107453862D01*
X149893637Y-107453867D01*
X149839252Y-107572952D01*
X149839252Y-107572954D01*
X149839251Y-107572956D01*
X149839251Y-107572958D01*
X149820618Y-107702550D01*
X145697142Y-107702550D01*
X145846128Y-107622916D01*
X145998839Y-107497589D01*
X146124166Y-107344878D01*
X146217292Y-107170650D01*
X146274639Y-106981603D01*
X146294003Y-106785000D01*
X146274639Y-106588397D01*
X146226109Y-106428414D01*
X146217294Y-106399356D01*
X146217293Y-106399352D01*
X146184816Y-106338592D01*
X146124166Y-106225122D01*
X146124163Y-106225118D01*
X146124160Y-106225114D01*
X145998839Y-106072410D01*
X145922792Y-106010000D01*
X152290018Y-106010000D01*
X152308651Y-106139592D01*
X152308651Y-106139593D01*
X152308652Y-106139595D01*
X152308652Y-106139597D01*
X152363037Y-106258682D01*
X152363040Y-106258687D01*
X152379894Y-106278137D01*
X152448776Y-106357631D01*
X152448778Y-106357632D01*
X152448779Y-106357633D01*
X152558916Y-106428414D01*
X152648282Y-106454654D01*
X152684538Y-106465300D01*
X152684541Y-106465300D01*
X152815459Y-106465300D01*
X152815462Y-106465300D01*
X152941083Y-106428414D01*
X153051224Y-106357631D01*
X153136961Y-106258685D01*
X153191349Y-106139592D01*
X153209982Y-106010000D01*
X153191349Y-105880408D01*
X153191347Y-105880403D01*
X153191347Y-105880402D01*
X153136962Y-105761317D01*
X153136959Y-105761312D01*
X153105233Y-105724699D01*
X153051224Y-105662369D01*
X153051220Y-105662366D01*
X152941083Y-105591585D01*
X152815464Y-105554700D01*
X152815462Y-105554700D01*
X152684538Y-105554700D01*
X152684535Y-105554700D01*
X152558916Y-105591585D01*
X152448779Y-105662366D01*
X152448776Y-105662368D01*
X152448776Y-105662369D01*
X152443630Y-105668308D01*
X152363040Y-105761312D01*
X152363037Y-105761317D01*
X152308652Y-105880402D01*
X152308652Y-105880404D01*
X152308651Y-105880406D01*
X152308651Y-105880408D01*
X152290018Y-106010000D01*
X145922792Y-106010000D01*
X145846135Y-105947089D01*
X145846131Y-105947086D01*
X145846129Y-105947085D01*
X145846128Y-105947084D01*
X145732494Y-105886346D01*
X145671897Y-105853956D01*
X145671893Y-105853955D01*
X145482850Y-105796610D01*
X145286250Y-105777247D01*
X145089650Y-105796610D01*
X145089648Y-105796610D01*
X144900606Y-105853955D01*
X144900602Y-105853956D01*
X144726368Y-105947086D01*
X144726364Y-105947089D01*
X144573660Y-106072410D01*
X144448339Y-106225114D01*
X144448336Y-106225118D01*
X144355206Y-106399352D01*
X144355205Y-106399356D01*
X144297860Y-106588398D01*
X144297860Y-106588400D01*
X144278497Y-106785000D01*
X140972474Y-106785000D01*
X141008389Y-106666603D01*
X141027753Y-106470000D01*
X141008389Y-106273397D01*
X140951042Y-106084350D01*
X140857916Y-105910122D01*
X140857913Y-105910118D01*
X140857910Y-105910114D01*
X140732589Y-105757410D01*
X140579885Y-105632089D01*
X140579881Y-105632086D01*
X140579879Y-105632085D01*
X140579878Y-105632084D01*
X140461165Y-105568631D01*
X140405647Y-105538956D01*
X140405643Y-105538955D01*
X140216600Y-105481610D01*
X140020000Y-105462247D01*
X139823400Y-105481610D01*
X139823398Y-105481610D01*
X139634356Y-105538955D01*
X139634352Y-105538956D01*
X139460118Y-105632086D01*
X139460114Y-105632089D01*
X139307410Y-105757410D01*
X139182089Y-105910114D01*
X139182083Y-105910123D01*
X139156506Y-105957973D01*
X139118203Y-105992309D01*
X139066791Y-105993991D01*
X139026325Y-105962233D01*
X139021782Y-105953762D01*
X138986962Y-105877517D01*
X138986959Y-105877512D01*
X138961258Y-105847852D01*
X138901224Y-105778569D01*
X138901220Y-105778566D01*
X138791083Y-105707785D01*
X138665464Y-105670900D01*
X138665462Y-105670900D01*
X138534538Y-105670900D01*
X138534535Y-105670900D01*
X138408916Y-105707785D01*
X138298779Y-105778566D01*
X138213040Y-105877512D01*
X138213037Y-105877517D01*
X138158652Y-105996602D01*
X138158652Y-105996604D01*
X138158651Y-105996606D01*
X138158651Y-105996608D01*
X138140018Y-106126200D01*
X130556770Y-106126200D01*
X130557431Y-106121604D01*
X130552464Y-106087058D01*
X130551437Y-106079914D01*
X130561973Y-106029565D01*
X130602408Y-105997767D01*
X130625872Y-105994013D01*
X130646224Y-105994013D01*
X130646227Y-105994013D01*
X130771848Y-105957127D01*
X130881989Y-105886344D01*
X130967726Y-105787398D01*
X131022114Y-105668305D01*
X131040747Y-105538713D01*
X131022114Y-105409121D01*
X131022112Y-105409116D01*
X131022112Y-105409115D01*
X130967727Y-105290030D01*
X130967724Y-105290025D01*
X130918648Y-105233389D01*
X130881989Y-105191082D01*
X130881985Y-105191079D01*
X130771848Y-105120298D01*
X130646229Y-105083413D01*
X130646227Y-105083413D01*
X130636659Y-105083413D01*
X130588321Y-105065820D01*
X130562601Y-105021271D01*
X130562224Y-104997511D01*
X130569644Y-104945908D01*
X130551011Y-104816316D01*
X130551009Y-104816311D01*
X130551009Y-104816310D01*
X130496624Y-104697225D01*
X130496621Y-104697220D01*
X130464570Y-104660232D01*
X130410886Y-104598277D01*
X130410882Y-104598274D01*
X130300745Y-104527493D01*
X130175126Y-104490608D01*
X130175124Y-104490608D01*
X130044200Y-104490608D01*
X130044197Y-104490608D01*
X129918579Y-104527493D01*
X129835444Y-104580920D01*
X129785268Y-104592252D01*
X129739547Y-104568680D01*
X129719674Y-104521234D01*
X129720355Y-104506954D01*
X129729982Y-104440003D01*
X129729982Y-104440002D01*
X129729982Y-104440000D01*
X129711349Y-104310408D01*
X129711347Y-104310403D01*
X129711347Y-104310402D01*
X129681479Y-104245000D01*
X144278497Y-104245000D01*
X144297860Y-104441599D01*
X144297860Y-104441601D01*
X144355205Y-104630643D01*
X144355206Y-104630647D01*
X144393826Y-104702900D01*
X144447108Y-104802585D01*
X144448336Y-104804881D01*
X144448339Y-104804885D01*
X144573660Y-104957589D01*
X144726364Y-105082910D01*
X144726368Y-105082913D01*
X144726372Y-105082916D01*
X144900600Y-105176042D01*
X144900602Y-105176043D01*
X144900606Y-105176044D01*
X144909319Y-105178687D01*
X145089647Y-105233389D01*
X145286250Y-105252753D01*
X145482853Y-105233389D01*
X145671900Y-105176042D01*
X145846128Y-105082916D01*
X145995901Y-104960000D01*
X151759018Y-104960000D01*
X151777651Y-105089592D01*
X151777651Y-105089593D01*
X151777652Y-105089595D01*
X151777652Y-105089597D01*
X151832037Y-105208682D01*
X151832040Y-105208687D01*
X151853445Y-105233389D01*
X151917776Y-105307631D01*
X151917778Y-105307632D01*
X151917779Y-105307633D01*
X152027916Y-105378414D01*
X152117282Y-105404654D01*
X152153538Y-105415300D01*
X152153541Y-105415300D01*
X152284459Y-105415300D01*
X152284462Y-105415300D01*
X152410083Y-105378414D01*
X152520224Y-105307631D01*
X152605961Y-105208685D01*
X152659520Y-105091408D01*
X152660347Y-105089597D01*
X152660347Y-105089596D01*
X152660349Y-105089592D01*
X152678982Y-104960000D01*
X152674669Y-104930000D01*
X154700018Y-104930000D01*
X154718651Y-105059592D01*
X154718651Y-105059593D01*
X154718652Y-105059595D01*
X154718652Y-105059597D01*
X154773037Y-105178682D01*
X154773040Y-105178687D01*
X154786823Y-105194593D01*
X154858776Y-105277631D01*
X154858778Y-105277632D01*
X154858779Y-105277633D01*
X154968916Y-105348414D01*
X155023094Y-105364322D01*
X155094538Y-105385300D01*
X155094541Y-105385300D01*
X155225459Y-105385300D01*
X155225462Y-105385300D01*
X155351083Y-105348414D01*
X155461224Y-105277631D01*
X155546961Y-105178685D01*
X155587647Y-105089595D01*
X155601347Y-105059597D01*
X155601347Y-105059596D01*
X155601349Y-105059592D01*
X155619982Y-104930000D01*
X155601349Y-104800408D01*
X155601347Y-104800403D01*
X155601347Y-104800402D01*
X155546962Y-104681317D01*
X155546959Y-104681312D01*
X155510886Y-104639682D01*
X155461224Y-104582369D01*
X155461220Y-104582366D01*
X155351083Y-104511585D01*
X155238819Y-104478622D01*
X155197396Y-104448123D01*
X155185268Y-104398133D01*
X155208111Y-104352043D01*
X155238817Y-104334314D01*
X155361083Y-104298414D01*
X155471224Y-104227631D01*
X155556961Y-104128685D01*
X155611349Y-104009592D01*
X155629982Y-103880000D01*
X155611349Y-103750408D01*
X155611347Y-103750403D01*
X155611347Y-103750402D01*
X155556962Y-103631317D01*
X155556959Y-103631312D01*
X155528452Y-103598414D01*
X155471224Y-103532369D01*
X155471220Y-103532366D01*
X155361083Y-103461585D01*
X155235464Y-103424700D01*
X155235462Y-103424700D01*
X155104538Y-103424700D01*
X155104535Y-103424700D01*
X154978916Y-103461585D01*
X154868779Y-103532366D01*
X154868776Y-103532368D01*
X154868776Y-103532369D01*
X154868740Y-103532411D01*
X154783040Y-103631312D01*
X154783037Y-103631317D01*
X154728652Y-103750402D01*
X154728652Y-103750404D01*
X154728651Y-103750406D01*
X154728651Y-103750408D01*
X154710018Y-103880000D01*
X154728651Y-104009592D01*
X154728651Y-104009593D01*
X154728652Y-104009595D01*
X154728652Y-104009597D01*
X154783037Y-104128682D01*
X154783040Y-104128687D01*
X154812731Y-104162952D01*
X154868776Y-104227631D01*
X154868778Y-104227632D01*
X154868779Y-104227633D01*
X154978916Y-104298414D01*
X155012075Y-104308150D01*
X155091181Y-104331378D01*
X155132603Y-104361876D01*
X155144731Y-104411866D01*
X155121888Y-104457955D01*
X155091181Y-104475685D01*
X154968915Y-104511586D01*
X154858779Y-104582366D01*
X154858776Y-104582368D01*
X154858776Y-104582369D01*
X154844994Y-104598274D01*
X154773040Y-104681312D01*
X154773037Y-104681317D01*
X154718652Y-104800402D01*
X154718652Y-104800404D01*
X154718651Y-104800406D01*
X154718651Y-104800408D01*
X154700018Y-104930000D01*
X152674669Y-104930000D01*
X152660349Y-104830408D01*
X152660347Y-104830403D01*
X152660347Y-104830402D01*
X152605962Y-104711317D01*
X152605959Y-104711312D01*
X152561697Y-104660232D01*
X152520224Y-104612369D01*
X152520220Y-104612366D01*
X152410083Y-104541585D01*
X152284464Y-104504700D01*
X152284462Y-104504700D01*
X152153538Y-104504700D01*
X152153535Y-104504700D01*
X152027916Y-104541585D01*
X151917779Y-104612366D01*
X151832040Y-104711312D01*
X151832037Y-104711317D01*
X151777652Y-104830402D01*
X151777652Y-104830404D01*
X151777651Y-104830406D01*
X151777651Y-104830408D01*
X151759018Y-104960000D01*
X145995901Y-104960000D01*
X145998839Y-104957589D01*
X146124166Y-104804878D01*
X146217292Y-104630650D01*
X146274639Y-104441603D01*
X146294003Y-104245000D01*
X146274639Y-104048397D01*
X146233397Y-103912442D01*
X146217294Y-103859356D01*
X146217293Y-103859352D01*
X146217292Y-103859350D01*
X146124166Y-103685122D01*
X146124163Y-103685118D01*
X146124160Y-103685114D01*
X145998839Y-103532410D01*
X145846135Y-103407089D01*
X145846131Y-103407086D01*
X145846129Y-103407085D01*
X145846128Y-103407084D01*
X145729415Y-103344700D01*
X145692185Y-103324800D01*
X153061518Y-103324800D01*
X153080151Y-103454392D01*
X153080151Y-103454393D01*
X153080152Y-103454395D01*
X153080152Y-103454397D01*
X153134537Y-103573482D01*
X153134540Y-103573487D01*
X153156140Y-103598414D01*
X153220276Y-103672431D01*
X153220278Y-103672432D01*
X153220279Y-103672433D01*
X153330416Y-103743214D01*
X153354917Y-103750408D01*
X153456038Y-103780100D01*
X153456041Y-103780100D01*
X153586959Y-103780100D01*
X153586962Y-103780100D01*
X153712583Y-103743214D01*
X153822724Y-103672431D01*
X153908461Y-103573485D01*
X153959564Y-103461585D01*
X153962847Y-103454397D01*
X153962847Y-103454396D01*
X153962849Y-103454392D01*
X153981482Y-103324800D01*
X153962849Y-103195208D01*
X153962847Y-103195203D01*
X153962847Y-103195202D01*
X153908462Y-103076117D01*
X153908459Y-103076112D01*
X153869009Y-103030585D01*
X153822724Y-102977169D01*
X153822720Y-102977166D01*
X153712583Y-102906385D01*
X153586964Y-102869500D01*
X153586962Y-102869500D01*
X153456038Y-102869500D01*
X153456035Y-102869500D01*
X153330416Y-102906385D01*
X153220279Y-102977166D01*
X153134540Y-103076112D01*
X153134537Y-103076117D01*
X153080152Y-103195202D01*
X153080152Y-103195204D01*
X153080151Y-103195206D01*
X153080151Y-103195208D01*
X153061518Y-103324800D01*
X145692185Y-103324800D01*
X145671897Y-103313956D01*
X145671893Y-103313955D01*
X145482850Y-103256610D01*
X145286250Y-103237247D01*
X145089650Y-103256610D01*
X145089648Y-103256610D01*
X144900606Y-103313955D01*
X144900602Y-103313956D01*
X144726368Y-103407086D01*
X144726364Y-103407089D01*
X144573660Y-103532410D01*
X144448339Y-103685114D01*
X144448336Y-103685118D01*
X144355206Y-103859352D01*
X144355205Y-103859356D01*
X144297860Y-104048398D01*
X144297860Y-104048400D01*
X144278497Y-104245000D01*
X129681479Y-104245000D01*
X129656962Y-104191317D01*
X129656959Y-104191312D01*
X129631258Y-104161652D01*
X129571224Y-104092369D01*
X129571220Y-104092366D01*
X129461083Y-104021585D01*
X129335464Y-103984700D01*
X129335462Y-103984700D01*
X129204538Y-103984700D01*
X129204535Y-103984700D01*
X129078916Y-104021585D01*
X128968779Y-104092366D01*
X128883040Y-104191312D01*
X128883037Y-104191317D01*
X128828652Y-104310402D01*
X128828652Y-104310404D01*
X128828651Y-104310406D01*
X128828651Y-104310408D01*
X128810018Y-104440000D01*
X107511937Y-104440000D01*
X107518982Y-104391000D01*
X107500349Y-104261408D01*
X107500347Y-104261403D01*
X107500347Y-104261402D01*
X107445962Y-104142317D01*
X107445959Y-104142312D01*
X107420258Y-104112652D01*
X107360224Y-104043369D01*
X107360220Y-104043366D01*
X107250083Y-103972585D01*
X107124464Y-103935700D01*
X107124462Y-103935700D01*
X106993538Y-103935700D01*
X106993535Y-103935700D01*
X106940738Y-103951203D01*
X106889401Y-103947940D01*
X106852173Y-103912442D01*
X106846472Y-103861319D01*
X106851146Y-103847814D01*
X106855973Y-103837245D01*
X106874606Y-103707653D01*
X106855973Y-103578061D01*
X106855971Y-103578056D01*
X106855971Y-103578055D01*
X106801586Y-103458970D01*
X106801583Y-103458965D01*
X106771892Y-103424700D01*
X106715848Y-103360022D01*
X106715844Y-103360019D01*
X106605707Y-103289238D01*
X106480088Y-103252353D01*
X106480086Y-103252353D01*
X106349162Y-103252353D01*
X106349159Y-103252353D01*
X106223540Y-103289238D01*
X106113403Y-103360019D01*
X106027664Y-103458965D01*
X106027661Y-103458970D01*
X105973276Y-103578055D01*
X105973276Y-103578057D01*
X105973275Y-103578059D01*
X105973275Y-103578061D01*
X105954642Y-103707653D01*
X99506704Y-103707653D01*
X99501349Y-103670408D01*
X99501347Y-103670403D01*
X99501347Y-103670402D01*
X99446962Y-103551317D01*
X99446959Y-103551312D01*
X99421258Y-103521652D01*
X99361224Y-103452369D01*
X99361220Y-103452366D01*
X99251083Y-103381585D01*
X99125464Y-103344700D01*
X99125462Y-103344700D01*
X98994538Y-103344700D01*
X98994535Y-103344700D01*
X98868916Y-103381585D01*
X98758779Y-103452366D01*
X98758776Y-103452368D01*
X98758776Y-103452369D01*
X98741610Y-103472179D01*
X98673040Y-103551312D01*
X98673037Y-103551317D01*
X98618652Y-103670402D01*
X98618652Y-103670404D01*
X98618651Y-103670406D01*
X98618651Y-103670408D01*
X98600018Y-103800000D01*
X96690500Y-103800000D01*
X96690500Y-103180000D01*
X116200018Y-103180000D01*
X116218651Y-103309592D01*
X116218651Y-103309593D01*
X116218652Y-103309595D01*
X116218652Y-103309597D01*
X116273037Y-103428682D01*
X116273040Y-103428687D01*
X116299277Y-103458965D01*
X116358776Y-103527631D01*
X116358778Y-103527632D01*
X116358779Y-103527633D01*
X116468916Y-103598414D01*
X116558282Y-103624654D01*
X116594538Y-103635300D01*
X116594541Y-103635300D01*
X116725459Y-103635300D01*
X116725462Y-103635300D01*
X116851083Y-103598414D01*
X116961224Y-103527631D01*
X117029358Y-103449000D01*
X122570018Y-103449000D01*
X122588651Y-103578592D01*
X122588651Y-103578593D01*
X122588652Y-103578595D01*
X122588652Y-103578597D01*
X122643037Y-103697682D01*
X122643040Y-103697687D01*
X122651676Y-103707653D01*
X122728776Y-103796631D01*
X122728778Y-103796632D01*
X122728779Y-103796633D01*
X122838916Y-103867414D01*
X122928282Y-103893654D01*
X122964538Y-103904300D01*
X122964541Y-103904300D01*
X123095459Y-103904300D01*
X123095462Y-103904300D01*
X123221083Y-103867414D01*
X123331224Y-103796631D01*
X123416961Y-103697685D01*
X123471349Y-103578592D01*
X123489982Y-103449000D01*
X123471349Y-103319408D01*
X123471347Y-103319403D01*
X123471347Y-103319402D01*
X123416962Y-103200317D01*
X123416959Y-103200312D01*
X123381963Y-103159925D01*
X123331224Y-103101369D01*
X123331220Y-103101366D01*
X123221083Y-103030585D01*
X123095464Y-102993700D01*
X123095462Y-102993700D01*
X122964538Y-102993700D01*
X122964535Y-102993700D01*
X122838916Y-103030585D01*
X122728779Y-103101366D01*
X122643040Y-103200312D01*
X122643037Y-103200317D01*
X122588652Y-103319402D01*
X122588652Y-103319404D01*
X122588651Y-103319406D01*
X122588651Y-103319408D01*
X122570018Y-103449000D01*
X117029358Y-103449000D01*
X117046961Y-103428685D01*
X117099356Y-103313956D01*
X117101347Y-103309597D01*
X117101347Y-103309596D01*
X117101349Y-103309592D01*
X117119982Y-103180000D01*
X117101349Y-103050408D01*
X117101347Y-103050403D01*
X117101347Y-103050402D01*
X117046962Y-102931317D01*
X117046959Y-102931312D01*
X116994791Y-102871108D01*
X116961224Y-102832369D01*
X116961220Y-102832366D01*
X116851083Y-102761585D01*
X116782717Y-102741511D01*
X118450583Y-102741511D01*
X118469216Y-102871103D01*
X118469216Y-102871104D01*
X118469217Y-102871106D01*
X118469217Y-102871108D01*
X118523602Y-102990193D01*
X118523605Y-102990198D01*
X118526640Y-102993700D01*
X118609341Y-103089142D01*
X118609343Y-103089143D01*
X118609344Y-103089144D01*
X118719481Y-103159925D01*
X118808847Y-103186165D01*
X118845103Y-103196811D01*
X118845106Y-103196811D01*
X118976024Y-103196811D01*
X118976027Y-103196811D01*
X119101648Y-103159925D01*
X119211789Y-103089142D01*
X119297526Y-102990196D01*
X119351914Y-102871103D01*
X119357113Y-102834942D01*
X157587100Y-102834942D01*
X157587100Y-104565055D01*
X157587101Y-104565057D01*
X157595972Y-104609659D01*
X157629764Y-104660232D01*
X157629765Y-104660232D01*
X157629766Y-104660234D01*
X157680342Y-104694028D01*
X157724943Y-104702900D01*
X159455056Y-104702899D01*
X159499658Y-104694028D01*
X159550234Y-104660234D01*
X159584028Y-104609658D01*
X159592900Y-104565057D01*
X159592899Y-102834944D01*
X159584028Y-102790342D01*
X159583530Y-102789597D01*
X159550235Y-102739767D01*
X159527686Y-102724700D01*
X159499658Y-102705972D01*
X159499656Y-102705971D01*
X159455057Y-102697100D01*
X157724944Y-102697100D01*
X157724942Y-102697101D01*
X157680340Y-102705972D01*
X157629767Y-102739764D01*
X157595972Y-102790342D01*
X157595971Y-102790343D01*
X157587100Y-102834942D01*
X119357113Y-102834942D01*
X119370547Y-102741511D01*
X119351914Y-102611919D01*
X119351912Y-102611914D01*
X119351912Y-102611913D01*
X119297527Y-102492828D01*
X119297524Y-102492823D01*
X119241949Y-102428687D01*
X119211789Y-102393880D01*
X119211785Y-102393877D01*
X119101648Y-102323096D01*
X118976029Y-102286211D01*
X118976027Y-102286211D01*
X118845103Y-102286211D01*
X118845100Y-102286211D01*
X118719481Y-102323096D01*
X118609344Y-102393877D01*
X118523605Y-102492823D01*
X118523602Y-102492828D01*
X118469217Y-102611913D01*
X118469217Y-102611915D01*
X118469216Y-102611917D01*
X118469216Y-102611919D01*
X118450583Y-102741511D01*
X116782717Y-102741511D01*
X116725464Y-102724700D01*
X116725462Y-102724700D01*
X116594538Y-102724700D01*
X116594535Y-102724700D01*
X116468916Y-102761585D01*
X116358779Y-102832366D01*
X116358776Y-102832368D01*
X116358776Y-102832369D01*
X116356546Y-102834943D01*
X116273040Y-102931312D01*
X116273037Y-102931317D01*
X116218652Y-103050402D01*
X116218652Y-103050404D01*
X116218651Y-103050406D01*
X116218651Y-103050408D01*
X116200018Y-103180000D01*
X96690500Y-103180000D01*
X96690500Y-102660000D01*
X107100018Y-102660000D01*
X107118651Y-102789592D01*
X107118651Y-102789593D01*
X107118652Y-102789595D01*
X107118652Y-102789597D01*
X107173037Y-102908682D01*
X107173040Y-102908687D01*
X107204463Y-102944951D01*
X107258776Y-103007631D01*
X107258778Y-103007632D01*
X107258779Y-103007633D01*
X107368916Y-103078414D01*
X107447094Y-103101369D01*
X107494538Y-103115300D01*
X107494541Y-103115300D01*
X107625459Y-103115300D01*
X107625462Y-103115300D01*
X107751083Y-103078414D01*
X107861224Y-103007631D01*
X107946961Y-102908685D01*
X108001006Y-102790343D01*
X108001347Y-102789597D01*
X108001347Y-102789596D01*
X108001349Y-102789592D01*
X108019982Y-102660000D01*
X108001349Y-102530408D01*
X108001347Y-102530403D01*
X108001347Y-102530402D01*
X107946962Y-102411317D01*
X107946959Y-102411312D01*
X107921258Y-102381652D01*
X107861224Y-102312369D01*
X107861220Y-102312366D01*
X107751083Y-102241585D01*
X107625464Y-102204700D01*
X107625462Y-102204700D01*
X107494538Y-102204700D01*
X107494535Y-102204700D01*
X107368916Y-102241585D01*
X107258779Y-102312366D01*
X107173040Y-102411312D01*
X107173037Y-102411317D01*
X107118652Y-102530402D01*
X107118652Y-102530404D01*
X107118651Y-102530406D01*
X107118651Y-102530408D01*
X107100018Y-102660000D01*
X96690500Y-102660000D01*
X96690500Y-102180000D01*
X104000018Y-102180000D01*
X104018651Y-102309592D01*
X104018651Y-102309593D01*
X104018652Y-102309595D01*
X104018652Y-102309597D01*
X104073037Y-102428682D01*
X104073040Y-102428687D01*
X104104463Y-102464951D01*
X104158776Y-102527631D01*
X104158778Y-102527632D01*
X104158779Y-102527633D01*
X104268916Y-102598414D01*
X104314910Y-102611919D01*
X104394538Y-102635300D01*
X104394541Y-102635300D01*
X104525459Y-102635300D01*
X104525462Y-102635300D01*
X104651083Y-102598414D01*
X104761224Y-102527631D01*
X104846961Y-102428685D01*
X104877759Y-102361246D01*
X104901347Y-102309597D01*
X104901347Y-102309596D01*
X104901349Y-102309592D01*
X104919982Y-102180000D01*
X104901349Y-102050408D01*
X104901347Y-102050403D01*
X104901347Y-102050402D01*
X104846962Y-101931317D01*
X104846959Y-101931312D01*
X104793831Y-101870000D01*
X128560018Y-101870000D01*
X128578651Y-101999592D01*
X128578651Y-101999593D01*
X128578652Y-101999595D01*
X128578652Y-101999597D01*
X128633037Y-102118682D01*
X128633040Y-102118687D01*
X128664463Y-102154951D01*
X128718776Y-102217631D01*
X128718778Y-102217632D01*
X128718779Y-102217633D01*
X128828916Y-102288414D01*
X128901042Y-102309592D01*
X128954538Y-102325300D01*
X128954541Y-102325300D01*
X129085459Y-102325300D01*
X129085462Y-102325300D01*
X129211083Y-102288414D01*
X129321224Y-102217631D01*
X129406961Y-102118685D01*
X129461349Y-101999592D01*
X129479982Y-101870000D01*
X129461349Y-101740408D01*
X129461347Y-101740403D01*
X129461347Y-101740402D01*
X129406962Y-101621317D01*
X129406959Y-101621312D01*
X129373451Y-101582642D01*
X129321224Y-101522369D01*
X129321220Y-101522366D01*
X129211083Y-101451585D01*
X129085464Y-101414700D01*
X129085462Y-101414700D01*
X128954538Y-101414700D01*
X128954535Y-101414700D01*
X128828916Y-101451585D01*
X128718779Y-101522366D01*
X128633040Y-101621312D01*
X128633037Y-101621317D01*
X128578652Y-101740402D01*
X128578652Y-101740404D01*
X128578651Y-101740406D01*
X128578651Y-101740408D01*
X128560018Y-101870000D01*
X104793831Y-101870000D01*
X104761224Y-101832369D01*
X104761220Y-101832366D01*
X104651083Y-101761585D01*
X104525464Y-101724700D01*
X104525462Y-101724700D01*
X104394538Y-101724700D01*
X104394535Y-101724700D01*
X104268916Y-101761585D01*
X104158779Y-101832366D01*
X104073040Y-101931312D01*
X104073037Y-101931317D01*
X104018652Y-102050402D01*
X104018652Y-102050404D01*
X104018651Y-102050406D01*
X104018651Y-102050408D01*
X104000018Y-102180000D01*
X96690500Y-102180000D01*
X96690500Y-101060000D01*
X129590018Y-101060000D01*
X129608651Y-101189592D01*
X129608651Y-101189593D01*
X129608652Y-101189595D01*
X129608652Y-101189597D01*
X129663037Y-101308682D01*
X129663040Y-101308687D01*
X129679181Y-101327314D01*
X129748776Y-101407631D01*
X129748778Y-101407632D01*
X129748779Y-101407633D01*
X129858916Y-101478414D01*
X129886087Y-101486392D01*
X129984538Y-101515300D01*
X129984541Y-101515300D01*
X130115459Y-101515300D01*
X130115462Y-101515300D01*
X130241083Y-101478414D01*
X130351224Y-101407631D01*
X130436961Y-101308685D01*
X130491349Y-101189592D01*
X130509982Y-101060000D01*
X130491349Y-100930408D01*
X130491347Y-100930403D01*
X130491347Y-100930402D01*
X130436962Y-100811317D01*
X130436959Y-100811312D01*
X130411258Y-100781652D01*
X130351224Y-100712369D01*
X130351220Y-100712366D01*
X130241083Y-100641585D01*
X130115464Y-100604700D01*
X130115462Y-100604700D01*
X129984538Y-100604700D01*
X129984535Y-100604700D01*
X129858916Y-100641585D01*
X129748779Y-100712366D01*
X129748776Y-100712368D01*
X129748776Y-100712369D01*
X129731610Y-100732179D01*
X129663040Y-100811312D01*
X129663037Y-100811317D01*
X129608652Y-100930402D01*
X129608652Y-100930404D01*
X129608651Y-100930406D01*
X129608651Y-100930408D01*
X129590018Y-101060000D01*
X96690500Y-101060000D01*
X96690500Y-99975000D01*
X98485018Y-99975000D01*
X98503651Y-100104592D01*
X98503651Y-100104593D01*
X98503652Y-100104595D01*
X98503652Y-100104597D01*
X98558037Y-100223682D01*
X98558040Y-100223687D01*
X98587453Y-100257631D01*
X98643776Y-100322631D01*
X98643778Y-100322632D01*
X98643779Y-100322633D01*
X98753916Y-100393414D01*
X98843282Y-100419654D01*
X98879538Y-100430300D01*
X98879541Y-100430300D01*
X99010459Y-100430300D01*
X99010462Y-100430300D01*
X99136083Y-100393414D01*
X99246224Y-100322631D01*
X99331961Y-100223685D01*
X99386349Y-100104592D01*
X99404982Y-99975000D01*
X99386349Y-99845408D01*
X99386347Y-99845403D01*
X99386347Y-99845402D01*
X99331962Y-99726317D01*
X99331959Y-99726312D01*
X99302544Y-99692366D01*
X99246224Y-99627369D01*
X99246220Y-99627366D01*
X99136083Y-99556585D01*
X99010464Y-99519700D01*
X99010462Y-99519700D01*
X98879538Y-99519700D01*
X98879535Y-99519700D01*
X98753916Y-99556585D01*
X98643779Y-99627366D01*
X98558040Y-99726312D01*
X98558037Y-99726317D01*
X98503652Y-99845402D01*
X98503652Y-99845404D01*
X98503651Y-99845406D01*
X98503651Y-99845408D01*
X98485018Y-99975000D01*
X96690500Y-99975000D01*
X96690500Y-99153600D01*
X100581018Y-99153600D01*
X100599651Y-99283192D01*
X100599651Y-99283193D01*
X100599652Y-99283195D01*
X100599652Y-99283197D01*
X100654037Y-99402282D01*
X100654040Y-99402287D01*
X100685463Y-99438551D01*
X100739776Y-99501231D01*
X100739778Y-99501232D01*
X100739779Y-99501233D01*
X100849916Y-99572014D01*
X100893121Y-99584700D01*
X100975538Y-99608900D01*
X100975541Y-99608900D01*
X101106459Y-99608900D01*
X101106462Y-99608900D01*
X101232083Y-99572014D01*
X101342224Y-99501231D01*
X101427961Y-99402285D01*
X101482349Y-99283192D01*
X101500982Y-99153600D01*
X101500018Y-99146897D01*
X101507738Y-99110000D01*
X103600018Y-99110000D01*
X103618651Y-99239592D01*
X103618651Y-99239593D01*
X103618652Y-99239595D01*
X103618652Y-99239597D01*
X103673037Y-99358682D01*
X103673040Y-99358687D01*
X103689457Y-99377633D01*
X103758776Y-99457631D01*
X103758778Y-99457632D01*
X103758779Y-99457633D01*
X103868916Y-99528414D01*
X103889153Y-99534356D01*
X103994538Y-99565300D01*
X103994541Y-99565300D01*
X104125459Y-99565300D01*
X104125462Y-99565300D01*
X104251083Y-99528414D01*
X104361224Y-99457631D01*
X104446961Y-99358685D01*
X104495514Y-99252369D01*
X104501347Y-99239597D01*
X104501347Y-99239596D01*
X104501349Y-99239592D01*
X104519982Y-99110000D01*
X104508479Y-99030000D01*
X110750018Y-99030000D01*
X110768651Y-99159592D01*
X110768651Y-99159593D01*
X110768652Y-99159595D01*
X110768652Y-99159597D01*
X110823037Y-99278682D01*
X110823040Y-99278687D01*
X110854463Y-99314951D01*
X110908776Y-99377631D01*
X110908778Y-99377632D01*
X110908779Y-99377633D01*
X111018916Y-99448414D01*
X111093807Y-99470404D01*
X111144538Y-99485300D01*
X111144541Y-99485300D01*
X111275459Y-99485300D01*
X111275462Y-99485300D01*
X111401083Y-99448414D01*
X111511224Y-99377631D01*
X111596961Y-99278685D01*
X111651349Y-99159592D01*
X111669982Y-99030000D01*
X111651349Y-98900408D01*
X111651347Y-98900403D01*
X111651347Y-98900402D01*
X111596962Y-98781317D01*
X111596959Y-98781312D01*
X111562448Y-98741485D01*
X111511224Y-98682369D01*
X111511220Y-98682366D01*
X111401083Y-98611585D01*
X111275464Y-98574700D01*
X111275462Y-98574700D01*
X111144538Y-98574700D01*
X111144535Y-98574700D01*
X111018916Y-98611585D01*
X110908779Y-98682366D01*
X110908776Y-98682368D01*
X110908776Y-98682369D01*
X110894972Y-98698300D01*
X110823040Y-98781312D01*
X110823037Y-98781317D01*
X110768652Y-98900402D01*
X110768652Y-98900404D01*
X110768651Y-98900406D01*
X110768651Y-98900408D01*
X110750018Y-99030000D01*
X104508479Y-99030000D01*
X104501349Y-98980408D01*
X104501347Y-98980403D01*
X104501347Y-98980402D01*
X104446962Y-98861317D01*
X104446959Y-98861312D01*
X104419477Y-98829597D01*
X104361224Y-98762369D01*
X104361220Y-98762366D01*
X104251083Y-98691585D01*
X104125464Y-98654700D01*
X104125462Y-98654700D01*
X103994538Y-98654700D01*
X103994535Y-98654700D01*
X103868916Y-98691585D01*
X103758779Y-98762366D01*
X103673040Y-98861312D01*
X103673037Y-98861317D01*
X103618652Y-98980402D01*
X103618652Y-98980404D01*
X103618651Y-98980406D01*
X103618651Y-98980408D01*
X103600018Y-99110000D01*
X101507738Y-99110000D01*
X101510553Y-99096549D01*
X101550988Y-99064751D01*
X101574453Y-99060996D01*
X101629103Y-99060996D01*
X101629106Y-99060996D01*
X101754727Y-99024110D01*
X101864868Y-98953327D01*
X101950605Y-98854381D01*
X102002163Y-98741485D01*
X102004991Y-98735293D01*
X102004991Y-98735292D01*
X102004993Y-98735288D01*
X102023626Y-98605696D01*
X102023626Y-98605693D01*
X102023626Y-98600317D01*
X102026333Y-98600317D01*
X102034832Y-98559817D01*
X102075284Y-98528042D01*
X102098709Y-98524300D01*
X102170306Y-98524300D01*
X102170309Y-98524300D01*
X102277587Y-98492800D01*
X108904595Y-98492800D01*
X108923228Y-98622392D01*
X108923228Y-98622393D01*
X108923229Y-98622395D01*
X108923229Y-98622397D01*
X108977614Y-98741482D01*
X108977617Y-98741487D01*
X108995709Y-98762366D01*
X109063353Y-98840431D01*
X109063355Y-98840432D01*
X109063356Y-98840433D01*
X109173493Y-98911214D01*
X109242956Y-98931610D01*
X109299115Y-98948100D01*
X109299118Y-98948100D01*
X109430036Y-98948100D01*
X109430039Y-98948100D01*
X109555660Y-98911214D01*
X109665801Y-98840431D01*
X109751538Y-98741485D01*
X109787496Y-98662748D01*
X109805924Y-98622397D01*
X109805924Y-98622396D01*
X109805926Y-98622392D01*
X109824559Y-98492800D01*
X109805926Y-98363208D01*
X109805924Y-98363203D01*
X109805924Y-98363202D01*
X109778875Y-98303973D01*
X109774798Y-98252695D01*
X109804636Y-98210794D01*
X109854427Y-98197874D01*
X109868466Y-98200580D01*
X109884538Y-98205300D01*
X109884541Y-98205300D01*
X110015459Y-98205300D01*
X110015462Y-98205300D01*
X110141083Y-98168414D01*
X110251224Y-98097631D01*
X110336961Y-97998685D01*
X110378489Y-97907752D01*
X110391347Y-97879597D01*
X110391347Y-97879596D01*
X110391349Y-97879592D01*
X110409982Y-97750000D01*
X110391349Y-97620408D01*
X110391347Y-97620403D01*
X110391347Y-97620402D01*
X110336962Y-97501317D01*
X110336959Y-97501312D01*
X110301058Y-97459881D01*
X110251224Y-97402369D01*
X110251220Y-97402366D01*
X110216418Y-97380000D01*
X115372247Y-97380000D01*
X115391610Y-97576599D01*
X115391610Y-97576601D01*
X115448955Y-97765643D01*
X115448956Y-97765647D01*
X115495521Y-97852764D01*
X115524912Y-97907752D01*
X115542086Y-97939881D01*
X115542089Y-97939885D01*
X115667410Y-98092589D01*
X115820114Y-98217910D01*
X115820118Y-98217913D01*
X115820122Y-98217916D01*
X115981125Y-98303973D01*
X115994352Y-98311043D01*
X115994356Y-98311044D01*
X116018309Y-98318310D01*
X116183397Y-98368389D01*
X116380000Y-98387753D01*
X116576603Y-98368389D01*
X116741690Y-98318310D01*
X116793053Y-98321114D01*
X116830597Y-98356278D01*
X116836755Y-98407348D01*
X116820352Y-98439517D01*
X116810131Y-98451312D01*
X116810128Y-98451317D01*
X116755743Y-98570402D01*
X116755743Y-98570404D01*
X116755742Y-98570406D01*
X116755742Y-98570408D01*
X116737109Y-98700000D01*
X116755742Y-98829592D01*
X116755742Y-98829593D01*
X116755743Y-98829595D01*
X116755743Y-98829597D01*
X116769411Y-98859525D01*
X116773488Y-98910803D01*
X116743650Y-98952705D01*
X116693859Y-98965623D01*
X116679178Y-98962726D01*
X116594866Y-98937151D01*
X116576603Y-98931611D01*
X116576601Y-98931610D01*
X116576599Y-98931610D01*
X116380000Y-98912247D01*
X116183400Y-98931610D01*
X116183398Y-98931610D01*
X115994356Y-98988955D01*
X115994352Y-98988956D01*
X115820118Y-99082086D01*
X115820114Y-99082089D01*
X115667410Y-99207410D01*
X115542089Y-99360114D01*
X115542086Y-99360118D01*
X115448956Y-99534352D01*
X115448955Y-99534356D01*
X115391610Y-99723398D01*
X115391610Y-99723400D01*
X115372247Y-99920000D01*
X115391610Y-100116599D01*
X115391610Y-100116601D01*
X115448955Y-100305643D01*
X115448956Y-100305647D01*
X115480841Y-100365299D01*
X115530611Y-100458414D01*
X115542086Y-100479881D01*
X115542089Y-100479885D01*
X115667410Y-100632589D01*
X115820114Y-100757910D01*
X115820118Y-100757913D01*
X115820122Y-100757916D01*
X115994350Y-100851042D01*
X115994352Y-100851043D01*
X115994356Y-100851044D01*
X116037593Y-100864159D01*
X116183397Y-100908389D01*
X116380000Y-100927753D01*
X116576603Y-100908389D01*
X116765650Y-100851042D01*
X116939878Y-100757916D01*
X117092589Y-100632589D01*
X117217916Y-100479878D01*
X117311042Y-100305650D01*
X117368389Y-100116603D01*
X117387753Y-99920000D01*
X117386768Y-99910000D01*
X118950018Y-99910000D01*
X118968651Y-100039592D01*
X118968651Y-100039593D01*
X118968652Y-100039595D01*
X118968652Y-100039597D01*
X119023037Y-100158682D01*
X119023040Y-100158687D01*
X119032494Y-100169597D01*
X119108776Y-100257631D01*
X119108778Y-100257632D01*
X119108779Y-100257633D01*
X119218916Y-100328414D01*
X119308282Y-100354654D01*
X119344538Y-100365300D01*
X119344541Y-100365300D01*
X119475459Y-100365300D01*
X119475462Y-100365300D01*
X119601083Y-100328414D01*
X119711224Y-100257631D01*
X119796961Y-100158685D01*
X119827759Y-100091246D01*
X119851163Y-100040000D01*
X128780018Y-100040000D01*
X128798651Y-100169592D01*
X128798651Y-100169593D01*
X128798652Y-100169595D01*
X128798652Y-100169597D01*
X128853037Y-100288682D01*
X128853040Y-100288687D01*
X128867739Y-100305650D01*
X128938776Y-100387631D01*
X128938778Y-100387632D01*
X128938779Y-100387633D01*
X129048916Y-100458414D01*
X129122016Y-100479878D01*
X129174538Y-100495300D01*
X129174541Y-100495300D01*
X129305459Y-100495300D01*
X129305462Y-100495300D01*
X129431083Y-100458414D01*
X129541224Y-100387631D01*
X129626961Y-100288685D01*
X129681349Y-100169592D01*
X129699982Y-100040000D01*
X129681349Y-99910408D01*
X129681347Y-99910403D01*
X129681347Y-99910402D01*
X129626962Y-99791317D01*
X129626959Y-99791312D01*
X129573480Y-99729595D01*
X129541224Y-99692369D01*
X129541220Y-99692366D01*
X129431083Y-99621585D01*
X129357571Y-99600000D01*
X129830018Y-99600000D01*
X129848651Y-99729592D01*
X129848651Y-99729593D01*
X129848652Y-99729595D01*
X129848652Y-99729597D01*
X129903037Y-99848682D01*
X129903040Y-99848687D01*
X129934463Y-99884951D01*
X129988776Y-99947631D01*
X129988778Y-99947632D01*
X129988779Y-99947633D01*
X130098916Y-100018414D01*
X130171042Y-100039592D01*
X130224538Y-100055300D01*
X130224541Y-100055300D01*
X130355459Y-100055300D01*
X130355462Y-100055300D01*
X130407569Y-100040000D01*
X131000018Y-100040000D01*
X131018651Y-100169592D01*
X131018651Y-100169593D01*
X131018652Y-100169595D01*
X131018652Y-100169597D01*
X131073037Y-100288682D01*
X131073040Y-100288687D01*
X131087739Y-100305650D01*
X131158776Y-100387631D01*
X131158778Y-100387632D01*
X131158779Y-100387633D01*
X131268916Y-100458414D01*
X131342016Y-100479878D01*
X131394538Y-100495300D01*
X131394541Y-100495300D01*
X131525459Y-100495300D01*
X131525462Y-100495300D01*
X131651083Y-100458414D01*
X131761224Y-100387631D01*
X131846961Y-100288685D01*
X131901349Y-100169592D01*
X131919982Y-100040000D01*
X131901349Y-99910408D01*
X131901347Y-99910403D01*
X131901347Y-99910402D01*
X131846962Y-99791317D01*
X131846959Y-99791312D01*
X131793480Y-99729595D01*
X131761224Y-99692369D01*
X131761220Y-99692366D01*
X131651083Y-99621585D01*
X131525464Y-99584700D01*
X131525462Y-99584700D01*
X131394538Y-99584700D01*
X131394535Y-99584700D01*
X131268916Y-99621585D01*
X131158779Y-99692366D01*
X131158776Y-99692368D01*
X131158776Y-99692369D01*
X131149393Y-99703198D01*
X131073040Y-99791312D01*
X131073037Y-99791317D01*
X131018652Y-99910402D01*
X131018652Y-99910404D01*
X131018651Y-99910406D01*
X131018651Y-99910408D01*
X131000018Y-100040000D01*
X130407569Y-100040000D01*
X130481083Y-100018414D01*
X130591224Y-99947631D01*
X130676961Y-99848685D01*
X130731349Y-99729592D01*
X130749982Y-99600000D01*
X130731349Y-99470408D01*
X130731347Y-99470403D01*
X130731347Y-99470402D01*
X130678902Y-99355565D01*
X137938057Y-99355565D01*
X137956690Y-99485157D01*
X137956690Y-99485158D01*
X137956691Y-99485160D01*
X137956691Y-99485162D01*
X138011076Y-99604247D01*
X138011079Y-99604252D01*
X138042502Y-99640516D01*
X138096815Y-99703196D01*
X138096817Y-99703197D01*
X138096818Y-99703198D01*
X138206955Y-99773979D01*
X138265986Y-99791312D01*
X138332577Y-99810865D01*
X138332580Y-99810865D01*
X138463498Y-99810865D01*
X138463501Y-99810865D01*
X138589122Y-99773979D01*
X138699263Y-99703196D01*
X138785000Y-99604250D01*
X138823613Y-99519700D01*
X138839386Y-99485162D01*
X138839386Y-99485161D01*
X138839388Y-99485157D01*
X138858021Y-99355565D01*
X138839388Y-99225973D01*
X138839386Y-99225968D01*
X138839386Y-99225967D01*
X138785001Y-99106882D01*
X138784998Y-99106877D01*
X138745241Y-99060996D01*
X138699263Y-99007934D01*
X138699259Y-99007931D01*
X138589122Y-98937150D01*
X138463503Y-98900265D01*
X138463501Y-98900265D01*
X138332577Y-98900265D01*
X138332574Y-98900265D01*
X138206955Y-98937150D01*
X138096818Y-99007931D01*
X138096815Y-99007933D01*
X138096815Y-99007934D01*
X138079649Y-99027744D01*
X138011079Y-99106877D01*
X138011076Y-99106882D01*
X137956691Y-99225967D01*
X137956691Y-99225969D01*
X137956690Y-99225971D01*
X137956690Y-99225973D01*
X137938057Y-99355565D01*
X130678902Y-99355565D01*
X130676962Y-99351317D01*
X130676959Y-99351312D01*
X130651258Y-99321652D01*
X130591224Y-99252369D01*
X130591220Y-99252366D01*
X130481083Y-99181585D01*
X130355464Y-99144700D01*
X130355462Y-99144700D01*
X130224538Y-99144700D01*
X130224535Y-99144700D01*
X130098916Y-99181585D01*
X129988779Y-99252366D01*
X129903040Y-99351312D01*
X129903037Y-99351317D01*
X129848652Y-99470402D01*
X129848652Y-99470404D01*
X129848651Y-99470406D01*
X129848651Y-99470408D01*
X129830018Y-99600000D01*
X129357571Y-99600000D01*
X129305464Y-99584700D01*
X129305462Y-99584700D01*
X129174538Y-99584700D01*
X129174535Y-99584700D01*
X129048916Y-99621585D01*
X128938779Y-99692366D01*
X128938776Y-99692368D01*
X128938776Y-99692369D01*
X128929393Y-99703198D01*
X128853040Y-99791312D01*
X128853037Y-99791317D01*
X128798652Y-99910402D01*
X128798652Y-99910404D01*
X128798651Y-99910406D01*
X128798651Y-99910408D01*
X128780018Y-100040000D01*
X119851163Y-100040000D01*
X119851347Y-100039597D01*
X119851347Y-100039596D01*
X119851349Y-100039592D01*
X119869982Y-99910000D01*
X119851349Y-99780408D01*
X119851347Y-99780403D01*
X119851347Y-99780402D01*
X119796962Y-99661317D01*
X119796959Y-99661312D01*
X119751542Y-99608899D01*
X119711224Y-99562369D01*
X119711220Y-99562366D01*
X119601083Y-99491585D01*
X119475464Y-99454700D01*
X119475462Y-99454700D01*
X119344538Y-99454700D01*
X119344535Y-99454700D01*
X119218916Y-99491585D01*
X119108779Y-99562366D01*
X119108776Y-99562368D01*
X119108776Y-99562369D01*
X119100419Y-99572014D01*
X119023040Y-99661312D01*
X119023037Y-99661317D01*
X118968652Y-99780402D01*
X118968652Y-99780404D01*
X118968651Y-99780406D01*
X118968651Y-99780408D01*
X118950018Y-99910000D01*
X117386768Y-99910000D01*
X117368389Y-99723397D01*
X117311042Y-99534350D01*
X117217916Y-99360122D01*
X117217913Y-99360118D01*
X117217910Y-99360114D01*
X117150690Y-99278206D01*
X117133624Y-99229680D01*
X117151744Y-99181537D01*
X117196570Y-99156304D01*
X117208820Y-99155300D01*
X117262550Y-99155300D01*
X117262553Y-99155300D01*
X117388174Y-99118414D01*
X117498315Y-99047631D01*
X117584052Y-98948685D01*
X117638440Y-98829592D01*
X117657073Y-98700000D01*
X117638440Y-98570408D01*
X117638438Y-98570403D01*
X117638438Y-98570402D01*
X117584053Y-98451317D01*
X117584050Y-98451312D01*
X117553998Y-98416631D01*
X117498315Y-98352369D01*
X117498311Y-98352366D01*
X117388174Y-98281585D01*
X117262555Y-98244700D01*
X117262553Y-98244700D01*
X117131629Y-98244700D01*
X117131626Y-98244700D01*
X117126305Y-98245466D01*
X117125884Y-98242544D01*
X117085269Y-98239907D01*
X117048089Y-98204358D01*
X117042458Y-98153228D01*
X117067808Y-98112927D01*
X117092589Y-98092589D01*
X117156220Y-98015055D01*
X117217916Y-97939878D01*
X117311042Y-97765650D01*
X117368389Y-97576603D01*
X117387753Y-97380000D01*
X117368389Y-97183397D01*
X117329531Y-97055300D01*
X117311044Y-96994356D01*
X117311043Y-96994352D01*
X117240156Y-96861731D01*
X117217916Y-96820122D01*
X117217913Y-96820118D01*
X117217910Y-96820114D01*
X117092589Y-96667410D01*
X116939885Y-96542089D01*
X116939881Y-96542086D01*
X116939879Y-96542085D01*
X116939878Y-96542084D01*
X116852764Y-96495521D01*
X116765647Y-96448956D01*
X116765643Y-96448955D01*
X116576600Y-96391610D01*
X116380000Y-96372247D01*
X116183400Y-96391610D01*
X116183398Y-96391610D01*
X115994356Y-96448955D01*
X115994352Y-96448956D01*
X115820118Y-96542086D01*
X115820114Y-96542089D01*
X115667410Y-96667410D01*
X115542089Y-96820114D01*
X115542086Y-96820118D01*
X115448956Y-96994352D01*
X115448955Y-96994356D01*
X115391610Y-97183398D01*
X115391610Y-97183400D01*
X115372247Y-97380000D01*
X110216418Y-97380000D01*
X110141083Y-97331585D01*
X110015464Y-97294700D01*
X110015462Y-97294700D01*
X109884538Y-97294700D01*
X109884535Y-97294700D01*
X109758916Y-97331585D01*
X109648779Y-97402366D01*
X109648776Y-97402368D01*
X109648776Y-97402369D01*
X109643547Y-97408404D01*
X109563040Y-97501312D01*
X109563037Y-97501317D01*
X109508652Y-97620402D01*
X109508652Y-97620404D01*
X109508651Y-97620406D01*
X109508651Y-97620408D01*
X109490018Y-97750000D01*
X109508651Y-97879592D01*
X109508651Y-97879593D01*
X109508652Y-97879595D01*
X109508652Y-97879597D01*
X109535701Y-97938826D01*
X109539778Y-97990104D01*
X109509940Y-98032006D01*
X109460148Y-98044924D01*
X109446112Y-98042219D01*
X109430043Y-98037501D01*
X109430041Y-98037500D01*
X109430039Y-98037500D01*
X109299115Y-98037500D01*
X109299112Y-98037500D01*
X109173493Y-98074385D01*
X109063356Y-98145166D01*
X108977617Y-98244112D01*
X108977614Y-98244117D01*
X108923229Y-98363202D01*
X108923229Y-98363204D01*
X108923228Y-98363206D01*
X108923228Y-98363208D01*
X108904595Y-98492800D01*
X102277587Y-98492800D01*
X102295930Y-98487414D01*
X102406071Y-98416631D01*
X102491808Y-98317685D01*
X102537371Y-98217916D01*
X102546194Y-98198597D01*
X102546194Y-98198596D01*
X102546196Y-98198592D01*
X102564829Y-98069000D01*
X102564828Y-98068997D01*
X102564829Y-98068996D01*
X102564829Y-98064478D01*
X102582422Y-98016140D01*
X102614133Y-97997832D01*
X105475732Y-97997832D01*
X105494365Y-98127424D01*
X105494365Y-98127425D01*
X105494366Y-98127427D01*
X105494366Y-98127429D01*
X105548751Y-98246514D01*
X105548754Y-98246519D01*
X105558759Y-98258065D01*
X105634490Y-98345463D01*
X105634492Y-98345464D01*
X105634493Y-98345465D01*
X105744630Y-98416246D01*
X105823884Y-98439517D01*
X105870252Y-98453132D01*
X105870255Y-98453132D01*
X106001173Y-98453132D01*
X106001176Y-98453132D01*
X106126797Y-98416246D01*
X106236938Y-98345463D01*
X106322675Y-98246517D01*
X106353473Y-98179078D01*
X106377061Y-98127429D01*
X106377061Y-98127428D01*
X106377063Y-98127424D01*
X106395696Y-97997832D01*
X106387975Y-97944135D01*
X106398510Y-97893787D01*
X106438945Y-97861989D01*
X106462410Y-97858234D01*
X106469629Y-97858234D01*
X106469632Y-97858234D01*
X106595253Y-97821348D01*
X106705394Y-97750565D01*
X106791131Y-97651619D01*
X106825392Y-97576599D01*
X106845517Y-97532531D01*
X106845517Y-97532530D01*
X106845519Y-97532526D01*
X106864152Y-97402934D01*
X106864151Y-97402931D01*
X106864152Y-97402930D01*
X106860524Y-97377700D01*
X106871058Y-97327351D01*
X106911492Y-97295552D01*
X106934958Y-97291797D01*
X106972128Y-97291797D01*
X106972131Y-97291797D01*
X107097752Y-97254911D01*
X107207893Y-97184128D01*
X107293630Y-97085182D01*
X107348018Y-96966089D01*
X107366651Y-96836497D01*
X107362755Y-96809401D01*
X107373291Y-96759053D01*
X107413725Y-96727255D01*
X107437190Y-96723500D01*
X107472521Y-96723500D01*
X107472524Y-96723500D01*
X107598145Y-96686614D01*
X107708286Y-96615831D01*
X107794023Y-96516885D01*
X107828868Y-96440585D01*
X107848409Y-96397797D01*
X107848409Y-96397796D01*
X107848411Y-96397792D01*
X107867044Y-96268200D01*
X107867044Y-96268197D01*
X107867044Y-96268196D01*
X107857555Y-96202203D01*
X107868089Y-96151853D01*
X107908524Y-96120055D01*
X107931989Y-96116300D01*
X108015459Y-96116300D01*
X108015462Y-96116300D01*
X108141083Y-96079414D01*
X108251224Y-96008631D01*
X108336961Y-95909685D01*
X108382876Y-95809145D01*
X108391347Y-95790597D01*
X108391347Y-95790596D01*
X108391349Y-95790592D01*
X108391434Y-95790000D01*
X109450018Y-95790000D01*
X109468651Y-95919592D01*
X109468651Y-95919593D01*
X109468652Y-95919595D01*
X109468652Y-95919597D01*
X109523037Y-96038682D01*
X109523040Y-96038687D01*
X109554463Y-96074951D01*
X109608776Y-96137631D01*
X109608778Y-96137632D01*
X109608779Y-96137633D01*
X109718916Y-96208414D01*
X109808282Y-96234654D01*
X109844538Y-96245300D01*
X109844541Y-96245300D01*
X109975459Y-96245300D01*
X109975462Y-96245300D01*
X110101083Y-96208414D01*
X110211224Y-96137631D01*
X110296961Y-96038685D01*
X110351349Y-95919592D01*
X110369982Y-95790000D01*
X110351349Y-95660408D01*
X110351347Y-95660404D01*
X110327604Y-95608414D01*
X110316884Y-95584942D01*
X125587100Y-95584942D01*
X125587100Y-98015055D01*
X125587101Y-98015057D01*
X125595972Y-98059659D01*
X125629764Y-98110232D01*
X125629765Y-98110232D01*
X125629766Y-98110234D01*
X125680342Y-98144028D01*
X125724943Y-98152900D01*
X128155056Y-98152899D01*
X128199658Y-98144028D01*
X128250234Y-98110234D01*
X128284028Y-98059658D01*
X128292900Y-98015057D01*
X128292900Y-96900000D01*
X137162247Y-96900000D01*
X137181610Y-97096599D01*
X137181610Y-97096601D01*
X137238955Y-97285643D01*
X137238956Y-97285647D01*
X137263511Y-97331586D01*
X137330347Y-97456629D01*
X137332086Y-97459881D01*
X137332089Y-97459885D01*
X137457410Y-97612589D01*
X137610114Y-97737910D01*
X137610118Y-97737913D01*
X137610122Y-97737916D01*
X137764281Y-97820315D01*
X137784352Y-97831043D01*
X137784356Y-97831044D01*
X137827593Y-97844159D01*
X137973397Y-97888389D01*
X138170000Y-97907753D01*
X138366603Y-97888389D01*
X138555650Y-97831042D01*
X138729878Y-97737916D01*
X138882589Y-97612589D01*
X139007916Y-97459878D01*
X139101042Y-97285650D01*
X139158389Y-97096603D01*
X139177753Y-96900000D01*
X139158389Y-96703397D01*
X139107203Y-96534659D01*
X139101044Y-96514356D01*
X139101043Y-96514352D01*
X139088056Y-96490055D01*
X139007916Y-96340122D01*
X139007913Y-96340118D01*
X139007910Y-96340114D01*
X138882589Y-96187410D01*
X138729885Y-96062089D01*
X138729881Y-96062086D01*
X138729879Y-96062085D01*
X138729878Y-96062084D01*
X138629874Y-96008631D01*
X138555647Y-95968956D01*
X138555643Y-95968955D01*
X138366600Y-95911610D01*
X138170000Y-95892247D01*
X137973400Y-95911610D01*
X137973398Y-95911610D01*
X137784356Y-95968955D01*
X137784352Y-95968956D01*
X137610118Y-96062086D01*
X137610114Y-96062089D01*
X137457410Y-96187410D01*
X137332089Y-96340114D01*
X137332086Y-96340118D01*
X137238956Y-96514352D01*
X137238955Y-96514356D01*
X137181610Y-96703398D01*
X137181610Y-96703400D01*
X137162247Y-96900000D01*
X128292900Y-96900000D01*
X128292899Y-95584944D01*
X128284028Y-95540342D01*
X128278058Y-95531408D01*
X128250235Y-95489767D01*
X128250231Y-95489764D01*
X128199658Y-95455972D01*
X128199656Y-95455971D01*
X128155057Y-95447100D01*
X125724944Y-95447100D01*
X125724942Y-95447101D01*
X125680340Y-95455972D01*
X125629767Y-95489764D01*
X125595972Y-95540342D01*
X125595971Y-95540343D01*
X125587100Y-95584942D01*
X110316884Y-95584942D01*
X110306773Y-95562802D01*
X110302697Y-95511526D01*
X110332535Y-95469624D01*
X110382325Y-95456704D01*
X110396364Y-95459410D01*
X110458420Y-95477631D01*
X110484538Y-95485300D01*
X110484541Y-95485300D01*
X110615459Y-95485300D01*
X110615462Y-95485300D01*
X110741083Y-95448414D01*
X110851224Y-95377631D01*
X110936961Y-95278685D01*
X110979830Y-95184816D01*
X110991347Y-95159597D01*
X110991347Y-95159596D01*
X110991349Y-95159592D01*
X111009982Y-95030000D01*
X111007106Y-95010000D01*
X119323818Y-95010000D01*
X119342451Y-95139592D01*
X119342451Y-95139593D01*
X119342452Y-95139595D01*
X119342452Y-95139597D01*
X119396837Y-95258682D01*
X119396840Y-95258687D01*
X119423769Y-95289764D01*
X119482576Y-95357631D01*
X119482578Y-95357632D01*
X119482579Y-95357633D01*
X119592716Y-95428414D01*
X119656355Y-95447100D01*
X119718338Y-95465300D01*
X119718341Y-95465300D01*
X119849259Y-95465300D01*
X119849262Y-95465300D01*
X119974883Y-95428414D01*
X120085024Y-95357631D01*
X120170761Y-95258685D01*
X120216014Y-95159595D01*
X120225147Y-95139597D01*
X120225147Y-95139596D01*
X120225149Y-95139592D01*
X120243782Y-95010000D01*
X120225149Y-94880408D01*
X120225147Y-94880403D01*
X120225147Y-94880402D01*
X120170762Y-94761317D01*
X120170759Y-94761312D01*
X120142484Y-94728682D01*
X120085024Y-94662369D01*
X120085020Y-94662366D01*
X119974883Y-94591585D01*
X119849264Y-94554700D01*
X119849262Y-94554700D01*
X119718338Y-94554700D01*
X119718335Y-94554700D01*
X119592716Y-94591585D01*
X119482579Y-94662366D01*
X119482576Y-94662368D01*
X119482576Y-94662369D01*
X119471891Y-94674700D01*
X119396840Y-94761312D01*
X119396837Y-94761317D01*
X119342452Y-94880402D01*
X119342452Y-94880404D01*
X119342451Y-94880406D01*
X119342451Y-94880408D01*
X119323818Y-95010000D01*
X111007106Y-95010000D01*
X110991349Y-94900408D01*
X110991347Y-94900403D01*
X110991347Y-94900402D01*
X110936962Y-94781317D01*
X110936959Y-94781312D01*
X110911258Y-94751652D01*
X110851224Y-94682369D01*
X110851220Y-94682366D01*
X110741083Y-94611585D01*
X110615464Y-94574700D01*
X110615462Y-94574700D01*
X110484538Y-94574700D01*
X110484535Y-94574700D01*
X110358916Y-94611585D01*
X110248779Y-94682366D01*
X110248776Y-94682368D01*
X110248776Y-94682369D01*
X110240496Y-94691925D01*
X110163040Y-94781312D01*
X110163037Y-94781317D01*
X110108652Y-94900402D01*
X110108652Y-94900404D01*
X110108651Y-94900406D01*
X110108651Y-94900408D01*
X110102769Y-94941317D01*
X110090018Y-95030000D01*
X110108651Y-95159594D01*
X110153225Y-95257195D01*
X110157302Y-95308473D01*
X110127464Y-95350375D01*
X110077673Y-95363295D01*
X110063635Y-95360589D01*
X109975464Y-95334700D01*
X109975462Y-95334700D01*
X109844538Y-95334700D01*
X109844535Y-95334700D01*
X109718916Y-95371585D01*
X109608779Y-95442366D01*
X109608776Y-95442368D01*
X109608776Y-95442369D01*
X109596990Y-95455971D01*
X109523040Y-95541312D01*
X109523037Y-95541317D01*
X109468652Y-95660402D01*
X109468652Y-95660404D01*
X109468652Y-95660405D01*
X109468651Y-95660408D01*
X109450018Y-95790000D01*
X108391434Y-95790000D01*
X108409982Y-95661000D01*
X108409340Y-95656536D01*
X108419872Y-95606188D01*
X108460305Y-95574388D01*
X108504957Y-95573678D01*
X108544538Y-95585300D01*
X108544541Y-95585300D01*
X108675459Y-95585300D01*
X108675462Y-95585300D01*
X108801083Y-95548414D01*
X108911224Y-95477631D01*
X108996961Y-95378685D01*
X109051349Y-95259592D01*
X109069982Y-95130000D01*
X109063664Y-95086059D01*
X109074198Y-95035711D01*
X109114632Y-95003912D01*
X109159283Y-95003203D01*
X109234538Y-95025300D01*
X109234541Y-95025300D01*
X109365459Y-95025300D01*
X109365462Y-95025300D01*
X109491083Y-94988414D01*
X109601224Y-94917631D01*
X109686961Y-94818685D01*
X109741349Y-94699592D01*
X109759982Y-94570000D01*
X109747067Y-94480179D01*
X133534500Y-94480179D01*
X133534500Y-95359820D01*
X133543232Y-95403720D01*
X133543233Y-95403722D01*
X133576495Y-95453504D01*
X133594150Y-95465300D01*
X133626278Y-95486767D01*
X133670180Y-95495500D01*
X134549820Y-95495500D01*
X134593722Y-95486767D01*
X134643504Y-95453504D01*
X134676767Y-95403722D01*
X134685500Y-95359820D01*
X134685500Y-94480180D01*
X134676767Y-94436278D01*
X134665728Y-94419758D01*
X134643504Y-94386495D01*
X134603850Y-94360000D01*
X137162247Y-94360000D01*
X137181610Y-94556599D01*
X137181610Y-94556601D01*
X137238955Y-94745643D01*
X137238956Y-94745647D01*
X137283488Y-94828960D01*
X137327409Y-94911132D01*
X137332086Y-94919881D01*
X137332089Y-94919885D01*
X137457410Y-95072589D01*
X137610114Y-95197910D01*
X137610118Y-95197913D01*
X137610122Y-95197916D01*
X137781948Y-95289758D01*
X137784352Y-95291043D01*
X137784356Y-95291044D01*
X137827593Y-95304159D01*
X137973397Y-95348389D01*
X138170000Y-95367753D01*
X138366603Y-95348389D01*
X138555650Y-95291042D01*
X138729878Y-95197916D01*
X138882589Y-95072589D01*
X139007916Y-94919878D01*
X139101042Y-94745650D01*
X139158389Y-94556603D01*
X139177753Y-94360000D01*
X139158389Y-94163397D01*
X139127006Y-94059942D01*
X144837100Y-94059942D01*
X144837100Y-96490055D01*
X144837101Y-96490057D01*
X144845972Y-96534659D01*
X144879764Y-96585232D01*
X144879765Y-96585232D01*
X144879766Y-96585234D01*
X144930342Y-96619028D01*
X144974943Y-96627900D01*
X147405056Y-96627899D01*
X147449658Y-96619028D01*
X147500234Y-96585234D01*
X147534028Y-96534658D01*
X147542900Y-96490057D01*
X147542899Y-94059944D01*
X147534028Y-94015342D01*
X147516884Y-93989685D01*
X147500235Y-93964767D01*
X147500231Y-93964764D01*
X147449658Y-93930972D01*
X147449656Y-93930971D01*
X147405057Y-93922100D01*
X144974944Y-93922100D01*
X144974942Y-93922101D01*
X144930340Y-93930972D01*
X144879767Y-93964764D01*
X144845972Y-94015342D01*
X144845971Y-94015343D01*
X144837100Y-94059942D01*
X139127006Y-94059942D01*
X139113476Y-94015340D01*
X139101044Y-93974356D01*
X139101043Y-93974352D01*
X139084292Y-93943013D01*
X139007916Y-93800122D01*
X139007913Y-93800118D01*
X139007910Y-93800114D01*
X138882589Y-93647410D01*
X138729885Y-93522089D01*
X138729881Y-93522086D01*
X138729879Y-93522085D01*
X138729878Y-93522084D01*
X138577072Y-93440408D01*
X138555647Y-93428956D01*
X138555643Y-93428955D01*
X138366600Y-93371610D01*
X138170000Y-93352247D01*
X137973400Y-93371610D01*
X137973398Y-93371610D01*
X137784356Y-93428955D01*
X137784352Y-93428956D01*
X137610118Y-93522086D01*
X137610114Y-93522089D01*
X137457410Y-93647410D01*
X137332089Y-93800114D01*
X137332086Y-93800118D01*
X137238956Y-93974352D01*
X137238955Y-93974356D01*
X137181610Y-94163398D01*
X137181610Y-94163400D01*
X137162247Y-94360000D01*
X134603850Y-94360000D01*
X134593722Y-94353233D01*
X134593720Y-94353232D01*
X134549820Y-94344500D01*
X133670180Y-94344500D01*
X133626279Y-94353232D01*
X133626277Y-94353233D01*
X133576495Y-94386495D01*
X133543233Y-94436277D01*
X133543232Y-94436279D01*
X133534500Y-94480179D01*
X109747067Y-94480179D01*
X109741349Y-94440408D01*
X109741347Y-94440403D01*
X109741347Y-94440402D01*
X109686962Y-94321317D01*
X109686959Y-94321312D01*
X109656530Y-94286196D01*
X109601224Y-94222369D01*
X109601220Y-94222366D01*
X109491083Y-94151585D01*
X109365464Y-94114700D01*
X109365462Y-94114700D01*
X109234538Y-94114700D01*
X109234535Y-94114700D01*
X109108916Y-94151585D01*
X108998779Y-94222366D01*
X108913040Y-94321312D01*
X108913037Y-94321317D01*
X108858652Y-94440402D01*
X108858652Y-94440404D01*
X108858651Y-94440406D01*
X108858651Y-94440408D01*
X108840018Y-94570000D01*
X108845997Y-94611586D01*
X108846336Y-94613940D01*
X108835800Y-94664289D01*
X108795366Y-94696087D01*
X108750715Y-94696796D01*
X108675464Y-94674700D01*
X108675462Y-94674700D01*
X108544538Y-94674700D01*
X108544535Y-94674700D01*
X108418916Y-94711585D01*
X108308779Y-94782366D01*
X108223040Y-94881312D01*
X108223037Y-94881317D01*
X108168652Y-95000402D01*
X108168652Y-95000404D01*
X108168651Y-95000406D01*
X108168651Y-95000408D01*
X108150018Y-95130000D01*
X108150018Y-95130001D01*
X108150660Y-95134467D01*
X108140123Y-95184816D01*
X108099688Y-95216613D01*
X108055039Y-95217321D01*
X108015464Y-95205700D01*
X108015462Y-95205700D01*
X107884538Y-95205700D01*
X107884535Y-95205700D01*
X107758916Y-95242585D01*
X107648779Y-95313366D01*
X107648776Y-95313368D01*
X107648776Y-95313369D01*
X107631610Y-95333179D01*
X107563040Y-95412312D01*
X107563037Y-95412317D01*
X107508652Y-95531402D01*
X107508652Y-95531404D01*
X107508651Y-95531406D01*
X107508651Y-95531408D01*
X107490660Y-95656538D01*
X107490018Y-95661002D01*
X107490018Y-95661003D01*
X107499507Y-95726997D01*
X107488973Y-95777347D01*
X107448538Y-95809145D01*
X107425073Y-95812900D01*
X107341597Y-95812900D01*
X107215978Y-95849785D01*
X107105841Y-95920566D01*
X107020102Y-96019512D01*
X107020099Y-96019517D01*
X106965714Y-96138602D01*
X106965714Y-96138604D01*
X106947080Y-96268200D01*
X106950976Y-96295295D01*
X106940440Y-96345644D01*
X106900006Y-96377442D01*
X106876541Y-96381197D01*
X106841204Y-96381197D01*
X106715585Y-96418082D01*
X106605448Y-96488863D01*
X106519709Y-96587809D01*
X106519706Y-96587814D01*
X106465321Y-96706899D01*
X106465321Y-96706901D01*
X106465320Y-96706903D01*
X106465320Y-96706905D01*
X106446688Y-96836496D01*
X106446687Y-96836500D01*
X106450315Y-96861731D01*
X106439781Y-96912080D01*
X106399347Y-96943879D01*
X106375881Y-96947634D01*
X106338705Y-96947634D01*
X106213086Y-96984519D01*
X106102949Y-97055300D01*
X106017210Y-97154246D01*
X106017207Y-97154251D01*
X105962822Y-97273336D01*
X105962822Y-97273338D01*
X105962821Y-97273340D01*
X105962821Y-97273342D01*
X105954447Y-97331585D01*
X105944189Y-97402930D01*
X105944188Y-97402934D01*
X105951908Y-97456630D01*
X105941374Y-97506979D01*
X105900939Y-97538777D01*
X105877474Y-97542532D01*
X105870249Y-97542532D01*
X105744630Y-97579417D01*
X105634493Y-97650198D01*
X105634490Y-97650200D01*
X105634490Y-97650201D01*
X105633260Y-97651621D01*
X105548754Y-97749144D01*
X105548751Y-97749149D01*
X105494366Y-97868234D01*
X105494366Y-97868236D01*
X105494365Y-97868238D01*
X105494365Y-97868240D01*
X105475732Y-97997832D01*
X102614133Y-97997832D01*
X102626971Y-97990420D01*
X102661217Y-97992325D01*
X102664538Y-97993300D01*
X102664541Y-97993300D01*
X102795459Y-97993300D01*
X102795462Y-97993300D01*
X102921083Y-97956414D01*
X103031224Y-97885631D01*
X103116961Y-97786685D01*
X103171349Y-97667592D01*
X103189982Y-97538000D01*
X103171349Y-97408408D01*
X103171348Y-97408406D01*
X103170583Y-97403084D01*
X103172518Y-97402805D01*
X103175283Y-97359345D01*
X103210783Y-97322119D01*
X103238957Y-97315521D01*
X103238892Y-97315065D01*
X103244107Y-97314315D01*
X103244172Y-97314300D01*
X103244213Y-97314300D01*
X103244216Y-97314300D01*
X103369837Y-97277414D01*
X103479978Y-97206631D01*
X103565715Y-97107685D01*
X103617471Y-96994356D01*
X103620101Y-96988597D01*
X103620101Y-96988596D01*
X103620103Y-96988592D01*
X103638736Y-96859000D01*
X103620103Y-96729408D01*
X103620101Y-96729403D01*
X103620101Y-96729402D01*
X103565716Y-96610317D01*
X103565713Y-96610312D01*
X103540012Y-96580652D01*
X103479978Y-96511369D01*
X103479974Y-96511366D01*
X103369837Y-96440585D01*
X103244218Y-96403700D01*
X103244216Y-96403700D01*
X103113292Y-96403700D01*
X103113289Y-96403700D01*
X102987670Y-96440585D01*
X102877533Y-96511366D01*
X102877530Y-96511368D01*
X102877530Y-96511369D01*
X102872749Y-96516887D01*
X102791794Y-96610312D01*
X102791791Y-96610317D01*
X102737406Y-96729402D01*
X102737406Y-96729404D01*
X102737405Y-96729406D01*
X102737405Y-96729408D01*
X102718772Y-96859000D01*
X102736819Y-96984519D01*
X102738171Y-96993916D01*
X102736235Y-96994194D01*
X102733471Y-97037655D01*
X102697971Y-97074881D01*
X102669796Y-97081478D01*
X102669862Y-97081935D01*
X102664646Y-97082684D01*
X102664582Y-97082700D01*
X102664535Y-97082700D01*
X102538916Y-97119585D01*
X102428779Y-97190366D01*
X102343040Y-97289312D01*
X102343037Y-97289317D01*
X102288652Y-97408402D01*
X102288652Y-97408404D01*
X102288651Y-97408406D01*
X102288651Y-97408408D01*
X102270018Y-97538000D01*
X102270018Y-97538002D01*
X102270018Y-97542521D01*
X102252425Y-97590859D01*
X102207876Y-97616579D01*
X102173638Y-97614677D01*
X102170313Y-97613701D01*
X102170311Y-97613700D01*
X102170309Y-97613700D01*
X102039385Y-97613700D01*
X102039382Y-97613700D01*
X101913763Y-97650585D01*
X101803626Y-97721366D01*
X101717887Y-97820312D01*
X101717884Y-97820317D01*
X101663499Y-97939402D01*
X101663499Y-97939404D01*
X101663498Y-97939406D01*
X101663498Y-97939408D01*
X101646208Y-98059659D01*
X101644865Y-98069002D01*
X101644865Y-98074378D01*
X101642142Y-98074378D01*
X101633701Y-98114814D01*
X101593281Y-98146630D01*
X101569783Y-98150396D01*
X101498179Y-98150396D01*
X101372560Y-98187281D01*
X101262423Y-98258062D01*
X101176684Y-98357008D01*
X101176681Y-98357013D01*
X101122296Y-98476098D01*
X101122296Y-98476100D01*
X101122295Y-98476102D01*
X101122295Y-98476104D01*
X101115365Y-98524300D01*
X101103662Y-98605695D01*
X101104626Y-98612398D01*
X101094090Y-98662748D01*
X101053655Y-98694545D01*
X101030191Y-98698300D01*
X100975535Y-98698300D01*
X100849916Y-98735185D01*
X100739779Y-98805966D01*
X100654040Y-98904912D01*
X100654037Y-98904917D01*
X100599652Y-99024002D01*
X100599652Y-99024004D01*
X100599651Y-99024006D01*
X100599651Y-99024008D01*
X100581018Y-99153600D01*
X96690500Y-99153600D01*
X96690500Y-96140000D01*
X104230018Y-96140000D01*
X104248651Y-96269592D01*
X104248651Y-96269593D01*
X104248652Y-96269595D01*
X104248652Y-96269597D01*
X104303037Y-96388682D01*
X104303040Y-96388687D01*
X104328512Y-96418083D01*
X104388776Y-96487631D01*
X104388778Y-96487632D01*
X104388779Y-96487633D01*
X104498916Y-96558414D01*
X104588282Y-96584654D01*
X104624538Y-96595300D01*
X104624541Y-96595300D01*
X104755459Y-96595300D01*
X104755462Y-96595300D01*
X104881083Y-96558414D01*
X104991224Y-96487631D01*
X105076961Y-96388685D01*
X105131349Y-96269592D01*
X105149982Y-96140000D01*
X105131349Y-96010408D01*
X105131347Y-96010403D01*
X105131347Y-96010402D01*
X105076962Y-95891317D01*
X105076959Y-95891312D01*
X105030564Y-95837770D01*
X104991224Y-95792369D01*
X104991220Y-95792366D01*
X104881083Y-95721585D01*
X104755464Y-95684700D01*
X104755462Y-95684700D01*
X104624538Y-95684700D01*
X104624535Y-95684700D01*
X104498916Y-95721585D01*
X104388779Y-95792366D01*
X104303040Y-95891312D01*
X104303037Y-95891317D01*
X104248652Y-96010402D01*
X104248652Y-96010404D01*
X104248651Y-96010406D01*
X104248651Y-96010408D01*
X104230018Y-96140000D01*
X96690500Y-96140000D01*
X96690500Y-95419356D01*
X99649374Y-95419356D01*
X99668007Y-95548948D01*
X99668007Y-95548949D01*
X99668008Y-95548951D01*
X99668008Y-95548953D01*
X99722393Y-95668038D01*
X99722396Y-95668043D01*
X99736830Y-95684700D01*
X99808132Y-95766987D01*
X99808134Y-95766988D01*
X99808135Y-95766989D01*
X99918272Y-95837770D01*
X99959195Y-95849786D01*
X100043894Y-95874656D01*
X100043897Y-95874656D01*
X100174815Y-95874656D01*
X100174818Y-95874656D01*
X100300439Y-95837770D01*
X100410580Y-95766987D01*
X100496317Y-95668041D01*
X100550705Y-95548948D01*
X100569338Y-95419356D01*
X100550705Y-95289764D01*
X100550703Y-95289759D01*
X100550703Y-95289758D01*
X100496318Y-95170673D01*
X100496315Y-95170668D01*
X100461073Y-95129997D01*
X100410580Y-95071725D01*
X100410576Y-95071722D01*
X100300439Y-95000941D01*
X100174820Y-94964056D01*
X100174818Y-94964056D01*
X100043894Y-94964056D01*
X100043891Y-94964056D01*
X99918272Y-95000941D01*
X99808135Y-95071722D01*
X99808132Y-95071724D01*
X99808132Y-95071725D01*
X99795711Y-95086060D01*
X99722396Y-95170668D01*
X99722393Y-95170673D01*
X99668008Y-95289758D01*
X99668008Y-95289760D01*
X99668007Y-95289762D01*
X99668007Y-95289764D01*
X99649374Y-95419356D01*
X96690500Y-95419356D01*
X96690500Y-94290644D01*
X99060662Y-94290644D01*
X99079295Y-94420236D01*
X99079295Y-94420237D01*
X99079296Y-94420239D01*
X99079296Y-94420241D01*
X99133681Y-94539326D01*
X99133684Y-94539331D01*
X99164332Y-94574700D01*
X99219420Y-94638275D01*
X99219422Y-94638276D01*
X99219423Y-94638277D01*
X99329560Y-94709058D01*
X99416889Y-94734700D01*
X99455182Y-94745944D01*
X99455185Y-94745944D01*
X99586103Y-94745944D01*
X99586106Y-94745944D01*
X99711727Y-94709058D01*
X99821868Y-94638275D01*
X99907605Y-94539329D01*
X99934700Y-94480000D01*
X100740018Y-94480000D01*
X100758651Y-94609592D01*
X100758651Y-94609593D01*
X100758652Y-94609595D01*
X100758652Y-94609597D01*
X100813037Y-94728682D01*
X100813040Y-94728687D01*
X100841310Y-94761312D01*
X100898776Y-94827631D01*
X100898778Y-94827632D01*
X100898779Y-94827633D01*
X101008916Y-94898414D01*
X101098282Y-94924654D01*
X101134538Y-94935300D01*
X101134541Y-94935300D01*
X101265459Y-94935300D01*
X101265462Y-94935300D01*
X101391083Y-94898414D01*
X101501224Y-94827631D01*
X101501228Y-94827626D01*
X101502307Y-94826692D01*
X101503243Y-94826333D01*
X101505749Y-94824724D01*
X101506085Y-94825247D01*
X101550357Y-94808328D01*
X101598970Y-94825146D01*
X101608392Y-94834273D01*
X101673977Y-94909963D01*
X101673978Y-94909964D01*
X101784117Y-94980745D01*
X101873483Y-95006985D01*
X101909739Y-95017631D01*
X101909742Y-95017631D01*
X102040660Y-95017631D01*
X102040663Y-95017631D01*
X102166284Y-94980745D01*
X102274604Y-94911131D01*
X102324779Y-94899799D01*
X102370501Y-94923370D01*
X102390375Y-94970816D01*
X102383665Y-95005632D01*
X102358651Y-95060405D01*
X102347266Y-95139592D01*
X102340018Y-95190000D01*
X102358651Y-95319592D01*
X102358651Y-95319593D01*
X102358652Y-95319595D01*
X102358652Y-95319597D01*
X102413037Y-95438682D01*
X102413040Y-95438687D01*
X102430997Y-95459410D01*
X102498776Y-95537631D01*
X102498778Y-95537632D01*
X102498779Y-95537633D01*
X102608916Y-95608414D01*
X102698282Y-95634654D01*
X102734538Y-95645300D01*
X102734541Y-95645300D01*
X102865459Y-95645300D01*
X102865462Y-95645300D01*
X102991083Y-95608414D01*
X103101224Y-95537631D01*
X103186961Y-95438685D01*
X103219355Y-95367752D01*
X103241347Y-95319597D01*
X103241347Y-95319596D01*
X103241349Y-95319592D01*
X103259982Y-95190000D01*
X103241349Y-95060408D01*
X103241347Y-95060403D01*
X103241347Y-95060402D01*
X103186962Y-94941317D01*
X103186959Y-94941312D01*
X103159794Y-94909963D01*
X103101224Y-94842369D01*
X103101220Y-94842366D01*
X102991083Y-94771585D01*
X102865464Y-94734700D01*
X102865462Y-94734700D01*
X102734538Y-94734700D01*
X102734535Y-94734700D01*
X102608919Y-94771584D01*
X102500596Y-94841199D01*
X102450420Y-94852531D01*
X102404698Y-94828960D01*
X102384825Y-94781514D01*
X102391536Y-94746696D01*
X102413048Y-94699592D01*
X102416550Y-94691923D01*
X102435183Y-94562331D01*
X102416550Y-94432739D01*
X102416548Y-94432734D01*
X102416548Y-94432733D01*
X102362163Y-94313648D01*
X102362160Y-94313643D01*
X102336459Y-94283983D01*
X102276425Y-94214700D01*
X102276421Y-94214697D01*
X102166284Y-94143916D01*
X102040665Y-94107031D01*
X102040663Y-94107031D01*
X101909739Y-94107031D01*
X101909736Y-94107031D01*
X101784117Y-94143916D01*
X101673974Y-94214700D01*
X101672881Y-94215648D01*
X101671942Y-94216006D01*
X101669452Y-94217607D01*
X101669116Y-94217085D01*
X101624827Y-94234002D01*
X101576218Y-94217173D01*
X101566809Y-94208057D01*
X101511230Y-94143917D01*
X101501224Y-94132369D01*
X101501223Y-94132368D01*
X101501221Y-94132366D01*
X101391083Y-94061585D01*
X101265464Y-94024700D01*
X101265462Y-94024700D01*
X101134538Y-94024700D01*
X101134535Y-94024700D01*
X101008916Y-94061585D01*
X100898779Y-94132366D01*
X100898776Y-94132368D01*
X100898776Y-94132369D01*
X100888770Y-94143917D01*
X100813040Y-94231312D01*
X100813037Y-94231317D01*
X100758652Y-94350402D01*
X100758652Y-94350404D01*
X100758651Y-94350406D01*
X100758651Y-94350408D01*
X100740018Y-94480000D01*
X99934700Y-94480000D01*
X99952783Y-94440404D01*
X99961991Y-94420241D01*
X99961991Y-94420240D01*
X99961993Y-94420236D01*
X99980626Y-94290644D01*
X99961993Y-94161052D01*
X99961991Y-94161047D01*
X99961991Y-94161046D01*
X99907606Y-94041961D01*
X99907603Y-94041956D01*
X99862309Y-93989685D01*
X99821868Y-93943013D01*
X99821864Y-93943010D01*
X99711727Y-93872229D01*
X99586108Y-93835344D01*
X99586106Y-93835344D01*
X99455182Y-93835344D01*
X99455179Y-93835344D01*
X99329560Y-93872229D01*
X99219423Y-93943010D01*
X99133684Y-94041956D01*
X99133681Y-94041961D01*
X99079296Y-94161046D01*
X99079296Y-94161048D01*
X99079295Y-94161050D01*
X99079295Y-94161052D01*
X99060662Y-94290644D01*
X96690500Y-94290644D01*
X96690500Y-93570000D01*
X98220018Y-93570000D01*
X98238651Y-93699592D01*
X98238651Y-93699593D01*
X98238652Y-93699595D01*
X98238652Y-93699597D01*
X98293037Y-93818682D01*
X98293040Y-93818687D01*
X98307474Y-93835344D01*
X98378776Y-93917631D01*
X98378778Y-93917632D01*
X98378779Y-93917633D01*
X98488916Y-93988414D01*
X98578282Y-94014654D01*
X98614538Y-94025300D01*
X98614541Y-94025300D01*
X98745459Y-94025300D01*
X98745462Y-94025300D01*
X98871083Y-93988414D01*
X98981224Y-93917631D01*
X99066961Y-93818685D01*
X99113111Y-93717631D01*
X99121347Y-93699597D01*
X99121347Y-93699596D01*
X99121349Y-93699592D01*
X99139982Y-93570000D01*
X99121349Y-93440408D01*
X99121347Y-93440403D01*
X99121347Y-93440402D01*
X99066962Y-93321317D01*
X99066959Y-93321312D01*
X99036100Y-93285700D01*
X98981224Y-93222369D01*
X98981220Y-93222366D01*
X98871083Y-93151585D01*
X98745464Y-93114700D01*
X98745462Y-93114700D01*
X98614538Y-93114700D01*
X98614535Y-93114700D01*
X98488916Y-93151585D01*
X98378779Y-93222366D01*
X98293040Y-93321312D01*
X98293037Y-93321317D01*
X98238652Y-93440402D01*
X98238652Y-93440404D01*
X98238651Y-93440406D01*
X98238651Y-93440408D01*
X98220018Y-93570000D01*
X96690500Y-93570000D01*
X96690500Y-93010000D01*
X99900018Y-93010000D01*
X99918651Y-93139592D01*
X99918651Y-93139593D01*
X99918652Y-93139595D01*
X99918652Y-93139597D01*
X99973037Y-93258682D01*
X99973040Y-93258687D01*
X100003663Y-93294027D01*
X100058776Y-93357631D01*
X100058778Y-93357632D01*
X100058779Y-93357633D01*
X100168916Y-93428414D01*
X100209764Y-93440408D01*
X100294538Y-93465300D01*
X100294541Y-93465300D01*
X100425459Y-93465300D01*
X100425462Y-93465300D01*
X100551083Y-93428414D01*
X100661224Y-93357631D01*
X100745822Y-93260000D01*
X101120018Y-93260000D01*
X101138651Y-93389592D01*
X101138651Y-93389593D01*
X101138652Y-93389595D01*
X101138652Y-93389597D01*
X101193037Y-93508682D01*
X101193040Y-93508687D01*
X101224463Y-93544951D01*
X101278776Y-93607631D01*
X101278778Y-93607632D01*
X101278779Y-93607633D01*
X101388916Y-93678414D01*
X101461042Y-93699592D01*
X101514538Y-93715300D01*
X101514541Y-93715300D01*
X101645459Y-93715300D01*
X101645462Y-93715300D01*
X101771083Y-93678414D01*
X101881224Y-93607631D01*
X101966961Y-93508685D01*
X102019624Y-93393369D01*
X102021347Y-93389597D01*
X102021347Y-93389596D01*
X102021349Y-93389592D01*
X102024166Y-93370000D01*
X113430018Y-93370000D01*
X113448651Y-93499592D01*
X113448651Y-93499593D01*
X113448652Y-93499595D01*
X113448652Y-93499597D01*
X113503037Y-93618682D01*
X113503040Y-93618687D01*
X113527929Y-93647410D01*
X113588776Y-93717631D01*
X113588778Y-93717632D01*
X113588779Y-93717633D01*
X113698916Y-93788414D01*
X113738790Y-93800122D01*
X113824538Y-93825300D01*
X113824541Y-93825300D01*
X113955459Y-93825300D01*
X113955462Y-93825300D01*
X114081083Y-93788414D01*
X114154861Y-93741000D01*
X134410018Y-93741000D01*
X134428651Y-93870592D01*
X134428651Y-93870593D01*
X134428652Y-93870595D01*
X134428652Y-93870597D01*
X134483037Y-93989682D01*
X134483040Y-93989687D01*
X134514463Y-94025951D01*
X134568776Y-94088631D01*
X134568778Y-94088632D01*
X134568779Y-94088633D01*
X134678916Y-94159414D01*
X134768282Y-94185654D01*
X134804538Y-94196300D01*
X134804541Y-94196300D01*
X134935459Y-94196300D01*
X134935462Y-94196300D01*
X135061083Y-94159414D01*
X135171224Y-94088631D01*
X135256961Y-93989685D01*
X135310601Y-93872230D01*
X135311347Y-93870597D01*
X135311347Y-93870596D01*
X135311349Y-93870592D01*
X135329982Y-93741000D01*
X135311349Y-93611408D01*
X135311347Y-93611403D01*
X135311347Y-93611402D01*
X135256962Y-93492317D01*
X135256959Y-93492312D01*
X135211978Y-93440402D01*
X135171224Y-93393369D01*
X135171220Y-93393366D01*
X135061083Y-93322585D01*
X134935464Y-93285700D01*
X134935462Y-93285700D01*
X134804538Y-93285700D01*
X134804535Y-93285700D01*
X134678916Y-93322585D01*
X134568779Y-93393366D01*
X134483040Y-93492312D01*
X134483037Y-93492317D01*
X134428652Y-93611402D01*
X134428652Y-93611404D01*
X134428651Y-93611406D01*
X134428651Y-93611408D01*
X134410018Y-93741000D01*
X114154861Y-93741000D01*
X114191224Y-93717631D01*
X114276961Y-93618685D01*
X114321077Y-93522084D01*
X114331347Y-93499597D01*
X114331347Y-93499596D01*
X114331349Y-93499592D01*
X114349982Y-93370000D01*
X114331349Y-93240408D01*
X114331347Y-93240403D01*
X114331347Y-93240402D01*
X114276962Y-93121317D01*
X114276959Y-93121312D01*
X114251258Y-93091652D01*
X114191224Y-93022369D01*
X114191220Y-93022366D01*
X114081083Y-92951585D01*
X113955464Y-92914700D01*
X113955462Y-92914700D01*
X113824538Y-92914700D01*
X113824535Y-92914700D01*
X113698916Y-92951585D01*
X113588779Y-93022366D01*
X113588776Y-93022368D01*
X113588776Y-93022369D01*
X113584215Y-93027633D01*
X113503040Y-93121312D01*
X113503037Y-93121317D01*
X113448652Y-93240402D01*
X113448652Y-93240404D01*
X113448651Y-93240406D01*
X113448651Y-93240408D01*
X113430018Y-93370000D01*
X102024166Y-93370000D01*
X102039982Y-93260000D01*
X102021349Y-93130408D01*
X102021347Y-93130403D01*
X102021347Y-93130402D01*
X101966962Y-93011317D01*
X101966959Y-93011312D01*
X101941258Y-92981652D01*
X101881224Y-92912369D01*
X101881220Y-92912366D01*
X101771083Y-92841585D01*
X101645464Y-92804700D01*
X101645462Y-92804700D01*
X101514538Y-92804700D01*
X101514535Y-92804700D01*
X101388916Y-92841585D01*
X101278779Y-92912366D01*
X101278776Y-92912368D01*
X101278776Y-92912369D01*
X101264641Y-92928682D01*
X101193040Y-93011312D01*
X101193037Y-93011317D01*
X101138652Y-93130402D01*
X101138652Y-93130404D01*
X101138651Y-93130406D01*
X101138651Y-93130408D01*
X101120018Y-93260000D01*
X100745822Y-93260000D01*
X100746961Y-93258685D01*
X100789720Y-93165056D01*
X100801347Y-93139597D01*
X100801347Y-93139596D01*
X100801349Y-93139592D01*
X100819982Y-93010000D01*
X100801349Y-92880408D01*
X100801347Y-92880403D01*
X100801347Y-92880402D01*
X100746962Y-92761317D01*
X100746959Y-92761312D01*
X100713488Y-92722685D01*
X100661224Y-92662369D01*
X100661220Y-92662366D01*
X100551083Y-92591585D01*
X100425464Y-92554700D01*
X100425462Y-92554700D01*
X100294538Y-92554700D01*
X100294535Y-92554700D01*
X100168916Y-92591585D01*
X100058779Y-92662366D01*
X99973040Y-92761312D01*
X99973037Y-92761317D01*
X99918652Y-92880402D01*
X99918652Y-92880404D01*
X99918651Y-92880406D01*
X99918651Y-92880408D01*
X99900018Y-93010000D01*
X96690500Y-93010000D01*
X96690500Y-91720000D01*
X100999534Y-91720000D01*
X101019313Y-91870237D01*
X101019384Y-91870408D01*
X101077302Y-92010233D01*
X101077303Y-92010235D01*
X101077304Y-92010236D01*
X101169548Y-92130451D01*
X101289763Y-92222695D01*
X101289767Y-92222698D01*
X101429764Y-92280687D01*
X101580000Y-92300466D01*
X101730236Y-92280687D01*
X101870233Y-92222698D01*
X101990451Y-92130451D01*
X102082698Y-92010233D01*
X102140687Y-91870236D01*
X102160466Y-91720000D01*
X102140687Y-91569764D01*
X102082698Y-91429767D01*
X102082695Y-91429763D01*
X102082695Y-91429762D01*
X102052607Y-91390552D01*
X102037138Y-91341493D01*
X102046040Y-91320000D01*
X103612818Y-91320000D01*
X103631451Y-91449592D01*
X103631451Y-91449593D01*
X103631452Y-91449595D01*
X103631452Y-91449597D01*
X103685837Y-91568682D01*
X103685840Y-91568687D01*
X103717263Y-91604951D01*
X103771576Y-91667631D01*
X103771578Y-91667632D01*
X103771579Y-91667633D01*
X103881716Y-91738414D01*
X103955558Y-91760096D01*
X104007338Y-91775300D01*
X104007341Y-91775300D01*
X104138259Y-91775300D01*
X104138262Y-91775300D01*
X104159955Y-91768930D01*
X104211290Y-91772191D01*
X104248520Y-91807687D01*
X104255577Y-91851785D01*
X104246042Y-91918100D01*
X104240018Y-91960000D01*
X104258651Y-92089592D01*
X104258651Y-92089593D01*
X104258652Y-92089595D01*
X104258652Y-92089597D01*
X104313037Y-92208682D01*
X104313040Y-92208687D01*
X104331159Y-92229597D01*
X104398776Y-92307631D01*
X104398778Y-92307632D01*
X104398779Y-92307633D01*
X104508916Y-92378414D01*
X104598282Y-92404654D01*
X104634538Y-92415300D01*
X104634541Y-92415300D01*
X104765459Y-92415300D01*
X104765462Y-92415300D01*
X104891083Y-92378414D01*
X105001224Y-92307631D01*
X105086961Y-92208685D01*
X105141349Y-92089592D01*
X105159982Y-91960000D01*
X105141349Y-91830408D01*
X105141347Y-91830403D01*
X105141347Y-91830402D01*
X105086962Y-91711317D01*
X105086959Y-91711312D01*
X105049110Y-91667633D01*
X105001224Y-91612369D01*
X105001220Y-91612366D01*
X104891083Y-91541585D01*
X104765464Y-91504700D01*
X104765462Y-91504700D01*
X104634538Y-91504700D01*
X104634535Y-91504700D01*
X104634533Y-91504701D01*
X104612842Y-91511070D01*
X104561506Y-91507807D01*
X104524278Y-91472309D01*
X104522757Y-91462800D01*
X109340018Y-91462800D01*
X109358651Y-91592392D01*
X109358651Y-91592393D01*
X109358652Y-91592395D01*
X109358652Y-91592397D01*
X109413037Y-91711482D01*
X109413040Y-91711487D01*
X109420417Y-91720000D01*
X109498776Y-91810431D01*
X109498778Y-91810432D01*
X109498779Y-91810433D01*
X109608916Y-91881214D01*
X109698282Y-91907454D01*
X109734538Y-91918100D01*
X109734541Y-91918100D01*
X109865459Y-91918100D01*
X109865462Y-91918100D01*
X109991083Y-91881214D01*
X110037612Y-91851312D01*
X110101220Y-91810434D01*
X110101220Y-91810433D01*
X110101224Y-91810431D01*
X110123169Y-91785104D01*
X110168117Y-91760096D01*
X110218628Y-91769830D01*
X110236829Y-91785102D01*
X110258776Y-91810431D01*
X110258779Y-91810434D01*
X110368916Y-91881214D01*
X110458282Y-91907454D01*
X110494538Y-91918100D01*
X110494541Y-91918100D01*
X110625459Y-91918100D01*
X110625462Y-91918100D01*
X110751083Y-91881214D01*
X110861224Y-91810431D01*
X110946961Y-91711485D01*
X111001349Y-91592392D01*
X111019982Y-91462800D01*
X111016311Y-91437269D01*
X111016798Y-91434942D01*
X115377100Y-91434942D01*
X115377100Y-93165055D01*
X115377101Y-93165057D01*
X115385972Y-93209659D01*
X115419764Y-93260232D01*
X115419765Y-93260232D01*
X115419766Y-93260234D01*
X115470342Y-93294028D01*
X115514943Y-93302900D01*
X117245056Y-93302899D01*
X117289658Y-93294028D01*
X117340234Y-93260234D01*
X117374028Y-93209658D01*
X117382900Y-93165057D01*
X117382900Y-92680000D01*
X118190018Y-92680000D01*
X118208651Y-92809592D01*
X118208651Y-92809593D01*
X118208652Y-92809595D01*
X118208652Y-92809597D01*
X118263037Y-92928682D01*
X118263040Y-92928687D01*
X118282882Y-92951585D01*
X118348776Y-93027631D01*
X118348778Y-93027632D01*
X118348779Y-93027633D01*
X118458916Y-93098414D01*
X118536900Y-93121312D01*
X118584538Y-93135300D01*
X118584541Y-93135300D01*
X118715459Y-93135300D01*
X118715462Y-93135300D01*
X118841083Y-93098414D01*
X118951224Y-93027631D01*
X119036961Y-92928685D01*
X119078917Y-92836814D01*
X119091347Y-92809597D01*
X119091347Y-92809596D01*
X119091349Y-92809592D01*
X119109982Y-92680000D01*
X119091349Y-92550408D01*
X119091347Y-92550403D01*
X119091347Y-92550402D01*
X119036962Y-92431317D01*
X119036959Y-92431312D01*
X118991122Y-92378414D01*
X118951224Y-92332369D01*
X118951220Y-92332366D01*
X118841083Y-92261585D01*
X118715464Y-92224700D01*
X118715462Y-92224700D01*
X118584538Y-92224700D01*
X118584535Y-92224700D01*
X118458916Y-92261585D01*
X118348779Y-92332366D01*
X118348776Y-92332368D01*
X118348776Y-92332369D01*
X118335550Y-92347633D01*
X118263040Y-92431312D01*
X118263037Y-92431317D01*
X118208652Y-92550402D01*
X118208652Y-92550404D01*
X118208651Y-92550406D01*
X118208651Y-92550408D01*
X118190018Y-92680000D01*
X117382900Y-92680000D01*
X117382899Y-91434944D01*
X117374028Y-91390342D01*
X117372072Y-91387415D01*
X117340235Y-91339767D01*
X117330410Y-91333202D01*
X117289658Y-91305972D01*
X117289656Y-91305971D01*
X117245057Y-91297100D01*
X115514944Y-91297100D01*
X115514942Y-91297101D01*
X115470340Y-91305972D01*
X115419767Y-91339764D01*
X115385972Y-91390342D01*
X115385971Y-91390343D01*
X115377100Y-91434942D01*
X111016798Y-91434942D01*
X111026845Y-91386921D01*
X111067278Y-91355122D01*
X111118692Y-91356753D01*
X111131401Y-91363304D01*
X111168919Y-91387415D01*
X111235814Y-91407057D01*
X111294538Y-91424300D01*
X111294541Y-91424300D01*
X111425459Y-91424300D01*
X111425462Y-91424300D01*
X111551083Y-91387414D01*
X111661224Y-91316631D01*
X111746961Y-91217685D01*
X111801349Y-91098592D01*
X111819982Y-90969000D01*
X111814518Y-90931000D01*
X113450018Y-90931000D01*
X113468651Y-91060592D01*
X113468651Y-91060593D01*
X113468652Y-91060595D01*
X113468652Y-91060597D01*
X113523037Y-91179682D01*
X113523040Y-91179687D01*
X113540536Y-91199878D01*
X113608776Y-91278631D01*
X113608778Y-91278632D01*
X113608779Y-91278633D01*
X113718916Y-91349414D01*
X113806252Y-91375058D01*
X113844538Y-91386300D01*
X113844541Y-91386300D01*
X113975459Y-91386300D01*
X113975462Y-91386300D01*
X114101083Y-91349414D01*
X114211224Y-91278631D01*
X114296961Y-91179685D01*
X114333995Y-91098592D01*
X114351347Y-91060597D01*
X114351347Y-91060596D01*
X114351349Y-91060592D01*
X114369982Y-90931000D01*
X114351349Y-90801408D01*
X114351347Y-90801403D01*
X114351347Y-90801402D01*
X114296962Y-90682317D01*
X114296959Y-90682312D01*
X114260295Y-90640000D01*
X114211224Y-90583369D01*
X114211220Y-90583366D01*
X114101083Y-90512585D01*
X113975464Y-90475700D01*
X113975462Y-90475700D01*
X113844538Y-90475700D01*
X113844535Y-90475700D01*
X113718916Y-90512585D01*
X113608779Y-90583366D01*
X113608776Y-90583368D01*
X113608776Y-90583369D01*
X113601891Y-90591315D01*
X113523040Y-90682312D01*
X113523037Y-90682317D01*
X113468652Y-90801402D01*
X113468652Y-90801404D01*
X113468651Y-90801406D01*
X113468651Y-90801408D01*
X113450018Y-90931000D01*
X111814518Y-90931000D01*
X111801349Y-90839408D01*
X111801347Y-90839403D01*
X111801347Y-90839402D01*
X111746962Y-90720317D01*
X111746959Y-90720312D01*
X111721258Y-90690652D01*
X111661224Y-90621369D01*
X111661220Y-90621366D01*
X111551083Y-90550585D01*
X111425464Y-90513700D01*
X111425462Y-90513700D01*
X111294538Y-90513700D01*
X111294535Y-90513700D01*
X111168916Y-90550585D01*
X111058779Y-90621366D01*
X110973040Y-90720312D01*
X110973037Y-90720317D01*
X110918652Y-90839402D01*
X110918652Y-90839404D01*
X110918651Y-90839406D01*
X110918651Y-90839408D01*
X110909826Y-90900787D01*
X110900018Y-90969000D01*
X110903689Y-90994530D01*
X110893153Y-91044879D01*
X110852719Y-91076677D01*
X110801305Y-91075045D01*
X110788599Y-91068495D01*
X110751082Y-91044385D01*
X110625464Y-91007500D01*
X110625462Y-91007500D01*
X110494538Y-91007500D01*
X110494535Y-91007500D01*
X110368916Y-91044385D01*
X110258779Y-91115166D01*
X110258776Y-91115168D01*
X110258776Y-91115169D01*
X110255273Y-91119212D01*
X110236832Y-91140494D01*
X110191881Y-91165503D01*
X110141371Y-91155768D01*
X110123168Y-91140494D01*
X110101224Y-91115169D01*
X110101220Y-91115166D01*
X109991083Y-91044385D01*
X109865464Y-91007500D01*
X109865462Y-91007500D01*
X109734538Y-91007500D01*
X109734535Y-91007500D01*
X109608916Y-91044385D01*
X109498779Y-91115166D01*
X109498776Y-91115168D01*
X109498776Y-91115169D01*
X109495273Y-91119212D01*
X109413040Y-91214112D01*
X109413037Y-91214117D01*
X109358652Y-91333202D01*
X109358652Y-91333204D01*
X109358651Y-91333206D01*
X109358651Y-91333208D01*
X109340018Y-91462800D01*
X104522757Y-91462800D01*
X104517223Y-91428213D01*
X104532782Y-91320003D01*
X104532782Y-91319996D01*
X104521383Y-91240722D01*
X104531917Y-91190372D01*
X104572351Y-91158574D01*
X104599160Y-91156230D01*
X104599160Y-91155300D01*
X104735459Y-91155300D01*
X104735462Y-91155300D01*
X104861083Y-91118414D01*
X104971224Y-91047631D01*
X105056961Y-90948685D01*
X105111349Y-90829592D01*
X105129982Y-90700000D01*
X105111349Y-90570408D01*
X105111347Y-90570403D01*
X105111347Y-90570402D01*
X105056962Y-90451317D01*
X105056959Y-90451312D01*
X105031200Y-90421585D01*
X104971224Y-90352369D01*
X104971220Y-90352366D01*
X104890117Y-90300244D01*
X105427157Y-90300244D01*
X105445790Y-90429836D01*
X105445790Y-90429837D01*
X105445791Y-90429839D01*
X105445791Y-90429841D01*
X105500176Y-90548926D01*
X105500179Y-90548931D01*
X105530018Y-90583366D01*
X105585915Y-90647875D01*
X105585917Y-90647876D01*
X105585918Y-90647877D01*
X105696055Y-90718658D01*
X105785421Y-90744898D01*
X105821677Y-90755544D01*
X105821680Y-90755544D01*
X105952598Y-90755544D01*
X105952601Y-90755544D01*
X106078222Y-90718658D01*
X106188363Y-90647875D01*
X106274100Y-90548929D01*
X106322294Y-90443400D01*
X106328486Y-90429841D01*
X106328486Y-90429840D01*
X106328488Y-90429836D01*
X106347121Y-90300244D01*
X106328488Y-90170652D01*
X106328486Y-90170647D01*
X106328486Y-90170646D01*
X106274101Y-90051561D01*
X106274098Y-90051556D01*
X106244701Y-90017631D01*
X106188363Y-89952613D01*
X106188359Y-89952610D01*
X106078222Y-89881829D01*
X105952603Y-89844944D01*
X105952601Y-89844944D01*
X105821677Y-89844944D01*
X105821674Y-89844944D01*
X105696055Y-89881829D01*
X105585918Y-89952610D01*
X105500179Y-90051556D01*
X105500176Y-90051561D01*
X105445791Y-90170646D01*
X105445791Y-90170648D01*
X105445790Y-90170650D01*
X105445790Y-90170652D01*
X105427157Y-90300244D01*
X104890117Y-90300244D01*
X104861083Y-90281585D01*
X104735464Y-90244700D01*
X104735462Y-90244700D01*
X104604538Y-90244700D01*
X104604535Y-90244700D01*
X104478916Y-90281585D01*
X104368779Y-90352366D01*
X104283040Y-90451312D01*
X104283037Y-90451317D01*
X104228652Y-90570402D01*
X104228652Y-90570404D01*
X104228651Y-90570406D01*
X104228651Y-90570408D01*
X104210018Y-90700000D01*
X104211713Y-90711792D01*
X104221417Y-90779278D01*
X104210881Y-90829627D01*
X104170447Y-90861425D01*
X104143640Y-90863772D01*
X104143640Y-90864700D01*
X104007335Y-90864700D01*
X103881716Y-90901585D01*
X103771579Y-90972366D01*
X103685840Y-91071312D01*
X103685837Y-91071317D01*
X103631452Y-91190402D01*
X103631452Y-91190404D01*
X103631451Y-91190406D01*
X103631451Y-91190408D01*
X103612818Y-91320000D01*
X102046040Y-91320000D01*
X102056822Y-91293969D01*
X102070481Y-91282250D01*
X102113504Y-91253504D01*
X102146767Y-91203722D01*
X102155500Y-91159820D01*
X102155500Y-90280180D01*
X102146767Y-90236278D01*
X102135728Y-90219758D01*
X102113504Y-90186495D01*
X102063722Y-90153233D01*
X102063720Y-90153232D01*
X102019820Y-90144500D01*
X101140180Y-90144500D01*
X101096279Y-90153232D01*
X101096277Y-90153233D01*
X101046495Y-90186495D01*
X101013233Y-90236277D01*
X101013232Y-90236279D01*
X101004500Y-90280179D01*
X101004500Y-91159820D01*
X101013232Y-91203720D01*
X101013233Y-91203722D01*
X101046495Y-91253504D01*
X101053844Y-91258414D01*
X101089511Y-91282245D01*
X101119928Y-91323728D01*
X101116565Y-91375058D01*
X101107393Y-91390551D01*
X101077304Y-91429763D01*
X101077302Y-91429766D01*
X101077302Y-91429767D01*
X101063619Y-91462800D01*
X101019313Y-91569762D01*
X100999534Y-91720000D01*
X96690500Y-91720000D01*
X96690500Y-91059426D01*
X99229444Y-91059426D01*
X99248077Y-91189018D01*
X99248077Y-91189019D01*
X99248078Y-91189021D01*
X99248078Y-91189023D01*
X99302463Y-91308108D01*
X99302466Y-91308113D01*
X99329892Y-91339764D01*
X99388202Y-91407057D01*
X99388204Y-91407058D01*
X99388205Y-91407059D01*
X99498342Y-91477840D01*
X99587708Y-91504080D01*
X99623964Y-91514726D01*
X99623967Y-91514726D01*
X99754885Y-91514726D01*
X99754888Y-91514726D01*
X99880509Y-91477840D01*
X99990650Y-91407057D01*
X100076387Y-91308111D01*
X100125814Y-91199881D01*
X100130773Y-91189023D01*
X100130773Y-91189022D01*
X100130775Y-91189018D01*
X100149408Y-91059426D01*
X100130775Y-90929834D01*
X100130773Y-90929829D01*
X100130773Y-90929828D01*
X100076388Y-90810743D01*
X100076385Y-90810738D01*
X100049124Y-90779278D01*
X99990650Y-90711795D01*
X99990646Y-90711792D01*
X99880509Y-90641011D01*
X99754890Y-90604126D01*
X99754888Y-90604126D01*
X99623964Y-90604126D01*
X99623961Y-90604126D01*
X99498342Y-90641011D01*
X99388205Y-90711792D01*
X99388202Y-90711794D01*
X99388202Y-90711795D01*
X99380818Y-90720317D01*
X99302466Y-90810738D01*
X99302463Y-90810743D01*
X99248078Y-90929828D01*
X99248078Y-90929830D01*
X99248077Y-90929832D01*
X99248077Y-90929834D01*
X99229444Y-91059426D01*
X96690500Y-91059426D01*
X96690500Y-89627400D01*
X104150018Y-89627400D01*
X104168651Y-89756992D01*
X104168651Y-89756993D01*
X104168652Y-89756995D01*
X104168652Y-89756997D01*
X104223037Y-89876082D01*
X104223040Y-89876087D01*
X104254463Y-89912351D01*
X104308776Y-89975031D01*
X104308778Y-89975032D01*
X104308779Y-89975033D01*
X104418916Y-90045814D01*
X104438482Y-90051559D01*
X104544538Y-90082700D01*
X104544541Y-90082700D01*
X104675459Y-90082700D01*
X104675462Y-90082700D01*
X104801083Y-90045814D01*
X104911224Y-89975031D01*
X104996961Y-89876085D01*
X105051349Y-89756992D01*
X105069982Y-89627400D01*
X107210018Y-89627400D01*
X107228651Y-89756992D01*
X107228651Y-89756993D01*
X107228652Y-89756995D01*
X107228652Y-89756997D01*
X107283037Y-89876082D01*
X107283040Y-89876087D01*
X107314463Y-89912351D01*
X107368776Y-89975031D01*
X107368778Y-89975032D01*
X107368779Y-89975033D01*
X107478916Y-90045814D01*
X107498482Y-90051559D01*
X107604538Y-90082700D01*
X107604541Y-90082700D01*
X107735459Y-90082700D01*
X107735462Y-90082700D01*
X107861083Y-90045814D01*
X107971224Y-89975031D01*
X108056961Y-89876085D01*
X108111349Y-89756992D01*
X108129982Y-89627400D01*
X108470018Y-89627400D01*
X108488651Y-89756992D01*
X108488651Y-89756993D01*
X108488652Y-89756995D01*
X108488652Y-89756997D01*
X108543037Y-89876082D01*
X108543040Y-89876087D01*
X108574463Y-89912351D01*
X108628776Y-89975031D01*
X108628778Y-89975032D01*
X108628779Y-89975033D01*
X108738916Y-90045814D01*
X108758482Y-90051559D01*
X108864538Y-90082700D01*
X108864541Y-90082700D01*
X108995459Y-90082700D01*
X108995462Y-90082700D01*
X109121083Y-90045814D01*
X109231224Y-89975031D01*
X109316961Y-89876085D01*
X109371349Y-89756992D01*
X109389982Y-89627400D01*
X109371349Y-89497808D01*
X109371347Y-89497803D01*
X109371347Y-89497802D01*
X109316962Y-89378717D01*
X109316959Y-89378712D01*
X109285464Y-89342366D01*
X109231224Y-89279769D01*
X109231220Y-89279766D01*
X109121083Y-89208985D01*
X108995464Y-89172100D01*
X108995462Y-89172100D01*
X108864538Y-89172100D01*
X108864535Y-89172100D01*
X108738916Y-89208985D01*
X108628779Y-89279766D01*
X108543040Y-89378712D01*
X108543037Y-89378717D01*
X108488652Y-89497802D01*
X108488652Y-89497804D01*
X108488651Y-89497806D01*
X108488651Y-89497808D01*
X108470018Y-89627400D01*
X108129982Y-89627400D01*
X108111349Y-89497808D01*
X108111347Y-89497803D01*
X108111347Y-89497802D01*
X108056962Y-89378717D01*
X108056959Y-89378712D01*
X108025464Y-89342366D01*
X107971224Y-89279769D01*
X107971220Y-89279766D01*
X107861083Y-89208985D01*
X107735464Y-89172100D01*
X107735462Y-89172100D01*
X107604538Y-89172100D01*
X107604535Y-89172100D01*
X107478916Y-89208985D01*
X107368779Y-89279766D01*
X107283040Y-89378712D01*
X107283037Y-89378717D01*
X107228652Y-89497802D01*
X107228652Y-89497804D01*
X107228651Y-89497806D01*
X107228651Y-89497808D01*
X107210018Y-89627400D01*
X105069982Y-89627400D01*
X105051349Y-89497808D01*
X105051347Y-89497803D01*
X105051347Y-89497802D01*
X104996962Y-89378717D01*
X104996959Y-89378712D01*
X104965464Y-89342366D01*
X104911224Y-89279769D01*
X104911220Y-89279766D01*
X104801083Y-89208985D01*
X104675464Y-89172100D01*
X104675462Y-89172100D01*
X104544538Y-89172100D01*
X104544535Y-89172100D01*
X104418916Y-89208985D01*
X104308779Y-89279766D01*
X104223040Y-89378712D01*
X104223037Y-89378717D01*
X104168652Y-89497802D01*
X104168652Y-89497804D01*
X104168651Y-89497806D01*
X104168651Y-89497808D01*
X104150018Y-89627400D01*
X96690500Y-89627400D01*
X96690500Y-85280000D01*
X97032251Y-85280000D01*
X97051628Y-85600357D01*
X97109477Y-85916030D01*
X97109480Y-85916044D01*
X97189708Y-86173500D01*
X97204962Y-86222451D01*
X97336680Y-86515118D01*
X97502715Y-86789774D01*
X97502718Y-86789778D01*
X97502720Y-86789781D01*
X97502725Y-86789788D01*
X97700641Y-87042409D01*
X97700652Y-87042421D01*
X97927578Y-87269347D01*
X97927590Y-87269358D01*
X98180211Y-87467274D01*
X98180218Y-87467279D01*
X98180226Y-87467285D01*
X98454882Y-87633320D01*
X98747549Y-87765038D01*
X98960092Y-87831269D01*
X99053955Y-87860519D01*
X99053957Y-87860519D01*
X99053959Y-87860520D01*
X99053963Y-87860520D01*
X99053969Y-87860522D01*
X99369644Y-87918371D01*
X99369640Y-87918371D01*
X99432052Y-87922145D01*
X99690000Y-87937749D01*
X99992084Y-87919476D01*
X100010357Y-87918371D01*
X100326030Y-87860522D01*
X100326029Y-87860522D01*
X100326041Y-87860520D01*
X100632451Y-87765038D01*
X100925118Y-87633320D01*
X101199774Y-87467285D01*
X101452414Y-87269354D01*
X101679354Y-87042414D01*
X101877285Y-86789774D01*
X102043320Y-86515118D01*
X102175038Y-86222451D01*
X102270520Y-85916041D01*
X102311359Y-85693188D01*
X102312870Y-85684942D01*
X103562100Y-85684942D01*
X103562100Y-87415055D01*
X103562101Y-87415057D01*
X103570972Y-87459659D01*
X103604764Y-87510232D01*
X103604765Y-87510232D01*
X103604766Y-87510234D01*
X103655342Y-87544028D01*
X103699943Y-87552900D01*
X105430056Y-87552899D01*
X105474658Y-87544028D01*
X105525234Y-87510234D01*
X105559028Y-87459658D01*
X105567900Y-87415057D01*
X105567899Y-86550000D01*
X106097247Y-86550000D01*
X106116610Y-86746599D01*
X106116610Y-86746601D01*
X106173955Y-86935643D01*
X106173956Y-86935647D01*
X106173958Y-86935650D01*
X106264779Y-87105566D01*
X106267086Y-87109881D01*
X106267089Y-87109885D01*
X106392410Y-87262589D01*
X106545114Y-87387910D01*
X106545118Y-87387913D01*
X106545122Y-87387916D01*
X106719350Y-87481042D01*
X106719352Y-87481043D01*
X106719356Y-87481044D01*
X106762593Y-87494159D01*
X106908397Y-87538389D01*
X107105000Y-87557753D01*
X107301603Y-87538389D01*
X107490650Y-87481042D01*
X107664878Y-87387916D01*
X107817589Y-87262589D01*
X107942916Y-87109878D01*
X108036042Y-86935650D01*
X108093389Y-86746603D01*
X108112753Y-86550000D01*
X108637247Y-86550000D01*
X108656610Y-86746599D01*
X108656610Y-86746601D01*
X108713955Y-86935643D01*
X108713956Y-86935647D01*
X108713958Y-86935650D01*
X108804779Y-87105566D01*
X108807086Y-87109881D01*
X108807089Y-87109885D01*
X108932410Y-87262589D01*
X109085114Y-87387910D01*
X109085118Y-87387913D01*
X109085122Y-87387916D01*
X109259350Y-87481042D01*
X109259352Y-87481043D01*
X109259356Y-87481044D01*
X109302593Y-87494159D01*
X109448397Y-87538389D01*
X109645000Y-87557753D01*
X109841603Y-87538389D01*
X110030650Y-87481042D01*
X110204878Y-87387916D01*
X110357589Y-87262589D01*
X110482916Y-87109878D01*
X110576042Y-86935650D01*
X110633389Y-86746603D01*
X110652753Y-86550000D01*
X111177247Y-86550000D01*
X111196610Y-86746599D01*
X111196610Y-86746601D01*
X111253955Y-86935643D01*
X111253956Y-86935647D01*
X111253958Y-86935650D01*
X111344779Y-87105566D01*
X111347086Y-87109881D01*
X111347089Y-87109885D01*
X111472410Y-87262589D01*
X111625114Y-87387910D01*
X111625118Y-87387913D01*
X111625122Y-87387916D01*
X111799350Y-87481042D01*
X111799352Y-87481043D01*
X111799356Y-87481044D01*
X111842593Y-87494159D01*
X111988397Y-87538389D01*
X112185000Y-87557753D01*
X112381603Y-87538389D01*
X112570650Y-87481042D01*
X112744878Y-87387916D01*
X112897589Y-87262589D01*
X113022916Y-87109878D01*
X113116042Y-86935650D01*
X113173389Y-86746603D01*
X113192753Y-86550000D01*
X116257247Y-86550000D01*
X116276610Y-86746599D01*
X116276610Y-86746601D01*
X116333955Y-86935643D01*
X116333956Y-86935647D01*
X116333958Y-86935650D01*
X116424779Y-87105566D01*
X116427086Y-87109881D01*
X116427089Y-87109885D01*
X116552410Y-87262589D01*
X116705114Y-87387910D01*
X116705118Y-87387913D01*
X116705122Y-87387916D01*
X116879350Y-87481042D01*
X116879352Y-87481043D01*
X116879356Y-87481044D01*
X116922593Y-87494159D01*
X117068397Y-87538389D01*
X117265000Y-87557753D01*
X117461603Y-87538389D01*
X117650650Y-87481042D01*
X117824878Y-87387916D01*
X117977589Y-87262589D01*
X118102916Y-87109878D01*
X118196042Y-86935650D01*
X118253389Y-86746603D01*
X118272753Y-86550000D01*
X118797247Y-86550000D01*
X118816610Y-86746599D01*
X118816610Y-86746601D01*
X118873955Y-86935643D01*
X118873956Y-86935647D01*
X118873958Y-86935650D01*
X118964779Y-87105566D01*
X118967086Y-87109881D01*
X118967089Y-87109885D01*
X119092410Y-87262589D01*
X119245114Y-87387910D01*
X119245118Y-87387913D01*
X119245122Y-87387916D01*
X119419350Y-87481042D01*
X119419352Y-87481043D01*
X119419356Y-87481044D01*
X119462593Y-87494159D01*
X119608397Y-87538389D01*
X119805000Y-87557753D01*
X120001603Y-87538389D01*
X120190650Y-87481042D01*
X120364878Y-87387916D01*
X120517589Y-87262589D01*
X120642916Y-87109878D01*
X120736042Y-86935650D01*
X120793389Y-86746603D01*
X120812753Y-86550000D01*
X121337247Y-86550000D01*
X121356610Y-86746599D01*
X121356610Y-86746601D01*
X121413955Y-86935643D01*
X121413956Y-86935647D01*
X121413958Y-86935650D01*
X121504779Y-87105566D01*
X121507086Y-87109881D01*
X121507089Y-87109885D01*
X121632410Y-87262589D01*
X121785114Y-87387910D01*
X121785118Y-87387913D01*
X121785122Y-87387916D01*
X121959350Y-87481042D01*
X121959352Y-87481043D01*
X121959356Y-87481044D01*
X122002593Y-87494159D01*
X122148397Y-87538389D01*
X122345000Y-87557753D01*
X122541603Y-87538389D01*
X122730650Y-87481042D01*
X122904878Y-87387916D01*
X123057589Y-87262589D01*
X123182916Y-87109878D01*
X123276042Y-86935650D01*
X123333389Y-86746603D01*
X123352753Y-86550000D01*
X123333389Y-86353397D01*
X123276042Y-86164350D01*
X123182916Y-85990122D01*
X123182913Y-85990118D01*
X123182910Y-85990114D01*
X123057589Y-85837410D01*
X122904885Y-85712089D01*
X122904881Y-85712086D01*
X122904879Y-85712085D01*
X122904878Y-85712084D01*
X122770657Y-85640342D01*
X122730647Y-85618956D01*
X122730643Y-85618955D01*
X122541600Y-85561610D01*
X122345000Y-85542247D01*
X122148400Y-85561610D01*
X122148398Y-85561610D01*
X121959356Y-85618955D01*
X121959352Y-85618956D01*
X121785118Y-85712086D01*
X121785114Y-85712089D01*
X121632410Y-85837410D01*
X121507089Y-85990114D01*
X121507086Y-85990118D01*
X121413956Y-86164352D01*
X121413955Y-86164356D01*
X121356610Y-86353398D01*
X121356610Y-86353400D01*
X121337247Y-86550000D01*
X120812753Y-86550000D01*
X120793389Y-86353397D01*
X120736042Y-86164350D01*
X120642916Y-85990122D01*
X120642913Y-85990118D01*
X120642910Y-85990114D01*
X120517589Y-85837410D01*
X120364885Y-85712089D01*
X120364881Y-85712086D01*
X120364879Y-85712085D01*
X120364878Y-85712084D01*
X120230657Y-85640342D01*
X120190647Y-85618956D01*
X120190643Y-85618955D01*
X120001600Y-85561610D01*
X119805000Y-85542247D01*
X119608400Y-85561610D01*
X119608398Y-85561610D01*
X119419356Y-85618955D01*
X119419352Y-85618956D01*
X119245118Y-85712086D01*
X119245114Y-85712089D01*
X119092410Y-85837410D01*
X118967089Y-85990114D01*
X118967086Y-85990118D01*
X118873956Y-86164352D01*
X118873955Y-86164356D01*
X118816610Y-86353398D01*
X118816610Y-86353400D01*
X118797247Y-86550000D01*
X118272753Y-86550000D01*
X118253389Y-86353397D01*
X118196042Y-86164350D01*
X118102916Y-85990122D01*
X118102913Y-85990118D01*
X118102910Y-85990114D01*
X117977589Y-85837410D01*
X117824885Y-85712089D01*
X117824881Y-85712086D01*
X117824879Y-85712085D01*
X117824878Y-85712084D01*
X117690657Y-85640342D01*
X117650647Y-85618956D01*
X117650643Y-85618955D01*
X117461600Y-85561610D01*
X117265000Y-85542247D01*
X117068400Y-85561610D01*
X117068398Y-85561610D01*
X116879356Y-85618955D01*
X116879352Y-85618956D01*
X116705118Y-85712086D01*
X116705114Y-85712089D01*
X116552410Y-85837410D01*
X116427089Y-85990114D01*
X116427086Y-85990118D01*
X116333956Y-86164352D01*
X116333955Y-86164356D01*
X116276610Y-86353398D01*
X116276610Y-86353400D01*
X116257247Y-86550000D01*
X113192753Y-86550000D01*
X113173389Y-86353397D01*
X113116042Y-86164350D01*
X113022916Y-85990122D01*
X113022913Y-85990118D01*
X113022910Y-85990114D01*
X112897589Y-85837410D01*
X112744885Y-85712089D01*
X112744881Y-85712086D01*
X112744879Y-85712085D01*
X112744878Y-85712084D01*
X112610657Y-85640342D01*
X112570647Y-85618956D01*
X112570643Y-85618955D01*
X112381600Y-85561610D01*
X112185000Y-85542247D01*
X111988400Y-85561610D01*
X111988398Y-85561610D01*
X111799356Y-85618955D01*
X111799352Y-85618956D01*
X111625118Y-85712086D01*
X111625114Y-85712089D01*
X111472410Y-85837410D01*
X111347089Y-85990114D01*
X111347086Y-85990118D01*
X111253956Y-86164352D01*
X111253955Y-86164356D01*
X111196610Y-86353398D01*
X111196610Y-86353400D01*
X111177247Y-86550000D01*
X110652753Y-86550000D01*
X110633389Y-86353397D01*
X110576042Y-86164350D01*
X110482916Y-85990122D01*
X110482913Y-85990118D01*
X110482910Y-85990114D01*
X110357589Y-85837410D01*
X110204885Y-85712089D01*
X110204881Y-85712086D01*
X110204879Y-85712085D01*
X110204878Y-85712084D01*
X110070657Y-85640342D01*
X110030647Y-85618956D01*
X110030643Y-85618955D01*
X109841600Y-85561610D01*
X109645000Y-85542247D01*
X109448400Y-85561610D01*
X109448398Y-85561610D01*
X109259356Y-85618955D01*
X109259352Y-85618956D01*
X109085118Y-85712086D01*
X109085114Y-85712089D01*
X108932410Y-85837410D01*
X108807089Y-85990114D01*
X108807086Y-85990118D01*
X108713956Y-86164352D01*
X108713955Y-86164356D01*
X108656610Y-86353398D01*
X108656610Y-86353400D01*
X108637247Y-86550000D01*
X108112753Y-86550000D01*
X108093389Y-86353397D01*
X108036042Y-86164350D01*
X107942916Y-85990122D01*
X107942913Y-85990118D01*
X107942910Y-85990114D01*
X107817589Y-85837410D01*
X107664885Y-85712089D01*
X107664881Y-85712086D01*
X107664879Y-85712085D01*
X107664878Y-85712084D01*
X107530657Y-85640342D01*
X107490647Y-85618956D01*
X107490643Y-85618955D01*
X107301600Y-85561610D01*
X107105000Y-85542247D01*
X106908400Y-85561610D01*
X106908398Y-85561610D01*
X106719356Y-85618955D01*
X106719352Y-85618956D01*
X106545118Y-85712086D01*
X106545114Y-85712089D01*
X106392410Y-85837410D01*
X106267089Y-85990114D01*
X106267086Y-85990118D01*
X106173956Y-86164352D01*
X106173955Y-86164356D01*
X106116610Y-86353398D01*
X106116610Y-86353400D01*
X106097247Y-86550000D01*
X105567899Y-86550000D01*
X105567899Y-85684944D01*
X105559028Y-85640342D01*
X105544738Y-85618956D01*
X105525235Y-85589767D01*
X105525231Y-85589764D01*
X105474658Y-85555972D01*
X105474656Y-85555971D01*
X105430057Y-85547100D01*
X103699944Y-85547100D01*
X103699942Y-85547101D01*
X103655340Y-85555972D01*
X103604767Y-85589764D01*
X103570972Y-85640342D01*
X103570971Y-85640343D01*
X103562100Y-85684942D01*
X102312870Y-85684942D01*
X102328371Y-85600357D01*
X102331692Y-85545452D01*
X102347749Y-85280000D01*
X102328371Y-84959644D01*
X102326678Y-84950408D01*
X102270522Y-84643969D01*
X102270519Y-84643955D01*
X102241269Y-84550092D01*
X102175038Y-84337549D01*
X102043320Y-84044882D01*
X102022233Y-84010000D01*
X103557247Y-84010000D01*
X103576610Y-84206599D01*
X103576610Y-84206601D01*
X103633955Y-84395643D01*
X103633956Y-84395647D01*
X103727086Y-84569881D01*
X103727089Y-84569885D01*
X103852410Y-84722589D01*
X104005114Y-84847910D01*
X104005118Y-84847913D01*
X104005122Y-84847916D01*
X104179350Y-84941042D01*
X104179352Y-84941043D01*
X104179356Y-84941044D01*
X104210212Y-84950404D01*
X104368397Y-84998389D01*
X104565000Y-85017753D01*
X104761603Y-84998389D01*
X104950650Y-84941042D01*
X105124878Y-84847916D01*
X105277589Y-84722589D01*
X105402916Y-84569878D01*
X105496042Y-84395650D01*
X105553389Y-84206603D01*
X105572753Y-84010000D01*
X106097247Y-84010000D01*
X106116610Y-84206599D01*
X106116610Y-84206601D01*
X106173955Y-84395643D01*
X106173956Y-84395647D01*
X106267086Y-84569881D01*
X106267089Y-84569885D01*
X106392410Y-84722589D01*
X106545114Y-84847910D01*
X106545118Y-84847913D01*
X106545122Y-84847916D01*
X106719350Y-84941042D01*
X106719352Y-84941043D01*
X106719356Y-84941044D01*
X106750212Y-84950404D01*
X106908397Y-84998389D01*
X107105000Y-85017753D01*
X107301603Y-84998389D01*
X107490650Y-84941042D01*
X107664878Y-84847916D01*
X107817589Y-84722589D01*
X107942916Y-84569878D01*
X108036042Y-84395650D01*
X108093389Y-84206603D01*
X108112753Y-84010000D01*
X111177247Y-84010000D01*
X111196610Y-84206599D01*
X111196610Y-84206601D01*
X111253955Y-84395643D01*
X111253956Y-84395647D01*
X111347086Y-84569881D01*
X111347089Y-84569885D01*
X111472410Y-84722589D01*
X111625114Y-84847910D01*
X111625118Y-84847913D01*
X111625122Y-84847916D01*
X111799350Y-84941042D01*
X111799352Y-84941043D01*
X111799356Y-84941044D01*
X111830212Y-84950404D01*
X111988397Y-84998389D01*
X112185000Y-85017753D01*
X112381603Y-84998389D01*
X112570650Y-84941042D01*
X112744878Y-84847916D01*
X112897589Y-84722589D01*
X113022916Y-84569878D01*
X113116042Y-84395650D01*
X113173389Y-84206603D01*
X113192753Y-84010000D01*
X113717247Y-84010000D01*
X113736610Y-84206599D01*
X113736610Y-84206601D01*
X113793955Y-84395643D01*
X113793956Y-84395647D01*
X113887086Y-84569881D01*
X113887089Y-84569885D01*
X114012410Y-84722589D01*
X114165114Y-84847910D01*
X114165118Y-84847913D01*
X114165122Y-84847916D01*
X114339350Y-84941042D01*
X114339352Y-84941043D01*
X114339356Y-84941044D01*
X114370212Y-84950404D01*
X114528397Y-84998389D01*
X114725000Y-85017753D01*
X114921603Y-84998389D01*
X115110650Y-84941042D01*
X115284878Y-84847916D01*
X115437589Y-84722589D01*
X115562916Y-84569878D01*
X115656042Y-84395650D01*
X115713389Y-84206603D01*
X115732753Y-84010000D01*
X116257247Y-84010000D01*
X116276610Y-84206599D01*
X116276610Y-84206601D01*
X116333955Y-84395643D01*
X116333956Y-84395647D01*
X116427086Y-84569881D01*
X116427089Y-84569885D01*
X116552410Y-84722589D01*
X116705114Y-84847910D01*
X116705118Y-84847913D01*
X116705122Y-84847916D01*
X116879350Y-84941042D01*
X116879352Y-84941043D01*
X116879356Y-84941044D01*
X116910212Y-84950404D01*
X117068397Y-84998389D01*
X117265000Y-85017753D01*
X117461603Y-84998389D01*
X117650650Y-84941042D01*
X117824878Y-84847916D01*
X117977589Y-84722589D01*
X118102916Y-84569878D01*
X118196042Y-84395650D01*
X118253389Y-84206603D01*
X118272753Y-84010000D01*
X121337247Y-84010000D01*
X121356610Y-84206599D01*
X121356610Y-84206601D01*
X121413955Y-84395643D01*
X121413956Y-84395647D01*
X121507086Y-84569881D01*
X121507089Y-84569885D01*
X121632410Y-84722589D01*
X121785114Y-84847910D01*
X121785118Y-84847913D01*
X121785122Y-84847916D01*
X121959350Y-84941042D01*
X121959352Y-84941043D01*
X121959356Y-84941044D01*
X121990212Y-84950404D01*
X122148397Y-84998389D01*
X122345000Y-85017753D01*
X122541603Y-84998389D01*
X122730650Y-84941042D01*
X122904878Y-84847916D01*
X123057589Y-84722589D01*
X123182916Y-84569878D01*
X123276042Y-84395650D01*
X123333389Y-84206603D01*
X123352753Y-84010000D01*
X123333389Y-83813397D01*
X123276042Y-83624350D01*
X123182916Y-83450122D01*
X123182913Y-83450118D01*
X123182910Y-83450114D01*
X123057589Y-83297410D01*
X122904885Y-83172089D01*
X122904881Y-83172086D01*
X122904879Y-83172085D01*
X122904878Y-83172084D01*
X122812159Y-83122525D01*
X122730647Y-83078956D01*
X122730643Y-83078955D01*
X122541600Y-83021610D01*
X122345000Y-83002247D01*
X122148400Y-83021610D01*
X122148398Y-83021610D01*
X121959356Y-83078955D01*
X121959352Y-83078956D01*
X121785118Y-83172086D01*
X121785114Y-83172089D01*
X121632410Y-83297410D01*
X121507089Y-83450114D01*
X121507086Y-83450118D01*
X121413956Y-83624352D01*
X121413955Y-83624356D01*
X121356610Y-83813398D01*
X121356610Y-83813400D01*
X121337247Y-84010000D01*
X118272753Y-84010000D01*
X118253389Y-83813397D01*
X118196042Y-83624350D01*
X118102916Y-83450122D01*
X118102913Y-83450118D01*
X118102910Y-83450114D01*
X117977589Y-83297410D01*
X117824885Y-83172089D01*
X117824881Y-83172086D01*
X117824879Y-83172085D01*
X117824878Y-83172084D01*
X117732159Y-83122525D01*
X117650647Y-83078956D01*
X117650643Y-83078955D01*
X117461600Y-83021610D01*
X117265000Y-83002247D01*
X117068400Y-83021610D01*
X117068398Y-83021610D01*
X116879356Y-83078955D01*
X116879352Y-83078956D01*
X116705118Y-83172086D01*
X116705114Y-83172089D01*
X116552410Y-83297410D01*
X116427089Y-83450114D01*
X116427086Y-83450118D01*
X116333956Y-83624352D01*
X116333955Y-83624356D01*
X116276610Y-83813398D01*
X116276610Y-83813400D01*
X116257247Y-84010000D01*
X115732753Y-84010000D01*
X115713389Y-83813397D01*
X115656042Y-83624350D01*
X115562916Y-83450122D01*
X115562913Y-83450118D01*
X115562910Y-83450114D01*
X115437589Y-83297410D01*
X115284885Y-83172089D01*
X115284881Y-83172086D01*
X115284879Y-83172085D01*
X115284878Y-83172084D01*
X115192159Y-83122525D01*
X115110647Y-83078956D01*
X115110643Y-83078955D01*
X114921600Y-83021610D01*
X114725000Y-83002247D01*
X114528400Y-83021610D01*
X114528398Y-83021610D01*
X114339356Y-83078955D01*
X114339352Y-83078956D01*
X114165118Y-83172086D01*
X114165114Y-83172089D01*
X114012410Y-83297410D01*
X113887089Y-83450114D01*
X113887086Y-83450118D01*
X113793956Y-83624352D01*
X113793955Y-83624356D01*
X113736610Y-83813398D01*
X113736610Y-83813400D01*
X113717247Y-84010000D01*
X113192753Y-84010000D01*
X113173389Y-83813397D01*
X113116042Y-83624350D01*
X113022916Y-83450122D01*
X113022913Y-83450118D01*
X113022910Y-83450114D01*
X112897589Y-83297410D01*
X112744885Y-83172089D01*
X112744881Y-83172086D01*
X112744879Y-83172085D01*
X112744878Y-83172084D01*
X112652159Y-83122525D01*
X112570647Y-83078956D01*
X112570643Y-83078955D01*
X112381600Y-83021610D01*
X112185000Y-83002247D01*
X111988400Y-83021610D01*
X111988398Y-83021610D01*
X111799356Y-83078955D01*
X111799352Y-83078956D01*
X111625118Y-83172086D01*
X111625114Y-83172089D01*
X111472410Y-83297410D01*
X111347089Y-83450114D01*
X111347086Y-83450118D01*
X111253956Y-83624352D01*
X111253955Y-83624356D01*
X111196610Y-83813398D01*
X111196610Y-83813400D01*
X111177247Y-84010000D01*
X108112753Y-84010000D01*
X108093389Y-83813397D01*
X108036042Y-83624350D01*
X107942916Y-83450122D01*
X107942913Y-83450118D01*
X107942910Y-83450114D01*
X107817589Y-83297410D01*
X107664885Y-83172089D01*
X107664881Y-83172086D01*
X107664879Y-83172085D01*
X107664878Y-83172084D01*
X107572159Y-83122525D01*
X107490647Y-83078956D01*
X107490643Y-83078955D01*
X107301600Y-83021610D01*
X107105000Y-83002247D01*
X106908400Y-83021610D01*
X106908398Y-83021610D01*
X106719356Y-83078955D01*
X106719352Y-83078956D01*
X106545118Y-83172086D01*
X106545114Y-83172089D01*
X106392410Y-83297410D01*
X106267089Y-83450114D01*
X106267086Y-83450118D01*
X106173956Y-83624352D01*
X106173955Y-83624356D01*
X106116610Y-83813398D01*
X106116610Y-83813400D01*
X106097247Y-84010000D01*
X105572753Y-84010000D01*
X105553389Y-83813397D01*
X105496042Y-83624350D01*
X105402916Y-83450122D01*
X105402913Y-83450118D01*
X105402910Y-83450114D01*
X105277589Y-83297410D01*
X105124885Y-83172089D01*
X105124881Y-83172086D01*
X105124879Y-83172085D01*
X105124878Y-83172084D01*
X105032159Y-83122525D01*
X104950647Y-83078956D01*
X104950643Y-83078955D01*
X104761600Y-83021610D01*
X104565000Y-83002247D01*
X104368400Y-83021610D01*
X104368398Y-83021610D01*
X104179356Y-83078955D01*
X104179352Y-83078956D01*
X104005118Y-83172086D01*
X104005114Y-83172089D01*
X103852410Y-83297410D01*
X103727089Y-83450114D01*
X103727086Y-83450118D01*
X103633956Y-83624352D01*
X103633955Y-83624356D01*
X103576610Y-83813398D01*
X103576610Y-83813400D01*
X103557247Y-84010000D01*
X102022233Y-84010000D01*
X101877285Y-83770226D01*
X101877279Y-83770218D01*
X101877274Y-83770211D01*
X101679358Y-83517590D01*
X101679347Y-83517578D01*
X101452421Y-83290652D01*
X101452409Y-83290641D01*
X101199788Y-83092725D01*
X101199781Y-83092720D01*
X101199778Y-83092718D01*
X101199774Y-83092715D01*
X100925118Y-82926680D01*
X100632451Y-82794962D01*
X100632445Y-82794960D01*
X100326044Y-82699480D01*
X100326030Y-82699477D01*
X100010355Y-82641628D01*
X100010359Y-82641628D01*
X99690000Y-82622251D01*
X99369642Y-82641628D01*
X99053969Y-82699477D01*
X99053955Y-82699480D01*
X98747554Y-82794960D01*
X98747550Y-82794961D01*
X98747549Y-82794962D01*
X98454882Y-82926680D01*
X98297847Y-83021611D01*
X98180218Y-83092720D01*
X98180211Y-83092725D01*
X97927590Y-83290641D01*
X97927578Y-83290652D01*
X97700652Y-83517578D01*
X97700641Y-83517590D01*
X97502725Y-83770211D01*
X97502720Y-83770218D01*
X97502715Y-83770225D01*
X97502715Y-83770226D01*
X97336680Y-84044882D01*
X97263898Y-84206599D01*
X97204960Y-84337554D01*
X97109480Y-84643955D01*
X97109477Y-84643969D01*
X97051628Y-84959642D01*
X97032251Y-85280000D01*
X96690500Y-85280000D01*
X96690500Y-84782275D01*
X96690637Y-84777735D01*
X96694591Y-84712366D01*
X96708450Y-84483246D01*
X96709542Y-84474251D01*
X96762313Y-84186290D01*
X96764479Y-84177503D01*
X96851574Y-83898003D01*
X96854793Y-83889518D01*
X96889052Y-83813398D01*
X96974939Y-83622563D01*
X96979149Y-83614541D01*
X97130606Y-83364002D01*
X97135755Y-83356544D01*
X97316300Y-83126094D01*
X97322307Y-83119314D01*
X97529314Y-82912307D01*
X97536094Y-82906300D01*
X97766544Y-82725755D01*
X97774002Y-82720606D01*
X98024541Y-82569149D01*
X98032563Y-82564939D01*
X98299523Y-82444790D01*
X98308003Y-82441574D01*
X98587503Y-82354479D01*
X98596290Y-82352313D01*
X98884251Y-82299542D01*
X98893246Y-82298450D01*
X99187735Y-82280636D01*
X99192275Y-82280500D01*
X99255892Y-82280500D01*
X124134300Y-82280500D01*
X124182638Y-82298093D01*
G37*
%TD.AperFunction*%
%TD*%
M02*
