%TF.GenerationSoftware,KiCad,Pcbnew,8.0.6*%
%TF.CreationDate,2024-11-01T15:47:02+09:00*%
%TF.ProjectId,powerups,706f7765-7275-4707-932e-6b696361645f,0.9.2*%
%TF.SameCoordinates,Original*%
%TF.FileFunction,Soldermask,Bot*%
%TF.FilePolarity,Negative*%
%FSLAX46Y46*%
G04 Gerber Fmt 4.6, Leading zero omitted, Abs format (unit mm)*
G04 Created by KiCad (PCBNEW 8.0.6) date 2024-11-01 15:47:02*
%MOMM*%
%LPD*%
G01*
G04 APERTURE LIST*
G04 Aperture macros list*
%AMRoundRect*
0 Rectangle with rounded corners*
0 $1 Rounding radius*
0 $2 $3 $4 $5 $6 $7 $8 $9 X,Y pos of 4 corners*
0 Add a 4 corners polygon primitive as box body*
4,1,4,$2,$3,$4,$5,$6,$7,$8,$9,$2,$3,0*
0 Add four circle primitives for the rounded corners*
1,1,$1+$1,$2,$3*
1,1,$1+$1,$4,$5*
1,1,$1+$1,$6,$7*
1,1,$1+$1,$8,$9*
0 Add four rect primitives between the rounded corners*
20,1,$1+$1,$2,$3,$4,$5,0*
20,1,$1+$1,$4,$5,$6,$7,0*
20,1,$1+$1,$6,$7,$8,$9,0*
20,1,$1+$1,$8,$9,$2,$3,0*%
G04 Aperture macros list end*
%ADD10C,0.100000*%
%ADD11C,5.000000*%
%ADD12R,1.700000X1.700000*%
%ADD13O,1.700000X1.700000*%
%ADD14R,0.350000X0.650000*%
%ADD15R,2.400000X2.400000*%
%ADD16C,2.400000*%
%ADD17RoundRect,0.135000X-0.135000X-0.185000X0.135000X-0.185000X0.135000X0.185000X-0.135000X0.185000X0*%
%ADD18RoundRect,0.250000X0.250000X0.475000X-0.250000X0.475000X-0.250000X-0.475000X0.250000X-0.475000X0*%
%ADD19RoundRect,0.135000X0.135000X0.185000X-0.135000X0.185000X-0.135000X-0.185000X0.135000X-0.185000X0*%
%ADD20RoundRect,0.250000X0.275000X-0.450000X0.275000X0.450000X-0.275000X0.450000X-0.275000X-0.450000X0*%
%ADD21C,0.250000*%
%ADD22RoundRect,0.250000X0.475000X-0.250000X0.475000X0.250000X-0.475000X0.250000X-0.475000X-0.250000X0*%
%ADD23RoundRect,0.050000X0.337500X0.050000X-0.337500X0.050000X-0.337500X-0.050000X0.337500X-0.050000X0*%
%ADD24R,1.780000X2.350000*%
%ADD25RoundRect,0.140000X-0.170000X0.140000X-0.170000X-0.140000X0.170000X-0.140000X0.170000X0.140000X0*%
%ADD26C,1.700000*%
%ADD27RoundRect,0.200000X-0.275000X0.200000X-0.275000X-0.200000X0.275000X-0.200000X0.275000X0.200000X0*%
%ADD28RoundRect,0.135000X0.185000X-0.135000X0.185000X0.135000X-0.185000X0.135000X-0.185000X-0.135000X0*%
%ADD29RoundRect,0.225000X0.250000X-0.225000X0.250000X0.225000X-0.250000X0.225000X-0.250000X-0.225000X0*%
%ADD30R,0.850000X0.850000*%
%ADD31O,0.850000X0.850000*%
%ADD32RoundRect,0.225000X-0.225000X-0.250000X0.225000X-0.250000X0.225000X0.250000X-0.225000X0.250000X0*%
%ADD33RoundRect,0.140000X0.140000X0.170000X-0.140000X0.170000X-0.140000X-0.170000X0.140000X-0.170000X0*%
%ADD34RoundRect,0.100000X-0.100000X0.225000X-0.100000X-0.225000X0.100000X-0.225000X0.100000X0.225000X0*%
%ADD35RoundRect,0.218750X0.256250X-0.218750X0.256250X0.218750X-0.256250X0.218750X-0.256250X-0.218750X0*%
%ADD36R,0.450000X1.750000*%
%ADD37RoundRect,0.200000X-0.200000X-0.275000X0.200000X-0.275000X0.200000X0.275000X-0.200000X0.275000X0*%
%ADD38RoundRect,0.200000X0.275000X-0.200000X0.275000X0.200000X-0.275000X0.200000X-0.275000X-0.200000X0*%
%ADD39RoundRect,0.140000X-0.140000X-0.170000X0.140000X-0.170000X0.140000X0.170000X-0.140000X0.170000X0*%
%ADD40R,1.000000X1.800000*%
%ADD41RoundRect,0.225000X-0.250000X0.225000X-0.250000X-0.225000X0.250000X-0.225000X0.250000X0.225000X0*%
%ADD42RoundRect,0.225000X0.225000X0.250000X-0.225000X0.250000X-0.225000X-0.250000X0.225000X-0.250000X0*%
%ADD43RoundRect,0.250000X-0.250000X-0.475000X0.250000X-0.475000X0.250000X0.475000X-0.250000X0.475000X0*%
%ADD44RoundRect,0.140000X0.170000X-0.140000X0.170000X0.140000X-0.170000X0.140000X-0.170000X-0.140000X0*%
%ADD45RoundRect,0.250000X-0.350000X-0.650000X0.350000X-0.650000X0.350000X0.650000X-0.350000X0.650000X0*%
%ADD46RoundRect,0.150000X-0.150000X-0.625000X0.150000X-0.625000X0.150000X0.625000X-0.150000X0.625000X0*%
%ADD47RoundRect,0.250000X-0.475000X0.250000X-0.475000X-0.250000X0.475000X-0.250000X0.475000X0.250000X0*%
%ADD48RoundRect,0.135000X-0.185000X0.135000X-0.185000X-0.135000X0.185000X-0.135000X0.185000X0.135000X0*%
%ADD49RoundRect,0.250000X0.850000X-0.375000X0.850000X0.375000X-0.850000X0.375000X-0.850000X-0.375000X0*%
%ADD50RoundRect,0.050000X-0.337500X-0.050000X0.337500X-0.050000X0.337500X0.050000X-0.337500X0.050000X0*%
%ADD51RoundRect,0.050000X-0.050000X-0.300000X0.050000X-0.300000X0.050000X0.300000X-0.050000X0.300000X0*%
%ADD52RoundRect,0.050000X-0.262500X-0.050000X0.262500X-0.050000X0.262500X0.050000X-0.262500X0.050000X0*%
%ADD53RoundRect,0.050000X-0.050000X-0.259500X0.050000X-0.259500X0.050000X0.259500X-0.050000X0.259500X0*%
%ADD54RoundRect,0.050000X-0.050000X-0.450000X0.050000X-0.450000X0.050000X0.450000X-0.050000X0.450000X0*%
%ADD55RoundRect,0.050000X-0.362500X-0.050000X0.362500X-0.050000X0.362500X0.050000X-0.362500X0.050000X0*%
%ADD56RoundRect,0.050000X-0.250000X-0.050000X0.250000X-0.050000X0.250000X0.050000X-0.250000X0.050000X0*%
G04 APERTURE END LIST*
%TO.C,Q3*%
D10*
X148990000Y-108170000D02*
X149290000Y-108170000D01*
X149290000Y-110370000D01*
X148990000Y-110370000D01*
X148990000Y-108170000D01*
G36*
X148990000Y-108170000D02*
G01*
X149290000Y-108170000D01*
X149290000Y-110370000D01*
X148990000Y-110370000D01*
X148990000Y-108170000D01*
G37*
X148990000Y-108530000D02*
X149940000Y-108530000D01*
X149940000Y-110010000D01*
X148990000Y-110010000D01*
X148990000Y-108530000D01*
G36*
X148990000Y-108530000D02*
G01*
X149940000Y-108530000D01*
X149940000Y-110010000D01*
X148990000Y-110010000D01*
X148990000Y-108530000D01*
G37*
X149640000Y-108170000D02*
X149940000Y-108170000D01*
X149940000Y-110370000D01*
X149640000Y-110370000D01*
X149640000Y-108170000D01*
G36*
X149640000Y-108170000D02*
G01*
X149940000Y-108170000D01*
X149940000Y-110370000D01*
X149640000Y-110370000D01*
X149640000Y-108170000D01*
G37*
X150290000Y-108170000D02*
X150590000Y-108170000D01*
X150590000Y-108570000D01*
X150290000Y-108570000D01*
X150290000Y-108170000D01*
G36*
X150290000Y-108170000D02*
G01*
X150590000Y-108170000D01*
X150590000Y-108570000D01*
X150290000Y-108570000D01*
X150290000Y-108170000D01*
G37*
X150290000Y-109970000D02*
X150590000Y-109970000D01*
X150590000Y-110370000D01*
X150290000Y-110370000D01*
X150290000Y-109970000D01*
G36*
X150290000Y-109970000D02*
G01*
X150590000Y-109970000D01*
X150590000Y-110370000D01*
X150290000Y-110370000D01*
X150290000Y-109970000D01*
G37*
X150350000Y-108860000D02*
X150530000Y-108860000D01*
X150530000Y-109680000D01*
X150350000Y-109680000D01*
X150350000Y-108860000D01*
G36*
X150350000Y-108860000D02*
G01*
X150530000Y-108860000D01*
X150530000Y-109680000D01*
X150350000Y-109680000D01*
X150350000Y-108860000D01*
G37*
%TO.C,Q2*%
X150590000Y-104290000D02*
X150190000Y-104290000D01*
X150190000Y-104590000D01*
X150590000Y-104590000D01*
X150590000Y-104290000D01*
G36*
X150590000Y-104290000D02*
G01*
X150190000Y-104290000D01*
X150190000Y-104590000D01*
X150590000Y-104590000D01*
X150590000Y-104290000D01*
G37*
X151700000Y-104350000D02*
X150880000Y-104350000D01*
X150880000Y-104530000D01*
X151700000Y-104530000D01*
X151700000Y-104350000D01*
G36*
X151700000Y-104350000D02*
G01*
X150880000Y-104350000D01*
X150880000Y-104530000D01*
X151700000Y-104530000D01*
X151700000Y-104350000D01*
G37*
X152030000Y-102990000D02*
X150550000Y-102990000D01*
X150550000Y-103940000D01*
X152030000Y-103940000D01*
X152030000Y-102990000D01*
G36*
X152030000Y-102990000D02*
G01*
X150550000Y-102990000D01*
X150550000Y-103940000D01*
X152030000Y-103940000D01*
X152030000Y-102990000D01*
G37*
X152390000Y-102990000D02*
X150190000Y-102990000D01*
X150190000Y-103290000D01*
X152390000Y-103290000D01*
X152390000Y-102990000D01*
G36*
X152390000Y-102990000D02*
G01*
X150190000Y-102990000D01*
X150190000Y-103290000D01*
X152390000Y-103290000D01*
X152390000Y-102990000D01*
G37*
X152390000Y-103640000D02*
X150190000Y-103640000D01*
X150190000Y-103940000D01*
X152390000Y-103940000D01*
X152390000Y-103640000D01*
G36*
X152390000Y-103640000D02*
G01*
X150190000Y-103640000D01*
X150190000Y-103940000D01*
X152390000Y-103940000D01*
X152390000Y-103640000D01*
G37*
X152390000Y-104290000D02*
X151990000Y-104290000D01*
X151990000Y-104590000D01*
X152390000Y-104590000D01*
X152390000Y-104290000D01*
G36*
X152390000Y-104290000D02*
G01*
X151990000Y-104290000D01*
X151990000Y-104590000D01*
X152390000Y-104590000D01*
X152390000Y-104290000D01*
G37*
%TD*%
D11*
%TO.C,H1*%
X99690000Y-85280000D03*
%TD*%
%TO.C,H2*%
X157690000Y-85280000D03*
%TD*%
%TO.C,H4*%
X157690000Y-108780000D03*
%TD*%
%TO.C,H3*%
X99690000Y-108780000D03*
%TD*%
D12*
%TO.C,CONN4*%
X104565000Y-86550000D03*
D13*
X104565000Y-84010000D03*
X107105000Y-86550000D03*
X107105000Y-84010000D03*
X109645000Y-86550000D03*
X109645000Y-84010000D03*
X112185000Y-86550000D03*
X112185000Y-84010000D03*
X114725000Y-86550000D03*
X114725000Y-84010000D03*
X117265000Y-86550000D03*
X117265000Y-84010000D03*
X119805000Y-86550000D03*
X119805000Y-84010000D03*
X122345000Y-86550000D03*
X122345000Y-84010000D03*
%TD*%
D12*
%TO.C,CONN3*%
X119890000Y-110140000D03*
D13*
X117350000Y-110140000D03*
X114810000Y-110140000D03*
X112270000Y-110140000D03*
X109730000Y-110140000D03*
X107190000Y-110140000D03*
X104650000Y-110140000D03*
%TD*%
D12*
%TO.C,CONN5*%
X116380000Y-92300000D03*
D13*
X116380000Y-94840000D03*
X116380000Y-97380000D03*
X116380000Y-99920000D03*
%TD*%
D14*
%TO.C,U5*%
X154052500Y-108757500D03*
X153402500Y-108757500D03*
X152752500Y-108757500D03*
X152752500Y-106657500D03*
X153402500Y-106657500D03*
X154052500Y-106657500D03*
%TD*%
D15*
%TO.C,CONN1*%
X126940000Y-96800000D03*
D16*
X130440000Y-96800000D03*
%TD*%
D17*
%TO.C,R27*%
X97140000Y-105300000D03*
X98160000Y-105300000D03*
%TD*%
D18*
%TO.C,C13*%
X125820000Y-110730000D03*
X123920000Y-110730000D03*
%TD*%
D19*
%TO.C,R19*%
X107660000Y-90270000D03*
X106640000Y-90270000D03*
%TD*%
D20*
%TO.C,BTN1*%
X98375000Y-98830000D03*
X98375000Y-95230000D03*
X96935000Y-98830000D03*
X96935000Y-95230000D03*
%TD*%
D21*
%TO.C,U1*%
X138800000Y-100220000D03*
X138400000Y-100220000D03*
X138000000Y-100220000D03*
X137600000Y-100220000D03*
X138800000Y-100620000D03*
X138400000Y-100620000D03*
X138000000Y-100620000D03*
X137600000Y-100620000D03*
X138800000Y-101020000D03*
X138400000Y-101020000D03*
X138000000Y-101020000D03*
X137600000Y-101020000D03*
X138800000Y-101420000D03*
X138400000Y-101420000D03*
X138000000Y-101420000D03*
X137600000Y-101420000D03*
X138800000Y-101820000D03*
X138400000Y-101820000D03*
X138000000Y-101820000D03*
X137600000Y-101820000D03*
%TD*%
D22*
%TO.C,C2*%
X135030000Y-98850000D03*
X135030000Y-96950000D03*
%TD*%
D23*
%TO.C,U7*%
X123312500Y-91030000D03*
X123312500Y-91430000D03*
X123312500Y-91830000D03*
X123312500Y-92230000D03*
X123312500Y-92630000D03*
X123312500Y-93030000D03*
X123312500Y-93430000D03*
X120337500Y-93430000D03*
X120337500Y-93030000D03*
X120337500Y-92630000D03*
X120337500Y-92230000D03*
X120337500Y-91830000D03*
X120337500Y-91430000D03*
X120337500Y-91030000D03*
D24*
X121825000Y-92230000D03*
%TD*%
D25*
%TO.C,C5*%
X109850000Y-102700000D03*
X109850000Y-103660000D03*
%TD*%
D26*
%TO.C,R4*%
X140020000Y-106470000D03*
D27*
X142550000Y-106895000D03*
X142550000Y-108545000D03*
D13*
X140020000Y-109010000D03*
%TD*%
D28*
%TO.C,R30*%
X119410000Y-98700000D03*
X119410000Y-97680000D03*
%TD*%
D29*
%TO.C,C17*%
X123070000Y-107860000D03*
X123070000Y-106310000D03*
%TD*%
D19*
%TO.C,R6*%
X138580000Y-103760000D03*
X137560000Y-103760000D03*
%TD*%
D15*
%TO.C,CONN7*%
X146190000Y-95275000D03*
D16*
X146190000Y-98775000D03*
%TD*%
D30*
%TO.C,CONN2*%
X101580000Y-90720000D03*
D31*
X101580000Y-91720000D03*
%TD*%
D29*
%TO.C,C11*%
X142660000Y-103620000D03*
X142660000Y-102070000D03*
%TD*%
D32*
%TO.C,C21*%
X111630000Y-89680000D03*
X113180000Y-89680000D03*
%TD*%
D28*
%TO.C,R15*%
X139550000Y-86260000D03*
X139550000Y-85240000D03*
%TD*%
D33*
%TO.C,C14*%
X124910000Y-109130000D03*
X123950000Y-109130000D03*
%TD*%
D34*
%TO.C,Q1*%
X99460000Y-100670000D03*
X100110000Y-100670000D03*
X100760000Y-100670000D03*
X100760000Y-102570000D03*
X100110000Y-102570000D03*
X99460000Y-102570000D03*
%TD*%
D17*
%TO.C,R26*%
X104290000Y-103060000D03*
X105310000Y-103060000D03*
%TD*%
D35*
%TO.C,LED2*%
X97050000Y-103850000D03*
X97050000Y-102275000D03*
%TD*%
%TO.C,LED1*%
X97020000Y-91777500D03*
X97020000Y-90202500D03*
%TD*%
D17*
%TO.C,R14*%
X140500000Y-87140000D03*
X141520000Y-87140000D03*
%TD*%
%TO.C,R11*%
X122950000Y-105020000D03*
X123970000Y-105020000D03*
%TD*%
D33*
%TO.C,C19*%
X123270000Y-89930000D03*
X122310000Y-89930000D03*
%TD*%
D36*
%TO.C,U4*%
X104700000Y-93100000D03*
X105350000Y-93100000D03*
X106000000Y-93100000D03*
X106650000Y-93100000D03*
X107300000Y-93100000D03*
X107950000Y-93100000D03*
X108600000Y-93100000D03*
X109250000Y-93100000D03*
X109900000Y-93100000D03*
X110550000Y-93100000D03*
X111200000Y-93100000D03*
X111850000Y-93100000D03*
X112500000Y-93100000D03*
X113150000Y-93100000D03*
X113150000Y-100300000D03*
X112500000Y-100300000D03*
X111850000Y-100300000D03*
X111200000Y-100300000D03*
X110550000Y-100300000D03*
X109900000Y-100300000D03*
X109250000Y-100300000D03*
X108600000Y-100300000D03*
X107950000Y-100300000D03*
X107300000Y-100300000D03*
X106650000Y-100300000D03*
X106000000Y-100300000D03*
X105350000Y-100300000D03*
X104700000Y-100300000D03*
%TD*%
D17*
%TO.C,R28*%
X123970000Y-103980000D03*
X124990000Y-103980000D03*
%TD*%
D26*
%TO.C,R13*%
X142270000Y-90640000D03*
D37*
X142695000Y-88110000D03*
X144345000Y-88110000D03*
D13*
X144810000Y-90640000D03*
%TD*%
D26*
%TO.C,R5*%
X138170000Y-94360000D03*
D27*
X140700000Y-94785000D03*
X140700000Y-96435000D03*
D13*
X138170000Y-96900000D03*
%TD*%
D38*
%TO.C,R12*%
X123620000Y-99750000D03*
X123620000Y-98100000D03*
%TD*%
D26*
%TO.C,R24*%
X145286250Y-104245000D03*
D27*
X147816250Y-104670000D03*
X147816250Y-106320000D03*
D13*
X145286250Y-106785000D03*
%TD*%
D19*
%TO.C,R7*%
X99290000Y-90660000D03*
X98270000Y-90660000D03*
%TD*%
D39*
%TO.C,C9*%
X136640000Y-104840000D03*
X137600000Y-104840000D03*
%TD*%
D17*
%TO.C,R25*%
X116650000Y-102370000D03*
X117670000Y-102370000D03*
%TD*%
D40*
%TO.C,Y1*%
X111180000Y-102920000D03*
X113680000Y-102920000D03*
%TD*%
D12*
%TO.C,TP1*%
X158590000Y-103700000D03*
%TD*%
D39*
%TO.C,C10*%
X108930000Y-90300000D03*
X109890000Y-90300000D03*
%TD*%
D41*
%TO.C,C6*%
X147540000Y-88040000D03*
X147540000Y-89590000D03*
%TD*%
D21*
%TO.C,U3*%
X141735000Y-85335000D03*
X142135000Y-85335000D03*
X142535000Y-85335000D03*
X142935000Y-85335000D03*
X141735000Y-84935000D03*
X142135000Y-84935000D03*
X142535000Y-84935000D03*
X142935000Y-84935000D03*
X141735000Y-84535000D03*
X142135000Y-84535000D03*
X142535000Y-84535000D03*
X142935000Y-84535000D03*
X141735000Y-84135000D03*
X142135000Y-84135000D03*
X142535000Y-84135000D03*
X142935000Y-84135000D03*
%TD*%
D22*
%TO.C,C7*%
X149950000Y-85260000D03*
X149950000Y-83360000D03*
%TD*%
D42*
%TO.C,C15*%
X127725000Y-101310000D03*
X126175000Y-101310000D03*
%TD*%
D39*
%TO.C,C22*%
X112220000Y-91230000D03*
X113180000Y-91230000D03*
%TD*%
D43*
%TO.C,C1*%
X155980000Y-89500000D03*
X157880000Y-89500000D03*
%TD*%
D44*
%TO.C,C23*%
X108780000Y-103650000D03*
X108780000Y-102690000D03*
%TD*%
D26*
%TO.C,R18*%
X150986250Y-88155000D03*
D27*
X153516250Y-88580000D03*
X153516250Y-90230000D03*
D13*
X150986250Y-90695000D03*
%TD*%
D45*
%TO.C,CONN6*%
X133810000Y-86940000D03*
X137410000Y-86940000D03*
D46*
X135110000Y-90815000D03*
X136110000Y-90815000D03*
%TD*%
D47*
%TO.C,C3*%
X137100000Y-107920000D03*
X137100000Y-109820000D03*
%TD*%
D39*
%TO.C,C16*%
X124410000Y-107240000D03*
X125370000Y-107240000D03*
%TD*%
D25*
%TO.C,C20*%
X119000000Y-93790000D03*
X119000000Y-94750000D03*
%TD*%
D48*
%TO.C,R23*%
X155210000Y-102210000D03*
X155210000Y-103230000D03*
%TD*%
D19*
%TO.C,R21*%
X108630000Y-91360000D03*
X107610000Y-91360000D03*
%TD*%
D28*
%TO.C,R29*%
X121990000Y-105080000D03*
X121990000Y-104060000D03*
%TD*%
D25*
%TO.C,C12*%
X127210000Y-110510000D03*
X127210000Y-111470000D03*
%TD*%
D49*
%TO.C,L2*%
X132600000Y-105970000D03*
X132600000Y-103820000D03*
%TD*%
D19*
%TO.C,R10*%
X99290000Y-92660000D03*
X98270000Y-92660000D03*
%TD*%
%TO.C,R22*%
X119150000Y-103430000D03*
X118130000Y-103430000D03*
%TD*%
D43*
%TO.C,C18*%
X131310000Y-101460000D03*
X133210000Y-101460000D03*
%TD*%
D22*
%TO.C,C8*%
X153010000Y-85260000D03*
X153010000Y-83360000D03*
%TD*%
D38*
%TO.C,R17*%
X122020000Y-99745000D03*
X122020000Y-98095000D03*
%TD*%
D30*
%TO.C,CONN8*%
X134110000Y-94920000D03*
D31*
X135110000Y-94920000D03*
%TD*%
D17*
%TO.C,R1*%
X140620000Y-98280000D03*
X141640000Y-98280000D03*
%TD*%
D44*
%TO.C,C4*%
X115000000Y-103690000D03*
X115000000Y-102730000D03*
%TD*%
D17*
%TO.C,R20*%
X119130000Y-104640000D03*
X120150000Y-104640000D03*
%TD*%
D19*
%TO.C,R8*%
X99290000Y-91680000D03*
X98270000Y-91680000D03*
%TD*%
D48*
%TO.C,R2*%
X102750000Y-93500000D03*
X102750000Y-94520000D03*
%TD*%
D50*
%TO.C,U6*%
X126672000Y-106420000D03*
D51*
X126960000Y-106670000D03*
D52*
X126597000Y-105963000D03*
X126597000Y-105563000D03*
X126597000Y-105163000D03*
D50*
X126672000Y-104720000D03*
D51*
X126960000Y-104470000D03*
D53*
X127360000Y-104420000D03*
X127760000Y-104420000D03*
D54*
X128160000Y-104610000D03*
X128560000Y-104610000D03*
D51*
X128960000Y-104470000D03*
D55*
X129273000Y-104720000D03*
D56*
X129385000Y-105163000D03*
X129385000Y-105563000D03*
X129385000Y-105963000D03*
D51*
X128960000Y-106670000D03*
D55*
X129273000Y-106420000D03*
D54*
X128560000Y-106520000D03*
X128160000Y-106520000D03*
X127760000Y-106520000D03*
D53*
X127360000Y-106700000D03*
%TD*%
D49*
%TO.C,L1*%
X146900000Y-86050000D03*
X146900000Y-83900000D03*
%TD*%
D19*
%TO.C,R9*%
X99290000Y-89650000D03*
X98270000Y-89650000D03*
%TD*%
D28*
%TO.C,R3*%
X101200000Y-96400000D03*
X101200000Y-95380000D03*
%TD*%
M02*
