%TF.GenerationSoftware,KiCad,Pcbnew,8.0.5-dirty*%
%TF.CreationDate,2024-10-26T15:13:39+09:00*%
%TF.ProjectId,powerups,706f7765-7275-4707-932e-6b696361645f,rev?*%
%TF.SameCoordinates,Original*%
%TF.FileFunction,Soldermask,Top*%
%TF.FilePolarity,Negative*%
%FSLAX46Y46*%
G04 Gerber Fmt 4.6, Leading zero omitted, Abs format (unit mm)*
G04 Created by KiCad (PCBNEW 8.0.5-dirty) date 2024-10-26 15:13:39*
%MOMM*%
%LPD*%
G01*
G04 APERTURE LIST*
%ADD10C,5.000000*%
%ADD11R,1.700000X1.700000*%
%ADD12O,1.700000X1.700000*%
%ADD13R,2.400000X2.400000*%
%ADD14C,2.400000*%
%ADD15C,1.700000*%
%ADD16R,0.850000X0.850000*%
%ADD17O,0.850000X0.850000*%
G04 APERTURE END LIST*
D10*
%TO.C,H1*%
X99690000Y-85280000D03*
%TD*%
%TO.C,H2*%
X157690000Y-85280000D03*
%TD*%
%TO.C,H4*%
X157690000Y-108780000D03*
%TD*%
%TO.C,H3*%
X99690000Y-108780000D03*
%TD*%
D11*
%TO.C,CONN4*%
X104565000Y-86550000D03*
D12*
X104565000Y-84010000D03*
X107105000Y-86550000D03*
X107105000Y-84010000D03*
X109645000Y-86550000D03*
X109645000Y-84010000D03*
X112185000Y-86550000D03*
X112185000Y-84010000D03*
X114725000Y-86550000D03*
X114725000Y-84010000D03*
X117265000Y-86550000D03*
X117265000Y-84010000D03*
X119805000Y-86550000D03*
X119805000Y-84010000D03*
X122345000Y-86550000D03*
X122345000Y-84010000D03*
%TD*%
D11*
%TO.C,CONN3*%
X119890000Y-110140000D03*
D12*
X117350000Y-110140000D03*
X114810000Y-110140000D03*
X112270000Y-110140000D03*
X109730000Y-110140000D03*
X107190000Y-110140000D03*
X104650000Y-110140000D03*
%TD*%
D11*
%TO.C,CONN5*%
X116380000Y-92300000D03*
D12*
X116380000Y-94840000D03*
X116380000Y-97380000D03*
X116380000Y-99920000D03*
%TD*%
D13*
%TO.C,CONN1*%
X126940000Y-96800000D03*
D14*
X130440000Y-96800000D03*
%TD*%
D15*
%TO.C,R4*%
X140020000Y-106470000D03*
D12*
X140020000Y-109010000D03*
%TD*%
D13*
%TO.C,CONN7*%
X146190000Y-95275000D03*
D14*
X146190000Y-98775000D03*
%TD*%
D16*
%TO.C,CONN2*%
X101580000Y-90720000D03*
D17*
X101580000Y-91720000D03*
%TD*%
D15*
%TO.C,R13*%
X142270000Y-90640000D03*
D12*
X144810000Y-90640000D03*
%TD*%
D15*
%TO.C,R5*%
X138170000Y-94360000D03*
D12*
X138170000Y-96900000D03*
%TD*%
D15*
%TO.C,R24*%
X145286250Y-104245000D03*
D12*
X145286250Y-106785000D03*
%TD*%
D11*
%TO.C,TP1*%
X158590000Y-103700000D03*
%TD*%
D15*
%TO.C,R18*%
X150986250Y-88155000D03*
D12*
X150986250Y-90695000D03*
%TD*%
D16*
%TO.C,CONN8*%
X134110000Y-94920000D03*
D17*
X135110000Y-94920000D03*
%TD*%
M02*
