M48
; DRILL file {KiCad 8.0.5-dirty} date 2024-10-26T15:13:42+0900
; FORMAT={-:-/ absolute / inch / decimal}
; #@! TF.CreationDate,2024-10-26T15:13:42+09:00
; #@! TF.GenerationSoftware,Kicad,Pcbnew,8.0.5-dirty
; #@! TF.FileFunction,Plated,1,4,PTH
FMAT,2
INCH
; #@! TA.AperFunction,Plated,PTH,ViaDrill
T1C0.0118
; #@! TA.AperFunction,Plated,PTH,ComponentDrill
T2C0.0197
; #@! TA.AperFunction,Plated,PTH,ComponentDrill
T3C0.0394
; #@! TA.AperFunction,Plated,PTH,ComponentDrill
T4C0.0472
; #@! TA.AperFunction,Plated,PTH,ComponentDrill
T5C0.0984
%
G90
G05
T1
X3.828Y-4.1976
X3.8406Y-3.4827
X3.8839Y-4.0465
X3.885Y-3.6839
X3.8955Y-3.936
X3.9Y-4.0866
X3.9024Y-3.7906
X3.9173Y-3.8587
X3.9181Y-3.7122
X3.9217Y-3.9988
X3.9248Y-3.585
X3.9413Y-3.7567
X3.9512Y-3.6618
X3.9524Y-4.1063
X3.9551Y-3.6169
X3.978Y-3.9037
X3.9787Y-4.0633
X3.9839Y-3.8291
X3.9843Y-3.7197
X3.998Y-4.0276
X3.9986Y-3.8821
X3.9992Y-3.6717
X4.0148Y-3.7229
X4.0199Y-3.861
X4.0291Y-3.2669
X4.0437Y-3.6335
X4.0441Y-3.422
X4.0445Y-3.8401
X4.0469Y-3.7843
X4.0472Y-3.7476
X4.0622Y-3.8133
X4.0622Y-4.2787
X4.0622Y-4.3642
X4.0626Y-3.5378
X4.0969Y-3.902
X4.0974Y-3.5953
X4.1126Y-4.0228
X4.1185Y-3.5286
X4.1209Y-3.5709
X4.1217Y-3.785
X4.122Y-3.6205
X4.1342Y-4.1052
X4.1688Y-3.5551
X4.1707Y-3.8582
X4.1891Y-3.8348
X4.1896Y-4.083
X4.2089Y-3.8125
X4.2098Y-3.8665
X4.2149Y-4.1099
X4.2286Y-3.7901
X4.2346Y-4.0417
X4.239Y-3.5286
X4.25Y-3.7662
X4.263Y-3.8154
X4.276Y-3.7453
X4.2886Y-3.5286
X4.3031Y-3.7232
X4.3057Y-3.8777
X4.3228Y-3.6009
X4.3272Y-3.7713
X4.3272Y-3.8083
X4.3287Y-3.8484
X4.3524Y-3.7413
X4.3528Y-3.6009
X4.3783Y-3.8988
X4.3803Y-3.8039
X4.3843Y-3.5815
X4.4839Y-3.676
X4.4846Y-3.58
X4.4992Y-3.985
X4.5039Y-3.7323
X4.5134Y-3.8126
X4.5476Y-4.2047
X4.5929Y-4.0622
X4.6141Y-3.8858
X4.6307Y-4.1426
X4.6713Y-3.6488
X4.6803Y-4.1815
X4.6811Y-3.4976
X4.6815Y-4.0449
X4.687Y-3.7646
X4.7012Y-3.9335
X4.7028Y-3.7996
X4.7055Y-4.2402
X4.7159Y-3.7406
X4.7245Y-4.1546
X4.7398Y-4.024
X4.7437Y-3.5394
X4.7493Y-4.2399
X4.7689Y-3.4661
X4.7772Y-4.1982
X4.7969Y-3.6114
X4.8303Y-4.3031
X4.8437Y-4.0728
X4.8555Y-3.4933
X4.8661Y-3.3583
X4.8878Y-4.2437
X4.9358Y-4.2618
X4.9421Y-4.1445
X4.9575Y-4.2772
X4.9685Y-4.2539
X5.0141Y-4.1617
X5.0244Y-4.1409
X5.0276Y-3.9169
X5.064Y-4.1561
X5.0783Y-4.2536
X5.0795Y-4.0106
X5.0878Y-4.2
X5.0882Y-3.9386
X5.0894Y-4.1118
X5.1201Y-3.9787
X5.1217Y-4.2449
X5.1219Y-4.178
X5.1224Y-4.1317
X5.1295Y-3.9213
X5.141Y-4.1551
X5.1472Y-4.2209
X5.1756Y-3.9386
X5.1866Y-3.7272
X5.2335Y-3.8094
X5.2638Y-3.5622
X5.2886Y-4.3815
X5.3098Y-3.6906
X5.3134Y-3.4768
X5.3217Y-4.2614
X5.348Y-4.2409
X5.361Y-4.2122
X5.3618Y-4.3811
X5.3654Y-3.4114
X5.372Y-4.0924
X5.3945Y-3.652
X5.4252Y-3.9299
X5.4256Y-4.1961
X5.437Y-3.5126
X5.4484Y-4.1177
X5.4487Y-3.9116
X5.4567Y-4.1782
X5.4575Y-3.5654
X5.461Y-3.443
X5.4717Y-3.9307
X5.4996Y-3.2661
X5.4996Y-3.3244
X5.5232Y-3.5764
X5.5264Y-3.5311
X5.5315Y-3.622
X5.5465Y-3.3764
X5.5531Y-3.2906
X5.572Y-3.455
X5.5759Y-3.3935
X5.5862Y-3.626
X5.6154Y-3.2642
X5.6157Y-3.428
X5.6178Y-3.3937
X5.6472Y-4.378
X5.6618Y-3.3496
X5.6886Y-3.363
X5.7114Y-4.0071
X5.7142Y-3.3488
X5.7398Y-4.3327
X5.7988Y-3.6567
X5.8244Y-3.5957
X5.8374Y-4.3791
X5.8378Y-3.9547
X5.8386Y-4.048
X5.8559Y-3.5303
X5.8579Y-3.3055
X5.8917Y-3.4906
X5.9166Y-4.2403
X5.9472Y-3.3063
X5.9815Y-3.2551
X5.9929Y-4.1323
X6.0138Y-4.1736
X6.039Y-4.1071
X6.0442Y-4.0679
X6.0442Y-4.1526
X6.0795Y-4.3622
X6.0874Y-3.3071
X6.0933Y-4.2366
X6.1051Y-3.6146
X6.1087Y-4.1311
X6.1091Y-4.0898
X6.1106Y-3.2555
X6.1492Y-4.1618
X6.1689Y-4.0264
X6.2622Y-3.5969
X6.3016Y-3.4567
X6.3071Y-4.2008
T2
X3.9992Y-3.5717
X3.9992Y-3.611
X5.2799Y-3.737
X5.3193Y-3.737
T3
X4.1167Y-3.3075
X4.1167Y-3.4075
X4.1201Y-4.3362
X4.2167Y-3.3075
X4.2167Y-3.4075
X4.2201Y-4.3362
X4.3167Y-3.3075
X4.3167Y-3.4075
X4.3201Y-4.3362
X4.4167Y-3.3075
X4.4167Y-3.4075
X4.4201Y-4.3362
X4.5167Y-3.3075
X4.5167Y-3.4075
X4.5201Y-4.3362
X4.5819Y-3.6339
X4.5819Y-3.7339
X4.5819Y-3.8339
X4.5819Y-3.9339
X4.6167Y-3.3075
X4.6167Y-3.4075
X4.6201Y-4.3362
X4.7167Y-3.3075
X4.7167Y-3.4075
X4.7201Y-4.3362
X4.8167Y-3.3075
X4.8167Y-3.4075
X5.4398Y-3.715
X5.4398Y-3.815
X5.5126Y-4.1917
X5.5126Y-4.2917
X5.6012Y-3.5685
X5.7012Y-3.5685
X5.7199Y-4.1041
X5.7199Y-4.2041
X5.9443Y-3.4707
X5.9443Y-3.5707
X6.2437Y-4.0827
T4
X4.9976Y-3.811
X5.1354Y-3.811
X5.7555Y-3.751
X5.7555Y-3.8888
T5
X3.9248Y-3.3575
X3.9248Y-4.2827
X6.2083Y-3.3575
X6.2083Y-4.2827
M30
